<svg width="96" height="51" viewBox="0 0 96 51" fill="none" xmlns="http://www.w3.org/2000/svg">
<path d="M15.9626 7.27376C16.0872 6.06257 16.1351 5.95683 16.2405 5.83187C16.4897 5.4762 16.873 5.2455 17.3043 5.17821C17.8314 5.07247 18.3681 4.97635 18.9144 5.00518C20.2753 5.03402 21.617 5.00518 22.978 5.00518C23.1505 4.99557 23.323 5.0148 23.4859 5.08209C23.6392 5.15899 23.8118 5.28395 23.9938 5.11092C24.0418 5.06286 24.1951 5.08209 24.243 5.13976C24.3676 5.23589 24.4922 5.18782 24.6264 5.18782C24.7031 5.18782 24.7797 5.08209 24.8756 5.18782C24.9043 5.21666 25.0481 5.11092 25.1535 5.11092C25.2685 5.10131 25.3931 5.10131 25.5081 5.11092H26.1119C26.2365 5.11092 26.3611 5.15899 26.4952 5.15899C26.6102 5.15899 26.7348 5.13976 26.8498 5.11092H27.6549C27.7411 5.13015 27.8274 5.14937 27.9041 5.18782C27.9041 5.18782 27.952 5.13976 27.9807 5.13976H30.3C30.3288 5.13976 30.3767 5.18782 30.3959 5.21666C30.7409 5.0917 31.1147 5.0917 31.4597 5.21666C31.5076 5.18782 31.5843 5.13976 31.6322 5.12054L31.7376 5.21666C31.9676 5.06286 32.2168 5.1686 32.466 5.13976C32.696 5.11092 32.9164 5.18782 33.1752 5.06286L33.4819 5.21666C33.8077 5.12054 34.1432 5.04363 34.4403 5.18782C34.5265 5.14937 34.6223 5.13015 34.7182 5.11092H35.5711C35.6382 5.10131 35.7149 5.12054 35.7724 5.15899C35.9641 5.25511 36.1845 5.26473 36.3762 5.18782C36.6062 5.11092 36.8266 5.08209 37.0087 5.15899C37.1621 5.23589 37.2387 5.00518 37.3346 5.13015C37.4304 5.25511 37.5838 5.20705 37.7083 5.20705C37.8329 5.20705 37.9863 5.25511 38.0629 5.13015C38.293 5.15899 38.5421 5.05325 38.7434 5.20705C38.868 5.31279 39.0213 5.08209 39.1459 5.20705C39.2226 5.11092 39.3184 5.13015 39.4239 5.13015H42.759C42.8645 5.13976 42.9603 5.14937 43.0657 5.17821C43.0657 5.17821 43.0945 5.13015 43.1136 5.13015C43.4203 5.15899 43.7174 5.05325 44.0241 5.20705C44.1487 5.28395 44.3308 5.17821 44.4745 5.17821C44.7237 5.14937 45.5863 5.10131 45.8163 5.14937C45.845 5.14937 45.8642 5.19744 45.893 5.19744C46.0942 5.12054 46.4967 5.10131 46.7268 5.10131C47.1772 5.13015 47.6085 5.10131 48.0685 5.10131C48.1739 5.10131 48.2698 5.14937 48.3752 5.14937C48.4614 5.14937 48.5477 5.13015 48.6244 5.10131C48.6627 5.08209 48.701 5.06286 48.7489 5.05325C48.8352 5.08209 48.9119 5.10131 48.9981 5.10131C49.3815 5.10131 49.7265 5.13015 50.1099 5.10131C50.2824 5.10131 50.4357 5.19744 50.6178 5.13015C50.7711 5.08209 50.9724 5.13015 51.1449 5.13015H53.9434C54.0392 5.13015 54.1926 5.17821 54.2692 5.05325C54.4418 5.14937 54.6239 5.25511 54.8539 5.40891H55.3331L55.841 5.15899C56.0902 5.18782 56.3969 5.08209 56.6748 5.23589C56.7035 5.26473 56.7802 5.20705 56.8281 5.20705C57.0869 5.10131 57.384 5.11092 57.6332 5.23589C57.7194 5.20705 57.7961 5.17821 57.8824 5.15899C57.9878 5.11092 58.0836 5.28395 58.2082 5.18782C58.2849 5.11092 58.4574 5.15899 58.6107 5.15899H60.2783C60.4317 5.13015 60.585 5.20705 60.7288 5.08209C60.7767 5.03402 60.9588 5.13015 61.0834 5.15899C61.208 5.15899 61.3326 4.98596 61.438 5.11092C61.5626 5.20705 61.6392 4.98596 61.7638 5.13976C61.8117 5.18782 61.9938 5.1686 62.0897 5.18782C62.2143 5.21666 62.3389 5.11092 62.4443 5.11092C62.9139 5.08209 63.3835 5.08209 63.8531 5.11092H64.131C64.2844 5.11092 64.4569 5.03402 64.5815 5.18782C64.6102 5.21666 64.7348 5.18782 64.8115 5.13976C64.8977 5.07247 65.0319 5.08209 65.099 5.1686C65.099 5.17821 65.1086 5.17821 65.1086 5.18782C65.1853 5.15899 65.2332 5.11092 65.3098 5.11092H66.9295C67.0541 5.11092 67.1595 5.23589 67.3129 5.13976C67.4087 5.06286 67.5908 5.11092 67.7442 5.13976C67.84 5.13976 67.9167 5.18782 68.07 5.21666C68.0988 5.21666 68.1467 5.1686 68.2233 5.13976C68.2713 5.1686 68.3 5.21666 68.3479 5.21666C68.5684 5.12054 68.8271 5.11092 69.0571 5.18782C69.2584 5.26473 69.5076 5.26473 69.7855 5.28395C69.8909 5.23589 69.9868 5.18782 70.0922 5.13015C70.3414 5.25511 70.6193 5.22627 70.8972 5.17821C70.9643 5.14937 71.0314 5.13015 71.0985 5.13015C71.7023 5.13015 72.2869 5.08209 72.8907 5.15899C73.1686 5.18782 73.4178 5.23589 73.6957 5.23589C73.8011 5.38969 73.9257 5.18782 73.9737 5.23589C74.0982 5.34163 74.2228 5.31279 74.357 5.31279C74.4816 5.34163 74.6349 5.20705 74.6637 5.23589C74.817 5.36085 74.9129 5.15899 75.0471 5.23589L75.3537 5.38969L75.4304 5.31279L75.5262 5.41853C75.5837 5.38008 75.6413 5.34163 75.6988 5.31279H75.7467C75.8713 5.37046 75.9959 5.42814 76.13 5.46659C76.3025 5.51465 76.4846 5.69729 76.6859 5.49543H77.8455C77.8935 5.49543 77.9222 5.57233 77.9701 5.59155C78.0276 5.5531 78.0755 5.51465 78.1235 5.46659C78.4014 5.57233 78.6314 5.77419 78.8518 5.94722C79.0914 6.10102 79.2639 6.33173 79.3598 6.60088C79.3598 6.62972 79.331 6.64894 79.2831 6.72584C79.331 6.79313 79.3981 6.85081 79.4556 6.89887C79.4556 6.92771 79.4844 6.94693 79.4844 6.97577C79.4556 7.18725 79.4844 7.40834 79.5802 7.6102C79.6761 7.84091 79.6856 8.10045 79.609 8.34076C79.5323 8.54263 79.5611 8.77333 79.5802 8.99442C79.609 9.19629 79.5035 9.39815 79.6569 9.60002C79.7048 9.64808 79.6281 9.77304 79.6281 9.92685C79.6761 10.0326 79.6761 10.0326 79.6761 10.3017L79.8294 10.4555C79.7815 10.5613 79.7336 10.6574 79.6761 10.7631C79.7144 10.8689 79.7336 10.9842 79.7527 11.09C79.7815 11.2149 79.724 11.3687 79.7527 11.4937C79.8006 11.6187 79.5994 11.6667 79.7048 11.8013C79.7815 11.907 79.7336 12.0512 79.7336 12.1858V12.5126C79.9061 12.7433 80.1648 12.7626 80.3853 12.7433C80.6153 12.5126 80.8932 12.4646 81.1903 12.4934C81.2286 12.5319 81.2574 12.5703 81.2861 12.6184C81.4586 12.7433 81.5928 12.5126 81.7174 12.6472C81.8133 12.5703 81.9474 12.4646 82.072 12.3684C82.1008 12.4646 82.1008 12.5415 82.1199 12.6472C82.2254 12.6184 82.2924 12.4934 82.3979 12.6472C82.465 12.6184 82.532 12.5799 82.5991 12.5415C82.647 12.6472 82.7046 12.8202 82.7716 12.8202C83.0016 12.8202 82.8483 12.9933 82.925 13.0702C83.0496 13.1951 83.0017 13.3201 82.9537 13.4739C82.9058 13.6373 82.9058 13.82 82.9537 13.9834C83.0017 14.1372 83.0304 14.2333 82.9537 14.3871C82.8867 14.4544 82.8962 14.5697 82.9633 14.6274C82.9825 14.6466 83.0016 14.6563 83.0304 14.6659C83.0016 14.8197 82.8771 14.8966 82.9825 15.0696C83.1071 15.3195 83.0304 15.6271 83.0112 15.954L83.0592 16.002C82.9346 16.0789 82.8291 16.1558 82.6758 16.2519C82.7046 16.3577 82.7237 16.4538 82.7525 16.5596C82.1199 16.5884 81.4682 16.7903 80.8069 16.5884C80.5003 16.7614 80.1265 16.5884 79.7719 16.6845C79.6952 17.1363 79.8486 17.5977 79.6473 18.0495C79.7144 18.1072 79.7815 18.1552 79.8486 18.2033C79.8006 18.3763 79.8965 18.559 79.7431 18.6839L79.9156 18.857C79.8677 19.2895 80.0402 19.7702 79.7623 20.2027C79.7911 20.2796 79.8102 20.3565 79.8102 20.4334V21.1928C79.8102 21.3466 79.7815 21.5004 79.8869 21.6446C79.9636 21.7696 79.9348 21.9715 79.839 22.1541C79.7623 22.2983 79.7719 22.4713 79.8677 22.6059C79.839 22.7597 79.7911 22.9135 79.8198 23.0385C79.9252 23.6152 79.9252 23.6729 79.8198 24.2304C79.7719 24.4611 79.8198 24.7399 79.8486 24.961V25.0859C79.8294 25.2494 79.8198 25.4032 79.8198 25.5666C79.8198 25.7204 79.7719 25.8742 79.8198 26.0184C79.8677 26.1626 79.7911 26.2683 79.8198 26.3933V27.2584C79.839 27.3834 79.8677 27.5083 79.8965 27.6429C79.8965 27.6429 79.8198 27.691 79.8198 27.7198C79.8677 28.0755 79.724 28.4504 79.8965 28.806C79.8486 29.0848 79.9444 29.3828 79.8486 29.6712C79.7623 29.9307 79.7815 30.2095 79.8965 30.4594C79.7527 30.7093 79.7623 31.0265 79.9252 31.2669C79.6952 31.4976 79.8965 31.6706 80.0211 31.8725L79.8198 32.2762C79.8677 32.478 79.9252 32.7856 79.9923 33.1413C79.9348 33.1605 79.8869 33.1894 79.839 33.2182V34.2083C80.1169 34.4871 80.4907 34.1795 80.7686 34.4102C81.4203 34.2083 82.0816 34.4102 82.7333 34.439C82.7046 34.5351 82.6854 34.6409 82.6566 34.7466C82.7812 34.8428 82.9058 34.9197 83.04 34.9966L82.9633 35.0735C83.0687 35.2753 82.9921 35.4772 83.04 35.679C83.0879 35.8809 82.7908 36.0828 83.04 36.2846C83.0112 36.4096 82.8675 36.5153 82.9921 36.6884C83.04 36.7941 83.04 36.9095 82.9921 37.0152C82.9154 37.1978 82.9154 37.4093 82.9921 37.6016C83.0687 37.8034 82.9921 37.9861 82.7908 38.2072C82.7141 38.2937 82.6566 38.3994 82.6183 38.5148C82.5608 38.4763 82.5033 38.4475 82.4458 38.409C82.3691 38.4859 82.2733 38.534 82.1679 38.361C82.1391 38.4571 82.1391 38.534 82.1199 38.6397H82.0816C82.0337 38.6109 81.9858 38.5917 81.9283 38.5917C81.8516 38.5628 81.8516 38.3417 81.6791 38.4859C81.6503 38.5148 81.5066 38.4379 81.4299 38.3898C81.3628 38.4475 81.3053 38.5148 81.2574 38.5917H80.874C80.7207 38.5148 80.5674 38.4379 80.3948 38.3417H80.0402C80.0115 38.5244 79.9923 38.6974 79.9444 38.9281C79.9732 38.9762 80.1169 39.1011 79.9156 39.2549C79.9636 39.3607 80.0211 39.4664 80.0882 39.5625C79.9827 39.7163 79.9156 39.8894 80.0882 40.0912C79.9156 40.3219 80.0402 40.6007 79.9827 40.8506C79.9061 41.1006 80.2319 41.3313 80.0115 41.5812C80.2894 41.86 79.7623 42.2156 80.1073 42.4944C79.9827 42.7251 79.954 42.927 80.0786 43.1C80.0498 43.225 80.0211 43.3499 80.0019 43.4749C80.0211 43.8209 79.954 44.167 79.8294 44.4842C79.7815 44.5803 79.724 44.6765 79.6569 44.763C79.609 44.8399 79.5611 44.936 79.4844 45.0706C79.2831 45.234 79.0723 45.3878 78.8518 45.5224C78.6027 45.6473 78.3439 45.6954 78.066 45.8011C78.0372 45.7723 77.9893 45.7531 77.9701 45.705C77.9414 45.7338 77.9222 45.7819 77.8743 45.7819C77.5484 45.83 77.2226 45.705 76.8872 45.8588C76.6859 45.6281 76.5038 45.9357 76.2834 45.8876C76.0725 45.8492 75.8617 45.8492 75.6508 45.8876C75.5262 45.8876 75.3729 46.0126 75.2962 45.9646C75.1716 45.8684 75.0471 45.8876 74.9129 45.8876H73.5136C73.389 45.8107 73.2645 45.7627 73.207 45.7338C72.9769 45.7627 72.8044 45.7819 72.6319 45.8107C72.2773 45.8396 71.9035 45.7627 71.5489 45.8876C71.4723 45.9165 71.3956 45.8588 71.2998 45.8396C71.0985 45.7915 70.8972 45.7627 70.7247 45.8876C70.5235 45.7819 70.2839 45.7723 70.073 45.8588C69.9005 45.9069 69.7184 45.9357 69.5459 45.8107C69.498 45.8396 69.4692 45.8588 69.4213 45.8876C69.2584 45.8492 69.0859 45.8204 68.9134 45.8107H65.7699C65.674 45.8107 65.5399 45.8588 65.444 45.7338C65.2907 45.9069 65.0894 45.8107 64.8882 45.8107C64.6965 45.8204 64.5048 45.8204 64.3035 45.8107C64.131 45.8107 63.9202 45.7627 63.7477 45.8588C63.6902 45.83 63.6327 45.8011 63.5752 45.7819C63.5177 45.7531 63.4602 45.7435 63.4027 45.7338C63.3068 45.7627 63.2014 45.7819 63.096 45.7819H61.8117C61.7351 45.7819 61.6584 45.83 61.6105 45.83C61.3613 45.8011 61.16 45.7531 60.8821 45.7242C60.3742 45.83 59.8471 45.8204 59.3391 45.6954L59.2624 45.7723C59.0612 45.5416 58.8791 45.8492 58.6587 45.7723C58.4574 45.7242 58.2274 45.8492 58.0261 45.6954C57.8536 45.8204 57.6428 45.7435 57.4511 45.7723H56.7994C56.5981 45.7723 56.3681 45.8011 56.1189 45.7242C56.1189 45.7531 56.071 45.8011 56.0231 45.878C55.6685 45.8492 55.3139 45.9261 54.9593 45.8011C54.8539 45.83 54.7389 45.8588 54.6334 45.878H51.9116C51.8158 45.878 51.7104 45.9069 51.6337 45.8011C51.5954 45.7723 51.5474 45.7723 51.5091 45.8011C51.2599 45.9742 51.0299 45.83 50.7807 45.8011C50.5795 45.7723 50.407 45.8492 50.2057 45.878C49.8894 45.8876 49.5827 45.8684 49.2761 45.8011C48.9694 45.7531 48.6723 45.878 48.3656 45.7242C48.2122 45.83 48.0397 45.8011 47.8864 45.8011C47.781 45.8011 47.7043 45.7531 47.5606 45.7242C47.5222 45.7627 47.4839 45.7915 47.436 45.83L47.2347 45.7242C47.1389 45.878 47.0047 45.6954 46.8513 45.7531C46.6213 45.83 46.3722 45.8011 46.123 45.8011C46.0271 45.7819 45.9313 45.7531 45.845 45.7242C45.8163 45.7531 45.7971 45.83 45.7492 45.8011C45.4425 45.7723 45.1454 45.9069 44.8387 45.7242C44.7716 45.705 44.695 45.7146 44.6375 45.7531C44.3883 45.83 44.3595 45.83 44.1104 45.7242C43.8133 45.8396 43.4874 45.8588 43.1807 45.7723C43.1041 45.7435 43.0274 45.7242 42.9795 45.7435C42.3948 45.8684 42.3182 45.8684 41.7719 45.7435C41.6952 45.7338 41.6186 45.7338 41.5419 45.7435C41.5227 45.8107 41.4844 45.8876 41.4365 45.9453C41.3502 45.8876 41.264 45.8204 41.1873 45.7435C41.1585 45.7723 41.1202 45.8011 41.0914 45.8204C41.0435 45.7723 40.9956 45.7242 40.9669 45.6666C40.8518 45.6858 40.7464 45.7146 40.641 45.7627C40.6123 45.7915 40.6123 45.8396 40.5931 45.8876C40.3918 45.8107 40.1906 45.6858 39.9606 45.7338C39.7401 45.7723 39.5197 45.83 39.3088 45.9069C39.2801 45.8588 39.2513 45.8107 39.2322 45.7531C39.0788 45.7819 38.983 45.8011 38.8488 45.83C38.8488 45.7338 38.8201 45.6569 38.8201 45.5512C38.4655 45.5512 38.1875 45.7242 37.8617 45.9069C37.4592 46.0318 36.9991 45.6762 36.5487 45.878C36.5199 45.878 36.5008 45.83 36.472 45.8011C36.4433 45.83 36.3954 45.8492 36.3666 45.8973C36.3187 45.8684 36.242 45.8011 36.1941 45.8011C36.0216 45.83 35.8395 45.7531 35.6862 45.8492C35.6382 45.8973 35.4849 45.8204 35.3315 45.8011C35.1015 45.8973 33.9131 45.9261 33.664 45.7723C33.4914 45.878 33.4914 45.878 33.2902 45.8011L32.9835 45.9549C32.8877 45.9357 32.7918 45.8973 32.7056 45.8492C32.6001 45.8011 32.5043 45.9742 32.3797 45.878C32.303 45.8011 32.1305 45.878 31.9772 45.878H31.5747C31.4788 45.878 31.3447 45.83 31.2488 45.9549C31.2201 45.9838 31.1434 45.9838 31.1242 45.9838C30.9709 45.83 30.8176 46.0607 30.6163 45.9357C30.4342 45.83 30.1946 45.8492 30.0413 45.9838C29.955 45.9453 29.8592 45.9165 29.7633 45.9069C29.4087 45.9069 29.0829 45.8588 28.7283 45.9069C28.5174 45.9453 28.3066 45.9742 28.0957 45.9838C28.0191 45.9838 27.9232 45.9069 27.8657 45.9357C27.7603 46.0415 27.6645 45.9838 27.559 45.9838C27.4824 45.9838 27.4057 45.9069 27.329 45.9069C27.2236 45.9069 27.099 45.8588 27.0032 45.9549C26.9265 46.003 26.8307 46.0126 26.754 45.9838C26.6773 45.9549 26.6007 45.9069 26.5048 45.9838C26.4281 46.0318 26.3515 45.8107 26.2748 45.9838C26.131 45.9261 25.9777 45.8973 25.8244 45.8876C25.6998 45.8876 25.5464 45.9357 25.3931 45.8396C25.3164 45.7915 25.2206 45.7819 25.1439 45.8107C24.7126 45.9645 24.2814 45.7627 23.8309 45.7819C23.3709 45.8204 22.9013 45.8204 22.4413 45.7819H22.01C21.8375 45.7819 21.6554 45.8107 21.4541 45.705C21.3104 45.6666 21.1666 45.6666 21.0228 45.705C20.8983 45.705 20.7928 45.7531 20.6682 45.7531C20.5149 45.7531 20.3616 45.6762 20.237 45.7242C19.9878 45.8204 19.729 45.7723 19.4798 45.8011C19.3073 45.83 19.154 45.6954 18.9527 45.7531C18.7994 45.7819 18.5981 45.7242 18.4256 45.705C18.2531 45.6858 18.0423 45.7819 17.8698 45.6281C17.5631 45.83 17.3426 45.4262 17.0647 45.5031C16.8347 45.3301 16.6143 45.1763 16.3843 44.9937C16.2213 44.8591 16.1063 44.6668 16.0584 44.465C15.9817 44.215 15.8284 43.9844 15.8284 43.7056C15.8284 43.6767 15.7996 43.6287 15.8284 43.6095C15.953 43.4557 15.7996 43.3595 15.7805 43.2057C15.8092 43.1769 15.8284 43.1288 15.8572 43.1096L15.7613 43.0039C15.7901 42.927 15.838 42.8501 15.8572 42.7732C15.838 42.7155 15.7996 42.6674 15.7613 42.6194C15.8092 42.6194 15.838 42.5905 15.9147 42.5905C15.8667 42.3887 15.838 42.1868 15.7901 41.9272V41.8984C15.9434 41.7446 15.7901 41.5139 15.8859 41.3409C15.9913 41.1871 15.9626 41.0333 15.8859 40.8602C15.838 40.7064 15.8572 40.5046 15.8572 40.3316C15.8572 40.2258 15.9338 40.1489 15.9338 40.0528C15.9338 39.9567 15.8572 39.8798 15.8572 39.774C15.8572 39.726 15.9051 39.6779 15.9051 39.6202C15.9338 39.5433 15.9434 39.4568 15.9338 39.3703C15.8763 39.2453 15.8476 39.1011 15.8572 38.9666V38.4859C15.6559 38.4859 15.4259 38.409 15.2246 38.534C15.1959 38.534 15.1767 38.5052 15.1192 38.5052C14.9754 38.4955 14.8317 38.4955 14.6879 38.5052C14.4387 38.6013 14.1608 38.534 13.902 38.5532C13.7775 38.3994 13.5954 38.5052 13.4708 38.4763C13.3941 38.3706 13.3174 38.2745 13.2695 38.1976C13.1833 38.236 13.097 38.2745 13.0203 38.3225C12.7903 37.813 12.6945 37.1113 12.867 36.7845C12.6945 36.4769 12.8191 36.1501 12.7903 35.8425C12.7903 35.7175 12.7616 35.5637 12.8957 35.4676C12.7136 35.2176 12.7711 34.9389 12.9245 34.6601C13.0778 34.612 13.2312 34.5832 13.3558 34.5351C13.5091 34.4102 13.6337 34.3044 13.7295 34.2083C13.9308 34.3621 14.1033 34.3044 14.3333 34.2372C14.5058 34.4871 14.7838 34.1122 15.0425 34.266C15.2917 34.391 15.5505 34.141 15.8763 34.266C15.8284 34.2083 15.7901 34.1506 15.7517 34.0834C15.7996 33.8527 15.9242 33.6027 15.7517 33.372V33.3528C15.7901 33.2374 15.8092 33.1221 15.8284 32.9971C15.8284 32.8722 15.7038 32.7953 15.7805 32.6415C15.8284 32.5646 15.7517 32.4108 15.7517 32.3146V30.8439C15.7517 30.7478 15.723 30.642 15.8284 30.5651C15.7421 30.4978 15.7134 30.3825 15.7517 30.2864C15.7805 30.1326 15.7517 29.9788 15.8284 29.8346C15.9051 29.6712 15.9051 29.4885 15.8284 29.3251C15.7517 29.1713 15.723 28.9694 15.7805 28.8733C15.9051 28.6714 15.8092 28.4407 15.9338 28.2677C16.0297 28.0947 15.8859 27.8928 15.7805 27.7102C15.9338 27.4314 15.8763 27.1334 15.8572 26.8258C15.7805 26.3933 15.7613 26.3933 15.8572 26.0376C15.8763 25.9511 15.8859 25.8646 15.8859 25.7877C15.7901 25.259 15.7901 25.259 15.8859 24.7783V24.7303C15.9147 24.2785 15.9338 23.8171 15.9913 23.3845C15.9913 23.2884 15.838 23.2115 15.9626 23.0769C15.9913 23.0481 15.9147 22.9039 15.9147 22.827C15.9147 22.7501 15.9913 22.6443 15.9626 22.6251C15.8859 22.529 15.9147 22.4233 15.9147 22.3175V22.0387C15.8955 21.9426 15.8667 21.8561 15.838 21.76C15.8763 21.6542 15.9051 21.5485 15.9147 21.4331V20.4431C15.9147 20.3469 15.9338 20.2508 15.9626 20.1643C15.9338 20.0105 15.9147 19.8663 15.9147 19.7125V16.771C15.6367 16.7422 15.3875 16.723 15.1288 16.723C15.1 16.723 15.0809 16.7037 15.0809 16.6749C14.4483 16.8768 13.8158 16.7037 13.1641 16.6461C13.2024 16.5596 13.2408 16.4634 13.2599 16.3673C13.1353 16.2616 13.0107 16.1943 12.8766 16.0885C12.9532 15.7329 12.7999 15.358 12.9724 15.0023C12.7711 14.8004 13.0012 14.5505 12.8957 14.291C12.8478 14.166 12.8191 13.9641 12.9724 13.8392C12.8191 13.7142 12.8957 13.5316 12.8957 13.3874C12.8957 13.2144 12.9724 13.0606 13.0012 12.9068C13.0491 12.9068 13.097 12.8779 13.1545 12.8779C13.1545 12.801 13.1833 12.7241 13.1833 12.628C13.2887 12.6568 13.3845 12.6568 13.5379 12.6761C13.6145 12.628 13.7104 12.5511 13.8445 12.4742C13.9308 12.5607 13.9979 12.6568 14.0746 12.753C14.1512 12.7049 14.1991 12.7049 14.2758 12.6472C14.3525 12.6761 14.4483 12.6953 14.5537 12.7241C14.5729 12.6664 14.6017 12.5992 14.6304 12.5415C14.8796 12.5126 15.1384 12.5126 15.3588 12.6953C15.4642 12.7722 15.6367 12.7722 15.7901 12.8202L15.9434 12.6664C15.9147 12.4165 15.9913 12.157 15.8476 11.907C15.8188 11.8494 15.8188 11.7821 15.8476 11.734C15.8955 11.6091 16.0201 11.4841 15.8763 11.3591C15.9722 11.2342 15.953 11.1092 15.953 10.9554V10.0134C15.953 9.86917 15.9338 9.72498 15.9051 9.58079C15.9051 9.54234 15.9147 9.50389 15.9338 9.47505C16.0105 9.30203 15.9817 9.09055 15.8572 8.94636C15.8859 8.8983 15.9338 8.86946 15.953 8.82139C15.953 8.69643 15.7805 8.59069 15.9051 8.4465C15.9817 8.34076 15.953 8.2158 15.9051 8.062C15.8572 7.93703 15.9338 7.78323 15.9051 7.62943C15.8763 7.47563 15.8572 7.3795 15.9338 7.2257C16.0105 7.12957 15.9626 6.94693 15.9626 6.79313C15.953 6.48553 15.953 6.33173 15.9626 7.27376C15.953 8.28309 15.953 8.28309 15.9338 8.30231C15.9626 8.33115 15.9817 8.35038 15.9817 8.37921L16.0105 8.35037C16.0105 8.31192 15.9913 8.2927 15.9626 7.27376ZM37.785 5.58194V5.50504H37.6317C37.5838 5.4762 37.5263 5.43775 37.4783 5.3993C37.4783 5.50504 37.5071 5.5531 37.5071 5.60117C37.6029 5.61078 37.6892 5.57233 37.7563 5.50504L37.785 5.53388C37.8138 5.50504 37.8329 5.48582 37.8617 5.48582L37.8329 5.45698C37.8138 5.45698 37.8138 5.4762 37.785 5.58194ZM51.4708 41.4658C51.6529 41.562 51.8637 41.5716 52.0458 41.4947C52.1225 41.4658 52.2183 41.4466 52.2471 41.4658C52.4196 41.6196 52.6304 41.5427 52.8029 41.5427C52.9275 41.5427 53.0808 41.4658 53.1863 41.5139C53.3875 41.61 53.5121 41.4851 53.6655 41.4851C53.8188 41.4851 53.9913 41.61 54.1734 41.562C54.2213 41.562 54.2501 41.5139 54.2692 41.5139C54.5184 41.4658 54.7772 41.437 55.0264 41.5427C55.1989 41.3889 55.4097 41.4658 55.5822 41.5427C55.7068 41.5139 55.8314 41.4466 55.8889 41.4947C56.0423 41.6196 56.2148 41.5716 56.3969 41.5716H57.3552C57.5086 41.5716 57.6811 41.4755 57.7865 41.5235C57.959 41.6004 58.1124 41.5716 58.2657 41.5716H61.2942C61.4667 41.5716 61.6488 41.6485 61.8022 41.4947C61.8597 41.4658 61.9268 41.4658 61.9747 41.4947C62.0993 41.6004 62.2047 41.6196 62.3293 41.4947C62.358 41.4658 62.4826 41.4466 62.5018 41.4658C62.6551 41.6389 62.8085 41.4947 62.9522 41.437C63.0001 41.4851 63.0289 41.5139 63.0576 41.5139C63.1343 41.4851 63.1822 41.4658 63.2589 41.437C63.3835 41.4082 63.5177 41.3889 63.6423 41.3889C63.7669 41.3889 63.8723 41.4178 63.9969 41.4178H68.9421C69.0571 41.4082 69.1626 41.3889 69.268 41.3409C69.3638 41.3697 69.4405 41.3889 69.5172 41.4178C69.6418 41.4466 69.7951 41.3697 69.9484 41.4947C70.0443 41.5427 70.1593 41.5427 70.2551 41.4947C70.4851 41.3697 70.7056 41.4178 70.9356 41.4178H72.4882C72.6128 41.4178 72.7373 41.3697 72.8428 41.3697C72.9386 41.3986 73.044 41.4178 73.1494 41.4178C73.6574 41.4178 74.1558 41.4178 74.6349 41.5908C74.7116 41.6196 74.7883 41.6196 74.865 41.5908C74.9895 41.437 75.1429 41.5139 75.2675 41.5139H75.7946V38.0918C75.7371 37.9861 75.67 37.8996 75.5933 37.813C75.67 37.7842 75.7179 37.765 75.7946 37.7361C75.7563 37.4862 75.7275 37.2267 75.7179 36.9768C75.7179 36.698 75.6413 36.4192 75.7946 36.1693C75.6413 35.9194 75.7467 35.6598 75.7179 35.3811C75.7179 35.1023 75.6413 34.8235 75.7946 34.5928C75.7658 34.5255 75.7371 34.4582 75.7179 34.391V31.4014C75.7179 31.2957 75.7946 31.2476 75.7658 31.0938C75.6892 30.8439 75.7179 30.5651 75.6892 30.2287C75.6988 30.1999 75.7179 30.1806 75.7371 30.1518C75.6988 30.0364 75.67 29.9211 75.6604 29.7961C75.6892 29.4885 75.5837 29.1617 75.7371 28.8637C75.7658 28.8349 75.7083 28.758 75.7083 28.7099C75.6796 28.633 75.6604 28.5465 75.6604 28.46V25.1244C75.6604 24.9994 75.7083 24.8937 75.6892 24.7399C75.6413 24.3842 75.5933 24.0093 75.7371 23.6729C75.7083 23.6441 75.6892 23.596 75.6604 23.596C75.7083 23.471 75.7563 23.3461 75.8138 23.2115C75.7275 23 75.6796 22.7789 75.6604 22.5578V20.3277C75.6604 20.1258 75.6125 19.8951 75.7371 19.6933C75.785 19.6164 75.7083 19.4626 75.6892 19.3088C75.7179 19.1838 75.7371 19.0588 75.7658 18.9531C75.6988 18.8666 75.6221 18.7801 75.5358 18.7032C75.7371 18.3475 75.6413 17.9918 75.6413 17.665C75.6413 17.3093 75.7179 16.9537 75.5646 16.6268C75.7658 16.5211 75.5933 16.3961 75.5933 16.3481C75.6317 16.2231 75.6508 16.0981 75.67 15.9732V14.4063C75.67 14.2333 75.5454 14.0314 75.5933 13.8776C75.6413 13.7334 75.67 13.5796 75.67 13.4258V12.7145C75.67 12.5895 75.7179 12.4646 75.5933 12.3396C75.5646 12.3108 75.6221 12.1858 75.6413 12.1089C75.6604 12.032 75.6892 11.9359 75.67 11.907C75.5454 11.8109 75.5933 11.6571 75.5933 11.5322V10.7631C75.4975 10.6382 75.3921 10.5324 75.2866 10.4075C75.3442 10.369 75.4017 10.3498 75.4592 10.3306C75.5071 10.2056 75.5358 10.0999 75.5646 10.023C75.5358 9.89801 75.4592 9.74421 75.5167 9.6673C75.5933 9.57118 75.4687 9.46544 75.5646 9.38854C75.5071 9.36931 75.44 9.34047 75.3921 9.31164C74.9608 9.38854 74.5295 9.41738 74.127 9.2828C73.897 9.40776 73.5424 9.38854 73.2453 9.31164C72.9961 9.23474 72.7182 9.06171 72.4882 9.26357C72.1623 9.16745 71.8077 9.15784 71.4819 9.23474C71.2518 9.2828 71.0027 9.34048 70.7726 9.18667C70.5426 9.29241 70.3701 9.31164 70.1689 9.23474C70.0922 9.2059 70.0155 9.15784 69.9676 9.18667C69.7663 9.34048 69.5363 9.26357 69.3351 9.26357C69.1338 9.26357 68.9038 9.21551 68.7025 9.21551C68.5013 9.18667 68.3 9.29241 68.07 9.29241C67.8208 9.26357 67.5429 9.34047 67.3129 9.21551C67.2266 9.18667 67.1404 9.18667 67.0637 9.21551C66.9391 9.26357 66.8145 9.36931 66.6803 9.24435C66.5845 9.11938 66.4312 9.39815 66.297 9.24435C66.0191 9.27319 65.722 9.16745 65.4632 9.32125C65.3674 9.29241 65.2619 9.27319 65.1853 9.24435C64.9552 9.16745 64.7348 9.47505 64.5048 9.27319C64.3515 9.42699 64.1502 9.30203 63.9969 9.35009C63.8244 9.42699 63.671 9.32125 63.4889 9.35009H62.4347C62.3484 9.34048 62.2622 9.31164 62.1855 9.27319C62.0705 9.31164 61.9555 9.33086 61.8309 9.35009H61.3038C61.1505 9.35009 60.9971 9.39815 60.8534 9.27319C60.7 9.42699 60.5275 9.35009 60.3454 9.35009H56.464C56.2627 9.35009 56.0327 9.30203 55.8314 9.42699C55.7835 9.45583 55.6589 9.37893 55.5535 9.37893C55.4001 9.37893 55.2468 9.33086 55.151 9.37893C55.0264 9.42699 54.9018 9.45583 54.7964 9.37893C54.6239 9.25396 54.4705 9.35009 54.3651 9.40776C54.2117 9.37893 54.0872 9.30202 54.0392 9.3597C53.8859 9.4366 53.7901 9.48466 53.6559 9.3597C53.4067 9.38854 53.1288 9.2828 52.8988 9.46544C52.7837 9.3597 52.6112 9.34048 52.4675 9.41738C52.3812 9.46544 52.2854 9.48466 52.1896 9.46544C52.0362 9.34048 51.8637 9.38854 51.6816 9.38854H49.6786C49.4486 9.38854 49.1706 9.34048 48.9694 9.4366C48.7202 9.56157 48.5669 9.31164 48.3656 9.38854C48.2122 9.45583 48.0397 9.42699 47.9151 9.31164C47.8576 9.2828 47.7906 9.2828 47.7426 9.31164C47.6468 9.40776 47.4935 9.41738 47.3976 9.32125C47.3976 9.32125 47.3976 9.32125 47.388 9.31164C47.3401 9.2828 47.2347 9.34048 47.158 9.34048C47.0814 9.34048 47.0047 9.36931 46.9088 9.36931C46.8322 9.36931 46.7555 9.32125 46.6597 9.32125H43.152C43.0753 9.32125 42.9795 9.36931 42.9028 9.36931C42.5194 9.29241 42.1457 9.24435 41.7623 9.39815C41.724 9.42699 41.6761 9.42699 41.6377 9.39815C41.5131 9.2828 41.3406 9.25396 41.1873 9.32125C41.0339 9.36931 40.9094 9.32125 40.756 9.32125C40.6889 9.33086 40.6314 9.3597 40.5835 9.39815C40.3343 9.24435 40.0564 9.27319 39.7785 9.35009C39.7114 9.37893 39.6443 9.38854 39.5772 9.39815C39.4814 9.35009 39.3759 9.24435 39.2993 9.39815C39.2226 9.27319 39.098 9.32125 38.9734 9.32125H37.3633C37.2196 9.32125 37.0662 9.34048 36.9321 9.39815C36.7308 9.47505 36.6254 9.30202 36.4529 9.32125C36.0695 9.39815 35.667 9.27319 35.2932 9.42699C35.2165 9.45583 35.092 9.37893 34.9674 9.35009C34.8811 9.38854 34.7853 9.41738 34.6894 9.42699C34.3157 9.45583 33.9323 9.37893 33.5777 9.53273C33.501 9.56157 33.4244 9.56157 33.3477 9.53273C33.1752 9.40776 32.9452 9.45583 32.7727 9.45583H32.2455C32.0635 9.45583 31.8909 9.42699 31.7184 9.53273C31.5459 9.33086 31.4118 9.58079 31.2392 9.56157C30.8942 9.53273 30.5492 9.53273 30.2042 9.56157C29.8783 9.5904 29.5525 9.38854 29.1979 9.56157H29.1212C28.8145 9.40776 28.4887 9.48466 28.1628 9.5135C28.0095 9.5135 27.8849 9.61924 27.7316 9.54234C27.5782 9.49428 27.3769 9.54234 27.2236 9.46544C27.1086 9.39815 26.9744 9.37893 26.8498 9.41738C26.6007 9.54234 26.3419 9.46544 26.064 9.49428C25.8914 9.52312 25.7094 9.46544 25.5081 9.57118C25.4123 9.64808 25.1822 9.61924 25.0768 9.54234C24.9522 9.46544 24.8276 9.49428 24.6935 9.49428C24.5401 9.49428 24.3868 9.57118 24.243 9.57118L23.0355 9.49428C22.9109 9.34048 22.6809 9.49428 22.585 9.38854C22.4125 9.18667 22.2592 9.41738 22.1058 9.41738C21.9237 9.42699 21.7512 9.4366 21.5787 9.46544C21.502 9.4366 21.4062 9.36931 21.3008 9.31164C21.2529 9.38854 21.2049 9.4366 21.1474 9.5135C21.1187 9.4366 21.0995 9.38854 21.0708 9.31164H20.6395C20.4862 9.31164 20.3328 9.32125 20.1891 9.34048C20.2657 9.5904 20.1411 9.79227 20.1891 10.023C20.237 10.2537 20.1891 10.5036 20.2178 10.7343C20.2178 10.965 20.1699 11.1861 20.2945 11.3976C20.2178 11.5225 20.1699 11.6475 20.0932 11.7725L20.2178 11.8974C20.1891 11.9455 20.1411 12.0032 20.1411 12.0224C20.1699 12.1089 20.1891 12.205 20.1891 12.3012C20.2082 12.3973 20.237 12.4934 20.2849 12.5799C20.1315 12.8106 19.9782 13.0125 19.9303 13.2624C20.1795 13.7431 20.4382 14.1948 20.2082 14.7812C20.1603 14.9062 20.1316 15.108 20.2561 15.233C20.2849 15.2618 20.2274 15.3387 20.2274 15.3868C20.2561 15.6367 20.1316 15.8674 20.1795 16.0981C20.2178 16.2327 20.2466 16.3673 20.2561 16.5019V17.9726C20.2466 18.0687 20.2178 18.1649 20.1795 18.2514H20.2082C20.2082 18.3859 20.2082 18.5205 20.237 18.6551C20.2082 18.6839 20.1603 18.7032 20.1411 18.732C20.237 18.7608 20.3136 18.7801 20.3903 18.8089C20.2945 19.2607 20.2945 19.2607 20.3903 19.5202C20.3616 19.5683 20.3136 19.5971 20.2945 19.6452V20.5296C20.2945 20.6834 20.4957 20.8083 20.2945 20.9621C20.4478 21.1159 20.3711 21.2409 20.2945 21.3659C20.2657 21.4331 20.2657 21.5004 20.2945 21.5677C20.4191 21.6927 20.3711 21.8465 20.3711 21.9715V24.2016C20.3711 24.4323 20.3711 24.6822 20.2466 24.8649C20.122 25.0667 20.2178 25.2205 20.2753 25.3455C20.2466 25.4416 20.1986 25.4993 20.1986 25.5762C20.1986 25.8838 20.1699 26.1818 20.2753 26.4894C20.3232 26.6624 20.352 26.8931 20.2274 27.0661C20.3232 27.2488 20.2753 27.4506 20.2753 27.6525C20.2753 27.7006 20.1986 27.7775 20.2274 27.8255C20.352 28.1812 20.2561 28.5561 20.2753 28.9118C20.2657 29.0079 20.237 29.104 20.1986 29.1905C20.237 29.277 20.2657 29.3732 20.2753 29.4693C20.3041 29.6423 20.3041 29.825 20.2753 29.998C20.2466 30.171 20.3232 30.3729 20.2274 30.5555C20.1316 30.7382 20.2753 30.8824 20.2753 31.0362C20.2753 31.065 20.2753 31.1131 20.2466 31.1131C20.074 31.2669 20.2466 31.3918 20.2753 31.5168C20.2466 31.5648 20.1699 31.6225 20.1699 31.6706C20.1699 31.8725 20.122 32.1224 20.2178 32.2762C20.3424 32.5069 20.0645 32.6607 20.1699 32.8626C20.1986 32.9106 20.1986 32.9875 20.2178 33.0164C20.3424 33.1702 20.1891 33.2663 20.1891 33.4009C20.2753 33.7277 20.2849 34.0737 20.2178 34.4102C20.1603 34.5928 20.1603 34.8043 20.2178 34.9869C20.2561 35.1215 20.2561 35.2561 20.2178 35.3907C20.1699 35.5445 20.1124 35.7175 20.2178 35.8425C20.3424 36.0155 20.1699 36.0924 20.1699 36.2462C20.4191 36.4961 20.1411 36.7557 20.1699 37.0344C20.1986 37.3132 20.0932 37.592 20.2753 37.8419C20.1411 38.0438 20.1316 38.3129 20.2466 38.5244C20.1986 38.7743 20.0932 38.9762 20.1507 39.1588C20.2274 39.4856 20.1795 39.8413 20.1986 40.1681C20.1986 40.2643 20.1507 40.4181 20.1986 40.4757C20.352 40.6776 20.2466 40.8795 20.2753 41.0813C20.2753 41.1582 20.1986 41.2351 20.1699 41.312C20.2178 41.3986 20.2561 41.4947 20.2945 41.5908C20.3711 41.6196 20.4478 41.6677 20.5245 41.7158C20.8216 41.5908 21.157 41.5908 21.4541 41.7158C21.6075 41.6389 21.8854 41.562 21.9812 41.6389C22.3358 41.8696 22.7384 41.5908 23.0642 41.8119C23.3901 41.61 23.7926 41.86 24.0993 41.61C24.1759 41.6773 24.243 41.7542 24.3005 41.8407C24.2047 41.8888 24.1472 41.9176 23.9747 42.0234H24.3005L24.4251 41.8984C24.3964 41.8696 24.3676 41.8407 24.3484 41.8023L24.473 41.6773H25.2302C25.2302 41.7542 25.2589 41.8311 25.2589 41.9272H25.8148C25.9681 41.6965 26.1406 41.9272 26.3419 41.8503C26.4952 41.8023 26.6965 41.8792 26.8978 41.8984C26.9553 41.8792 27.0032 41.8503 27.0511 41.8215C27.1565 41.7927 27.2236 41.9465 27.329 41.8215C27.4057 41.7734 27.559 41.8503 27.6549 41.7446C27.722 41.7158 27.7891 41.7158 27.8561 41.7446C27.952 41.8407 28.0862 41.8215 28.182 41.8215C28.4599 41.8215 28.7379 41.8696 28.987 41.7254C29.0158 41.7542 29.0637 41.7734 29.0925 41.8215C29.1212 41.7927 29.15 41.7638 29.1883 41.7446C29.217 41.7734 29.265 41.7927 29.2937 41.8215C29.38 41.7831 29.4758 41.7638 29.5717 41.7446C29.725 41.7158 29.8975 41.7446 30.0221 41.6965C30.1946 41.6004 30.3 41.8023 30.4725 41.7446C30.5588 41.7158 30.6546 41.6965 30.7505 41.6965C30.8271 41.6677 30.9326 41.6485 30.9517 41.6677C31.0763 41.8215 31.2584 41.7446 31.4022 41.7446H37.5071C37.6796 41.7542 37.8425 41.735 38.0054 41.6677C38.1684 41.6004 38.36 41.6196 38.5134 41.7158C38.5805 41.7446 38.6476 41.7446 38.7146 41.7158C38.9159 41.61 39.098 41.6389 39.3184 41.7158C39.5197 41.7831 39.7305 41.7734 39.9222 41.6869C40.0181 41.6389 40.2289 41.61 40.3056 41.6581C40.4302 41.7542 40.5548 41.7062 40.6889 41.735C40.7848 41.7638 40.9189 41.7831 41.0148 41.8119C41.0723 41.7734 41.1298 41.735 41.1969 41.7158C41.2448 41.7638 41.2735 41.8119 41.2927 41.8119C41.446 41.7927 41.5898 41.735 41.7144 41.6581C41.8965 41.562 41.9923 41.7831 42.1648 41.735C42.2703 41.7062 42.3469 41.6869 42.4428 41.6581C42.6728 41.7831 42.9507 41.8023 43.1999 41.7062C43.3724 41.6581 43.5545 41.6004 43.6503 41.6581C43.9283 41.7831 44.2254 41.7062 44.5129 41.735H45.1454C45.2221 41.735 45.27 41.7831 45.2988 41.7831C45.4233 41.7542 45.5288 41.7542 45.6246 41.735C45.7204 41.7158 45.8163 41.6869 45.9025 41.6581C46.008 41.6965 46.123 41.7158 46.2284 41.735C46.4776 41.735 46.7363 41.7638 46.9855 41.735C47.1389 41.7062 47.2347 41.8311 47.4168 41.7638C47.5414 41.6869 47.7426 41.7638 47.9247 41.6677C48.011 41.6485 48.0972 41.6581 48.1739 41.6965C48.3464 41.8023 48.4998 41.7254 48.6531 41.6485C48.8448 41.7638 49.0748 41.7831 49.2856 41.6965C49.3815 41.6677 49.5348 41.6485 49.6115 41.6965C49.8128 41.8023 50.014 41.7734 50.2153 41.7446C50.7711 41.6485 50.7999 41.6485 51.2983 41.7446C51.2216 41.5427 51.3174 41.4947 51.4708 41.4658ZM13.4133 13.0702L13.3366 12.9933C13.2599 13.0413 13.1833 13.0702 13.1066 13.1182L13.2599 13.272C13.3174 13.2144 13.3749 13.1471 13.4133 13.0702ZM82.6758 13.3009C82.6854 13.2816 82.695 13.2528 82.7046 13.224C82.6566 13.1471 82.6279 13.099 82.58 13.0221L82.5512 13.0509C82.5033 13.1567 82.58 13.2047 82.647 13.2528C82.6279 13.272 82.6566 13.272 82.6758 13.3009ZM82.6566 37.4958C82.6087 37.592 82.4554 37.6208 82.58 37.7938C82.5991 37.6977 82.7812 37.6689 82.6566 37.4958ZM19.6236 38.707V39.0146C19.6715 39.0146 19.729 39.005 19.7769 38.9858C19.729 38.8897 19.6811 38.8032 19.6236 38.707ZM44.9537 41.9753H45.2796C45.2604 41.9272 45.2508 41.8792 45.2508 41.8215C45.155 41.8696 45.0496 41.9176 44.9537 41.9753ZM19.7003 35.6502H19.6524V35.929H19.7003V35.6502ZM41.5227 45.2148H41.446C41.446 45.2917 41.4748 45.3686 41.4748 45.4455H41.5227V45.2148ZM74.4049 45.5416V45.4647C74.3283 45.4647 74.2516 45.4935 74.1749 45.4935V45.5416H74.4049ZM37.6125 6.11064V6.06257H37.44V6.11064H37.6125ZM19.7003 35.0831H19.6524V35.2657H19.7003V35.0831ZM79.3981 28.9118V28.8829H79.2927V28.9118H79.3981ZM79.3214 30.3825V30.4113H79.4173V30.3825H79.3214ZM58.3807 8.84062V8.86946H58.4766V8.84062H58.3807ZM58.074 5.25511H58.0453V5.36085H58.074V5.25511ZM43.9954 5.42814H43.9666V5.52427H43.9954V5.42814ZM45.4138 41.9753H45.4425V41.8792H45.4138V41.9753ZM61.4092 44.5323V44.5034H61.3134V44.5323H61.4092ZM41.4748 45.109H41.5036V45.0033H41.4748V45.109ZM44.2541 5.53388H44.2829V5.43775H44.2541V5.53388ZM59.7225 8.8983V8.86946H59.6266V8.8983H59.7225ZM79.6281 18.9146H79.6569V18.8185H79.6281V18.9146ZM59.0899 45.2628V45.234H58.9941V45.2628H59.0899ZM19.8249 14.1852H19.8536V14.0795H19.8249V14.1852ZM59.2912 45.2917H59.3199V45.1955H59.2912V45.2917Z" fill="white"/>
<path d="M83.6444 6.20716C83.7056 5.79531 83.7669 5.42606 83.8281 5.0142H84.2339V7.32911H83.9736V6.20716H83.9124C83.9124 6.32078 83.8894 6.39179 83.8894 6.5054C83.8664 6.61902 83.8281 6.69003 83.8281 6.76104C83.8205 6.88885 83.8205 7.01667 83.8281 7.13029C83.7516 7.38592 83.6291 7.35751 83.4836 7.31491C83.4453 7.01667 83.407 6.71843 83.3611 6.42019H83.3458V7.31491H83.0625V5H83.4453C83.5066 5.39765 83.5678 5.7669 83.6444 6.20716Z" fill="white"/>
<path d="M81.4345 7.34286V5.53181H80.7109V5.04312C80.7109 5.02875 80.7282 5 80.7454 5H83.0538V5.48869C82.8298 5.48869 82.6059 5.53181 82.3303 5.53181V7.34286H81.4345Z" fill="white"/>
<path d="M52.4626 37.7687C52.1013 37.6179 51.7693 37.6745 51.4373 37.7216C51.3299 37.7498 51.203 37.7969 51.1541 37.7687C50.9979 37.6745 50.8417 37.7216 50.6952 37.6933C50.5585 37.6556 50.4218 37.6274 50.2851 37.6179C50.1581 37.6179 50.0019 37.6933 49.8456 37.7404C49.8554 37.6556 49.8456 37.5708 49.8163 37.4955C49.7968 37.4389 49.7675 37.3824 49.7382 37.3259V37.2505C49.8652 37.1752 49.7382 37.0715 49.7675 37.0244C49.8359 36.9491 49.8456 36.836 49.7968 36.7512C49.6894 36.6005 49.748 36.4498 49.8456 36.3273C49.7968 36.1766 49.748 36.0541 49.6894 35.9034C49.7187 35.8751 49.7675 35.8563 49.7675 35.828V33.2939C49.7675 33.2656 49.7187 33.2185 49.6894 33.1997C49.8066 32.8794 49.8261 32.5402 49.7382 32.2105C49.7285 32.1163 49.7285 32.0315 49.7382 31.9373C49.7675 31.5887 49.7675 31.2402 49.7675 30.9199C49.7675 30.8916 49.7187 30.8445 49.6894 30.8162C49.7187 30.7409 49.7968 30.6938 49.7968 30.6184C49.7675 30.1756 49.8749 29.7234 49.748 29.2807C49.7187 29.1582 49.7968 29.0357 49.7968 28.885C49.8456 28.4611 49.7187 28.0183 49.8749 27.5944C49.748 27.3965 49.8456 27.1705 49.7968 26.9726C49.7187 26.803 49.5625 26.6523 49.4843 26.4733C49.3769 26.3038 49.2988 26.1248 49.2012 25.974C49.1719 25.974 49.1426 25.9835 49.123 26.0023V24.9095C49.123 24.8812 49.0938 24.8624 49.0938 24.8812C49.1914 24.5798 49.1426 24.3066 49.1426 24.0616V23.2891L49.3281 23.1102C49.3281 23.0348 49.3574 22.9594 49.3574 22.8841C49.5332 23.0065 49.6894 22.7899 49.8456 22.8841C49.9238 22.7333 49.9726 22.6109 50.0507 22.4884C49.9531 22.3659 49.8163 22.1869 49.7187 22.0456C49.8749 21.9232 49.7968 21.7442 49.8163 21.6029C49.8456 21.4521 49.7675 21.2543 49.8456 21.1789C50.0019 20.9999 49.7968 20.8586 49.8456 20.755C49.9531 20.6043 49.748 20.5101 49.8456 20.3782L50.0019 20.3028C49.9531 19.9825 49.8456 19.681 49.8456 19.389C49.8163 18.3998 49.8456 17.4013 49.8456 16.4121C49.8456 16.2331 49.8945 16.0353 49.7675 15.8939C49.8945 15.7432 49.8163 15.5736 49.8456 15.3947C49.8554 15.2062 49.8554 15.0178 49.8456 14.82C49.8456 14.7541 49.8261 14.6787 49.7968 14.6222C49.8945 14.3301 49.8847 14.0192 49.7675 13.7272C49.8163 13.6047 49.8749 13.4069 49.9238 13.2279H52.8532C53.029 13.2279 53.2438 13.3975 53.3903 13.3033C53.5465 13.1808 53.7027 13.3033 53.8297 13.2279C53.9566 13.1808 54.1617 13.1996 54.3179 13.2279C54.3863 13.2373 54.4449 13.2656 54.4937 13.3033C54.5523 13.2656 54.6109 13.2468 54.6695 13.2279H56.3881C56.4662 13.2279 56.5443 13.275 56.6224 13.275C56.7982 13.275 56.9642 13.275 57.14 13.2468C57.3157 13.2468 57.5305 13.1714 57.7063 13.2185C57.8333 13.2468 57.9602 13.3692 58.0969 13.2185C58.1653 13.2939 58.2824 13.3221 58.3801 13.2939C58.5656 13.3975 58.6926 13.4446 58.8195 13.5199C58.8195 13.4917 58.8488 13.4917 58.8488 13.4728C59.0539 13.6989 59.2394 13.9156 59.4444 14.17C59.4151 14.2171 59.3956 14.2453 59.3663 14.2924C59.3956 14.3678 59.4151 14.4526 59.4151 14.5374V18.2114C59.4151 18.3339 59.3077 18.4375 59.3859 18.5788C59.464 18.6919 59.4347 18.8332 59.337 18.9274C59.5128 19.097 59.3859 19.276 59.337 19.4738C59.2882 19.6528 59.2296 19.8224 59.1808 20.0202C59.2199 20.0296 59.2687 20.039 59.3077 20.0485C59.3077 20.0767 59.3566 20.0956 59.337 20.1238C59.3077 20.2934 59.3077 20.5006 59.2882 20.6702C59.2882 20.6985 59.2589 20.7173 59.2882 20.7173C59.4444 20.9151 59.337 21.113 59.2394 21.3391C59.5714 21.763 59.3956 22.234 59.4444 22.7333C59.3663 22.7804 59.3175 22.8275 59.2394 22.8841C59.2687 22.9123 59.298 22.95 59.3175 22.9877C59.1906 23.1573 59.2687 23.3645 59.2394 23.5058C59.1417 23.7037 59.0343 23.8544 58.9269 24.024L58.9562 24.0522C58.8488 24.203 58.7219 24.3443 58.5949 24.4762H58.1848C58.2141 24.5515 58.2629 24.6269 58.3117 24.7022C58.468 24.8059 58.6437 24.9001 58.8488 25.0225C58.8293 25.0602 58.8 25.0885 58.7707 25.1168C58.8781 25.2392 58.9562 25.39 59.0539 25.5124C59.1808 25.6349 59.337 25.7103 59.4444 25.8139C59.6495 26.6617 59.5421 27.5284 59.5714 28.3669C59.6007 29.2053 59.5714 30.0532 59.5714 30.901V34.1511C59.5616 34.3113 59.5421 34.462 59.5226 34.6222C59.5421 34.6693 59.5714 34.707 59.6007 34.7446C59.6495 34.8389 59.4737 34.9425 59.6007 35.0649C59.6788 35.1403 59.6007 35.3099 59.63 35.4606C59.6593 35.7621 59.5519 36.007 59.4542 36.2519C59.3566 36.4969 59.2199 36.7324 59.0636 36.9491C58.8097 37.2505 58.4973 37.373 58.1848 37.5426C58.0188 37.6179 57.8333 37.6462 57.6477 37.6368C56.974 37.6368 56.3099 37.7593 55.6459 37.7121C55.2065 37.8629 54.7964 37.6368 54.357 37.7121C54.23 37.7404 54.1031 37.665 53.9664 37.7875C53.9371 37.8158 53.8394 37.7875 53.7613 37.7593C53.4 37.6368 53.0387 37.7121 52.6579 37.731C52.5114 37.7216 52.4821 37.7498 52.4626 37.7687ZM59.0636 33.454C59.0636 33.4917 59.0831 33.5294 59.1124 33.5576L59.1417 33.5388L59.0636 33.454C59.0441 33.4352 59.0148 33.4069 59.0148 33.3787L58.9855 33.4069C58.9855 33.454 59.0148 33.454 59.0636 33.454ZM53.3317 20.3405C53.3317 20.3028 53.3121 20.2651 53.2829 20.2463L53.2536 20.2745C53.2829 20.3028 53.3024 20.3216 53.5074 20.1803C53.4586 20.2745 53.2731 20.3028 53.3317 20.4535C53.4293 20.5006 53.5074 20.576 53.5856 20.6043C53.4586 20.7738 53.5367 20.9246 53.5856 21.1036C53.6344 21.2543 53.5563 21.4239 53.5367 21.6029C53.5465 21.6123 53.5563 21.6311 53.566 21.65C53.5953 22.0739 53.5953 22.5167 53.6149 22.8935C53.8199 22.9217 54.025 22.9877 54.2007 22.9406C54.23 23.016 54.2496 23.0631 54.2789 23.1384C54.3667 23.1102 54.4546 23.0819 54.5327 23.0442C54.6987 23.0536 54.8648 23.0819 55.021 23.1196C55.226 23.016 55.353 22.9406 55.5092 22.8746C55.353 22.5543 55.4116 22.234 55.4116 21.9043C55.4116 21.829 55.4409 21.7065 55.3823 21.6594C55.2846 21.5652 55.3335 21.4615 55.3042 21.3862C55.3042 21.3108 55.2749 21.1883 55.3335 21.1412C55.4897 21.0188 55.2065 20.9717 55.3042 20.8963C55.4604 20.7738 55.3823 20.6231 55.3823 20.5006C55.4311 20.1238 55.3042 19.7281 55.4604 19.3607C55.4897 19.2854 55.4311 19.1912 55.4311 19.1158C55.353 18.8143 55.3335 18.494 55.4604 18.2491C55.2553 17.731 55.4897 17.2599 55.4897 16.8078C55.3335 16.7324 55.2065 16.657 55.0503 16.5817C54.9233 16.6099 54.7671 16.5346 54.6109 16.657C54.5132 16.7324 54.357 16.5817 54.2007 16.657C54.0738 16.7041 53.8687 16.657 53.6832 16.657C53.6539 16.7324 53.6051 16.8078 53.5758 16.8831C53.5465 17.0338 53.5465 17.1846 53.5758 17.3259C53.693 18.3056 53.4586 19.2477 53.3317 20.3405ZM55.4116 31.6453V31.08C55.4213 30.8916 55.3921 30.7126 55.3335 30.5336C55.2846 30.4394 55.3042 30.2887 55.3335 30.138C55.3628 30.0155 55.3823 29.8648 55.4116 29.7423C55.4897 29.3184 55.2846 28.9227 55.4116 28.4988C55.4409 28.4046 55.3628 28.3009 55.3628 28.2538C55.4604 27.8299 55.187 27.4342 55.4409 27.0668C55.3628 26.9161 55.3139 26.7654 55.2358 26.5958C55.1089 26.6335 54.9722 26.6712 54.8452 26.7183C54.8159 26.69 54.7671 26.6712 54.7183 26.6146C54.6695 26.6806 54.6206 26.7559 54.5913 26.8407C54.4351 26.7465 54.2593 26.7465 54.23 26.5675C54.1324 26.7183 53.9762 26.6429 53.8687 26.6617L53.6344 26.8878C53.6441 26.982 53.6441 27.0668 53.6344 27.161C53.5074 27.3306 53.5367 27.4813 53.6051 27.6792C53.6539 27.8111 53.6637 27.9618 53.6344 28.1031C53.5074 28.4328 53.5074 28.7908 53.6344 29.1205C53.6539 29.2147 53.6344 29.3089 53.5856 29.3937C53.527 29.535 53.5465 29.6952 53.6344 29.8177C53.4977 29.9684 53.4977 30.1945 53.6344 30.3358C53.4586 30.5336 53.5074 30.7786 53.5367 30.9576C53.6344 31.5511 53.6344 31.8525 53.5367 32.3706C53.5074 32.5685 53.4879 32.7663 53.5856 32.917C53.5074 33.3127 53.4293 33.6895 53.3805 34.0569L53.9176 34.4338C53.9957 34.3584 54.0738 34.3113 54.1519 34.2359C54.357 34.4338 54.5913 34.3113 54.8159 34.2642C54.855 34.3207 54.894 34.3867 54.9429 34.4338H55.3042C55.3823 34.2642 55.4799 34.1135 55.5581 33.9345C55.5092 33.8874 55.4604 33.8403 55.4311 33.7837V31.9185C55.5092 31.8714 55.5581 31.8431 55.6655 31.7677C55.5385 31.7206 55.4897 31.6735 55.4116 31.6453ZM49.5234 23.2138C49.4258 23.2609 49.3476 23.3174 49.2109 23.3928H49.5234V23.2138ZM49.9921 29.4408H50.0702C50.0702 29.3937 50.0409 29.3466 50.0409 29.2901H49.9921V29.4408ZM49.9921 21.829H50.0409V21.6594H49.9921V21.829ZM55.7241 18.0607H55.7729V17.8911H55.7241V18.0607ZM56.0561 32.0974V32.1257H56.1537V32.0974H56.0561Z" fill="white"/>
<path d="M39.6929 37.6953C39.5575 37.7236 39.3909 37.6671 39.2556 37.7706C39.1202 37.8271 38.964 37.7989 38.8703 37.6953C38.7766 37.8083 38.61 37.8271 38.485 37.7424C38.3497 37.6389 38.2664 37.8177 38.1518 37.7706C38.0581 37.7236 37.954 37.6953 37.8499 37.6953C37.7978 37.6953 37.7457 37.7424 37.6833 37.7706C37.3813 37.573 37.0585 37.3754 36.7462 37.1778C36.6004 37.0742 36.5067 36.9237 36.4754 36.7543C36.4442 36.6037 36.4234 36.4531 36.3921 36.312C36.2776 36.0014 36.2151 35.672 36.2047 35.3427V31.0043C36.1943 30.8537 36.2359 30.6938 36.3088 30.562C36.3609 30.4867 36.413 30.4114 36.3921 30.3362C36.3609 30.2138 36.288 30.0915 36.3088 29.988C36.3297 29.8844 36.413 29.7903 36.3921 29.668C36.3609 29.4704 36.4442 29.2445 36.3088 29.0469C36.2776 29.0187 36.3088 28.9998 36.3088 28.9716C36.3088 28.821 36.2776 28.6516 36.3401 28.5481C36.4546 28.3975 36.2047 28.3505 36.288 28.1999C36.3713 28.0776 36.2568 27.927 36.3401 27.7764C36.3921 27.6729 36.288 27.5318 36.288 27.4C36.3192 27.08 36.2047 26.7507 36.3713 26.4307C36.2047 26.1296 36.3192 25.8096 36.288 25.4896C36.288 25.3673 36.2359 25.2449 36.3713 25.1132C36.4025 25.085 36.3713 24.9909 36.3401 24.9156C36.3401 24.8685 36.288 24.8403 36.288 24.8121C36.2359 24.6897 36.3713 24.5674 36.3192 24.445C36.2568 24.3227 36.2776 24.1815 36.3713 24.0686C36.4234 23.9933 36.3401 23.8428 36.3192 23.6922L36.4025 23.6169C36.2359 23.5134 36.2672 23.3158 36.3192 23.2216C36.4025 23.0523 36.3505 22.9017 36.3192 22.7511C36.288 22.4782 36.288 22.2053 36.3192 21.9324C36.3505 21.6877 36.2151 21.4148 36.4025 21.1607C36.4234 21.0948 36.413 21.0195 36.3713 20.9631C36.2776 20.8125 36.2672 20.6243 36.3401 20.4643C36.3921 20.342 36.4546 20.2384 36.3401 20.1161C36.2568 20.022 36.4234 19.8714 36.3713 19.815C36.288 19.7209 36.3192 19.6173 36.3192 19.5138C36.3192 19.3915 36.288 19.2127 36.3505 19.1939C36.5171 19.1186 36.2151 19.0245 36.3817 18.9492C36.413 18.8645 36.413 18.7892 36.413 18.7045V18.4034C36.4025 18.3187 36.3609 18.2434 36.3088 18.1775C36.3401 18.1493 36.3609 18.1022 36.3921 18.074C36.3609 18.0175 36.3297 17.9705 36.2776 17.9234C36.3192 17.8858 36.3609 17.8481 36.3921 17.8011C36.3921 17.6787 36.1735 17.5564 36.3609 17.3776C36.4442 17.3023 36.413 17.1329 36.4442 16.9823L36.2776 16.8318C36.3088 16.5871 36.2255 16.333 36.3609 16.0883C36.413 15.9942 36.3609 15.8625 36.3297 15.7213C36.2359 15.4672 36.2568 15.1943 36.3817 14.9496C36.3505 14.8837 36.3192 14.8179 36.2984 14.752C36.2672 14.6767 36.2672 14.5826 36.3297 14.5544C36.465 14.4791 36.2984 14.432 36.3297 14.3567C36.3609 14.3285 36.3817 14.2909 36.3817 14.2532C36.3401 14.1026 36.3088 13.9615 36.2984 13.8109C36.2984 13.6886 36.3817 13.5662 36.4338 13.3686L36.6316 13.1992C36.8607 13.2369 37.0898 13.2651 37.3188 13.2745C37.5375 13.2839 37.7457 13.331 37.9436 13.3968C38.0789 13.3686 38.1622 13.0957 38.3809 13.2463C38.4121 13.3121 38.4434 13.378 38.4642 13.4439C38.5579 13.378 38.6516 13.3027 38.7349 13.218C38.9848 13.218 39.2556 13.1898 39.5055 13.3216C39.6408 13.2463 39.7553 13.4439 39.9219 13.3216C40.0052 13.2463 40.1927 13.3216 40.3593 13.3216C40.4738 13.3968 40.6092 13.4721 40.7966 13.5945C40.7029 13.6321 40.5988 13.6603 40.4946 13.6886C40.5779 14.1591 40.6821 14.6296 40.5259 15.1284C40.6404 15.9001 40.6404 16.3706 40.4946 16.5871C40.5363 16.7094 40.5675 16.8318 40.5779 16.9635V19.5421C40.5779 19.6644 40.5467 19.7679 40.5467 19.8902C40.5467 20.0126 40.5675 20.1443 40.5988 20.2667C40.63 20.389 40.5467 20.5396 40.6821 20.6431C40.4634 20.8219 40.7133 20.9631 40.6821 21.1419C40.6716 21.3113 40.6716 21.4901 40.6821 21.6595C40.6821 21.7536 40.7341 21.8571 40.63 21.9324C40.5988 21.9606 40.5779 22.0547 40.5988 22.0829C40.7654 22.3088 40.6821 22.5253 40.6821 22.7511V25.3767C40.6821 25.5273 40.7341 25.6967 40.6508 25.8002C40.5467 25.9508 40.7549 25.9978 40.7029 26.1484C40.6508 26.2707 40.7029 26.4495 40.6716 26.5719C40.6508 26.6848 40.63 26.8071 40.5883 26.9201C40.6196 26.9483 40.6404 26.9671 40.6404 26.9953C40.5883 27.1177 40.5571 27.24 40.505 27.3718C40.5571 27.5506 40.6716 27.7482 40.6716 27.9647V30.2609C40.6716 30.4585 40.5883 30.6844 40.5883 30.882C40.5571 31.0796 40.6404 31.3055 40.5571 31.5031C40.453 31.8042 40.505 32.0489 40.5571 32.3218C40.5883 32.4442 40.5259 32.5665 40.4738 32.7171C40.7237 32.9147 40.3905 33.1123 40.3697 33.3382C40.4009 33.3852 40.4217 33.4605 40.4738 33.564C40.4426 33.6017 40.4113 33.6393 40.3905 33.6864L40.4738 33.7617C40.4426 33.7899 40.4113 33.8275 40.3905 33.8558C40.5779 33.9781 40.7445 34.1004 40.9632 34.251C41.2339 34.0252 41.5879 33.9593 41.9732 33.9781C42.3585 33.9969 42.3585 33.9781 42.4938 33.9311C42.5771 33.9687 42.6604 34.0063 42.7437 34.0252C42.6917 34.1287 42.6604 34.1757 42.6084 34.2698V34.2228C42.5563 34.2228 42.473 34.251 42.4105 34.251V34.2981C42.4834 34.2981 42.5459 34.2887 42.6084 34.251C42.6917 34.204 42.7854 34.1663 42.8791 34.1569C42.8791 34.1851 42.9103 34.251 42.9103 34.3075L42.8791 34.2793C42.8478 34.3075 42.827 34.3263 42.7958 34.3263L42.827 34.3545C42.8583 34.3263 42.8791 34.3075 42.8791 34.2793C42.9936 34.3075 43.1082 34.251 43.1498 34.1475C43.1498 34.1381 43.1602 34.1193 43.1602 34.1099C43.1602 33.8652 43.3268 33.6676 43.2643 33.3946C43.2539 33.1782 43.2539 32.9617 43.2643 32.7453C43.2643 32.67 43.3164 32.623 43.3476 32.5194C43.2643 32.3218 43.181 32.096 43.3164 31.8795C43.3372 31.8136 43.3476 31.7478 43.3476 31.6819V30.769C43.3685 30.6185 43.3268 30.4585 43.2435 30.3267C43.4101 30.2044 43.1602 30.0821 43.2435 29.9503C43.3789 29.8562 43.4934 29.875 43.5975 30.0256C43.6496 29.7056 43.2956 29.7809 43.2435 29.5833V28.9904L43.5767 28.7646C43.5351 28.6987 43.4934 28.6422 43.4414 28.5952C43.4726 28.5481 43.5247 28.5011 43.5247 28.4728C43.4934 28.3223 43.4205 28.1811 43.4934 28.1058C43.6288 27.9552 43.3581 27.9082 43.4414 27.7576C43.4934 27.6635 43.3893 27.4847 43.5767 27.4094C43.5455 27.3624 43.4726 27.3153 43.4726 27.2588C43.5038 26.8636 43.1706 26.4683 43.4414 26.0731C43.4934 25.9696 43.3372 25.8943 43.4101 25.7719C43.4622 25.6684 43.4934 25.5931 43.3789 25.499C43.3476 25.4708 43.3268 25.4049 43.3476 25.3767C43.4622 25.1508 43.3476 24.9062 43.3476 24.6803C43.3476 24.558 43.3997 24.4356 43.2643 24.3039C43.2123 24.2568 43.2643 24.1063 43.2956 24.031C43.2956 23.9557 43.3789 23.8804 43.3476 23.8333C43.181 23.6075 43.2643 23.4099 43.3476 23.184C43.3789 23.1369 43.3476 23.0617 43.3476 23.0146V20.6807C43.3476 20.5678 43.3268 20.4455 43.2956 20.3326C43.3789 19.862 43.3997 19.4103 43.2643 18.968C43.2956 18.9398 43.3164 18.8927 43.3789 18.8645C43.181 18.5445 43.2435 18.1681 43.2956 17.8481C43.3268 17.5752 43.4309 17.3023 43.3476 17.0576C43.2435 16.6624 43.2956 16.2859 43.2643 15.9189C43.2643 15.7966 43.2123 15.6742 43.3476 15.5425C43.3789 15.486 43.3789 15.4202 43.3476 15.3731C43.181 15.1002 43.2956 14.799 43.2956 14.5073C43.2956 14.2344 43.4622 13.9615 43.2956 13.6133C43.3789 13.6321 43.4622 13.6509 43.5455 13.6603L43.7121 13.7356C43.7225 13.6886 43.7433 13.6321 43.7641 13.5851C43.6913 13.5662 43.608 13.5286 43.5455 13.4815C43.5975 13.4063 43.6496 13.331 43.7121 13.2557C44.1494 13.5004 44.67 13.2086 45.1386 13.4533C45.2739 13.4063 45.4093 13.2745 45.5551 13.4251C45.6904 13.3216 45.857 13.378 45.9924 13.3498C46.159 13.3027 46.2631 13.4533 46.461 13.378C46.6171 13.3404 46.7733 13.3404 46.9295 13.378C47.0753 13.4157 47.2211 13.4533 47.3668 13.5004C47.3668 13.5474 47.3981 13.5756 47.3981 13.6227C47.4814 13.6509 47.5647 13.6509 47.6688 13.6698C47.6167 13.8203 47.5855 13.9615 47.5647 14.1121C47.6376 14.1591 47.7209 14.1873 47.8146 14.2156C47.5959 14.5355 47.4606 14.8367 47.7833 15.1567C47.7521 15.1849 47.7209 15.2225 47.7 15.2602C47.7313 15.3072 47.7833 15.3543 47.8354 15.4296C47.7313 15.4766 47.648 15.5237 47.5855 15.5519C47.6272 15.6272 47.6688 15.7025 47.7209 15.7778C47.6584 15.806 47.5959 15.8154 47.523 15.8248C47.523 15.853 47.4918 15.8719 47.4918 15.9001C47.4918 16.0695 47.4606 16.2483 47.5959 16.3989C47.8146 16.6435 47.7938 16.9447 47.7938 17.2458C47.7938 17.3399 47.7105 17.4152 47.7105 17.5187C47.7105 17.594 47.7938 17.7164 47.7625 17.7164C47.6272 17.8105 47.8771 17.8669 47.7938 17.961C47.7625 17.9893 47.7938 18.0363 47.7938 18.0834C47.7625 18.2057 47.7105 18.3563 47.7625 18.4034C47.8771 18.5257 47.6584 18.6292 47.7938 18.7704C47.8771 18.8457 47.7938 19.015 47.7938 19.1374V20.8501C47.7938 20.9725 47.7417 21.1231 47.8771 21.2454C47.9083 21.3113 47.8979 21.3866 47.8458 21.443C47.6792 21.5936 47.8458 21.6877 47.8771 21.8383C47.8458 21.8853 47.8042 21.9418 47.7625 21.9888C47.7833 22.0265 47.8146 22.0547 47.8458 22.0829C47.8146 22.3276 47.8146 22.5253 47.7938 22.7041C47.7417 22.9017 48.0645 23.0711 47.7938 23.2499C47.9604 23.4004 47.8979 23.5698 47.8458 23.7204C47.7938 23.8051 47.7938 23.9086 47.8458 23.9933C47.8979 24.078 47.9187 24.1721 47.8979 24.2662C47.7625 24.3886 47.9812 24.4921 47.8979 24.5862C47.8146 24.6897 47.7938 24.8121 47.8146 24.9344C47.8042 25.0661 47.8042 25.1979 47.8146 25.3296C47.9499 25.6778 47.8979 25.9978 47.8979 26.346C47.8979 26.4401 47.9499 26.5436 47.8146 26.6189C47.7833 26.6471 47.7833 26.7413 47.7833 26.7883C47.9187 27.1177 47.9187 27.4753 47.7833 27.8047C47.7729 27.8988 47.7729 27.9835 47.7833 28.0776C47.7521 28.1999 47.8354 28.3505 47.7 28.5011C47.648 28.5481 47.6688 28.6987 47.7313 28.774C47.8146 28.9528 47.8146 29.1598 47.7313 29.348C47.7105 29.4515 47.7313 29.5551 47.7833 29.6492C47.7521 29.7433 47.7313 29.875 47.7 29.9691C47.648 30.0915 47.8042 30.1668 47.7521 30.3173C47.7 30.4397 47.7209 30.562 47.7 30.6844V31.4278C47.6688 31.7007 47.7313 31.9454 47.6167 32.2183C47.5439 32.3971 47.5647 32.5947 47.6688 32.7641C47.6896 32.7829 47.7 32.8112 47.7 32.8394C47.7 33.0088 47.5126 33.1594 47.6688 33.3852C47.7833 33.5076 47.7 33.7617 47.7 33.9311C47.7 34.1287 47.7521 34.3545 47.7 34.5522C47.5855 34.9474 47.648 35.3427 47.6167 35.7379C47.5855 36.0296 47.4189 36.2837 47.2835 36.5284C47.1794 36.7543 46.8671 36.9237 46.6276 37.1025C46.2527 37.3471 45.7946 37.4695 45.3364 37.4507C45.1698 37.4507 44.9824 37.4036 44.8158 37.5259C44.7846 37.4789 44.7325 37.4318 44.7325 37.4036C44.3993 37.253 44.1806 37.4789 43.9099 37.4318C43.66 37.4036 43.3893 37.5071 43.2227 37.3848C43.0353 37.413 42.8374 37.4601 42.7021 37.413C42.5355 37.3377 42.3376 37.3189 42.1502 37.366C41.765 37.4883 41.3589 37.413 40.9736 37.4413C40.8903 37.4413 40.8382 37.4883 40.7549 37.5165C40.505 37.4224 40.2864 37.4224 39.9324 37.5165C39.8907 37.7895 39.7449 37.8647 39.6929 37.6953C39.7241 37.6859 39.7449 37.6577 39.7762 37.6389L39.7449 37.6106C39.7449 37.6483 39.7241 37.6671 39.6929 37.6953ZM36.7878 17.1611C36.7878 17.1235 36.767 17.0858 36.7357 17.0576L36.7045 17.0858C36.7357 17.1235 36.7982 17.1329 36.8399 17.1141C36.7774 17.1894 36.7045 17.2552 36.6212 17.3117C36.7045 17.2929 36.7878 17.2835 36.8711 17.2835C36.9023 17.227 36.8815 17.18 36.7878 17.1611ZM46.8462 13.8862C46.9608 13.9333 47.0337 13.9615 47.2002 14.0368C47.0961 13.8674 47.0649 13.7921 47.0128 13.6886C46.9816 13.7639 46.9191 13.8297 46.8462 13.8862ZM40.0053 13.5662C40.0261 13.6227 40.0365 13.6792 40.0365 13.7356C40.0781 13.6698 40.1198 13.6133 40.1718 13.5662H40.0053ZM40.3801 13.6603H40.3072C40.3072 13.7074 40.3384 13.7639 40.3384 13.8109H40.3905V13.6603H40.3801ZM38.9536 13.7356H38.9848V13.6415H38.9536V13.7356ZM37.4542 17.3305H37.423V17.434H37.4542V17.3305Z" fill="white"/>
<path d="M67.872 34.2325C68.048 34.2794 68.2828 34.1574 68.4393 34.3076C68.5078 34.2137 68.586 34.1386 68.674 34.0635V33.7632C68.7034 33.6412 68.723 33.5191 68.7523 33.3877C68.7034 33.3596 68.6545 33.3596 68.5958 33.3408L68.5664 33.3127C68.5273 33.0968 68.5273 32.8809 68.5371 32.665C68.5664 32.4679 68.6349 32.2896 68.4882 32.1018C68.4588 32.0361 68.4686 31.961 68.5175 31.9047C68.5958 31.8109 68.6251 31.7076 68.5175 31.6044C68.3904 31.4824 68.6447 31.3322 68.4882 31.2102C68.586 31.0131 68.4393 30.7878 68.4882 30.5907C68.5371 30.3654 68.4393 30.1214 68.5664 29.8773C68.586 29.7929 68.5762 29.7084 68.5371 29.6333C68.4588 29.4831 68.4393 29.3048 68.4882 29.1358C68.586 28.6665 68.586 28.6384 68.4882 28.2723C68.4393 28.0752 68.4099 27.8781 68.5664 27.6997C68.3317 27.3243 68.6154 26.855 68.361 26.4608L68.2045 26.5359C68.0774 26.2637 67.7154 26.3106 67.5589 25.9633C67.5589 25.8882 67.7937 25.7662 67.5883 25.616C67.6861 25.3908 67.4611 25.1467 67.6176 24.9215C67.6372 24.8839 67.647 24.837 67.647 24.7994C67.6763 24.6023 67.4709 24.424 67.6176 24.2081C67.7154 24.0579 67.5687 23.8139 67.7154 23.6356C67.7154 23.2601 67.7154 23.2413 67.8426 22.894C67.9209 22.9222 68.0187 22.9222 68.0969 22.941C68.4099 22.9128 68.7132 22.8659 69.0457 22.8471C69.0947 22.894 69.1338 22.941 69.1729 22.9973C69.2805 22.9504 69.3881 22.894 69.4859 22.819C69.7402 22.941 70.0239 22.9504 70.288 22.8471C70.4152 22.9973 70.601 22.9222 70.7771 22.894C70.8651 22.8659 70.9434 22.8471 71.0314 22.8471C71.364 22.9222 71.364 22.9222 71.7553 22.8471C71.902 22.8377 72.0487 22.8377 72.1954 22.8471C72.1661 22.9222 72.1465 22.9973 72.1172 23.0724C72.3715 23.3915 72.5769 23.767 72.3715 24.2363C72.4106 24.2926 72.44 24.3677 72.4497 24.4334C72.4204 24.6305 72.3226 24.8088 72.4497 25.0247C72.5476 25.2218 72.4791 25.4658 72.4791 25.7193V26.3669C72.4791 26.5171 72.5084 26.6579 72.4008 26.8081C72.3226 26.9395 72.3226 27.099 72.4008 27.2304C72.4987 27.3806 72.4791 27.5308 72.4791 27.6716V29.4268C72.4791 29.577 72.5084 29.7271 72.4008 29.8679C72.3519 29.943 72.4302 30.0932 72.4497 30.2903C72.4204 30.356 72.4008 30.4217 72.4008 30.4874C72.4302 30.7878 72.3715 31.0788 72.4497 31.3791C72.5476 31.6513 72.528 31.961 72.4008 32.2239C72.3519 32.3271 72.4008 32.4679 72.3715 32.6181C72.3715 32.6932 72.3226 32.7683 72.2932 32.9184C72.3617 33.0405 72.4204 33.1719 72.4497 33.3127C72.4693 33.4347 72.4497 33.5661 72.4008 33.6881C72.3324 33.8289 72.3324 33.9884 72.4008 34.1292C72.4302 34.1762 72.4302 34.2231 72.4497 34.2794C72.4987 34.4484 72.215 34.5986 72.4497 34.7769C72.4204 34.9552 72.4987 35.1242 72.3715 35.2744C72.4987 35.4433 72.4204 35.6216 72.3421 35.8187C72.2932 35.9877 72.2932 36.213 72.2443 36.3913C72.1954 36.5321 72.1172 36.6729 72.0096 36.7855C71.8824 36.9075 71.7552 37.0577 71.6183 37.2079V37.2548C70.8456 37.649 70.0435 37.8743 69.1436 37.6772C68.8599 37.8462 68.4491 37.6303 68.1165 37.7992C68.0382 37.7617 67.96 37.7241 67.8817 37.6772C67.7057 37.7054 67.4905 37.7523 67.2851 37.7992L67.0307 37.6772L67.0014 37.7054C66.9427 37.7898 66.8351 37.8086 66.7471 37.7523C66.7373 37.7429 66.7275 37.7335 66.7177 37.7241C66.6101 37.6303 66.5612 37.8274 66.4634 37.7711C66.3656 37.7241 66.258 37.7054 66.1504 37.696C65.9939 37.8086 65.7787 37.7992 65.632 37.6678C65.4266 37.7617 65.2211 37.818 65.0157 37.6678C64.8103 37.7617 64.5755 37.8368 64.3506 37.6678C64.3017 37.6866 64.2625 37.7241 64.2234 37.7617C63.0692 37.4425 63.1963 37.3675 62.7268 36.9451C62.7757 36.6447 62.3942 36.5978 62.3942 36.4476C62.316 35.9502 62.2671 35.5559 62.1888 35.1148C62.4725 34.8426 62.0617 34.4671 62.2377 34.148C62.2084 34.026 62.1595 33.8758 62.2084 33.7726C62.3062 33.5004 62.2573 33.2563 62.2377 32.9841C62.2377 32.956 62.1888 32.9372 62.1888 32.9372C62.2182 32.8903 62.2671 32.8433 62.2671 32.787C62.2182 32.3177 62.3649 31.8484 62.1888 31.3791C62.316 31.0788 62.0617 30.7878 62.1595 30.4874C62.2867 30.1401 62.2377 29.821 62.2377 29.4737C62.2671 29.1546 62.0812 28.8542 62.1301 28.5633C62.1791 28.338 62.1791 28.094 62.2377 27.8687C62.2671 27.7185 62.1301 27.5965 62.2084 27.4463C62.2573 27.3243 62.1791 27.146 62.3062 27.0521C62.2573 26.7799 62.3551 26.5077 62.228 26.2074C62.1399 26.0009 62.1595 25.7756 62.2769 25.5879C62.2475 25.3908 62.228 25.2406 62.1986 25.0904C62.4334 24.8651 62.404 24.6211 62.3747 24.3771C62.316 24.3489 62.2573 24.3301 62.1986 24.3301C62.2377 24.2269 62.2671 24.1142 62.2769 24.011C62.2769 23.9171 62.3258 23.7857 62.1986 23.6919C62.3747 23.6168 62.1008 23.5229 62.2475 23.3915C62.2769 23.3915 62.2964 23.3821 62.3258 23.3634C62.3258 23.3446 62.3356 23.3258 62.3551 23.3164C62.3258 23.2695 62.2769 23.2413 62.2769 23.2226C62.3258 22.8002 62.1791 22.406 62.1791 21.9836V20.7259C62.1791 20.6508 62.228 20.6038 62.2573 20.5287C62.1301 20.4537 62.2084 20.3035 62.1791 20.1815V19.7872C62.1791 19.6934 62.0812 19.515 62.1008 19.4869C62.2769 19.3367 62.0519 19.2616 62.0715 19.1396C62.1008 19.1114 62.1204 19.0645 62.1693 19.0176C62.0128 18.8486 62.1204 18.5952 62.0421 18.4263C61.9443 18.201 61.9443 17.9382 62.0421 17.7129C62.0715 17.666 62.0421 17.5627 62.0421 17.4876V16.4739C62.0519 16.0609 62.0812 15.648 62.1497 15.235C62.1888 15.0472 62.2084 14.8595 62.228 14.6624C62.2769 14.3902 62.4627 14.1931 62.6388 13.996C62.7953 13.827 62.9714 13.6769 63.1572 13.4985C63.2844 13.4798 63.4018 13.4328 63.4898 13.3484C63.7245 13.1512 63.7441 13.17 64.0278 13.3014H64.0767C64.1354 13.2357 64.2234 13.1982 64.3114 13.2076H65.9254L65.9548 13.2357L66.033 13.3108C66.2091 13.2827 66.346 13.1419 66.5514 13.2827C66.6297 13.3296 66.8351 13.3108 66.9623 13.2545C67.1383 13.2076 67.2753 13.2076 67.4024 13.3014C67.5785 13.2076 67.7644 13.1512 67.9404 13.2545C68.0969 13.3296 68.1947 13.3577 68.3513 13.2545C68.4002 13.2076 68.5273 13.2263 68.6056 13.2263C68.7621 13.2545 68.9381 13.1512 69.0653 13.3014C69.1925 13.2076 69.3783 13.2263 69.525 13.2263H70.0141C70.1511 13.2263 70.2782 13.2545 70.4054 13.3014C70.5032 13.3484 70.7184 13.2733 70.7967 13.3296C70.9238 13.4047 71.0803 13.3577 71.1586 13.4047C71.4422 13.6299 71.8042 13.752 71.9313 14.118C71.9704 14.2307 72.0291 14.3245 72.1074 14.4184C72.078 14.6624 72.1563 14.9346 72.0585 15.2068L72.1074 15.2537C72.1563 15.3758 71.9313 15.4227 72.0585 15.5729C72.1074 15.6198 72.0096 15.77 72.0291 15.8732C72.0585 16.1454 71.9509 16.4458 72.1074 16.7086C72.1367 16.7837 72.1367 16.8588 72.1074 16.9339C72.0683 17.0371 72.0389 17.1497 72.0291 17.253C72.0291 17.375 71.9802 17.497 72.078 17.619C72.127 17.666 72.0291 17.8162 72.0291 17.9194C72.0291 18.0414 72.0585 18.1634 72.0585 18.2855C72.0585 18.4075 72.0096 18.5295 72.0291 18.6609C72.0585 18.8862 71.9509 19.1021 71.902 19.3555C71.7455 19.3273 71.5694 19.3085 71.364 19.2804C71.1292 19.4024 70.826 19.3273 70.5423 19.3273C70.2293 19.3555 69.8967 19.2992 69.5935 19.3273C69.2805 19.3555 69.0262 19.2335 68.7132 19.2335C68.5567 19.1114 68.5078 18.9894 68.6643 18.8392L68.5664 18.736C68.6154 18.7078 68.6643 18.6891 68.723 18.6891C68.723 18.6609 68.7327 18.6421 68.7523 18.614C68.674 18.5107 68.674 18.4169 68.6545 18.2948C68.6545 18.0977 68.7034 17.8725 68.5762 17.6754C68.5469 17.6472 68.5762 17.5533 68.6056 17.5252C68.7327 17.375 68.6838 17.2811 68.5762 17.2061C68.6251 17.0559 68.6545 16.8963 68.674 16.7367H68.361C68.2828 16.6617 68.2045 16.6147 68.1263 16.5396C68.0969 16.5678 68.048 16.5678 68.0285 16.5866C67.872 16.6992 67.6763 16.7461 67.4905 16.7367C67.2068 16.7086 66.9036 16.7649 66.6101 16.6617C66.4341 16.6147 66.2189 16.7086 66.0232 16.7367C65.945 17.0559 66.0232 17.3281 66.121 17.6003C66.1504 17.6941 66.17 17.7974 66.17 17.9006C66.0624 18.445 66.0428 18.4732 66.17 18.9613V19.0833C66.2189 19.2335 65.9645 19.3555 66.1406 19.5526C66.2189 19.6558 66.17 19.8529 66.17 20.0219V20.5381C66.17 20.6414 66.2189 20.7634 66.0917 20.8573C66.0624 20.8854 66.0428 20.9793 66.0624 21.0074C66.2189 21.1858 66.1406 21.4017 66.1406 21.58C66.1699 21.9273 66.0624 22.2746 66.2384 22.5937V22.6688L66.1602 23.185C66.3362 23.3352 66.2384 23.5323 66.2384 23.7294C66.2678 23.9735 66.0819 24.2269 66.1406 24.4709C66.1895 24.668 66.0917 24.8651 66.2189 25.0341C66.2678 25.1092 66.2482 25.2312 66.2189 25.3344C66.1797 25.4189 66.1504 25.5128 66.1406 25.6066C66.1406 25.7005 66.2189 25.7756 66.2189 25.8788C66.2189 26.029 66.0917 26.2261 66.1406 26.32C66.2384 26.4702 66.1895 26.6203 66.2189 26.7611C66.2189 26.8081 66.17 26.855 66.17 26.9113C66.17 27.0052 66.1993 27.1084 66.1993 27.2868C66.1015 27.3806 66.1015 27.5402 66.1993 27.634C66.2091 27.6434 66.2189 27.6434 66.2189 27.6528C66.0624 27.9532 66.0917 28.2254 66.1895 28.5633C66.1113 28.7134 66.033 28.9106 66.2189 29.1358C66.121 29.2485 66.0917 29.408 66.1406 29.5582C66.2189 29.7835 66.2384 30.7221 66.17 30.9661C66.17 30.9943 66.1504 31.013 66.121 31.013C66.2776 31.1632 66.2189 31.3322 66.17 31.4824C66.0917 31.6231 66.0917 31.7921 66.17 31.9235C66.2482 32.0643 66.2189 32.2239 66.121 32.3459C66.2189 32.543 66.2776 32.7401 66.121 32.9372C66.1602 32.9748 66.1895 33.0123 66.2189 33.0592C66.17 33.1343 66.0917 33.2094 66.0624 33.2563C66.0917 33.4065 66.1113 33.5567 66.1406 33.6787C66.0428 33.8289 65.8569 33.904 65.8569 34.0729C65.9548 34.1762 65.9352 33.9978 65.9548 34.026C66.2091 34.0729 66.3656 34.2231 66.6199 34.148C66.7471 34.1011 66.9329 34.1949 67.0601 34.2513C67.1579 34.1762 67.2361 34.0917 67.3242 34.0072C67.3731 34.0448 67.422 34.0823 67.4807 34.1011C67.5198 34.0635 67.5589 34.0354 67.6078 34.0072C67.8426 34.1105 67.872 34.148 67.872 34.2325C67.823 34.2325 67.823 34.2513 67.7937 34.2794L67.823 34.3076C67.823 34.2888 67.8426 34.2606 67.872 34.2325ZM69.1827 32.4491C69.0262 32.4773 68.9479 32.4773 68.7914 32.4961C68.8501 32.5805 68.9186 32.665 68.9968 32.7401C69.0751 32.6556 69.1338 32.5618 69.1827 32.4491ZM67.9698 34.852C68.048 34.7018 68.2534 34.683 68.1752 34.4765C68.1263 34.6079 67.9013 34.6267 67.9698 34.852ZM68.9479 33.2469C68.9773 33.2469 68.9773 33.2751 68.9968 33.2751C69.036 33.2094 69.0751 33.1343 69.0947 33.0498C69.0457 33.0029 69.0164 32.956 68.9968 32.9278C68.9675 32.956 68.9479 32.9747 68.9479 33.0029V33.2469ZM71.6868 15.2068C71.7455 15.188 71.8042 15.1787 71.8628 15.1787C71.7944 15.1411 71.7357 15.1036 71.6868 15.0566V15.2068ZM71.8922 36.4101H71.9411V36.2411H71.8922V36.4101ZM71.7161 34.4859H71.7455V34.3921H71.7161V34.4859ZM71.1194 23.3164H71.0901V23.4103H71.1194V23.3164ZM71.3738 13.8928H71.3444V13.996H71.3738V13.8928ZM63.4996 13.9491V13.9209H63.4018V13.9491H63.4996Z" fill="white"/>
<path d="M27.6608 38.3695C27.7084 38.5272 27.7369 38.606 27.7559 38.6848C27.423 38.813 27.0805 38.9115 26.7286 38.9706C26.6524 38.8425 26.4812 38.9214 26.348 38.9214H25.4443C25.3016 38.9312 25.1589 38.9115 25.0162 38.8721C24.864 38.8425 24.7689 38.9509 24.6357 38.9214C24.5121 38.8721 24.3789 38.8425 24.2457 38.813C24.1886 38.6651 24.1411 38.5173 24.0935 38.3695C24.0459 38.3399 23.9413 38.2414 23.8652 38.1921V34.6639C23.8557 34.5062 23.8462 34.3485 23.8176 34.2007C23.8367 34.1219 23.8557 34.043 23.8652 33.9642C23.8747 33.7671 23.8747 33.57 23.8652 33.363C23.8176 32.6633 23.9413 31.9636 23.9413 31.2639C23.9223 31.1062 23.9032 30.9485 23.8652 30.8007C23.8937 30.7711 23.9223 30.7415 23.9413 30.7021C23.7891 30.574 23.9128 30.3375 23.7701 30.1601C23.7415 30.1206 23.7415 30.0714 23.7701 30.032C23.9413 29.6969 23.8652 29.3519 23.7701 29.0169C23.8462 28.8099 24.122 28.7606 24.0459 28.5241C23.9223 28.4453 23.8176 28.3664 23.694 28.2876C23.6179 28.3171 23.5418 28.3664 23.4657 28.3861C23.4371 28.3369 23.4181 28.3369 23.4181 28.3073C23.2659 27.4006 23.342 26.4939 23.323 25.607C23.323 25.469 23.342 25.3212 23.3991 25.193C23.4371 25.0551 23.4847 24.9269 23.5513 24.7988C23.6274 24.6707 23.5988 24.4637 23.8557 24.4342V23.6556C23.8557 23.6261 23.8081 23.5768 23.8081 23.6063C23.8367 23.4487 23.8557 23.3008 23.8557 23.1431V20.3837C23.8652 20.2753 23.8747 20.1767 23.9032 20.0683C23.9032 20.0683 23.8557 20.0387 23.8557 20.019C23.8271 19.7037 23.751 19.3686 23.8081 19.0631C23.9032 18.521 23.7606 17.9494 23.9032 17.3778C23.8747 17.3286 23.8462 17.2793 23.8271 17.2202C23.8462 17.1807 23.8747 17.1512 23.9032 17.1216C23.8747 16.9146 23.8557 16.7077 23.8557 16.5007C23.8557 16.3923 23.8271 16.2938 23.9032 16.2149C23.9318 16.1854 23.9508 16.0868 23.9318 16.0572C23.7606 15.7714 23.8842 15.4364 23.8557 15.121C23.8271 14.8845 23.9318 14.6578 23.7796 14.4213C23.751 14.3818 23.751 14.3326 23.7796 14.2931C23.9508 14.0369 23.8271 13.7215 23.8747 13.4357C23.9508 13.3865 24.0459 13.3076 24.1981 13.1992C24.3979 13.2288 24.6262 13.2781 24.8545 13.3076C25.1019 13.3175 25.3587 13.3175 25.606 13.3076C25.7297 13.3076 25.9104 13.3865 26.0056 13.2288C26.0627 13.1992 26.1292 13.1992 26.1768 13.2288C26.6049 13.3372 26.6049 13.3569 27.0805 13.2288C27.2042 13.1992 27.3088 13.416 27.404 13.2584C27.6037 13.3865 27.8511 13.1007 28.0603 13.3372C28.0889 13.3668 28.1365 13.3372 28.184 13.3372C28.2601 13.3372 28.3552 13.2879 28.4313 13.2879C28.5265 13.2879 28.6311 13.3372 28.7358 13.3372C28.945 13.3372 29.1543 13.3076 29.3636 13.2584C29.7156 13.1795 30.0866 13.3076 30.4386 13.4357C30.4861 13.4062 30.5147 13.3569 30.5432 13.3372C30.6669 13.3668 30.7715 13.416 30.8952 13.4357C30.9142 13.3766 30.9427 13.3175 30.9713 13.2584C30.9998 13.2584 31.0188 13.2288 31.0474 13.2288C31.2471 13.3372 31.3994 13.3372 31.6467 13.3372C31.8465 13.3372 32.0748 13.2584 32.2745 13.4357C32.3221 13.4062 32.3601 13.3766 32.3982 13.3372C32.8453 13.4357 33.2734 13.5737 33.5778 14.0665C33.5778 14.0369 33.5492 14.1158 33.5778 14.165C33.7776 14.4508 33.7585 14.7859 33.7585 15.1013V15.9784C33.768 16.0967 33.7871 16.2051 33.8346 16.3135C33.73 16.4416 33.711 16.6288 33.8632 16.8358C33.8251 16.9245 33.7966 17.023 33.7871 17.1216V18.3634C33.7871 18.6492 33.711 18.935 33.7585 19.2208C33.7871 19.5066 33.8346 19.7628 33.73 20.0289C33.8822 20.1373 33.73 20.2359 33.73 20.2851C33.768 20.4034 33.7871 20.5217 33.8061 20.6498V23.8626C33.8061 24.0203 33.7015 24.1188 33.7776 24.3061C33.8537 24.4342 33.749 24.6214 33.7015 24.7693C33.6729 24.8185 33.6729 24.9467 33.73 24.9762C33.8346 25.0748 33.8061 25.2127 33.8061 25.3113V26.9177C33.8061 27.1247 33.5017 27.9525 33.378 28.0609C33.2258 28.189 33.0736 28.2974 32.9024 28.396C32.8263 28.3664 32.7502 28.3369 32.6741 28.3171C32.636 28.4058 32.5789 28.4945 32.5219 28.5734C32.3792 28.5832 32.2365 28.5832 32.0938 28.5734C31.9701 28.5438 31.8655 28.7311 31.7703 28.5734C31.7323 28.5832 31.7038 28.6029 31.6657 28.6227C31.4374 28.7015 31.3898 28.7015 31.1901 28.5931C31.0379 28.6227 30.8952 28.6424 30.743 28.6424H27.9652C27.8986 28.6916 27.8225 28.7409 27.7654 28.8C27.813 28.8789 27.8511 28.9479 27.8891 29.0366C27.8606 29.0859 27.8416 29.1154 27.813 29.1647C27.8606 29.2928 27.9081 29.4209 27.9652 29.5293C27.9367 29.7067 27.8606 29.9235 27.9177 30.0517C28.0413 30.4656 27.9938 30.9091 27.9462 31.323C27.9462 31.4018 27.9938 31.5004 27.9938 31.5792V32.3578C27.9938 32.4366 28.0413 32.4859 28.0699 32.5647C28.0318 32.683 28.0033 32.8013 27.9938 32.9294V33.8164C27.9938 34.1317 28.0413 34.4372 27.9177 34.7526C27.8511 34.9103 27.8701 35.0877 27.9652 35.2158C28.0128 35.2749 28.0223 35.3538 27.9938 35.4228C27.8701 35.6593 28.146 35.9155 27.9177 36.1225L27.9652 36.1718V38.2118C27.8606 38.1625 27.7559 38.2611 27.6608 38.3695ZM27.3279 24.3258C27.3279 24.2864 27.3088 24.2469 27.2803 24.2272L27.2518 24.2568C27.2803 24.3061 27.3088 24.3061 27.3279 24.3258C27.3564 24.3553 27.3754 24.3849 27.3754 24.4046L27.404 24.3751C27.404 24.3553 27.3849 24.3258 27.3279 24.3258ZM27.9557 23.833C27.775 23.9316 27.7274 24.0104 27.6798 24.2962C27.8796 24.2962 27.9081 24.5327 28.1079 24.6116C28.3077 24.6707 28.5265 24.7003 28.7358 24.6904C29.0402 24.6904 29.3351 24.6411 29.6585 24.6116C29.7061 24.6609 29.7822 24.7101 29.8297 24.7693C29.7536 24.5327 29.7061 24.3258 29.8297 24.0695C29.8868 24.1582 29.9534 24.2371 30.0295 24.3061C30.058 24.3553 30.1056 24.3849 30.2293 24.4637C30.1817 24.1484 30.1246 23.8921 30.0771 23.6556L29.9249 24.0498C29.8773 23.6556 29.4778 23.3205 29.7727 22.9362C29.7251 22.8573 29.6966 22.8081 29.649 22.7292C29.7061 22.6898 29.7727 22.6504 29.8202 22.6011C29.7917 22.5026 29.7631 22.4139 29.7441 22.3153V21.3002C29.7441 21.2017 29.668 21.0933 29.668 20.9651C29.6395 20.8469 29.6395 20.7188 29.668 20.6005C29.7156 20.4132 29.8202 20.2654 29.668 20.0782C29.6205 19.5854 29.7441 19.0631 29.5919 18.5703C29.7727 18.2352 29.6205 17.8903 29.6966 17.5552L29.8202 17.4271C29.7441 17.2497 29.6966 17.0625 29.6205 16.8851L29.2495 16.9639C29.2209 16.9146 29.2209 16.8555 29.2019 16.8062C29.0497 16.9344 28.9546 16.757 28.8023 16.8062C28.6501 16.8161 28.4979 16.8161 28.3552 16.8062H27.9557C27.8796 16.9836 27.8035 17.1709 27.7559 17.3286L27.9081 17.4862C27.9081 17.6144 27.9557 17.772 27.9081 17.8706C27.832 18.0283 27.9557 18.1268 27.9081 18.255C27.7845 18.6196 27.7845 19.0138 27.9081 19.3686C27.9557 19.4967 27.8796 19.684 27.8606 19.8614C28.165 20.0979 27.6608 20.433 27.9081 20.7188V22.7982C27.9462 23.1431 27.9652 23.4881 27.9557 23.833ZM24.1981 20.019C24.3789 19.8909 24.3503 19.7332 24.3028 19.5263C24.2362 19.5854 24.1696 19.6347 24.103 19.684C24.122 19.8022 24.1506 19.9106 24.1981 20.019ZM24.1316 30.505C24.1791 30.6331 24.2362 30.7612 24.4074 30.712C24.3599 30.6233 24.3123 30.5247 24.2838 30.4262C24.2267 30.4754 24.1791 30.4754 24.1316 30.505ZM28.2316 25.1635C28.3362 25.1339 28.4123 25.1339 28.536 25.1142C28.4409 25.0649 28.3362 25.0255 28.2316 24.9861V25.1635ZM24.1506 19.4277L24.1981 19.477C24.2457 19.477 24.2742 19.4474 24.3218 19.4474C24.3123 19.3686 24.2933 19.2898 24.2742 19.2109C24.2267 19.3193 24.1791 19.3686 24.1506 19.4277ZM28.7643 25.1635C28.8214 25.1438 28.8785 25.1339 28.945 25.1339C28.8785 25.0945 28.8214 25.0551 28.7643 25.0058V25.1635ZM29.5634 25.0846V25.1142H29.6585V25.0846H29.5634ZM26.9854 36.4477V36.4773H27.09V36.4477H26.9854ZM30.0866 23.5275V23.5571H30.1817V23.5275H30.0866ZM23.7035 28.12V28.1496H23.7986V28.12H23.7035ZM24.084 28.8395V28.869H24.1791V28.8395H24.084ZM24.2267 29.4702H24.1981V29.5688H24.2172L24.2267 29.4702Z" fill="white"/>
</svg>
