<svg width="110" height="51" viewBox="0 0 110 51" fill="none" xmlns="http://www.w3.org/2000/svg">
<path d="M56.7521 41.9248C56.6737 41.9248 56.5916 41.9285 56.656 41.884C56.7034 41.851 56.7506 41.8184 56.7986 41.7856C56.9446 41.7856 57.0031 41.7768 57.1449 41.8337L57.0991 41.9248H56.7521Z" fill="white"/>
<path d="M35.2189 9.57031V9.40294L35.3577 9.39925L35.3984 9.51922L35.2189 9.57031Z" fill="white"/>
<path d="M16.1146 23.5138C15.9898 23.3695 15.9842 23.1635 16.0171 22.9851C16.0626 22.792 16.1049 22.6019 16.1253 22.4047C16.1304 22.3565 16.1605 22.3129 16.1716 22.3602C16.2129 22.5318 16.2728 22.7145 16.2833 22.8922C16.2858 22.9283 16.2352 23.0726 16.2389 23.1237C16.2441 23.19 16.2705 23.4089 16.2867 23.4673C16.2481 23.4789 16.2106 23.491 16.1716 23.5002C16.1526 23.5044 16.1336 23.5092 16.1146 23.5138Z" fill="white"/>
<path d="M25.4916 20.92C25.3854 20.8356 25.314 20.7181 25.2578 20.5962L25.434 20.2317C25.5083 20.2136 25.5427 20.2243 25.6049 20.2497L25.6972 20.3425C25.7365 20.4144 25.7351 20.4928 25.7208 20.5735C25.7666 20.6357 25.7708 20.7169 25.8098 20.7777C25.7412 20.8337 25.6526 20.8954 25.5584 20.9038C25.5416 20.9052 25.5073 20.9154 25.4916 20.92Z" fill="white"/>
<path d="M26.1189 22.0706C26.0507 22.0646 25.9918 22.0377 25.9365 22.0025C25.9101 21.936 25.8995 21.8471 25.9106 21.7757C25.9138 21.7544 25.9936 21.6318 26.02 21.6147C26.0265 21.6133 26.1086 21.6133 26.1189 21.6133C26.2223 21.713 26.2535 21.8664 26.2344 22.007C26.1995 22.0493 26.1712 22.0715 26.1189 22.0706Z" fill="white"/>
<path d="M49.7763 34.5242C49.6206 34.3962 49.6609 34.1523 49.6609 33.9688C49.7982 34.0149 49.8269 34.2697 49.8803 34.4088C49.8933 34.4427 49.8984 34.4793 49.9072 34.5145L49.7982 34.5426C49.7889 34.5441 49.7834 34.5302 49.7763 34.5242Z" fill="white"/>
<path d="M29.3636 29.5749C29.3534 29.5672 29.3381 29.5635 29.333 29.5518C29.2866 29.4474 29.2667 29.3221 29.25 29.2104C29.3029 29.1607 29.3784 29.1079 29.4528 29.0977C29.5715 29.2041 29.5868 29.311 29.5608 29.459C29.546 29.5399 29.4375 29.5843 29.3636 29.5749Z" fill="white"/>
<path d="M62.155 42.9861C62.1458 42.871 62.1316 42.7558 62.114 42.6417C62.1061 42.595 62.1051 42.5424 62.1309 42.5811C62.2258 42.7233 62.3215 42.8094 62.4345 42.9437C62.347 42.9881 62.25 42.9973 62.155 42.9861Z" fill="white"/>
<path d="M46.8572 41.8341C46.7978 41.804 46.7703 41.7807 46.7458 41.7201C46.7657 41.5999 46.7978 41.4648 46.8339 41.3494V41.2573L46.7328 41.1412C46.7449 40.9335 46.7583 40.9245 46.749 40.7018C46.7453 40.6236 46.8256 40.5409 46.8799 40.4969C46.91 40.2566 46.9245 40.014 46.9699 39.776C46.9852 39.6972 47.0399 39.5822 47.0654 39.4982C47.102 39.3785 47.0529 39.2018 46.9722 39.109L46.8339 39.1058L46.7435 39.3847C46.7129 39.3664 46.6503 39.3109 46.6489 39.2668C46.6265 38.5886 46.6419 37.9082 46.6026 37.2304C46.6003 37.1883 46.4805 37.077 46.4407 37.0639C46.3112 37.0213 46.1385 37.0031 46.0041 37.0236C45.9962 36.9066 45.9888 36.8242 46.0936 36.7505V36.6001C46.2004 36.6348 46.2708 36.5208 46.339 36.4531C46.3455 36.6126 46.3529 36.7694 46.4407 36.9066C46.5055 37.0086 46.8265 37.0037 46.9498 37.0204C46.9875 37.0255 47.0157 37.0592 47.0265 37.0918C47.1827 37.5761 47.3304 38.0636 47.4819 38.5496L47.1165 38.9152C47.1043 39.0538 47.1006 39.0812 47.2273 39.159C47.3237 39.218 47.4296 39.1758 47.5284 39.1513L47.5395 38.9589C47.5409 38.9351 47.5784 38.9328 47.5975 38.9198C47.854 39.4282 48.0414 39.9745 48.2144 40.5165C48.2548 40.6438 48.2236 40.8063 48.2664 40.9329C48.2844 40.9881 48.4361 41.1574 48.481 41.2108C48.5571 41.3013 48.5895 41.4222 48.6272 41.5349C48.6411 41.5767 48.6099 41.6616 48.5863 41.6974C48.1225 41.7687 47.6485 41.7812 47.1808 41.8124C47.0728 41.8198 46.9652 41.8267 46.8572 41.8341Z" fill="white"/>
<path d="M81.2432 41.681C81.3193 41.7088 81.4628 41.7117 81.5434 41.6939C81.5972 41.5512 81.5801 41.4486 81.4855 41.3285H81.2665L81.0884 41.5506C81.1145 41.5901 81.1973 41.6597 81.2432 41.681ZM83.7427 41.9534C83.7508 41.9602 83.7592 41.9676 83.7675 41.975L83.9061 41.8829C83.832 41.8177 83.7666 41.7395 83.722 41.6503L83.5681 41.7534C83.6163 41.8262 83.6769 41.8958 83.7427 41.9534ZM53.2426 40.5993C53.2701 40.6132 53.2978 40.6273 53.3261 40.6416L53.3267 40.5181C53.2807 40.4777 53.2148 40.4317 53.15 40.449C53.1174 40.4731 53.0855 40.4976 53.0529 40.5223L53.1389 40.6253C53.1662 40.6114 53.2121 40.6067 53.2426 40.5993ZM50.4331 40.9899L50.6507 41.0446C50.6734 41.0314 50.737 41.0251 50.7189 41.0061C50.6664 40.9513 50.5913 40.8998 50.5121 40.912C50.4856 40.9379 50.4596 40.964 50.4331 40.9899ZM51.1595 40.9407C51.2973 41.0191 51.4935 41.0314 51.5987 40.8854C51.5887 40.758 51.533 40.6393 51.475 40.5279C51.5779 40.4407 51.6206 40.357 51.6424 40.2249L51.4759 40.1754C51.4521 40.1874 51.0899 40.4881 51.0672 40.5181C51.0027 40.6035 50.981 40.6847 50.9944 40.7961C51.038 40.8591 51.0947 40.8998 51.1595 40.9407ZM53.0094 39.8724L53.1963 39.6618H53.3113C53.3344 39.5283 53.2881 39.4187 53.15 39.3925C53.0724 39.4291 52.9775 39.4252 52.906 39.4731C52.8869 39.498 52.8438 39.6104 52.8469 39.6391C52.8559 39.7402 52.9102 39.8366 53.0094 39.8724ZM54.4352 39.1499L54.6332 39.0875L54.5382 38.9448C54.5229 38.9395 54.5076 38.9346 54.4922 38.9295C54.453 38.9423 54.4167 38.9582 54.3791 38.9755C54.3846 39.0369 54.4047 39.0965 54.4352 39.1499ZM53.1963 40.1248C53.2167 40.135 53.2377 40.1456 53.258 40.1558L53.342 40.0714C53.3258 40.0258 53.2849 39.9444 53.2426 39.9164C53.2269 39.9129 53.2116 39.909 53.1963 39.905C53.1804 39.9129 53.1628 39.9169 53.15 39.9286C53.1397 39.9377 53.1267 39.9629 53.1267 39.9629V40.0556C53.1315 40.0718 53.1378 40.0896 53.15 40.1016C53.1619 40.1137 53.1804 40.1174 53.1963 40.1248ZM50.1669 39.4751L50.5107 39.4758L50.4911 39.2949C50.3599 39.2337 50.2533 39.2568 50.121 39.3024C50.1312 39.3613 50.147 39.4187 50.1669 39.4751ZM53.1949 39.1312C53.2107 39.1345 53.2264 39.1381 53.2426 39.1414C53.2654 39.13 53.2886 39.1182 53.3119 39.1067V38.9681H53.1068C53.1309 39.026 53.1588 39.0792 53.1949 39.1312ZM17.68 39.0153L17.8497 39.0579C17.8763 39.0172 17.9096 38.9488 17.9036 38.8983C17.8893 38.7769 17.8703 38.5784 17.8419 38.4684C17.801 38.4837 17.6865 38.5241 17.6707 38.5746C17.6248 38.7184 17.6076 38.877 17.68 39.0153ZM86.2237 38.5928C86.4056 38.6042 86.467 38.5857 86.6263 38.5088C86.6374 38.4883 86.68 38.3121 86.6769 38.2968C86.6392 38.1028 86.584 37.9818 86.3809 37.9094C86.3048 37.8825 86.0377 37.8881 86.0333 38.019C86.0301 38.1185 86.0333 38.2184 86.0333 38.3185L86.3099 38.5063L86.2237 38.5928ZM51.5302 39.1099C51.5816 39.1618 51.6396 39.1789 51.7154 39.1592C51.7719 39.0988 51.8094 39.0246 51.8381 38.9448C51.8794 38.8357 51.9165 38.6997 51.8131 38.6155C51.7955 38.6011 51.7788 38.5858 51.7617 38.571C51.7083 38.5542 51.6671 38.5503 51.6104 38.5556C51.4913 38.6483 51.3854 38.769 51.3089 38.9002C51.3479 38.9545 51.4745 39.0435 51.5302 39.1099ZM18.2175 39.8243C18.224 39.8456 18.2305 39.8669 18.2376 39.8886L18.3688 39.801V39.4753L18.2992 39.4675C18.2547 39.4689 18.226 39.482 18.1856 39.5019C18.1573 39.641 18.1772 39.6916 18.2175 39.8243ZM53.6593 39.893C53.6903 39.8951 53.7218 39.897 53.7534 39.8993C53.6852 39.751 53.6306 39.591 53.5971 39.4317L53.4514 39.4346C53.3758 39.5385 53.4045 39.6911 53.4045 39.8123C53.4852 39.8553 53.5659 39.8859 53.6593 39.893ZM50.6493 38.2596L50.8584 38.3617C50.9796 38.263 51.0251 38.1645 50.9814 38.0086C50.9294 37.9966 50.8776 38.0407 50.8241 38.0392C50.7476 38.0954 50.6868 38.1719 50.6493 38.2596ZM51.2058 39.6758C51.3512 39.6758 51.4398 39.6386 51.5543 39.5598C51.514 39.4767 51.4398 39.4305 51.3641 39.3865L50.9939 39.526C51.0476 39.5877 51.1146 39.6766 51.2058 39.6758ZM51.2987 37.0897C51.3089 37.1187 51.3186 37.1474 51.3293 37.1762C51.3628 37.146 51.4319 37.05 51.4143 37.0009C51.3901 36.9327 51.3678 36.896 51.3163 36.8384L51.2325 36.8945C51.2538 36.96 51.2754 37.0248 51.2987 37.0897ZM88.235 36.7192L88.5294 36.8375C88.5373 36.7796 88.5387 36.7308 88.5177 36.6771C88.4941 36.6168 88.4263 36.5597 88.3694 36.5405L88.235 36.7192ZM18.2527 36.862C18.2644 36.8731 18.276 36.8848 18.2876 36.8964L18.3572 36.8277L18.2992 36.7694C18.2896 36.7595 18.2797 36.7498 18.27 36.7405L18.2009 36.8102C18.218 36.8273 18.2357 36.8444 18.2527 36.862ZM64.9984 37.2015C65.0457 37.1873 65.0824 37.1649 65.1256 37.14C65.1566 37.0782 65.1872 37.0169 65.2179 36.9554C65.0694 36.9311 65.0702 36.9251 64.9293 36.9803L64.8777 37.16C64.8509 37.2516 64.9066 37.2288 64.9984 37.2015ZM50.4192 39.0681C50.4397 39.0755 50.5138 39.0997 50.5297 39.1019C50.6985 38.9267 50.7022 38.6617 50.5778 38.4622L50.5121 38.4908C50.4518 38.5042 50.4058 38.5045 50.3502 38.4707C50.3079 38.6603 50.2871 38.8588 50.3896 39.0369C50.3965 39.0494 50.4095 39.0579 50.4192 39.0681ZM63.0081 36.426C63.0618 36.4123 63.1154 36.3945 63.167 36.3756C63.2169 36.3118 63.1175 36.2489 63.0754 36.2364C63.0081 36.3157 62.9521 36.3564 62.8448 36.3777L62.9616 36.4306C62.9769 36.4292 62.9928 36.4276 63.0081 36.426ZM50.2806 37.4122C50.2931 37.4149 50.3061 37.4182 50.319 37.4214L50.3562 37.3708C50.3655 37.3398 50.3761 37.3093 50.3877 37.2787C50.3732 37.2075 50.3181 37.1614 50.2985 37.0935C50.2416 37.0634 50.1683 37.0262 50.0954 37.0287C50.0487 37.0313 50.0031 37.087 49.9791 37.1157L50.0718 37.3472C50.14 37.3722 50.2096 37.395 50.2806 37.4122ZM62.6379 36.8835C62.6545 36.8821 62.7669 36.8723 62.7766 36.8671C62.7842 36.864 62.8421 36.8523 62.8397 36.8509L62.893 36.6563L62.7928 36.5146H62.6584C62.6425 36.3663 62.5976 36.2893 62.4385 36.2757C62.3522 36.389 62.3832 36.5513 62.3832 36.685C62.4683 36.754 62.5511 36.818 62.6379 36.8835ZM17.0121 35.8414C17.0798 35.868 17.1712 35.9028 17.2477 35.8939L17.1397 35.7391L17.0121 35.8414ZM51.4839 40.0325H51.576C51.6086 40.0184 51.6407 40.0045 51.6725 39.9911L51.5302 39.8933H51.4606L51.4217 40.0093C51.4425 40.0168 51.4629 40.0246 51.4839 40.0325ZM17.596 35.9547L17.7727 35.868C17.7621 35.7479 17.7491 35.6894 17.6712 35.5913L17.5362 35.6403C17.5479 35.7234 17.5607 35.8064 17.5718 35.8899C17.5741 35.9132 17.5845 35.9348 17.596 35.9547ZM86.2881 39.8703C86.3118 39.8798 86.3353 39.8896 86.3591 39.8993L86.271 39.5464C86.1952 39.4698 86.1466 39.4661 86.0344 39.4786L85.8952 39.1999L85.7571 39.3423L85.802 39.5232H85.9412V39.7073C86.0539 39.769 86.1693 39.8223 86.2881 39.8703ZM51.3669 34.162C51.4458 34.2108 51.5748 34.2534 51.6688 34.2307C51.7353 34.2145 51.839 34.1398 51.8822 34.0851C51.9992 33.9361 51.9916 33.7548 51.8544 33.6216C51.8103 33.5785 51.6836 33.5089 51.6225 33.5157C51.551 33.5237 51.3771 33.5998 51.353 33.6685C51.3158 33.7728 51.2941 33.8595 51.2842 33.9722C51.3322 33.9752 51.3757 34.0039 51.4072 34.0386C51.3924 34.0795 51.3789 34.1207 51.3669 34.162ZM90.8241 36.2604C90.8394 36.2604 90.8701 36.2757 90.8701 36.2604V36.191H90.7312V36.2604H90.8241ZM51.2524 33.1629C51.2742 33.1717 51.2964 33.1805 51.3186 33.1893C51.3302 33.0399 51.3311 32.931 51.2245 32.8131C51.1098 32.8424 51.0288 32.8538 50.9522 32.9583C50.9499 33.0076 50.9624 33.0816 51.0209 33.0978C51.0896 33.1171 51.1865 33.137 51.2524 33.1629ZM51.391 32.4885C51.4086 32.4973 51.4257 32.5061 51.443 32.5154L51.5594 32.4379L51.4601 32.3322L51.3163 32.4495C51.3373 32.468 51.366 32.4754 51.391 32.4885ZM51.4444 32.2249L51.6215 32.1768C51.6799 32.1308 51.6493 32.0325 51.7839 31.9522L51.7844 31.7244C51.7909 31.6238 51.8163 31.609 51.7154 31.609H51.5069V31.8436C51.3822 31.9439 51.3385 32.0919 51.4444 32.2249ZM65.4148 36.1792C65.421 36.1825 65.4275 36.1864 65.4346 36.1894L65.5783 36.1027L65.5378 35.9826C65.5759 35.9581 65.6227 35.9516 65.6664 35.9637C65.6849 35.9047 65.6728 35.8476 65.6506 35.7928C65.6039 35.7687 65.5579 35.7527 65.5073 35.7359C65.4841 35.7433 65.4608 35.7512 65.4377 35.7592L65.4307 35.8439C65.4571 35.8996 65.3713 36.0944 65.3394 36.1418C65.362 36.1584 65.3895 36.1667 65.4148 36.1792ZM25.5445 33.8302H25.751C25.8033 33.7983 25.8354 33.7474 25.8632 33.6912C25.8465 33.5674 25.7922 33.5386 25.6786 33.5094L25.5426 33.6054C25.538 33.6806 25.5385 33.7557 25.5445 33.8302ZM22.6748 32.2166C22.7629 32.2538 22.9251 32.3186 23.0203 32.2918C23.2577 32.2235 23.2887 32.0339 23.3176 31.7991C23.2503 31.7894 22.9822 31.847 22.9274 31.8799C22.8013 31.9587 22.7169 32.0743 22.6748 32.2166ZM52.2441 30.365L52.3395 30.494C52.4333 30.4702 52.4491 30.4076 52.4736 30.3236C52.3873 30.2648 52.3006 30.2702 52.2441 30.365ZM52.4199 30.1127C52.5622 30.1682 52.6693 30.1901 52.8219 30.1696C52.8113 30.0875 52.7622 30.0023 52.7065 29.9434L52.5242 29.9466L52.4199 30.1127ZM18.7064 36.0754C18.7032 36.0973 18.7004 36.1195 18.6972 36.1418L18.8776 36.0513V35.9604L18.7473 35.9186C18.7297 35.9752 18.7148 36.0155 18.7064 36.0754ZM60.6477 29.3298C60.7134 29.3384 60.7597 29.2986 60.8112 29.2554L60.7636 29.0639L60.622 29.0583L60.5319 29.2512C60.5631 29.2799 60.6049 29.3204 60.6477 29.3298ZM48.9381 25.7793C49.0648 25.7892 49.1897 25.7807 49.2903 25.6946C49.2633 25.5483 49.2142 25.3855 49.1284 25.271C48.9906 25.2941 48.8051 25.2975 48.7225 25.4301C48.6849 25.49 48.6562 25.5994 48.7068 25.6616C48.7639 25.7321 48.8488 25.7705 48.9381 25.7793ZM88.8336 17.9324C88.8396 17.9553 88.8456 17.9784 88.852 18.0016C89.0912 17.9125 89.1035 17.7946 89.0873 17.5475L88.951 17.5392L88.8123 17.6341C88.8026 17.7354 88.8077 17.8355 88.8336 17.9324ZM54.4922 33.2404C54.5229 33.279 54.5539 33.3174 54.5846 33.3563C54.6069 33.3419 54.6584 33.3396 54.6519 33.3142L54.6106 33.1484L54.6885 33.168C54.6825 32.9611 54.5726 32.9393 54.3871 32.8979C54.4302 33.0279 54.4237 33.1424 54.4158 33.279C54.4403 33.2663 54.4681 33.2524 54.4922 33.2404ZM39.6733 17.4821L39.8203 17.5312C39.8663 17.5043 39.8751 17.4722 39.8899 17.4232C39.8773 17.3898 39.8648 17.3563 39.8523 17.323L39.6733 17.4821ZM33.8687 10.805C33.9462 10.8575 34.0019 10.8885 34.0979 10.9163C34.1484 10.8323 34.2096 10.7562 34.1967 10.6515C34.1766 10.6348 34.011 10.5619 33.9888 10.5596C33.9323 10.5536 33.8784 10.5675 33.828 10.6033C33.8417 10.67 33.8553 10.7377 33.8687 10.805ZM76.3376 10.99C76.3688 10.9734 76.4035 10.9357 76.4086 10.8978C76.4243 10.7652 76.423 10.605 76.3654 10.4807C76.3032 10.3468 76.1953 10.2381 76.0311 10.2775C76.0023 10.4599 75.9911 10.6741 76.0497 10.8513C76.091 10.9752 76.2044 11.0518 76.3376 10.99ZM67.6826 10.0874C67.7254 10.1144 67.9178 10.1398 67.9757 10.1281L68.0064 10.0184C68.0362 10.0474 68.0658 10.0772 68.0955 10.1068C68.193 10.0448 68.283 9.94913 68.3075 9.83321C68.3209 9.76926 68.293 9.69861 68.2381 9.66355C68.1875 9.63096 68.0189 9.59854 67.9602 9.61845C67.7402 9.69403 67.7143 9.74283 67.6077 9.96411C67.62 10.0289 67.6266 10.0503 67.6826 10.0874ZM48.8918 9.64769C48.9117 9.66302 48.9406 9.6602 48.9647 9.66619L49.0077 9.60171V9.50904C48.9846 9.43064 48.877 9.36511 48.7995 9.35506C48.7508 9.34802 48.7029 9.37585 48.6881 9.42606C48.7526 9.50622 48.8128 9.57758 48.8918 9.64769ZM74.7638 9.0154C74.7888 9.00571 74.8144 8.99602 74.8398 8.98615L74.8655 8.93524C74.8315 8.9185 74.8015 8.88925 74.7638 8.88414C74.7238 8.87921 74.6565 8.89489 74.6599 8.95373C74.6641 9.04429 74.6789 9.04834 74.7638 9.0154ZM23.5291 20.8654C23.537 20.8671 23.5449 20.8691 23.5528 20.8708C23.6599 20.7879 23.6529 20.6728 23.6432 20.5486C23.5895 20.5097 23.5296 20.5106 23.4688 20.5213L23.4165 20.6765L23.3282 20.7095C23.3407 20.7466 23.3552 20.7884 23.3671 20.825C23.4211 20.8384 23.4748 20.8523 23.5291 20.8654ZM67.276 11.7257C67.344 11.7641 67.4294 11.7888 67.4978 11.7387C67.637 11.62 67.7069 11.5518 67.6015 11.3672C67.4995 11.3922 67.2666 11.4362 67.2198 11.5453C67.1933 11.607 67.2132 11.6871 67.276 11.7257ZM33.2485 13.7026C33.2579 13.7054 33.2672 13.7082 33.2769 13.711L33.3116 13.6744C33.3135 13.6349 33.315 13.596 33.3144 13.556L33.1812 13.5616C33.1812 13.6048 33.1957 13.6869 33.2485 13.7026ZM51.0831 30.2667H51.2754V30.0653C51.1581 30.0671 51.1141 30.1677 51.0831 30.2667ZM91.1014 16.1504H91.2406L91.24 16.0868C91.1956 16.0371 91.1718 16.0112 91.1014 16.0117C91.0783 16.0348 91.055 16.0581 91.0323 16.0813C90.9805 16.1336 91.0281 16.1504 91.1014 16.1504ZM87.6672 22.3479C87.7433 22.3261 87.8396 22.2996 87.8805 22.2253C87.8846 22.2003 87.8893 22.1196 87.8851 22.0977C87.8726 22.0371 87.8613 21.9943 87.8365 21.935L87.6606 21.8914C87.6187 22.026 87.5669 22.2263 87.6672 22.3479ZM82.9437 42.3926C82.9034 42.3499 82.8686 42.3054 82.8399 42.2539H82.6544C82.5792 42.0943 82.49 41.9088 82.3875 41.7677C82.3542 41.7222 82.2702 41.6711 82.2156 41.6637C82.1449 41.6546 82.0824 41.681 82.0332 41.727C81.9483 41.8057 81.9738 41.9472 82.0013 42.0455C82.0147 42.0954 81.9735 42.1375 81.9376 42.1616C81.7527 42.1616 81.5671 42.1657 81.3824 42.1616C81.3657 42.1611 81.3509 42.1523 81.3361 42.1457C81.2536 42.1105 81.0864 41.9807 81.0276 41.9069C80.9307 41.7858 80.9092 41.2251 80.8958 41.0506L80.67 41.0052L80.6185 42.1151H79.4617L79.4152 41.6532C79.5297 41.6616 79.6147 41.6563 79.7158 41.6165C79.7672 41.5963 79.8192 41.4955 79.8238 41.4439C79.8254 41.4285 79.8285 41.412 79.8229 41.3977C79.5731 40.7166 79.3127 40.0385 79.0534 39.3613C79.0465 39.3437 79.0354 39.3275 79.0215 39.3148C78.9408 39.242 78.8647 39.1548 78.8108 39.0602C78.4413 39.1682 77.5705 39.1067 77.1461 39.1067C77.1619 38.8646 77.0247 38.7087 76.956 38.4818C76.5751 37.2262 76.2398 35.9544 75.9039 34.6866C75.8896 34.6329 75.8725 34.2835 75.8979 34.2238C76.5282 32.7467 77.2398 31.3016 77.8776 29.827C77.9575 29.6423 77.898 29.3863 78.0729 29.2537L78.1198 28.5077C78.4269 28.1822 78.8178 27.9084 79.028 27.5127C79.1598 27.2641 79.2877 26.8207 79.4198 26.4946C79.4589 26.3977 79.4691 26.144 79.5186 26.0318C79.9441 25.0674 80.4189 24.1239 80.8505 23.1624C81.9289 20.7586 82.9939 18.3489 84.0645 15.9421C84.1413 15.7691 84.2106 15.5919 84.2737 15.4132L84.1354 15.2714C82.3385 15.2528 80.541 15.2351 78.744 15.2251C78.6908 15.2246 78.6379 15.218 78.5849 15.2147C78.6855 15.1953 78.734 15.1712 78.7826 15.0857C77.3344 15.0863 75.8478 15.1638 74.4169 15.1317L74.3695 11.2484C74.3997 11.2535 74.3105 11.28 74.2999 11.3087C73.0989 14.597 71.9268 17.8949 70.7604 21.1952H70.6231C70.5181 21.423 70.4042 21.6437 70.3434 21.8877L70.4375 21.9869C70.3587 22.2346 70.2807 22.4777 70.2014 22.7255L69.9274 22.9081L69.744 23.641C69.777 23.6544 69.8369 23.705 69.8522 23.7379C69.8388 23.7584 69.8251 23.7783 69.8117 23.7987L69.7423 23.8336C69.4977 24.5512 69.2523 25.2677 69.0094 25.9858C68.9932 26.0344 68.9986 26.0994 69.0037 26.15L69.1864 26.3328H68.9555L68.5835 27.3527C68.7677 27.5058 68.7891 27.6686 68.7673 27.8987C68.6614 28.0035 68.539 28.0174 68.4003 28.0453C68.1558 28.6697 67.9123 29.2947 67.6683 29.9196C67.6325 31.2297 67.737 32.5484 67.6132 33.8535C67.5924 34.0721 67.1391 35.1723 67.0249 35.3809C66.9939 35.438 67.0018 35.5694 67.0152 35.632L67.1507 35.6348L67.6632 34.6605L67.6132 35.6843C67.8168 35.7928 67.8589 35.8661 67.8938 36.0846L67.6132 36.3751V38.2769C67.5254 38.321 67.4476 38.3863 67.3831 38.4596C67.3632 38.767 67.339 39.0732 67.3126 39.3812C67.3079 39.4286 67.2691 39.3854 67.2661 39.338C67.2504 39.082 67.2568 38.9781 67.1493 38.7364C67.0439 38.7008 66.9869 38.6724 66.9322 38.571C66.9795 38.5364 67.0427 38.4763 67.0513 38.4131L67.3774 38.3668L67.3806 38.2263L67.0672 38.1383C66.9661 37.9767 66.8672 37.8144 66.968 37.627L66.2249 37.2089C66.2249 37.0609 66.2541 36.9052 66.317 36.7694V36.6771L66.2249 36.5671V36.3865C66.1886 36.3569 65.9827 36.2731 65.9238 36.2373C65.857 36.2373 65.6506 36.2232 65.6 36.2373C65.5833 36.2414 65.5685 36.2518 65.5537 36.2604C65.5352 36.2717 65.4608 36.3532 65.4381 36.376H65.0875C65.2679 36.6956 65.414 36.9702 65.1134 37.2554H64.887C64.7182 37.5452 64.7295 37.6621 64.6929 37.9917C64.6881 38.0313 64.652 37.9196 64.6435 37.8803C64.6227 37.7841 64.6157 37.6333 64.6042 37.5347C64.4697 37.7887 64.2963 38.0259 64.2006 38.2968C64.1731 38.3747 64.2049 38.7059 64.1879 38.8061C64.182 38.8423 64.1037 38.9457 64.093 38.9911C64.066 39.1093 64.0493 39.2628 64.0523 39.384L64.1879 39.4763C64.1879 39.6233 64.183 39.7698 64.1879 39.9164C64.1895 39.9536 64.2339 39.9856 64.2577 40.0093C64.2884 40.0399 64.2966 40.0868 64.2577 40.0672L64.0958 39.9862C63.9339 40.1328 63.7706 40.2774 63.6111 40.4268C63.5773 40.4583 63.5498 40.5455 63.5419 40.5913L63.6356 40.7305C63.6018 40.7541 63.5453 40.7947 63.5407 40.8422C63.5368 40.8739 63.5336 41.0973 63.5407 41.12C63.5512 41.1567 63.6954 41.3112 63.7285 41.3285H63.3067C63.2817 41.2125 63.2641 41.1276 63.1649 41.0506C63.0354 41.0506 62.9061 41.0461 62.7766 41.0506C62.7595 41.0515 62.7459 41.066 62.7303 41.0739C62.7005 41.1384 62.6806 41.2046 62.6323 41.2552C62.5613 41.3285 62.4766 41.329 62.3832 41.3276L62.337 41.0971C62.8883 39.9164 63.457 38.744 63.9924 37.5565C64.0336 37.4646 64.0452 37.3101 64.0467 37.21C63.9836 37.1702 63.921 37.1311 63.8566 37.0935C63.8125 37.0675 63.8402 37.0143 63.8874 37.0333L64.0884 37.1134C64.1705 37.0375 64.2864 36.8747 64.3299 36.7694C64.3365 36.7535 64.3708 36.4441 64.3685 36.4256C64.0759 36.37 63.7914 36.3245 63.4966 36.2831L63.3555 36.5146H63.0313V36.9311H63.355L63.4015 36.7924L63.5373 36.7984C63.5354 36.8634 63.5253 36.9845 63.4979 37.047C63.0634 38.0296 62.5698 38.9883 62.1166 39.9629C62.0957 40.0078 62.0655 40.224 62.0627 40.2677C62.0359 40.2277 62.0062 40.1891 61.982 40.1481C61.3242 39.032 60.6753 37.9113 60.0233 36.7924C60.617 36.7924 61.2107 36.799 61.8048 36.7924C61.8753 36.791 61.88 36.7657 61.9204 36.7229C61.9505 36.4725 61.9116 36.2865 61.6656 36.2373C61.5009 36.2038 60.8859 36.2359 60.7176 36.2837L60.4858 36.0985L59.4675 36.0518C59.4675 33.977 59.4749 31.9013 59.4588 29.827C59.0478 28.7317 58.5621 27.6612 58.2263 26.5409C58.1715 26.3577 58.18 25.6857 58.1715 25.4528C58.03 25.3628 57.8951 25.2821 57.7911 25.1528C57.7818 25.1407 57.613 24.7515 57.6076 24.7362C57.1247 23.3902 56.606 22.0565 56.127 20.7095C55.2234 18.169 54.3601 15.6137 53.4588 13.0727C53.425 12.9773 53.3332 12.8589 53.2691 12.7838C53.2525 12.8102 53.2148 12.8881 53.2238 12.9341C54.0423 17.1741 54.8774 21.417 55.6677 25.6616C56.0435 27.6802 56.1668 29.8381 56.5486 31.8636C56.6046 32.1624 57.0658 32.9467 57.1576 33.2983C57.3329 33.9676 57.4813 34.7784 57.5681 35.4734C57.5806 35.5754 57.5329 35.8848 57.5218 36.0058L56.7367 35.9593C56.7367 35.2937 56.7242 34.6392 56.7847 33.9798C56.7526 33.9107 56.7105 33.8499 56.6464 33.8094C56.6287 33.8242 56.6113 33.8387 56.5935 33.8535C56.5461 34.0846 56.4827 34.3138 56.4575 34.548C56.4094 34.9923 56.4043 35.4447 56.3682 35.8899C56.3564 36.0294 56.1932 36.092 56.0889 36.145C56.0762 36.3376 56.0634 36.5305 56.0498 36.7229C56.0458 36.7875 56.0389 36.8654 56.0192 36.8035C55.9975 36.7336 55.9306 36.6936 55.8648 36.6771L55.9018 36.5662C55.8555 36.5058 55.778 36.4223 55.708 36.3865L55.5874 36.3969C55.5745 36.4285 55.5615 36.4598 55.5484 36.4919C55.6052 36.593 55.6918 36.7132 55.8123 36.7424C55.8393 36.8375 55.8453 36.89 55.9265 36.9544C55.9399 36.9649 55.9572 36.9711 55.9734 36.9776H56.0657C56.0819 36.9716 56.0963 36.9623 56.1122 36.9544L56.1717 36.8945C56.297 37.0823 56.344 37.0902 56.3203 37.3249C56.3148 37.3779 56.2781 37.454 56.2722 37.51C56.2015 38.1798 56.1492 38.8523 56.0895 39.5237C55.9117 39.3757 55.7364 39.2249 55.5567 39.0797C55.5433 39.0692 55.5262 39.0653 55.5105 39.0602H55.4177C55.4177 39.0602 55.3904 39.0713 55.3833 39.0834C55.3527 39.1349 55.3294 39.1911 55.3027 39.2445C55.1936 39.2473 55.0192 39.1666 54.9367 39.0993L54.8388 39.2454C54.6305 39.2485 54.4223 39.2439 54.2144 39.2485C54.1471 39.2499 53.9565 39.5937 53.9135 39.6632C53.9459 39.7584 53.965 39.8044 54.0502 39.8544L53.9588 40.1282C54.0351 40.2328 54.0062 40.6273 54.0062 40.7728L53.4977 41.008L53.5516 41.2413L53.6286 41.1324C53.6462 41.1592 53.6642 41.1859 53.682 41.2125V41.4671H53.3587L53.2195 41.6523H52.3864V41.0942C52.4895 41.0052 52.6123 40.7793 52.7102 40.7279L52.5251 40.6805C52.5251 40.4411 52.5157 40.2018 52.5251 39.9629C52.5298 39.8396 52.6653 39.8 52.7566 39.7545L52.8002 39.5792L52.6637 39.5713V39.4772L52.8025 39.4309L52.848 39.2494C52.7292 39.1433 52.6272 39.153 52.4787 39.153L52.2909 38.9652C52.2268 39.2559 52.2014 39.5177 52.1063 39.8005C52.1637 39.82 52.2407 39.8794 52.2478 39.9451C52.2134 39.9694 52.1572 40.0084 52.1535 40.0556C52.1146 40.5714 52.0924 41.0892 52.0622 41.6058L51.0868 41.6526C50.9745 41.5089 50.8382 41.4565 50.6726 41.5571L50.6312 41.4745C50.3956 41.4356 50.3209 41.5651 50.1187 41.6509L50.0723 40.7254C50.1775 40.7941 50.2931 40.7686 50.4104 40.7569C50.3451 40.6461 50.3209 40.5788 50.1879 40.5492C50.1587 40.5427 50.0945 40.4731 50.0727 40.4481C50.0514 40.424 50.1187 40.4021 50.1414 40.3794C50.2596 40.3567 50.4289 40.2834 50.5078 40.1916C50.5714 40.1178 50.576 39.9832 50.5732 39.8905C50.5723 39.8563 50.5325 39.8357 50.5121 39.8089C50.3627 39.8817 50.2203 39.9541 50.0723 40.033C49.9508 39.4081 49.8107 38.7861 49.7064 38.158C49.6895 38.0585 49.7105 37.8946 49.6962 37.7873C49.6701 37.5986 49.5648 37.4168 49.5258 37.2322C49.4698 36.9669 49.5875 36.9103 49.3579 36.6756C49.3877 36.6608 49.4173 36.6455 49.4474 36.6305L49.6102 36.7451L49.563 36.839C49.5886 36.8523 49.6803 36.8974 49.7249 36.8737C49.8204 36.8231 49.9314 36.8319 50.026 36.7865C50.0286 36.4538 50.042 36.1078 49.8826 35.7974C49.7894 35.573 49.857 35.4447 49.7573 35.1959C49.7499 35.1774 49.7843 35.1662 49.7945 35.1496C49.8877 34.9997 49.9406 34.8616 50.0286 34.7079C50.1849 34.663 50.3502 34.61 50.4888 34.5229C50.5487 34.3151 50.6331 34.1128 50.6675 33.9C50.7129 33.6148 50.703 33.3089 50.7231 33.0205C50.7397 32.7742 50.8274 32.524 50.857 32.2802C50.8686 32.1853 50.8093 31.8888 50.8149 31.7709C50.8339 31.3724 50.9476 30.9746 50.9499 30.5676C50.9527 30.0301 51.1209 29.5185 50.9874 28.9938C50.8882 28.605 50.4419 27.7266 50.2212 27.3277C50.172 27.2386 50.0101 27.1189 49.9502 27.0039C49.8031 26.7196 49.8061 26.5224 49.517 26.3355C49.4823 26.1605 49.5056 26.1059 49.3548 25.9858C49.2906 25.9347 49.1724 25.9254 49.0946 25.9245L48.8682 26.1486L48.222 26.0076L48.0356 26.1477C47.9247 26.1477 47.6409 26.1695 47.5498 26.1477C47.5327 26.1436 47.5169 26.1352 47.5035 26.1244C47.4112 26.0506 47.3893 25.9079 47.349 25.8006C47.3328 25.758 47.2776 25.7483 47.241 25.7421L47.3374 25.598C47.33 25.548 47.316 25.5076 47.272 25.4937C47.1376 25.4514 47.0044 25.4194 46.876 25.3588C46.8453 25.2029 46.7303 25.1068 46.5948 25.0376C46.7474 24.9199 46.7725 24.7964 46.701 24.6433C46.6138 24.456 46.4338 24.2859 46.2933 24.1342C46.1032 23.9296 45.9089 23.7135 45.6783 23.5552C45.4895 23.5621 45.3238 23.5112 45.1429 23.4635C45.1031 23.4522 44.9969 23.4619 44.9579 23.4777C44.9306 23.4885 44.6551 23.6578 44.6341 23.68C44.4532 23.8711 44.2677 23.9666 44.0813 24.1373C43.9742 24.2348 43.872 24.3924 43.8239 24.5307C44.002 24.7319 43.9449 25.0429 43.9631 25.2915C43.9648 25.3216 44.0534 25.4787 44.0554 25.5228C44.0637 25.6995 44.0478 25.8778 44.0563 26.055C43.7486 26.2367 43.4421 26.5215 43.3563 26.8647C42.9012 28.6906 42.5669 30.6201 42.1627 32.4652C42.134 32.5957 42.0022 32.6532 42.1345 32.789C42.1794 32.835 42.2096 32.8586 42.2737 32.8586L42.3218 32.8339C42.3257 32.8373 42.4596 33.0385 42.4842 33.0668C42.5672 33.8466 42.7036 34.747 42.7133 35.5196C42.7133 35.5303 42.7615 35.6417 42.7592 35.6588C42.7171 36.0018 42.6771 36.3411 42.668 36.6978C42.814 36.7015 42.8947 36.737 42.9899 36.6009L43.0751 36.6649C42.9862 36.7262 42.9018 36.7754 42.8396 36.862C42.7339 37.0083 42.6576 37.1895 42.5765 37.3495L43.4072 37.9498V39.7545L43.5464 39.801V39.9862H43.4536V40.4021L43.867 40.5469C43.9032 40.56 43.8418 40.6206 43.8299 40.6572C43.7069 40.7245 43.5765 40.854 43.5157 40.981C43.4359 41.1489 43.4509 41.3077 43.4555 41.489L43.3586 41.4909C43.3679 41.5029 43.3604 41.4592 43.3614 41.4439C43.3947 40.8854 43.2936 40.2009 43.2686 39.6206C43.1123 39.4192 42.8924 39.4522 42.666 39.5133L42.6632 39.338L42.0655 39.3845L41.9716 39.5232C41.609 39.5107 41.2341 39.5593 40.8849 39.4666C40.5681 39.3826 39.9873 39.0676 39.6589 38.9221C39.6362 38.7429 39.6407 38.5593 39.5185 38.4164C39.3301 38.4404 39.324 38.5806 39.3379 38.7397C39.266 38.6983 39.2063 38.6543 39.1263 38.6437C39.01 38.6284 38.8471 38.628 38.7317 38.6479L38.6862 38.7829C38.2158 38.9954 37.7502 39.2188 37.2752 39.4201C37.2102 39.4474 37.0888 39.4386 37.0205 39.4272V39.2973C36.963 39.2672 36.8739 39.2491 36.8122 39.255C36.79 39.2568 36.6235 39.3306 36.604 39.3479V39.6618H35.9097L35.493 40.0788V40.3098L35.5859 40.3561V40.4907C35.2291 40.5181 35.0586 40.3708 34.7527 40.2175L34.7027 40.0686C34.903 40.091 35.0572 40.0794 35.1925 39.9164C35.2032 39.9035 35.2111 39.8868 35.2157 39.8703C35.2458 39.7527 35.2407 39.43 35.0998 39.3939C34.9805 39.3632 34.8294 39.3817 34.7064 39.3851L34.5214 36.5615C34.4848 36.549 34.4428 36.5351 34.4055 36.5225C34.3118 36.4919 34.2926 36.4859 34.2894 36.5842C34.2593 37.4942 34.276 38.4071 34.1976 39.3148C34.18 39.5207 34.0928 39.5792 34.1076 39.8456C34.1095 39.8777 34.0579 39.8047 34.0329 39.7848C33.9976 39.6944 33.9754 39.5937 33.8673 39.5723C33.6326 39.6396 33.3993 39.7231 33.1557 39.7496C32.8764 39.7797 32.5806 39.7559 32.3 39.7545L32.068 39.338H31.5463C31.4813 39.0195 31.4117 38.7008 31.3194 38.3895C31.2745 38.2383 31.1992 38.0204 31.0735 37.9261C30.8913 37.7898 30.6469 37.6199 30.4251 37.5333C30.3643 37.5091 29.9942 37.5736 29.9163 37.5764C29.8152 37.5807 29.6658 37.556 29.5687 37.5299C29.4769 36.6441 29.4241 35.753 29.2934 34.8718C29.2622 34.7037 29.1445 34.5554 29.0599 34.4093C29.0599 34.2085 29.0545 34.008 29.0599 33.8073C29.061 33.7742 29.1244 33.7134 29.1523 33.6974V33.0438L29.4315 33.137C29.5314 33.0816 29.6249 33.0358 29.7312 32.9973C29.805 32.9705 29.8573 33.0691 29.9163 33.0947C30.0289 33.1266 30.1459 33.1378 30.2627 33.1359L30.355 32.9978C30.4845 32.9617 30.618 32.9389 30.7493 32.9097C30.8009 32.8979 30.9066 32.7947 30.9112 32.7427C30.9316 32.508 30.8825 32.2779 30.9515 32.0487C30.9566 32.0311 30.9697 32.0163 30.9836 32.0047C31.0504 31.9481 31.1205 31.8951 31.189 31.8405C31.189 31.6708 31.2359 31.3831 30.9697 31.3831C30.8453 31.4837 30.8649 31.6058 30.8649 31.7482L30.7257 31.8408C30.6882 32.0417 30.6274 32.0982 30.4947 32.2496C30.5277 31.9649 30.5731 31.7876 30.6328 31.5163H30.7262L30.8185 31.3317L30.6794 31.2388L30.8185 31.146V30.4059L30.6797 30.267L30.8132 30.2221C30.8672 30.1215 30.9071 29.9404 30.9033 29.827C30.9029 29.8122 30.7902 29.5146 30.7814 29.5031C30.7126 29.4122 30.5976 29.3372 30.5851 29.2253C30.2683 26.3639 30.0641 23.482 29.7493 20.6168C29.7294 20.435 29.6212 20.2118 29.4533 20.1367C28.8727 19.8774 28.2645 19.6667 27.6711 19.4368C27.6435 19.2118 27.6304 18.9799 27.5637 18.7655C27.5261 18.6459 27.385 18.5994 27.2858 18.5499C27.4023 18.4667 27.5827 18.2655 27.5325 18.1176C27.5135 18.061 27.3316 17.8869 27.2779 17.8397C27.162 17.7386 27.0061 17.6958 26.8614 17.7414C26.8378 17.7488 26.7009 17.8667 26.6902 17.8861C26.6703 17.9218 26.6076 18.079 26.6058 18.1176C26.591 18.4024 26.5751 18.688 26.5533 18.972C25.9141 18.7766 25.2718 18.5841 24.64 18.3721C24.4994 18.3249 24.152 18.5351 24.0153 18.6036C24.0156 19.107 23.9577 19.6041 23.9702 20.1078C23.9713 20.1358 24.1 20.3379 24.1094 20.3853C24.1409 20.55 24.1441 20.728 24.1492 20.8946C24.1562 21.1094 23.902 21.4011 23.7583 21.5449C23.8974 21.6326 23.9781 21.5972 24.1071 21.5171C24.2457 22.6675 24.4039 23.8149 24.5213 24.9671C24.7602 27.3101 24.9642 29.6566 25.1744 32.0022C25.1846 32.116 25.1846 32.2226 25.2295 32.326C25.3255 32.5459 25.449 32.7603 25.5389 32.9969L26.7913 33.0443L27.07 32.8123L27.4872 32.8586L27.5822 33.0438L27.9955 32.9973C28.1801 34.8564 28.3642 36.7151 28.5488 38.5746C28.5744 38.6097 28.5971 38.6321 28.6435 38.6382V39.3377L28.7358 39.3845L28.7821 39.801L28.9167 39.9356C28.7548 40.1648 28.8276 40.2036 28.7463 40.416C28.7793 40.4402 28.8267 40.4745 28.8286 40.5181C28.8383 40.7719 28.8286 41.0279 28.8286 41.282H28.9088L28.9673 41.3864C28.9287 41.418 28.8764 41.4329 28.8281 41.4199L28.8741 41.739C28.6708 41.8068 28.406 41.8824 28.2037 41.9347C28.0312 41.9793 27.8614 41.9787 27.6852 41.9727C27.7367 41.8829 27.7742 41.8128 27.8503 41.7428C27.8447 41.7205 27.8392 41.6977 27.833 41.6755C27.7687 41.6008 27.739 41.5716 27.6481 41.5711C27.6058 41.5711 27.5501 41.6384 27.5441 41.6755C27.5298 41.7631 27.5716 41.8563 27.6148 41.9301H27.3475V40.5876H27.4379L27.4398 40.397C27.2983 40.1888 27.129 40.0885 27.0247 39.8473H26.8382V39.9397H26.6972L26.6109 40.0774C26.5556 40.0915 26.5004 40.1053 26.4449 40.1192C26.4161 40.1722 26.3422 40.2408 26.3294 40.2871C26.3223 40.3109 26.3209 40.3783 26.3294 40.4027L26.2172 40.4592C26.2221 40.4976 26.2867 40.598 26.3274 40.5219C26.3405 40.6169 26.3362 40.7561 26.2904 40.8422C26.2853 40.8521 26.2314 40.8928 26.2161 40.8986C26.2945 40.9941 26.3066 41.122 26.3297 41.2384C26.4416 41.2279 26.4853 41.175 26.5306 41.0765C26.5441 41.0478 26.5575 41.1345 26.5609 41.166C26.5686 41.2492 26.5609 41.3373 26.5609 41.4206H26.1902V41.3285C25.9513 41.3285 25.7119 41.3225 25.473 41.3285C25.4332 41.3293 25.3493 41.4278 25.332 41.4645L25.2647 41.3285H25.1257V41.1893C25.0914 41.2125 25.0565 41.2358 25.0218 41.2589L24.9869 41.3285C24.84 41.326 24.692 41.3131 24.5474 41.3339C24.4531 41.3473 24.2383 41.3947 24.1539 41.424V41.5126C23.9619 41.5688 23.7736 41.5517 23.5754 41.5596C23.5188 41.5617 23.4418 41.6206 23.4043 41.6569C23.3918 41.6324 23.3798 41.6077 23.3671 41.5825C23.3552 41.5586 23.3761 41.4375 23.3876 41.4086C23.4884 41.443 23.6242 41.3419 23.691 41.2691C23.691 41.064 23.6608 40.9492 23.7549 40.7612C23.704 40.7413 23.633 40.6486 23.6381 40.5876H23.1915L23.1552 40.6777C23.0981 40.6467 23.0262 40.5961 23.043 40.5181C23.0731 40.3817 23.1816 40.2564 23.2819 40.1652C23.3737 40.1777 23.4182 40.1817 23.4827 40.1016C23.5157 40.0609 23.5137 39.9897 23.5021 39.9405C23.5754 39.8762 23.6566 39.8197 23.6957 39.7314C23.717 39.6837 23.7731 39.4545 23.7759 39.4078C23.7787 39.3637 23.7856 39.338 23.7829 39.2908C23.7137 39.2221 23.6554 39.1405 23.5518 39.13C23.4898 39.1233 23.4225 39.0988 23.4827 39.0834L23.5986 39.0547C23.5986 38.9252 23.6034 38.7963 23.5986 38.667C23.5949 38.5792 23.4313 38.5449 23.3671 38.5514V38.4587H23.5058V38.1753C23.4057 38.2077 23.3478 38.1372 23.2976 38.0653C23.2239 37.9586 23.1788 37.7926 23.1785 37.6636C23.1117 37.6421 23.0629 37.6046 23.0476 37.5333H22.9447C22.9419 37.5782 22.9024 37.612 22.868 37.6347C22.8532 37.5148 22.8564 37.3918 22.8152 37.2787C22.7939 37.2193 22.6394 37.1362 22.5805 37.1168C22.5536 36.9831 22.5578 36.849 22.3945 36.8356L22.3487 36.7003L22.2061 36.6524C22.1723 36.5217 22.138 36.4873 22.0615 36.3848L21.5146 36.8867C21.5212 36.9799 21.5252 37.0518 21.5021 37.14C21.4946 37.1682 21.3903 37.3245 21.363 37.3481H21.2999C21.1755 37.4549 21.1917 37.5708 21.1917 37.7184H21.2846V37.8106C21.2846 37.8185 21.2687 37.8106 21.2613 37.8106H21.1917V38.0923C21.3545 38.1679 21.3985 38.2878 21.3735 38.4587H21.1454L20.682 39.0607L20.7747 39.6159L20.9599 39.7119L20.9125 40.0737C20.8091 40.0882 20.5247 40.0677 20.4283 40.0158C20.2451 39.9178 19.9839 39.6985 19.8049 39.5706C19.5933 39.653 19.3836 39.7272 19.1925 39.8505C19.1569 39.8419 19.1216 39.8331 19.0859 39.8243C19.0475 39.8144 19.1512 39.7698 19.1606 39.7314C19.2687 39.2875 19.3355 38.834 19.4393 38.3895C19.5401 37.9586 19.6755 37.466 19.8068 37.047C19.8572 36.8842 19.8586 36.6765 19.8485 36.5072C19.8123 36.5359 19.764 36.5544 19.7395 36.5935C19.5734 36.8569 19.3898 37.1237 19.2878 37.4173C19.0071 38.2295 18.8577 39.1451 18.6467 39.9848C18.3711 40.0618 18.1035 40.1331 17.8197 40.1703C17.7499 40.0045 17.6944 39.8525 17.7811 39.684C17.6957 39.652 17.5658 39.6291 17.5255 39.5464C17.2337 38.8948 16.9522 38.2503 16.6664 37.6025C16.6465 36.7628 16.6562 35.9206 16.6562 35.08H16.3784L16.1094 34.811C16.2165 34.7292 16.5213 34.5628 16.6562 34.5205L16.7027 34.0619L16.9795 33.9662L16.9337 33.5989L16.7027 33.3678V32.5344L17.0724 32.5314C17.0579 32.4166 17.0195 32.3026 17.0292 32.1874C17.0482 31.9541 17.1005 31.7274 17.0729 31.4931C17.0681 31.4536 16.9823 31.3123 16.98 31.2619C16.9624 30.8622 16.986 30.4582 16.98 30.0583C16.9795 30.0259 16.9147 29.9642 16.8877 29.9483C16.8877 29.5838 16.9198 29.2179 16.8877 28.8552C16.8775 28.741 16.7973 28.5736 16.7951 28.4387C16.788 28.0271 16.7894 27.6956 16.7914 27.2814C16.7921 27.0615 16.6999 26.8041 16.6971 26.5409C16.6888 25.7793 16.671 25.0173 16.6559 24.2561C16.7138 24.1902 16.7931 24.0862 16.8877 24.0663C16.8877 23.6726 16.9203 23.2774 16.8877 22.8845C16.8817 22.815 16.7653 22.6005 16.7565 22.5144C16.7491 22.4462 16.7917 22.2681 16.7903 22.1906C16.7894 22.121 16.7031 21.9415 16.7027 21.8664C16.6747 18.7284 16.7027 15.5826 16.7027 12.4438C16.8275 12.416 16.921 12.2165 16.936 12.101C17.0886 10.9345 17.1823 9.73296 17.3042 8.56033L17.8586 8.51911C17.5831 9.92887 17.2751 11.3328 17.031 12.7489C16.9906 12.9813 16.9996 13.333 16.9846 13.5821C16.9837 13.5969 16.9851 13.6127 16.9851 13.6284C16.9857 13.6795 16.9897 13.7434 17.0033 13.6938L18.4615 8.42133L19.1091 8.37535L18.4175 11.3726L18.6007 11.3351L19.6179 8.42168C22.6339 8.41305 25.6516 8.37993 28.6667 8.45885C29.3917 8.47788 30.2548 8.69405 30.9808 8.79236C31.312 8.83728 31.7466 8.84979 32.0912 8.83728C32.112 8.83693 32.242 8.75395 32.2764 8.74549C32.331 8.7321 32.4349 8.73668 32.4889 8.75201L32.5778 8.88414L33.1795 8.93048C33.3431 9.03636 33.3932 9.04094 33.3639 9.23121C33.3442 9.36105 33.238 9.51362 33.1763 9.62867C33.2862 9.63836 33.3886 9.62955 33.48 9.68804C33.801 9.89258 34.1916 10.1635 34.4982 10.3945C35.3655 11.0485 36.1216 11.8961 36.6963 12.8168V13.5588C36.625 13.5514 36.5443 13.5687 36.4978 13.6284C36.515 13.7264 36.5358 13.8562 36.6509 13.8789L36.6036 15.1777L36.7426 15.1786C36.8475 14.9695 36.9412 14.7788 37.0948 14.6002C37.1704 14.5121 37.2562 14.4244 37.3443 14.3488C37.4584 14.7704 37.5888 15.1874 37.663 15.6183C37.7204 15.9509 37.7567 16.2987 37.759 16.6364C37.7752 18.7233 37.7292 20.8242 37.7144 22.9127C37.6278 22.9834 37.598 23.0147 37.5818 23.116C37.5738 23.1633 37.5892 23.2152 37.6161 23.2552C37.644 23.2959 37.7144 23.3488 37.7613 23.3664L37.8085 23.81L37.8968 23.7996C38.271 22.1173 38.6212 20.4302 38.9646 18.7414L39.2882 18.65V18.2798C39.2359 18.2275 39.182 18.1834 39.1496 18.1176C39.1492 18.1045 39.151 18.0383 39.1543 18.0252C39.3027 17.3485 39.4122 16.6625 39.5717 15.9885C39.9313 14.4718 40.3927 12.9776 40.717 11.453C40.9173 10.5118 41.0059 9.38924 41.1395 8.42133C42.0422 8.42168 42.9458 8.47277 43.847 8.42133C44.7414 8.37077 45.7209 8.17028 46.624 8.09664C47.4799 8.02652 48.4015 8.01031 49.2624 8.00009C49.2778 7.99956 49.2929 8.0015 49.3083 8.00185C49.3664 8.0052 49.4383 8.01595 49.3815 8.02793C49.2637 8.05259 49.1744 8.07849 49.0912 8.16711C49.031 8.23106 49.0997 8.3276 49.146 8.37447C50.82 8.40406 52.4941 8.44635 54.1681 8.46432C54.2215 8.46484 54.3118 8.48158 54.3531 8.514H55.8111L55.8578 8.42133H60.0691C60.1898 8.76822 60.2784 9.12815 60.431 9.46271C60.474 9.55626 60.6373 9.71993 60.6944 9.83321C60.7825 10.0082 60.8177 10.2233 60.9236 10.3883C60.9986 10.5058 61.2794 10.7011 61.3251 10.8513C62.2719 13.9591 63.1134 17.1375 64.0021 20.2666C64.0586 20.2569 64.1097 20.2405 64.1492 20.2001C64.3909 19.3825 64.6055 18.5559 64.8761 17.7474C64.9288 17.5889 65.0676 17.4435 65.1176 17.2844C65.1687 17.123 65.1529 16.9603 65.1129 16.7998C65.1687 16.6382 65.2272 16.4774 65.2716 16.3126C65.9689 13.7054 66.6655 11.0982 67.3632 8.49074L67.3817 8.42133C69.4105 8.42133 71.4408 8.3424 73.4679 8.42133C73.7136 8.43102 74.0713 8.47312 74.3472 8.51259C74.3761 8.51682 74.4892 8.60402 74.5323 8.60631C74.8269 8.62252 75.2115 8.5739 75.5046 8.56139C75.762 8.55029 76.0333 8.58553 76.2913 8.60543C76.3242 8.60772 76.3841 8.67132 76.4012 8.69916C76.5 8.69916 76.6276 8.71854 76.7078 8.65265C76.7167 8.64578 76.7625 8.61283 76.7761 8.60261L76.7305 8.42133H81.0813C81.0244 8.53584 80.9561 8.59204 80.9887 8.72224C81.004 8.78302 81.0958 8.83587 81.1511 8.82953C81.1699 8.82724 81.2827 8.76311 81.3086 8.74778C81.3194 8.68753 81.3162 8.63662 81.2897 8.58359L81.2202 8.514H81.3592L81.4057 8.42133H90.2915L90.3413 8.19124C90.894 8.23018 91.4127 8.30294 91.9808 8.32813C92.0629 8.37165 92.1799 8.39473 92.2379 8.43049C92.3069 8.62675 92.3447 8.81315 92.3734 9.01874C92.4289 9.07019 92.5268 9.12498 92.6043 9.13608L92.6521 8.42133H93.2997L93.3464 9.53353C93.5307 9.6602 93.6596 9.82493 93.8015 9.99511H93.4429C93.4022 10.0619 93.3489 10.1704 93.3464 10.2497C93.3279 10.8672 93.2685 11.7401 93.389 12.3324C93.4244 12.5046 93.5078 12.6998 93.6122 12.8412C93.6994 12.9596 94.0381 13.1844 94.1827 13.3199C93.7542 14.2866 93.321 15.2277 92.8668 16.1814C92.7814 16.2228 92.7972 16.2964 92.7676 16.3359C92.7532 16.3554 92.756 16.2887 92.7477 16.2663C92.7365 16.2376 92.7141 16.214 92.6919 16.1927C92.6697 16.214 92.6378 16.2282 92.6248 16.2566C90.9206 19.9567 89.2274 23.661 87.5896 27.3904C87.5567 27.3874 87.5241 27.3848 87.4913 27.3814C87.4871 27.3814 87.3888 27.318 87.3763 27.3048L87.0527 27.5365L87.3289 27.8612L84.506 34.1082H84.3672C84.1706 34.579 83.9615 35.0448 83.7754 35.5196C83.7328 35.6353 83.7013 35.7697 83.6789 35.8899C83.6762 35.9464 83.7439 36.0048 83.7888 36.0058C86.4299 36.0518 89.0833 36.0354 91.7263 36.0522C91.7405 35.9672 91.7545 35.8825 91.7689 35.7974C91.7856 35.6965 91.787 35.715 91.8882 35.7315L92.1428 35.7749L92.1893 36.0513C92.3552 36.0578 92.5092 36.047 92.6544 35.9575C92.7726 36.0462 92.9754 36.0058 93.1151 36.0058V36.7924C92.8756 36.8228 92.6359 36.8476 92.3975 36.8825C92.3496 36.8895 92.2862 36.9568 92.28 37.0009C92.2532 37.1975 92.25 37.4253 92.2356 37.6254C91.595 37.3208 90.9587 37.0077 90.3147 36.7114C90.2508 36.6825 90.1528 36.6658 90.0834 36.6584C90.0263 36.6924 90.0489 36.664 89.9923 36.7248C89.4288 37.3328 88.8579 37.9353 88.2781 38.5278C88.2271 38.5796 88.1361 38.6176 88.0678 38.6418L87.9783 38.5523C88.0703 38.4483 88.1629 38.4008 88.2785 38.3315C88.3317 38.2991 88.3727 38.1906 88.3851 38.1353C87.9593 38.2031 87.528 38.1812 87.0979 38.1812L86.9621 37.9994C86.8201 38.0146 86.7384 38.177 86.7724 38.2968C86.8201 38.4661 86.8878 38.6294 86.9082 38.8061C86.9286 38.979 86.9142 39.1638 86.913 39.338C86.8303 39.338 86.7214 39.3271 86.6522 39.3826L86.6804 39.4959C86.7829 39.5286 86.8229 39.5064 86.913 39.4772V39.9865C86.5377 40.409 86.154 40.826 85.7907 41.2589C85.783 41.268 85.7579 41.3276 85.7541 41.3383C85.8108 41.5298 85.8298 41.6602 85.879 41.8374C85.8423 41.8429 85.7727 41.8434 85.7327 41.8221C85.6165 41.7594 85.4634 41.6755 85.4392 41.5367C85.4327 41.4983 85.4583 41.4537 85.4815 41.4245L85.293 41.143H84.9796L84.9225 41.6526C84.7835 41.7825 84.6404 41.9028 84.4916 42.0163C84.4012 41.9528 84.2745 41.9761 84.1706 41.9761C84.1914 42.0647 84.16 42.1063 84.0876 42.1574L84.1354 42.2534L83.1641 42.3008L83.1195 42.3889L82.9437 42.3926Z" fill="white"/>
<path d="M67.981 33.1397C67.9776 33.1164 67.975 33.0933 67.9776 33.0701C68.0048 33.0164 68.0647 32.9968 68.1166 33.0238C68.1281 33.0391 68.1401 33.0544 68.1519 33.0701L68.1168 33.1397H67.981Z" fill="white"/>
<path d="M62.6854 42.9207C62.6403 42.8844 62.6482 42.8324 62.7043 42.846C62.8309 42.8761 62.8922 42.9103 62.9883 42.9939C62.8533 42.9999 62.7842 42.9989 62.6854 42.9207Z" fill="white"/>
<path d="M36.3656 40.6463C36.3576 40.6348 36.3479 40.6241 36.3423 40.6116C36.3256 40.5721 36.346 40.4781 36.3562 40.4414C36.3911 40.4664 36.4258 40.4909 36.461 40.5161C36.4676 40.5323 36.4741 40.5489 36.4811 40.5653C36.4792 40.6186 36.4514 40.6417 36.4119 40.6696C36.3962 40.6616 36.3809 40.6542 36.3656 40.6463Z" fill="white"/>
<path d="M57.5342 37.6314C57.5263 37.6198 57.5119 37.6107 57.511 37.5967C57.5004 37.4547 57.496 37.3476 57.4609 37.207C57.5198 37.2343 57.5672 37.2664 57.6024 37.3193L57.6089 37.669C57.5837 37.6565 57.5592 37.6439 57.5342 37.6314Z" fill="white"/>
<path d="M22.0427 36.8915C21.9592 36.8497 21.962 36.6933 22.0111 36.7717C22.0339 36.8078 22.0287 36.7523 22.0427 36.7666L22.1424 36.8148L22.0927 36.9165C22.076 36.9082 22.0594 36.8997 22.0427 36.8915Z" fill="white"/>
<path d="M66.9668 41.3304C66.9483 41.1773 66.902 41.0298 66.8384 40.8907C66.7063 40.6225 66.6094 40.3581 66.4589 40.1035C66.4274 40.0506 66.4335 39.9745 66.4589 39.9183C66.4904 39.8572 66.556 39.6777 66.5743 39.6484C66.6714 39.9603 66.8017 40.2594 66.9099 40.5665C66.9702 40.7381 66.849 40.7733 67.0139 40.9551L67.1492 40.9594C67.1585 40.9254 67.1673 40.8915 67.1759 40.8581C67.1918 40.7992 67.196 40.8759 67.1971 40.9366L67.1992 41.3304H66.9668Z" fill="white"/>
<path d="M93.5049 36.8849C93.495 36.877 93.4799 36.8728 93.4757 36.8617C93.454 36.8046 93.4447 36.7373 93.4297 36.6784C93.4702 36.6473 93.5016 36.6219 93.5514 36.6094C93.6629 36.665 93.5867 36.8358 93.5623 36.9307C93.5435 36.915 93.5239 36.9002 93.5049 36.8849Z" fill="white"/>
<path d="M87.1853 39.5897C87.1853 39.3728 87.1672 39.2491 87.1372 39.034C87.12 38.9116 87.1566 38.7594 87.1868 38.6406H87.7396L87.8324 38.9658L87.6166 39.1817C87.5884 39.1579 87.5606 39.1348 87.5324 39.1115C87.4373 39.1426 87.3575 39.1857 87.2838 39.2539L87.3245 39.3814L87.4507 39.382C87.4015 39.5164 87.2916 39.6033 87.1853 39.6922V39.5897Z" fill="white"/>
<path d="M39.8125 39.5569C39.8691 39.5035 39.9358 39.4558 40.0102 39.4297L40.0909 39.4618L39.9302 39.5907C39.9878 39.5366 39.9721 39.556 39.9637 39.5569H39.8125Z" fill="white"/>
<path d="M75.3148 39.3438C75.1241 39.3295 74.9335 39.3147 74.7429 39.2998C74.7156 39.1151 74.7642 39.1125 74.8292 38.9523C74.8426 38.919 74.8412 38.8049 74.8292 38.7673C74.8236 38.7511 74.8139 38.7363 74.8033 38.7233C74.6775 38.5767 74.4948 38.5247 74.3203 38.4666C74.3167 38.2733 74.2637 38.0679 74.3301 37.8879C74.6143 37.1164 75.042 36.2826 75.3773 35.5195C75.6659 36.5206 76.0471 37.4922 76.3482 38.4893C76.3553 38.5117 76.3081 38.7716 76.3176 38.8137C76.3315 38.875 76.4183 39.1472 76.4453 39.1958C76.2931 39.2372 76.1201 39.2645 75.9629 39.2517C75.9312 39.2488 75.5974 39.1727 75.569 39.1611L75.338 39.3457C75.3306 39.3454 75.3227 39.3443 75.3148 39.3438Z" fill="white"/>
<path d="M59.522 42.8555C59.5155 42.7785 59.5146 42.7015 59.5195 42.6245L60.2598 42.5782V42.3467L59.5155 42.3003C59.5661 42.2424 59.5846 42.2052 59.612 42.1384V42.0456C59.612 42.0456 59.5976 42.0142 59.5888 41.9992C59.5791 41.983 59.4979 41.9083 59.4766 41.887L59.5289 41.7237C59.5745 41.7382 59.6578 41.7725 59.6547 41.8384C59.7251 41.824 59.7967 41.8137 59.8666 41.7956C59.8908 41.7896 59.9325 41.7232 59.9385 41.6992C60.12 41.7353 60.1806 41.7325 60.3296 41.8606C60.3543 41.8819 60.3772 41.905 60.3987 41.9302V42.0688H59.982L60.035 42.208C60.299 42.1469 60.6185 42.0842 60.8847 42.0722C60.9707 42.0678 61.1 42.0921 61.1821 42.1176C61.2212 42.1941 61.2182 42.2461 61.2029 42.3165C61.1265 42.3884 61.0549 42.3955 60.9557 42.3902L60.8611 42.5317L61.0026 42.6263C60.7743 42.7043 60.5657 42.8445 60.3296 42.8921C60.1533 42.9273 59.7132 42.8792 59.522 42.8555Z" fill="white"/>
<path d="M57.4802 38.9873C57.4783 38.9695 57.5494 38.8022 57.5628 38.7734C57.5822 38.8064 57.6069 38.8531 57.6114 38.8945C57.6148 38.9223 57.6074 39.0095 57.6026 39.0243L57.4774 38.9956C57.4747 38.9947 57.4793 38.9901 57.4802 38.9873Z" fill="white"/>
<path d="M61.6685 42.7244C61.6496 42.7164 61.63 42.7087 61.611 42.7011C61.5749 42.6868 61.6017 42.6766 61.6343 42.6548L61.7141 42.6016L61.7789 42.6985C61.7965 42.7134 61.7372 42.7178 61.715 42.7244C61.7002 42.7277 61.6843 42.7244 61.6685 42.7244Z" fill="white"/>
<path d="M29.9518 40.4775C29.8919 40.5383 29.8575 40.5846 29.8404 40.5013C29.8367 40.4821 29.8353 40.4107 29.8362 40.3848C29.8813 40.3487 29.8697 40.324 29.9518 40.315C29.9902 40.311 30.0291 40.3124 30.0677 40.315C30.0358 40.379 30.0018 40.4269 29.9518 40.4775Z" fill="white"/>
<path d="M16.8207 39.7531C16.8054 39.7452 16.7886 39.7397 16.7744 39.7299L16.6821 39.6377C16.6821 39.6377 16.6593 39.6079 16.6588 39.5912C16.6486 39.3301 16.5207 39.0519 16.8403 38.9258C16.9951 39.1252 17.0605 39.1918 17.0263 39.4511L16.8522 39.4476L16.8448 39.6613L16.9826 39.7531H16.8207Z" fill="white"/>
<path d="M76.6579 39.2443C76.5846 39.2443 76.5196 39.2369 76.5761 39.1901C76.6415 39.1363 76.7275 39.1108 76.8124 39.1185C76.7742 39.1901 76.7405 39.2443 76.6579 39.2443Z" fill="white"/>
<path d="M64.262 41.3237C64.4752 41.1991 64.5269 41.1516 64.5581 40.9065L64.6969 40.9072L64.6969 41.2776L64.262 41.3237Z" fill="white"/>
<path d="M30.9607 40.1623C30.9218 40.122 30.8878 40.0802 30.8605 40.0305C30.4588 39.9512 30.1698 39.847 29.7969 39.7039V39.5231H30.0747L30.167 39.7546L30.399 39.8473L30.4912 39.7546H30.9537L30.9988 39.5746C31.0164 39.5644 31.0882 39.5344 31.1161 39.5311C31.226 39.5171 31.3953 39.4846 31.4862 39.5578C31.6036 39.6525 31.5493 39.8137 31.4825 39.9137C31.4714 39.9299 31.3146 40.0351 31.3012 40.039C31.2098 40.0626 31.1101 40.0776 31.0232 40.1063C31.0121 40.1098 30.9681 40.154 30.9607 40.1623Z" fill="white"/>
<path d="M60.0683 41.0964C59.9427 40.9988 59.8007 40.9228 59.6529 40.8652C59.5762 40.7354 59.5211 40.5916 59.4731 40.4507C59.6317 40.1991 59.758 39.9704 59.7431 39.6653C59.6652 39.5763 59.5748 39.4845 59.4668 39.4325C59.4515 38.6681 59.4365 37.9032 59.4226 37.1393C59.4212 37.0808 59.4222 37.0228 59.4226 36.9648C60.0688 38.0474 60.6666 39.1568 61.271 40.2629C61.1898 40.2763 61.1209 40.2999 61.0503 40.3388C61.029 40.4195 61.0105 40.4923 60.9705 40.564C60.9532 40.5936 60.6852 40.8532 60.6463 40.8788C60.4352 41.0166 60.3609 41.0026 60.1375 41.0731C60.1143 41.08 60.091 41.0884 60.0683 41.0964Z" fill="white"/>
<path d="M67.4104 41.3973C67.4039 41.3819 67.3886 41.3675 67.3909 41.3507C67.4145 41.1501 67.4707 40.9515 67.48 40.7491C67.4999 40.3118 67.4772 39.8716 67.4948 39.4336C67.496 39.3954 67.5147 39.5079 67.5158 39.546C67.5286 39.9628 67.5639 40.3786 67.5713 40.7956C67.5755 41.0312 67.5431 41.2734 67.5263 41.5086C67.4881 41.4739 67.4465 41.4348 67.4104 41.3973Z" fill="white"/>
<path d="M21.3934 42.0459C21.386 42.0305 21.3712 42.0166 21.3703 41.9993C21.3633 41.8226 21.3703 41.6442 21.3703 41.4669L21.5553 41.421C21.559 41.4056 21.572 41.3542 21.5786 41.3288C21.5879 41.2934 21.6189 41.3082 21.6249 41.3447L21.6485 41.4675L21.7868 41.5138L21.8312 41.6914L21.5562 41.7904L21.553 41.9925L21.4059 42.071L21.3934 42.0459Z" fill="white"/>
<path d="M36.2407 41.6148C36.2531 41.5296 36.2736 41.445 36.3029 41.3634C36.3126 41.3288 36.3408 41.3367 36.3491 41.3712C36.3761 41.4809 36.3788 41.6271 36.37 41.7403L36.2407 41.6148Z" fill="white"/>
<path d="M43.8666 42.0961C43.8797 42.0444 43.8922 41.9925 43.9052 41.941L43.7734 41.8855C43.8612 41.8489 43.9436 41.7708 44.0007 41.6953C44.0012 41.6005 44.0652 41.4444 44.0518 41.3711L44.1825 41.3868C44.1607 41.475 44.1547 41.5866 44.0458 41.6049C44.0458 41.8589 44.1217 42.0594 43.8458 42.1787C43.8527 42.1509 43.8596 42.1234 43.8666 42.0961Z" fill="white"/>
<path d="M21.0593 41.8321C21.0783 41.7634 21.0922 41.6935 21.1001 41.6233C21.0996 41.5909 21.0635 41.3795 21.0547 41.3515L21.1493 41.3438C21.1652 41.3753 21.1939 41.4029 21.1965 41.4384C21.2104 41.5983 21.1965 41.8011 21.1965 41.9658L21.0593 41.8321Z" fill="white"/>
<path d="M45.9256 41.9709C45.8812 41.9769 45.8046 41.9436 45.7656 41.9263L45.8565 41.8354V40.6602C45.9557 40.7083 46.0671 40.8034 46.1418 40.8869C46.1966 40.9475 46.2233 41.0358 46.2276 41.1182C46.2406 41.3707 46.2392 41.6707 46.2207 41.9218C46.1222 41.9376 46.0239 41.9551 45.9256 41.9709Z" fill="white"/>
<path d="M62.0824 41.8716C62.0635 41.7943 62.0573 41.7122 62.067 41.6323C62.067 41.6318 62.113 41.5399 62.1135 41.5399C62.134 41.5293 62.1594 41.5399 62.1826 41.5399C62.1428 41.6216 62.19 41.7622 62.2076 41.8497L62.0829 41.8744C62.082 41.8744 62.0824 41.8721 62.0824 41.8716Z" fill="white"/>
</svg>
