<svg width="36" height="36" viewBox="0 0 36 36" fill="none" xmlns="http://www.w3.org/2000/svg">
<g clip-path="url(#clip0_94_5824)">
<path d="M17.8043 0.00194093C13.7984 0.0276191 9.83803 1.45565 6.72656 3.96693L10.1263 7.91407C12.9955 5.64973 16.8616 4.727 20.4474 5.43985C22.418 5.81895 24.2931 6.68423 25.8752 7.91407L29.2749 3.96693C26.0565 1.36995 21.9481 -0.0601543 17.8043 0.00194093Z" fill="white"/>
<path d="M5.61768 4.93608C2.03544 8.30146 -0.0649318 13.1935 0.00153144 18.1283C0.00365544 23.2505 2.34025 28.2821 6.22066 31.61C9.80752 34.7471 14.6858 36.3452 19.4483 35.9409C24.609 35.5566 29.5072 32.8002 32.5354 28.6123C35.4828 24.6326 36.6376 19.3845 35.6592 14.5178C34.9399 10.7923 32.9868 7.33969 30.209 4.77344L26.8093 8.72058C29.5486 11.3026 31.0444 15.114 30.7624 18.8741C30.639 20.737 30.0979 22.5755 29.1835 24.2116L22.2552 17.5193L18.7596 9.98437L18.7543 21.3951L25.756 28.1707C22.6359 30.5948 18.3549 31.3988 14.5614 30.3243C13.0167 29.8934 11.5541 29.1705 10.2828 28.2004L17.3322 21.3951C17.3199 17.6852 17.3752 13.6805 17.3321 9.97211L13.8313 17.5193L6.84347 24.2672C4.71164 20.5457 4.66065 15.7345 6.71256 11.9715C7.35402 10.766 8.20302 9.66583 9.18795 8.72058L5.78826 4.77344C5.7314 4.82765 5.67454 4.88187 5.61768 4.93608Z" fill="white"/>
</g>
<defs>
<clipPath id="clip0_94_5824">
<rect width="36" height="36" fill="white"/>
</clipPath>
</defs>
</svg>
