<svg width="80" height="27" viewBox="0 0 80 27" fill="none" xmlns="http://www.w3.org/2000/svg">
<path d="M0.90625 13.192C0.90625 20.4484 0.921079 26.3828 0.940852 26.3828C0.970511 26.3828 4.99919 25.4795 5.4935 25.3598L5.75055 25.3V20.4544V15.6148H7.28293H8.81531V14.7294C8.81531 14.2448 8.83014 12.9826 8.84991 11.9177L8.87957 9.99145H7.31753H5.75055V7.86776V5.74406H7.5548C8.54838 5.74406 9.35905 5.73209 9.35905 5.71415C9.35905 5.64834 9.75451 0.539503 9.77922 0.282267L9.80888 0.00110054H5.35509H0.90625V13.192Z" fill="white"/>
<path d="M74.8509 0.770662L70.9062 1.16549V13.0821V24.9988L71.0694 25.0287C71.2127 25.0586 78.8499 25.7286 79.0031 25.7226C79.0476 25.7226 79.0625 25.0885 79.0625 22.7614V19.8002H77.3818H75.7011V17.6466V15.493H77.1346H78.5682V12.9206V10.3482H77.0852H75.6023V8.6433V6.93836L75.7159 6.91443C75.7753 6.89648 76.2795 6.87256 76.838 6.84863C77.3966 6.83068 78.1233 6.80077 78.4594 6.77684L79.0625 6.74095V3.55241V0.357887L78.929 0.363869C78.8499 0.369852 77.016 0.549318 74.8509 0.770662Z" fill="white"/>
<path d="M49.5237 1.59715C49.5731 2.19537 50.1366 11.2106 50.1268 11.2226C50.1218 11.2345 49.3952 9.07496 48.5103 6.42482C47.6305 3.77469 46.889 1.5792 46.8692 1.53732C46.8396 1.47152 45.4752 1.77662 43.236 2.35091L43.0234 2.40475V12.6882V22.9717H45.2231H47.4229L47.3981 22.541C47.3487 21.7394 47.1658 15.111 47.1856 14.8478C47.2004 14.6145 47.3487 15.0213 48.7526 19.1251C49.6028 21.6197 50.3245 23.6836 50.3443 23.7195C50.3739 23.7554 51.061 23.7016 52.2276 23.5819C53.241 23.4742 54.0714 23.3785 54.0714 23.3725C54.0763 23.3665 54.0516 19.0533 54.017 13.789C53.9824 8.52459 53.9528 3.55334 53.9528 2.73378L53.9478 1.25616H51.7234H49.494L49.5237 1.59715Z" fill="white"/>
<path d="M14.723 1.62225C11.767 1.86154 10.1407 4.30828 9.62659 9.27355C9.52279 10.3025 9.4783 13.7961 9.55244 15.0165C9.7996 18.9768 10.6844 21.5491 12.2564 22.8592C13.1016 23.5592 14.372 23.936 15.6276 23.8463C17.0562 23.7506 18.03 23.26 18.9049 22.2012C19.6217 21.3338 20.0122 20.5202 20.3879 19.1323C20.9118 17.194 21.1491 14.2986 21.0305 11.2836C20.897 7.90959 20.4768 5.80982 19.6118 4.2006C18.7863 2.66914 17.4813 1.75386 15.9588 1.6402C15.7166 1.62225 15.4595 1.6043 15.3903 1.59234C15.3211 1.58636 15.0245 1.59832 14.723 1.62225ZM15.42 6.3243C15.7808 6.79689 15.9341 8.6813 15.9341 12.7133C15.9341 17.6786 15.677 19.7425 15.1135 19.2998C14.8713 19.1024 14.6884 18.1392 14.5994 16.542C14.5352 15.3754 14.5352 10.0333 14.5994 8.91461C14.6933 7.3353 14.8614 6.46189 15.1135 6.25251C15.2519 6.13287 15.2766 6.13885 15.42 6.3243Z" fill="white"/>
<path d="M21.6641 12.4988V23.3925H23.933H26.1969L26.2266 22.6327C26.2464 22.208 26.2859 20.8321 26.3156 19.5638C26.3452 18.2956 26.3848 17.1829 26.4046 17.0932C26.4293 16.9675 26.6418 17.7751 27.2943 20.503C27.7689 22.4712 28.1693 24.1044 28.189 24.1283C28.2286 24.1821 32.8653 23.7394 32.9147 23.6796C32.9295 23.6557 32.4154 21.6995 31.7728 19.3186L30.6062 14.9994L30.8534 14.7362C31.674 13.8687 32.3512 12.1937 32.544 10.5366C32.628 9.81276 32.5736 8.01809 32.4451 7.35406C31.9508 4.75178 30.6408 2.72978 28.9701 1.97602C28.2434 1.65298 28.3027 1.65896 24.8672 1.63503L21.6641 1.6111V12.4988ZM26.7605 6.7678C27.1114 6.97718 27.3981 7.51558 27.5514 8.25738C27.6552 8.75391 27.6403 10.3272 27.5267 10.8297C27.3141 11.7749 26.9384 12.3253 26.3749 12.5347L26.2612 12.5706V9.57946V6.58235L26.4243 6.62423C26.5084 6.64217 26.6616 6.70798 26.7605 6.7678Z" fill="white"/>
<path d="M32.6953 4.45536V7.23711H33.9558H35.2163V15.2533V23.2695H37.589H39.9618V15.7319V8.19427H41.247H42.5322V5.41252V2.63078L42.4235 2.60685C42.3196 2.57694 32.893 1.66763 32.7596 1.67362C32.7101 1.67362 32.6953 2.27184 32.6953 4.45536Z" fill="white"/>
<path d="M54.9844 13.1344V23.9922H57.4312H59.8781V13.1344V2.27663H57.4312H54.9844V13.1344Z" fill="white"/>
<path d="M65.4639 3.02737C62.7847 3.20086 60.5553 3.34443 60.5109 3.34443C60.4268 3.35041 60.4219 3.5239 60.4219 6.16207V8.97372H61.6824H62.9429V16.8404V24.707H65.3403H67.7378V16.5114V8.31568H69.0724H70.4071V5.50402C70.4071 3.95462 70.3922 2.69835 70.3725 2.69835C70.3477 2.70433 68.1431 2.8479 65.4639 3.02737Z" fill="white"/>
</svg>
