<svg width="68" height="25" viewBox="0 0 68 25" fill="none" xmlns="http://www.w3.org/2000/svg">
<path d="M44.3006 0.00248323C42.6521 0.0059031 41.8212 0.0124402 41.6896 0.0229697C39.9128 0.165199 38.3514 0.68071 37.2892 1.47751C36.279 2.23533 35.5806 3.30872 35.3498 4.45829C35.2383 5.01332 35.2303 5.24594 35.2407 7.95464C35.2497 10.3115 35.257 10.5821 35.3021 10.8091C35.4006 11.3062 35.585 11.7983 35.8202 12.1817C36.9107 13.9601 38.9808 14.9656 41.8839 15.1317C42.1903 15.1493 45.6541 15.1622 51.1653 15.1625H59.9559V17.5116V19.8607H47.5966H35.2339V20.0382C35.2339 20.8276 35.5273 21.6541 36.0622 22.3737C36.382 22.8041 37.0063 23.3725 37.4869 23.6746C38.6233 24.3887 40.144 24.8408 41.8975 24.9823C42.0512 24.9947 46.5187 25.0023 51.8266 24.9994C62.2432 24.9937 61.6042 25.0016 62.5532 24.856C64.6118 24.54 66.2375 23.764 67.0661 22.7015C67.5347 22.1004 67.7902 21.4848 67.9318 20.6187C67.9742 20.3595 67.9828 20.0115 67.9932 17.6584C68.0073 14.4615 67.995 14.1682 67.8057 13.5577C67.6662 13.1077 67.3727 12.6075 67.0081 12.1953C66.0277 11.0871 64.4066 10.3539 62.2566 10.0443C61.3526 9.91405 61.7167 9.91713 52.3787 9.90769L43.503 9.90086V7.59272V5.28457H55.7532H68L67.9864 5.16507C67.9795 5.09966 67.9671 4.91352 67.9591 4.75193C67.8956 3.47318 67.3113 2.29529 66.3912 1.58677C65.5079 0.906636 64.2529 0.41329 62.7952 0.176618C61.6918 -0.00252421 62.5412 0.0125822 51.8129 0.00248323C48.4127 -0.000717026 45.949 -0.000936641 44.3006 0.00248323ZM16.3234 0.0332129C11.4465 0.0333768 6.57421 0.0469973 6.29895 0.0741858C5.60739 0.142493 4.94644 0.269818 4.31519 0.460014C3.71368 0.64125 2.85557 1.02816 2.35529 1.34093C1.13127 2.10618 0.309971 3.20011 0.0511278 4.4139C0.00280644 4.64049 0 5.02553 0 12.5163V20.3797L0.0647619 20.6631C0.178293 21.1766 0.357825 21.6146 0.623759 22.0288C1.69437 23.6967 3.67958 24.7385 6.24441 24.9789C6.375 24.9911 10.9505 25.0015 16.412 24.9994C25.7369 24.9957 26.3653 24.9912 26.7194 24.9447C28.6288 24.6941 29.8139 24.2505 30.871 23.3946C31.6291 22.7808 32.214 21.9126 32.4321 21.0728C32.5838 20.4885 32.5855 20.4515 32.5855 17.515V14.7971H28.577H24.5686V17.3579V19.9153H16.3405H8.11569V12.629V5.33921H16.3132H24.5107V7.67808V10.0204L25.2299 9.99987C26.0356 9.97835 26.426 9.9496 26.9512 9.87013C28.1823 9.68382 29.2255 9.31205 30.1825 8.71947C30.3438 8.61958 30.5794 8.47783 30.7074 8.40193C31.1894 8.11608 31.9485 7.46534 32.1764 7.14543C32.607 6.54103 32.7752 5.72065 32.6673 4.72803C32.599 4.1004 32.4751 3.65833 32.2242 3.14374C31.771 2.2143 31.038 1.52605 29.9166 0.97559C28.8796 0.466563 27.8647 0.208075 26.382 0.0741858C26.0811 0.0470181 21.2003 0.033049 16.3234 0.0332129Z" fill="white"/>
</svg>
