<svg width="73" height="51" viewBox="0 0 73 51" fill="none" xmlns="http://www.w3.org/2000/svg">
	<g clip-path="url(#clip0_94_4642)">
		<path
			d="M36.263 3.99841C31.4781 4.02908 26.7477 5.73478 23.0312 8.73437L27.092 13.449C30.5192 10.7444 35.137 9.64223 39.42 10.4937C41.7738 10.9465 44.0135 11.98 45.9032 13.449L49.9639 8.73437C46.1198 5.63242 41.2125 3.92424 36.263 3.99841Z"
			fill="#FF3358" />
		<path
			d="M21.71 9.89349C17.4312 13.9132 14.9224 19.7566 15.0018 25.6508C15.0044 31.7691 17.7953 37.779 22.4302 41.754C26.7145 45.5011 32.5414 47.4099 38.23 46.927C44.394 46.468 50.2447 43.1757 53.8617 38.1734C57.3823 33.4199 58.7616 27.1513 57.5929 21.3383C56.7338 16.8884 54.4009 12.7645 51.0829 9.69922L47.0222 14.4139C50.2942 17.498 52.0808 22.0505 51.7439 26.5416C51.5966 28.7668 50.9503 30.9628 49.8581 32.917L41.5826 24.9235L37.4073 15.9234L37.401 29.5528L45.7641 37.6459C42.0373 40.5414 36.9239 41.5017 32.3927 40.2183C30.5478 39.7037 28.8007 38.8401 27.2823 37.6814L35.7023 29.5528C35.6876 25.1216 35.7537 20.3382 35.7022 15.9087L31.5207 24.9235L23.1741 32.9834C20.6278 28.5383 20.5669 22.7916 23.0178 18.2969C23.784 16.857 24.7981 15.5429 25.9745 14.4139L21.9138 9.69922C21.8458 9.76398 21.7779 9.82873 21.71 9.89349Z"
			fill="#FF3358" />
	</g>
	<defs>
		<clipPath id="clip0_94_4642">
			<rect width="43" height="43" fill="#FF3358" transform="translate(15 4)" />
		</clipPath>
	</defs>
</svg>