<svg width="40" height="20" viewBox="0 0 40 20" fill="none" xmlns="http://www.w3.org/2000/svg">
<path fill-rule="evenodd" clip-rule="evenodd" d="M25.1094 9.73986V6.73482C25.5477 6.63088 25.9172 6.54488 26.1391 6.49493C26.3063 6.45731 26.3877 6.18285 26.4308 5.74734C26.4768 5.28777 26.3904 5.26674 25.9736 5.23685C25.7381 5.21992 25.4403 5.20545 25.1094 5.19269V0.46875H31.0112L32.2563 1.70967V6.27198L31.0112 7.51296L31.556 8.8542L30.3948 9.11357L30.3666 9.009L29.6587 9.19801C29.6291 9.12829 29.5951 9.0605 29.5568 8.99511H29.0923L28.8992 8.46273H27.552V8.26102C27.2859 8.20298 27.0148 8.17116 26.7424 8.1661C26.4752 8.16996 26.2092 8.20179 25.9488 8.26102V8.46273H25.5729L25.1094 9.73986ZM30.4507 5.71397H26.9147V2.19046H30.4507V5.71397Z" fill="white"/>
<path d="M31.791 9.42969L32.5676 11.3417H29.3828V11.1522H29.8763L29.616 10.435C29.6638 10.3415 29.7039 10.2443 29.7361 10.1445L30.6102 9.91101L30.5821 9.80643L31.791 9.42969Z" fill="white"/>
<path d="M22.4275 5.11751L21.2034 0.46875H19.5534L18.3359 5.1177C18.9331 5.10158 19.3885 5.08532 19.5056 5.06409C19.7273 5.02399 19.7563 4.97435 19.7686 4.8167C19.7714 4.78105 19.7726 4.68714 19.7743 4.56019C19.7802 4.12555 19.7912 3.30361 19.8854 3.10648C19.9959 2.90373 20.128 2.71341 20.2798 2.53883H20.4916C20.6432 2.71342 20.7755 2.90375 20.8859 3.10648C20.9804 3.30413 20.9915 4.12989 20.9972 4.56361C20.9989 4.68885 21.0001 4.7814 21.0028 4.8167C21.0148 4.97423 21.0441 5.02399 21.2657 5.06409C21.3824 5.08522 21.8343 5.10145 22.4275 5.11751Z" fill="white"/>
<path d="M17.776 7.24609C18.6055 7.4524 19.294 7.63222 19.4157 7.68676C19.6344 7.78481 19.7462 7.85518 19.7664 8.0361C19.7823 8.1794 19.9638 10.2471 19.9638 10.2471C19.6023 10.3212 19.2459 10.4176 18.8966 10.5357C18.8595 10.5497 18.8252 10.5619 18.7934 10.5733C18.5735 10.6519 18.4799 10.6853 18.4799 10.9118V11.2778C18.4799 11.2781 18.4798 11.2786 18.4798 11.2793C18.4794 11.2865 18.4781 11.3127 18.4943 11.3428H16.7031L17.776 7.24609Z" fill="white"/>
<path d="M16.3927 6.90556L15.7512 11.3437H13.0297L13.0318 8.62989C13.0318 8.62989 13.0765 8.6125 12.8091 8.62989H12.8093C12.6789 8.63835 12.3333 8.827 11.9389 9.04232C11.5252 9.26813 11.0577 9.52337 10.728 9.63099C10.0944 9.83785 8.87212 9.90076 8.87212 9.90076C9.18165 10.2452 9.45925 10.6166 9.7013 11.0106C9.7594 11.1105 9.81212 11.2244 9.85936 11.3437H8.87658L7.32031 0.46875H9.20346L10.0868 7.34834L11.1645 1.36827H12.8277V3.2917C12.6492 3.31407 12.4817 3.38886 12.3465 3.50645V3.79608H11.0914L11.8017 4.05124H12.5115V5.50428C12.2545 5.55619 12.0101 5.65673 11.7915 5.80039V6.44382H11.9555V7.65675H11.5384L11.538 7.65804L10.3772 7.03083L10.2532 7.24478L11.4487 7.97582L11.3327 8.38761H11.3162L9.60069 7.46074L9.47679 7.67469L10.6591 8.39764L10.481 8.7857L8.82414 7.89056L8.70024 8.1045L10.3348 9.10404L10.1784 9.4451C10.3551 9.4152 10.5296 9.37335 10.7006 9.31991C11.0343 9.20954 11.5075 8.94795 11.9262 8.71635C12.3255 8.49551 12.6754 8.30207 12.8076 8.29334C12.879 8.28864 12.9091 8.28524 12.9205 8.28303C12.9318 8.28524 12.9619 8.28864 13.0333 8.29334C13.1654 8.30207 13.515 8.49551 13.9143 8.71616C14.3331 8.94777 14.8065 9.20954 15.1403 9.31991C15.3115 9.37344 15.4861 9.4152 15.663 9.4451L15.1776 8.38761H14.509L14.3036 7.65693L13.8872 7.65703V6.44391H14.0499V5.80027C13.8317 5.6569 13.5878 5.5565 13.3313 5.50459V4.05105H13.9622L14.5421 7.27071L14.6445 6.49414C14.6455 6.49432 14.6463 6.4945 14.6471 6.49469C14.9825 6.57011 15.6548 6.72804 16.3927 6.90556Z" fill="white"/>
<path d="M16.6391 5.16122L17.3174 0.46875H15.4341L14.8047 5.23675C14.8054 5.2367 14.8061 5.23664 14.8068 5.2366C15.2576 5.20418 15.9358 5.1807 16.6391 5.16122Z" fill="white"/>
<path d="M13.9159 3.79482L13.4787 1.36719H13.0156V3.29062C13.1934 3.3132 13.3603 3.38784 13.4951 3.505V3.79482H13.9159Z" fill="white"/>
<path d="M22.2741 11.3456C22.2903 11.3155 22.289 11.2893 22.2887 11.2821C22.2886 11.2814 22.2886 11.2809 22.2886 11.2806V10.9146C22.2886 10.6881 22.1949 10.6547 21.9751 10.5761C21.9433 10.5647 21.909 10.5525 21.8718 10.5385C21.5226 10.4204 21.1662 10.324 20.8047 10.2499C20.8047 10.2499 20.9861 8.18221 21.0021 8.0389C21.0222 7.85798 21.1341 7.78734 21.3526 7.68957C21.4741 7.63512 22.1605 7.45585 22.9879 7.25L24.0664 11.3456H22.2741Z" fill="white"/>
<path d="M36.9528 5.57583L36.313 4.21875L35.6727 5.57595L34.1797 5.763L35.2777 6.789L34.9947 8.26168L36.313 7.53845L37.6313 8.26177L37.3484 6.789L38.446 5.76288L36.9528 5.57583Z" fill="white"/>
<path d="M3.77365 4.21875L4.41349 5.57583L5.90663 5.76288L4.80901 6.789L5.09189 8.26177L3.77365 7.53845L2.45534 8.26168L2.73822 6.789L1.64062 5.763L3.13368 5.57595L3.77365 4.21875Z" fill="white"/>
<path d="M0 12.7695H4.69524L4.69517 13.9392H2.93454V19.7875H1.7607V13.9392H0V12.7695Z" fill="white"/>
<path d="M10.5624 12.7695H9.38864V15.6937H7.04098V12.7695H5.86719V19.7875H7.04098V16.8634H9.38864V19.7875H10.5623V12.7699L10.5624 12.7695Z" fill="white"/>
<path d="M15.2636 12.7695H16.4373L16.4374 18.6178L15.2636 19.7875H12.9159L11.7422 18.6178V12.7695H12.9161V18.1383L13.3972 18.6178H14.7825L15.2636 18.1383V12.7695Z" fill="white"/>
<path d="M22.2968 12.7695H21.123V17.2494L18.7754 12.7812L17.6016 12.7695V19.7875H18.7754V15.3194L21.123 19.7874H22.2967V12.7698L22.2968 12.7695Z" fill="white"/>
<path fill-rule="evenodd" clip-rule="evenodd" d="M26.9981 12.7695L28.1719 13.9392V18.6178L26.9981 19.7875H23.4766V12.7695H26.9981ZM26.5169 18.6178H24.6505V13.9392H26.5168L26.9979 14.4188V18.1383L26.5169 18.6178Z" fill="white"/>
<path d="M34.0468 19.7875V18.6178H30.5254V16.8634H32.2861V15.6937H30.5254V13.9392H34.0468V12.7695H29.3516V19.7875H34.0468Z" fill="white"/>
<path fill-rule="evenodd" clip-rule="evenodd" d="M38.7476 12.7695L39.9214 13.9392L39.9215 15.6937L38.7008 16.8634L39.9215 19.7875H38.6421L37.3979 16.8634H36.4004V19.7875H35.2266V12.7695H38.7476ZM36.4001 15.6936H38.2664L38.7475 15.2141V14.4188L38.2663 13.9392H36.4001V15.6936Z" fill="white"/>
<path d="M26.3273 9.13672L26.5708 9.65318L27.139 9.7241L26.7213 10.1145L26.829 10.675L26.3273 10.3999L25.8256 10.675L25.9333 10.1147L25.5156 9.72437L26.0837 9.65318L26.3273 9.13672Z" fill="white"/>
</svg>
