<svg width="73" height="51" viewBox="0 0 73 51" fill="none" xmlns="http://www.w3.org/2000/svg">
	<path
		d="M14.1424 7.04465C14.4194 6.87934 14.5959 7.21345 14.7454 7.38926C24.3601 19.4286 33.9861 31.4592 43.5999 43.4985C43.7974 43.6699 43.648 44.0364 43.3814 43.9971C38.7781 44.0023 34.174 43.9988 29.5707 43.9988C29.2019 44.0032 28.8489 43.8195 28.6226 43.5318C23.8462 37.5589 19.0725 31.5834 14.2962 25.6096C14.0935 25.3682 13.9886 25.056 14.0017 24.742C14.0017 18.9712 14.0035 13.1995 14 7.42861C14.0026 7.29217 13.9974 7.1155 14.1424 7.04465Z"
		fill="white" />
	<path
		d="M58.6115 7.01696C58.8081 6.94262 59.0249 7.12454 58.996 7.33096C59.003 13.1044 58.9951 18.8779 58.9995 24.6513C59.0126 24.9785 58.941 25.3169 58.7286 25.5741C57.2772 27.3916 55.824 29.2082 54.3726 31.0248C54.1306 31.3397 53.7347 31.5137 53.3389 31.4936C48.7662 31.4892 44.1926 31.4962 39.6198 31.4901C39.3498 31.5321 39.196 31.1674 39.3953 30.9916C45.7366 23.0508 52.0832 15.1126 58.428 7.17352C58.4761 7.1053 58.5373 7.05282 58.6115 7.01696Z"
		fill="white" />
</svg>