<svg width="208" height="51" viewBox="0 0 208 51" fill="none" xmlns="http://www.w3.org/2000/svg">
<path d="M73.0701 15.8392C61.088 15.7182 61.3412 15.5584 61.2986 16.1322C61.2388 16.9321 62.7527 16.3257 63.1147 17.6188L63.1165 17.6315C63.153 18.781 63.0628 33.3713 63.057 34.2782C63.0442 34.3702 62.9418 34.9298 62.3323 35.2629C62.1559 35.3595 62.0671 35.5631 62.117 35.7578C62.1666 35.9525 62.3422 36.0888 62.5432 36.0888H62.6352C64.4821 36.0888 66.9814 36.1425 68.3986 36.3981C69.4001 36.5788 70.3799 36.6705 71.3109 36.6705C71.3114 36.6705 71.3114 36.6705 71.3114 36.6705C78.5505 36.6705 82.3669 31.1368 82.3945 25.671C82.4183 20.9815 79.5104 15.9045 73.0701 15.8392ZM66.7679 17.5109C79.5296 16.6916 79.7402 26.3409 77.8194 31.0634C76.8141 33.5349 73.2921 35.0119 70.4669 35.0119C68.7192 35.0116 67.4433 34.4589 66.8686 33.4543L66.7679 17.5109Z" fill="white"/>
<path d="M90.0078 26.083C90.0078 32.9681 95.6428 36.5705 101.209 36.5705C106.606 36.5705 112.343 32.7212 112.343 25.5878C112.343 11.9996 90.0078 11.652 90.0078 26.083ZM94.0071 26.0401C94.0071 20.9918 95.4614 16.9307 100.556 16.9307C104.553 16.9307 108.193 21.0396 108.193 25.5608C108.279 29.6248 107.377 34.562 102.591 35.0233C97.6402 35.0161 94.7521 31.9878 94.0085 26.0485L94.0071 26.0401Z" fill="white"/>
<path d="M136.529 15.5705C136.088 15.7109 135.554 15.8052 135.199 15.8052C134.834 15.8052 121.663 15.7863 120.872 15.7852C120.327 15.4994 119.477 15.1513 119.345 15.7521L118.799 18.2358C118.754 18.443 118.862 18.653 119.058 18.7357C119.253 18.8178 119.479 18.7496 119.596 18.5726C119.833 18.2132 120.191 17.941 120.687 17.7414C121.962 17.6904 125.384 17.6846 126.137 17.6837L126.058 34.4015C126.057 34.4261 126.024 35.0049 125.485 35.333C125.106 35.5634 125.27 36.1488 125.713 36.1488C125.716 36.1488 130.402 36.1277 130.405 36.1277C130.867 36.1256 131.013 35.4987 130.598 35.2936C130.214 35.103 130.01 34.8155 129.977 34.4418C129.959 33.6643 129.843 20.4146 129.819 17.6872L134.615 17.8009C134.658 17.803 135.669 17.8604 136.028 18.8688C136.099 19.0676 136.301 19.188 136.51 19.1561C136.972 19.085 136.886 18.7537 136.949 16.6796C137.049 16.4527 137.131 16.1383 137.097 15.9215C137.055 15.6549 136.787 15.4898 136.529 15.5705Z" fill="white"/>
<path d="M163.272 29.9549C162.093 29.9363 159.633 29.934 159.111 29.9337C159.094 29.8919 153.217 15.355 153.217 15.355C153.058 14.9787 152.546 15.0124 152.404 15.3608L144.723 34.2521C144.72 34.2591 144.378 34.9414 143.546 35.3403C143.125 35.5423 143.271 36.1762 143.735 36.177C143.759 36.177 147.218 36.1826 147.218 36.1826C147.713 36.1826 147.826 35.4898 147.363 35.3273C147.119 35.2049 147.007 35.0328 147.076 34.7688C147.323 33.9211 147.98 32.0812 148.14 31.6381L155.804 31.6582L157.31 35.2278C157.316 35.2426 157.332 35.3093 157.283 35.3836C157.027 35.663 157.222 36.1153 157.601 36.1208C157.632 36.1213 161.973 36.1826 161.973 36.1826C162.232 36.1826 162.418 35.9774 162.418 35.7427C162.418 35.5498 162.294 35.3856 162.121 35.3264C161.544 35.0485 161.303 34.7845 159.822 31.6445C161.13 31.6724 161.377 31.0829 163.322 30.831C163.55 30.8015 163.717 30.6001 163.704 30.37C163.691 30.14 163.503 29.9587 163.272 29.9549ZM152.082 21.3564L155.168 29.9064L148.737 29.9807L152.082 21.3564Z" fill="white"/>
<path d="M190.628 31.5543C190.205 32.4798 189.683 33.3882 188.378 33.441C187.698 33.4677 184.077 33.611 181.802 33.5942C195.441 23.1914 191.809 15.3594 183.683 15.3594C181.902 15.3594 180.111 15.7885 178.771 16.5367C178.642 16.6089 178.557 16.7412 178.547 16.8886C178.512 17.3597 178.603 18.3116 178.817 19.7178C178.847 19.9168 179.009 20.07 179.209 20.0895C179.408 20.1074 179.598 19.9894 179.666 19.8002C180.45 17.6145 182.025 16.8358 183.238 16.8358C184.974 16.8358 186.788 18.3252 186.898 21.1719C187.142 27.5069 179.425 33.4857 177.695 35.1324C177.402 35.3853 177.172 35.652 177.415 35.9589C177.415 36.5116 178.114 36.5821 178.27 36.1309C179.755 36.1222 187.812 36.0758 189.304 36.0921C190.385 36.1704 190.919 35.542 190.943 34.8393L191.462 31.8114C191.548 31.3057 190.84 31.0896 190.628 31.5543Z" fill="white"/>
<path d="M49.2009 16.6637C49.0711 10.5218 49.063 11.8494 49.1895 9.93519C49.197 9.8217 49.1113 9.72364 48.9979 9.71589C39.8523 9.09032 39.5057 9.01819 38.797 9.01819C26.3206 9.01719 32.8707 8.81331 16.2174 9.79569C16.1043 9.80244 16.0178 9.89917 16.0237 10.0122C17.097 30.6039 17.0578 27.2447 16.5095 40.9685C16.5056 41.0671 16.5721 41.1545 16.6681 41.1772C17.9145 41.4719 17.6936 41.3559 20.6011 41.358C20.6058 41.3594 26.0496 40.765 26.0545 40.7645C26.0802 40.7687 33.5824 42 33.6085 42C33.6143 42 33.62 41.9998 33.6257 41.9993C42.4181 41.2624 39.8979 41.4405 45.5703 41.1261L48.901 41.7998C49.0305 41.8258 49.1494 41.7257 49.148 41.5955C49.0758 34.8897 49.2009 16.6637 49.2009 16.6637ZM35.6807 16.1748C35.7055 16.1688 35.7409 16.1602 35.7851 16.1484L38.1558 15.6142C39.3701 15.3099 39.5496 15.2357 40.5887 14.7472C41.0685 14.9136 42.3841 15.6416 42.7176 16.0595C42.938 16.3362 42.9235 16.3977 42.8542 16.694C42.8408 16.7509 42.8256 16.8163 42.8096 16.8936C42.8085 16.8987 42.8077 16.904 42.8069 16.9091L42.2856 20.9887C41.7697 21.0078 41.7267 20.9682 41.584 20.8369C41.5252 20.7825 41.4519 20.715 41.3226 20.6284C40.5382 20.1019 37.9711 18.2024 37.1605 17.5486L35.567 16.2682L35.5798 16.2558C35.5971 16.2386 35.6124 16.2155 35.6226 16.1934C35.6306 16.1872 35.6621 16.1794 35.6807 16.1748ZM39.375 36.7155C39.3284 36.6688 19.4537 15.5991 19.4391 15.57L21.1754 14.238L45.4401 30.305C45.2395 30.8796 45.1595 31.5391 45.0389 32.0867C44.6126 34.0207 44.0645 34.8669 43.2072 36.7044C41.9803 36.7531 39.4595 36.7437 39.375 36.7155ZM21.2955 31.0151C21.5189 30.4781 21.826 29.6144 22.0842 29.1769C23.3533 29.97 28.3112 34.9514 28.7423 35.624C28.5035 35.7127 27.4777 35.8651 25.7734 36.5459C24.6935 36.9767 23.6739 37.3854 22.689 37.0512C22.5907 37.0181 22.3289 36.7958 21.9407 36.4607C21.2315 35.8486 20.5894 35.4075 20.216 35.1872C19.5791 34.8112 19.6783 34.8905 21.2955 31.0151Z" fill="white"/>
<path d="M18.5598 31.055C18.4042 23.0287 18.5779 27.4008 17.6557 9.70703L16.2174 9.79184C16.1043 9.79859 16.0178 9.89532 16.0237 10.0084L16.7895 24.7C16.9416 32.5478 16.9832 29.1087 16.5095 40.9647C16.5056 41.0632 16.5721 41.1507 16.6681 41.1734C17.3715 41.3397 17.6639 41.377 18.1587 41.377C18.1432 41.324 18.1261 41.9092 18.5598 31.055Z" fill="white"/>
<path d="M29.7685 36.0749C29.7685 36.0749 30.6095 35.7854 29.9181 35.0266C27.0962 31.8792 25.3771 30.739 23.7431 28.9463C23.0603 28.2071 22.0781 29.1742 22.0781 29.1742C28.464 34.8507 27.1847 34.029 28.3104 35.1158C28.4598 35.2601 28.5777 35.374 28.7363 35.6213C28.7068 35.6322 28.5763 35.6652 28.3957 35.7108C25.7388 36.3812 25.3402 36.8363 24.1539 37.0906C25.261 37.9933 27.2132 36.892 28.605 36.4127C28.9378 36.2983 29.3787 36.1768 29.7685 36.0749Z" fill="white"/>
<path d="M46.6524 28.6289L23.4546 13.835C22.6775 13.3395 21.8394 13.5779 21.1797 14.233L45.4443 30.3C45.2438 30.8746 45.1638 31.5341 45.0432 32.0817C44.6169 34.0156 44.0687 34.8619 43.2115 36.6994C43.2115 36.6994 45.4091 37.1218 46.0791 35.6346C47.6512 32.2888 47.2882 31.6577 47.6628 30.6013C47.6183 30.0054 47.7011 29.2978 46.6524 28.6289Z" fill="white"/>
<path d="M42.8068 16.8908C42.8057 16.8959 42.8049 16.9011 42.8041 16.9063L42.2828 20.9859C42.2828 20.9859 44.3454 22.2599 44.6046 20.1652C44.6047 20.1645 44.6048 20.1639 44.6048 20.1632L45.0315 16.7144C45.0323 16.7092 45.0331 16.7038 45.0343 16.6986C45.0505 16.6195 45.0662 16.5526 45.0798 16.4945C45.1506 16.1917 45.1654 16.1287 44.9401 15.8459C44.7033 15.549 43.6421 14.7655 42.8516 14.2574C42.1053 13.7571 41.2191 14.3587 41.2191 14.3587C40.9979 14.5283 40.8002 14.6764 40.5859 14.7443C41.1279 15.0374 42.501 15.7888 42.7147 16.0567C42.9351 16.3333 42.9206 16.3949 42.8513 16.6911C42.838 16.7481 42.8227 16.8136 42.8068 16.8908Z" fill="white"/>
</svg>
