<svg width="59" height="47" viewBox="0 0 59 47" fill="none" xmlns="http://www.w3.org/2000/svg">
<path d="M0.186746 0.0567175C0.549927 -0.153266 0.781354 0.271145 0.977265 0.49446C13.5832 15.7877 26.204 31.0698 38.8088 46.363C39.0677 46.5807 38.8718 47.0463 38.5223 46.9963C32.4869 47.0029 26.4503 46.9985 20.4149 46.9985C19.9314 47.004 19.4685 46.7707 19.1718 46.4052C12.9095 38.818 6.65067 31.2275 0.388385 23.6393C0.122588 23.3326 -0.0148934 22.936 0.00229185 22.5371C0.00229185 15.2066 0.00458272 7.87498 0 0.544456C0.00343704 0.371137 -0.00343648 0.14671 0.186746 0.0567175Z" fill="white"/>
<path d="M58.4931 0.0215479C58.7509 -0.0728889 59.035 0.158204 58.9972 0.420405C59.0064 7.75426 58.9961 15.0881 59.0018 22.422C59.019 22.8375 58.925 23.2675 58.6466 23.5941C56.7437 25.9028 54.8384 28.2104 52.9354 30.518C52.6181 30.918 52.0991 31.139 51.5801 31.1135C45.5847 31.1079 39.5882 31.1168 33.5929 31.109C33.2389 31.1624 33.0372 30.6991 33.2985 30.4758C41.6127 20.3888 49.9337 10.3052 58.2525 0.220421C58.3155 0.133761 58.3957 0.0670998 58.4931 0.0215479Z" fill="white"/>
</svg>
