<svg width="29" height="29" viewBox="0 0 29 29" fill="none" xmlns="http://www.w3.org/2000/svg">
<path d="M28.9984 6.59548C28.8867 1.3097 28.8797 2.45226 28.9886 0.804843C28.9951 0.707172 28.9213 0.622778 28.8237 0.616104C20.9528 0.0777305 20.6546 0.0156547 20.0447 0.0156547C9.30726 0.0147935 14.9444 -0.160669 0.612267 0.684782C0.514883 0.690595 0.440464 0.773841 0.445559 0.871153C1.36923 18.5927 1.3355 15.7017 0.863656 27.5127C0.860283 27.5975 0.917479 27.6728 1.00015 27.6923C2.07281 27.9459 1.8827 27.8461 4.3849 27.8479C4.38899 27.8491 9.07403 27.3375 9.07826 27.3371C9.10036 27.3407 15.5569 28.4004 15.5794 28.4004C15.5843 28.4004 15.5892 28.4002 15.5941 28.3997C23.161 27.7656 20.9921 27.9188 25.8738 27.6483L28.7403 28.2281C28.8518 28.2505 28.9541 28.1643 28.9529 28.0522C28.8908 22.2811 28.9984 6.59548 28.9984 6.59548ZM17.3627 6.1748C17.384 6.16963 17.4145 6.16216 17.4525 6.15205L19.4928 5.69225C20.5379 5.43039 20.6923 5.36659 21.5866 4.94612C21.9996 5.08937 23.1318 5.71587 23.4188 6.07555C23.6085 6.31366 23.596 6.36662 23.5363 6.6216C23.5248 6.67054 23.5117 6.72688 23.4979 6.7934C23.497 6.79778 23.4963 6.8023 23.4956 6.80675L23.047 10.3177C22.603 10.3341 22.566 10.3001 22.4432 10.187C22.3926 10.1403 22.3295 10.0821 22.2182 10.0076C21.5432 9.55445 19.3338 7.91974 18.6362 7.35703L17.2648 6.25517L17.2759 6.24448C17.2907 6.22969 17.3039 6.20982 17.3127 6.1908C17.3196 6.18542 17.3467 6.17874 17.3627 6.1748ZM20.5421 23.8524C20.502 23.8123 3.39743 5.67934 3.38487 5.65429L4.87921 4.50793L25.7618 18.3355C25.5892 18.83 25.5203 19.3975 25.4165 19.8688C25.0497 21.5332 24.5779 22.2615 23.8402 23.8429C22.7842 23.8848 20.6148 23.8767 20.5421 23.8524ZM4.98255 18.9466C5.1748 18.4845 5.43911 17.7411 5.66129 17.3646C6.75354 18.0471 11.0203 22.3342 11.3914 22.9131C11.1859 22.9894 10.3031 23.1206 8.83627 23.7065C7.90693 24.0772 7.0294 24.429 6.18179 24.1413C6.09726 24.1128 5.87192 23.9216 5.53779 23.6332C4.92751 23.1064 4.37485 22.7268 4.05349 22.5371C3.50536 22.2135 3.59076 22.2818 4.98255 18.9466Z" fill="white"/>
<path d="M2.62812 18.9818C2.4942 12.0742 2.64376 15.837 1.85005 0.609375L0.612267 0.682359C0.514883 0.688172 0.440464 0.771418 0.445559 0.86873L1.10457 13.5126C1.23547 20.2665 1.27128 17.3068 0.863656 27.5102C0.860283 27.5951 0.917479 27.6703 1.00015 27.6899C1.60548 27.833 1.85708 27.8651 2.28293 27.8651C2.26958 27.8195 2.25487 28.3231 2.62812 18.9818Z" fill="white"/>
<path d="M12.2825 23.3004C12.2825 23.3004 13.0063 23.0512 12.4113 22.3981C9.98267 19.6894 8.50319 18.7081 7.09697 17.1653C6.5093 16.5291 5.66406 17.3615 5.66406 17.3615C11.1599 22.2467 10.0589 21.5396 11.0276 22.4749C11.1562 22.5991 11.2577 22.6971 11.3942 22.91C11.3688 22.9194 11.2565 22.9477 11.101 22.987C8.8145 23.5639 8.47147 23.9556 7.45048 24.1744C8.40329 24.9513 10.0834 24.0035 11.2812 23.5911C11.5677 23.4925 11.9471 23.388 12.2825 23.3004Z" fill="white"/>
<path d="M26.805 16.8933L6.84068 4.1614C6.17184 3.73491 5.45054 3.94016 4.88281 4.50393L25.7654 18.3315C25.5928 18.826 25.5239 19.3935 25.4201 19.8648C25.0533 21.5292 24.5815 22.2575 23.8438 23.8389C23.8438 23.8389 25.735 24.2024 26.3117 22.9225C27.6646 20.0431 27.3522 19.4999 27.6746 18.5908C27.6364 18.0779 27.7076 17.4689 26.805 16.8933Z" fill="white"/>
<path d="M23.4972 6.78898C23.4963 6.79336 23.4956 6.79788 23.4949 6.80233L23.0463 10.3133C23.0463 10.3133 24.8214 11.4097 25.0445 9.60701C25.0445 9.60643 25.0446 9.60586 25.0447 9.60529L25.4119 6.6372C25.4125 6.63268 25.4133 6.62809 25.4143 6.62357C25.4283 6.55553 25.4417 6.49798 25.4534 6.44796C25.5144 6.18731 25.5271 6.13313 25.3332 5.88971C25.1294 5.63423 24.2162 4.95994 23.5358 4.52268C22.8935 4.09209 22.1308 4.60987 22.1308 4.60987C21.9405 4.75577 21.7703 4.88322 21.5859 4.94171C22.0523 5.19396 23.2341 5.84062 23.418 6.07113C23.6077 6.30924 23.5952 6.3622 23.5356 6.61718C23.5241 6.66619 23.5109 6.72253 23.4972 6.78898Z" fill="white"/>
</svg>
