<svg width="73" height="58" viewBox="0 0 73 58" fill="none" xmlns="http://www.w3.org/2000/svg">
<path d="M51.7963 35.8851V35.8876H47.6599V30.7524H51.945V33.6258C51.9458 34.2032 52.1543 35.0367 53.1445 35.7394L53.1693 35.7555C53.238 35.8017 53.3072 35.8444 53.376 35.8851H51.7963ZM43.6311 48.7016H42.7311C42.746 48.5928 42.755 48.4826 42.755 48.3708V43.901H43.6311V48.7016ZM62.0696 35.8838H61.9086C61.9944 35.8326 62.0794 35.7788 62.164 35.7199C63.1226 35.0583 63.3251 34.2171 63.3251 33.6258L63.3255 22.005H58.3241V20.7191H51.945V21.1766H44.4462C43.7038 21.1766 43.0228 21.3981 42.4231 21.8331C42.2368 21.9657 42.0715 22.1135 41.9275 22.2723C41.7819 22.1118 41.614 21.9627 41.4252 21.8276C40.8404 21.3985 40.1616 21.1766 39.417 21.1766H34.3822C33.6385 21.1766 32.9584 21.3989 32.3621 21.8377C32.1835 21.9644 32.0259 22.1067 31.8866 22.2571C31.7559 22.1181 31.6 21.9834 31.4193 21.8543C31.4184 21.853 31.1839 21.6959 31.1839 21.6959C31.1754 21.6916 30.8797 21.5315 30.8797 21.5315C30.5145 21.3574 30.1296 21.2532 29.7311 21.2185L29.4141 21.2028H27.5913V19.4205H42.5269V18.8682C43.1181 19.2345 43.7375 19.4205 44.3697 19.4205H52.6229V0.994354H46.219V4.21849H44.3714C43.6277 4.21849 42.9489 4.44001 42.3487 4.87628C42.1599 5.0097 41.9925 5.15795 41.8468 5.3189C41.7033 5.16218 41.5401 5.01648 41.3543 4.88517C40.7729 4.45823 40.0941 4.23586 39.3529 4.23586C38.6771 4.23586 38.0769 4.31422 37.5271 4.44171V4.23586H31.1506V4.76107C30.6089 4.41587 29.9959 4.23586 29.3329 4.23586H24.3067C23.5647 4.23586 22.8876 4.45823 22.2904 4.89534C22.1067 5.02579 21.944 5.17023 21.8008 5.32653C21.6573 5.16727 21.4907 5.01987 21.3019 4.88645C20.7218 4.45865 20.043 4.24603 19.3006 4.24603H4.15053C3.41236 4.24899 2.73614 4.44255 2.14192 4.87713C1.40034 5.40107 0.98127 6.15628 0.974008 6.99281V16.6805C0.976144 17.0354 1.05347 17.4802 1.32216 17.9228H0.974008V23.4583H9.24212C9.36387 23.4574 9.48348 23.4473 9.60309 23.4337V27.5363H11.1516V33.6339C11.1516 34.2087 11.3592 35.0435 12.3486 35.7466C12.3486 35.7466 12.5323 35.8648 12.6421 35.9296L13.1047 35.9525L13.0902 35.9567L3.80024 35.9516C3.05823 35.9516 2.38029 36.174 1.78309 36.6119C1.0415 37.1388 0.625 37.8991 0.625 38.742V42.2893H0.992377C0.703602 42.7409 0.625 43.1856 0.625 43.5329V48.3738C0.625 49.2082 1.03595 49.9524 1.7848 50.4704C2.42771 50.9126 3.10394 51.1371 3.80024 51.1371H12.0043V50.603C12.5823 50.9638 13.194 51.1472 13.8245 51.1472H18.8447C19.5479 51.1472 20.2267 50.9202 20.8636 50.4742C21.2135 50.2302 21.4873 49.935 21.6817 49.6042C21.8624 49.91 22.1345 50.2196 22.5394 50.5077L22.5595 50.5229C23.1913 50.9533 23.8317 51.1616 24.5164 51.1616L29.5687 51.1485C30.2676 51.1506 30.9289 50.9228 31.5504 50.4878C31.7358 50.3594 31.9016 50.2158 32.0438 50.0604C32.1844 50.2078 32.377 50.3641 32.5581 50.4856C33.1912 50.927 33.8371 51.132 34.5356 51.132H39.5729C40.2752 51.132 40.954 50.9079 41.593 50.4649C41.6913 50.398 41.7827 50.3251 41.8694 50.2501V56.9297L53.5781 56.9187L53.5751 48.7016H51.8228V43.9044C52.1829 43.9052 53.5789 43.9069 53.5789 43.9069V43.9039H53.8481C54.5051 46.156 57.6448 56.9094 57.6448 56.9094H66.4952C66.4952 56.9094 69.635 46.156 70.2924 43.9039H72.3429V35.8851C72.3429 35.8851 62.3614 35.8838 62.0696 35.8838Z" fill="white"/>
<path d="M51.7963 35.8851V35.8877H47.6599V30.7524H51.945V33.6258C51.9458 34.2032 52.1543 35.0367 53.1445 35.7394L53.1693 35.7555C53.238 35.8017 53.3072 35.8444 53.376 35.8851H51.7963ZM43.6311 48.7016H42.7311C42.746 48.5928 42.755 48.4826 42.755 48.3708V43.901H43.6311V48.7016ZM62.0696 35.8838H61.9086C61.9944 35.8326 62.0794 35.7788 62.164 35.7199C63.1226 35.0583 63.3251 34.2171 63.3251 33.6258L63.3255 22.005H58.3241V20.7191H51.945V21.1766H44.4462C43.7038 21.1766 43.0228 21.3981 42.4231 21.8331C42.2368 21.9657 42.0715 22.1135 41.9275 22.2723C41.7819 22.1118 41.614 21.9627 41.4252 21.8276C40.8404 21.3985 40.1616 21.1766 39.417 21.1766H34.3822C33.6385 21.1766 32.9584 21.3989 32.3621 21.8377C32.1835 21.9644 32.0259 22.1067 31.8866 22.2571C31.7559 22.1181 31.6 21.9834 31.4193 21.8543C31.4184 21.853 31.1839 21.6959 31.1839 21.6959C31.1754 21.6916 30.8797 21.5315 30.8797 21.5315C30.5145 21.3574 30.1296 21.2532 29.7311 21.2185L29.4141 21.2028H27.5913V19.4205H42.5269V18.8682C43.1181 19.2345 43.7375 19.4205 44.3697 19.4205H52.6229V0.994356H46.219V4.21849H44.3714C43.6277 4.21849 42.9489 4.44001 42.3487 4.87628C42.1599 5.0097 41.9925 5.15795 41.8468 5.3189C41.7033 5.16218 41.5401 5.01648 41.3543 4.88517C40.7729 4.45822 40.0941 4.23586 39.3529 4.23586C38.6771 4.23586 38.0769 4.31422 37.5271 4.44171V4.23586H31.1506V4.76107C30.6089 4.41587 29.9959 4.23586 29.3329 4.23586H24.3067C23.5647 4.23586 22.8876 4.45823 22.2904 4.89534C22.1067 5.0258 21.944 5.17023 21.8008 5.32653C21.6573 5.16727 21.4907 5.01987 21.3019 4.88645C20.7218 4.45865 20.043 4.24603 19.3005 4.24603H4.15053C3.41236 4.24899 2.73614 4.44255 2.14192 4.87713C1.40034 5.40107 0.98127 6.15628 0.974008 6.99281V16.6805C0.976144 17.0354 1.05347 17.4802 1.32216 17.9228H0.974008V23.4583H9.24212C9.36387 23.4574 9.48348 23.4473 9.60309 23.4337V27.5363H11.1516V33.6339C11.1516 34.2087 11.3592 35.0435 12.3486 35.7466C12.3486 35.7466 12.5323 35.8648 12.6421 35.9296L13.1047 35.9525L13.0902 35.9567L3.80024 35.9516C3.05823 35.9516 2.38029 36.174 1.78309 36.6119C1.0415 37.1388 0.625 37.8991 0.625 38.742V42.2893H0.992377C0.703602 42.7409 0.625 43.1856 0.625 43.5329V48.3738C0.625 49.2082 1.03595 49.9524 1.7848 50.4704C2.42771 50.9126 3.10394 51.1371 3.80024 51.1371H12.0043V50.603C12.5823 50.9638 13.194 51.1472 13.8245 51.1472H18.8447C19.5479 51.1472 20.2267 50.9202 20.8636 50.4742C21.2135 50.2302 21.4873 49.935 21.6817 49.6042C21.8624 49.91 22.1345 50.2196 22.5394 50.5077L22.5595 50.5229C23.1913 50.9533 23.8317 51.1616 24.5164 51.1616L29.5687 51.1485C30.2676 51.1506 30.9289 50.9228 31.5504 50.4878C31.7358 50.3594 31.9016 50.2158 32.0438 50.0604C32.1844 50.2078 32.377 50.3641 32.5581 50.4856C33.1912 50.927 33.8371 51.132 34.5356 51.132H39.5729C40.2752 51.132 40.954 50.9079 41.593 50.4649C41.6913 50.398 41.7827 50.3251 41.8694 50.2501V56.9297L53.5781 56.9187L53.5751 48.7016H51.8228V43.9044C52.1829 43.9052 53.5789 43.9069 53.5789 43.9069V43.9039H53.8481C54.5051 46.156 57.6448 56.9094 57.6448 56.9094H66.4952C66.4952 56.9094 69.635 46.156 70.2924 43.9039H72.3429V35.8851C72.3429 35.8851 62.3614 35.8838 62.0696 35.8838Z" stroke="#030202" stroke-width="1.09625"/>
<path d="M62.0605 35.8843C61.7695 35.8843 51.7871 35.8855 51.7871 35.8855V35.8881H41.8359V43.901H43.622V48.702H41.8603V56.9297L53.5689 56.9191L53.5659 48.702H51.8136V43.9048C52.1737 43.9052 53.5694 43.9069 53.5694 43.9069V43.9044H53.8385C54.4959 46.156 57.6357 56.9094 57.6357 56.9094H66.4861C66.4861 56.9094 69.6258 46.156 70.2829 43.9044H72.3338V35.8855C72.3338 35.8855 62.3518 35.8843 62.0605 35.8843Z" fill="black"/>
<path d="M36.4219 27.1758H37.4001V25.5747H36.4219V27.1758Z" fill="black"/>
<path d="M16.3125 10.2266H17.2873V8.62803H16.3125V10.2266Z" fill="black"/>
<path d="M6.21875 15.0742H7.20084V8.61578H6.21875V15.0742Z" fill="black"/>
<path d="M27.329 13.4407H26.3516V15.0625H27.329V13.4407Z" fill="black"/>
<path d="M47.3588 8.61738H46.375V15.1055H47.3588V8.61738Z" fill="black"/>
<path d="M58.3245 22.0075V20.7211H51.9454V21.1786H44.4466C43.7038 21.1786 43.0228 21.4001 42.4231 21.8355C42.2372 21.9676 42.0715 22.1159 41.9275 22.2743C41.7819 22.1138 41.614 21.9647 41.4252 21.83C40.8404 21.4009 40.162 21.1786 39.4174 21.1786H34.3822C33.6385 21.1786 32.9584 21.4013 32.3625 21.8402C32.1839 21.9668 32.0259 22.1087 31.887 22.2595C31.7559 22.1206 31.6 21.9854 31.4197 21.8563C31.4184 21.8554 31.1839 21.6983 31.1839 21.6983C31.1758 21.694 30.8798 21.5335 30.8798 21.5335C30.5149 21.3594 30.13 21.2556 29.7311 21.2205L29.4141 21.2052H27.5917V19.4225H42.5269V18.8702C43.1181 19.2365 43.7379 19.4225 44.3702 19.4225H52.6229V0.996765H46.219V4.22091H44.3719C43.6282 4.22091 42.9489 4.44201 42.3487 4.8787C42.1599 5.0117 41.9925 5.15994 41.8472 5.32089C41.7033 5.1646 41.5401 5.01847 41.3547 4.88717C40.7733 4.46022 40.0941 4.23785 39.3529 4.23785C38.6775 4.23785 38.0769 4.31663 37.5276 4.4437V4.23785H31.151V4.76349C30.6093 4.41829 29.9963 4.23827 29.3334 4.23827H24.3071C23.5651 4.23827 22.888 4.46022 22.2908 4.89775C22.1067 5.02779 21.9444 5.17222 21.8013 5.32852C21.6573 5.16968 21.4911 5.02228 21.3023 4.88844C20.7222 4.46064 20.0434 4.24801 19.3006 4.24801H4.15096C3.41237 4.2514 2.73657 4.44497 2.14193 4.87912C1.40034 5.40306 0.98127 6.15827 0.974008 6.99522V16.6825C0.976572 17.0378 1.05389 17.4821 1.32216 17.9252H0.974008V23.4607H9.24212C9.36387 23.4598 9.48391 23.4497 9.60352 23.4361V27.5387H11.1516V33.6363C11.1516 34.2111 11.3597 35.0455 12.349 35.749C12.349 35.749 12.5323 35.8672 12.6425 35.9316L12.675 35.9333L12.6805 35.9591L3.80067 35.954C3.05866 35.954 2.38029 36.1764 1.78352 36.6144C1.04193 37.1413 0.625 37.9011 0.625 38.744V42.2913H0.992377C0.704029 42.7433 0.625 43.188 0.625 43.5353V48.3758C0.625 49.2102 1.03638 49.9544 1.7848 50.4728C2.42771 50.915 3.10437 51.1391 3.80067 51.1391H12.0043V50.605C12.5827 50.9663 13.1944 51.1492 13.8245 51.1492H18.8447C19.5483 51.1492 20.2271 50.9226 20.864 50.4762C21.2139 50.2322 21.4877 49.937 21.6817 49.6062C21.8628 49.9124 22.1349 50.2216 22.5399 50.5101L22.56 50.5249C23.1918 50.9557 23.8317 51.1641 24.5164 51.1641L29.5692 51.1505C30.2676 51.1526 30.9289 50.9252 31.5504 50.4898C31.7358 50.3618 31.902 50.2183 32.0443 50.0624C32.1848 50.2098 32.377 50.3665 32.5582 50.4881C33.1912 50.9294 33.8371 51.1344 34.536 51.1344H39.5733C40.2752 51.1344 40.9544 50.9099 41.5931 50.4669C42.3406 49.9535 42.755 49.2081 42.755 48.3728V38.7487C42.755 38.3429 42.6559 37.9566 42.4701 37.6059L42.4308 37.4149L46.2609 37.6059L46.7274 37.5835V36.4H47.6599V30.7548H51.9454V33.6283C51.9462 34.2056 52.1547 35.0387 53.1449 35.7418L53.1697 35.7575C53.8028 36.1819 54.441 36.3886 55.1223 36.3886H60.1494C60.8474 36.3894 61.5258 36.165 62.1644 35.7223C63.123 35.0607 63.3251 34.2191 63.3251 33.6283L63.3255 22.0075H58.3245Z" fill="black"/>
<path d="M65.0327 54.9219L68.8295 41.9173H70.3883V37.8274L63.4214 37.8266V41.9173H64.6252L62.5876 48.8929H61.6042L59.5678 41.9173H60.772V37.8266L53.8047 37.8274V41.9173H55.363L59.1607 54.9219H65.0327Z" fill="black"/>
<path d="M43.8047 37.8539H51.5743V54.9648H43.8047V37.8539Z" fill="black"/>
<path d="M43.7891 54.9688H51.5586V37.8578H43.7891V54.9688Z" fill="black"/>
<path d="M43.8134 50.6709V54.9688L51.5582 54.9607L51.5569 50.6709H49.8038V41.9422L51.5578 41.9447L51.5544 37.8573H43.7891V41.9413H45.5755V50.6709H43.8134Z" fill="black"/>
<path d="M43.1875 36.5626C43.1891 36.5626 43.1903 36.565 43.1923 36.5662C43.1956 36.5694 43.2 36.5714 43.2028 36.5742L43.1875 36.5626Z" fill="black"/>
<path d="M62.648 42.6621H63.6108C63.252 43.8879 62.3408 47.0117 62.0533 47.996C61.7663 47.0117 60.8542 43.8879 60.4958 42.6621H61.4591V37.1237L53.0312 37.1254V42.6621H54.7724C55.0544 43.6245 58.5684 55.668 58.5684 55.668H65.5379C65.5379 55.668 69.0544 43.6245 69.3351 42.6621H71.075V37.1254L62.648 37.1237V42.6621Z" fill="black"/>
<path d="M62.0481 48.009L61.5547 48.918H62.6013L62.0481 48.009Z" fill="white"/>
<path d="M62.0481 48.009L61.5547 48.918H62.5432L62.0481 48.009Z" fill="#C4C4C3"/>
<path d="M59.5156 41.9445L60.4862 42.668H61.4499L60.7194 41.9445H59.5156Z" fill="#808182"/>
<path d="M60.7266 41.9445L61.4566 42.668V37.1295L60.7266 37.8538V41.9445Z" fill="#777677"/>
<path d="M61.5717 48.9336L62.0463 48.0039C61.7617 47.0301 60.8454 43.8903 60.4862 42.6602L59.5156 41.9372L61.5717 48.9336Z" fill="#777677"/>
<path d="M55.3228 41.9391L54.7734 42.6626C55.0554 43.6249 58.5694 55.668 58.5694 55.668L59.1175 54.9437L55.3228 41.9391Z" fill="white"/>
<path d="M53.7613 41.9445L53.0312 42.668H54.772L55.3214 41.9445H53.7613Z" fill="#808182"/>
<path d="M53.7613 37.8411L53.0312 37.1312V42.668L53.7613 41.9445V37.8411Z" fill="white"/>
<path d="M64.591 41.9445L63.6195 42.668H62.6562L63.3872 41.9445H64.591Z" fill="#838484"/>
<path d="M63.3872 41.9445L62.6562 42.668V37.1295L63.3872 37.8538V41.9445Z" fill="white"/>
<path d="M62.538 48.9297L62.0625 48.0093C62.3479 47.0355 63.2646 43.8961 63.6239 42.6661L64.5953 41.9426L62.538 48.9297Z" fill="white"/>
<path d="M68.7964 41.9391L69.3449 42.6626C69.0634 43.6249 65.5489 55.668 65.5489 55.668L65 54.9437L68.7964 41.9391Z" fill="#777677"/>
<path d="M70.3483 41.9445L71.0783 42.668H69.3376L68.7891 41.9445H70.3483Z" fill="#808182"/>
<path d="M70.3594 37.8551L71.0894 37.1312V42.668L70.3594 41.945V37.8551Z" fill="#777677"/>
<path d="M58.5781 55.668L59.1266 54.9437H65.0055L65.5549 55.668H58.5781Z" fill="#BBBBBB"/>
<path d="M43.841 54.9645L43.1016 55.6875H52.3159L51.5845 54.9645H43.841Z" fill="#BBBBBB"/>
<path d="M51.5858 54.9645L52.3172 55.6875L52.3065 49.9478L51.5781 50.6666L51.5858 54.9645Z" fill="#777677"/>
<path d="M51.5899 50.668L52.3187 49.9492H50.5668L49.8359 50.668H51.5899Z" fill="#BBBDBD"/>
<path d="M45.595 50.668L44.8675 49.945H43.1016L43.8859 50.668H45.595Z" fill="#BBBDBD"/>
<path d="M49.8359 50.668L50.5668 49.9492V42.6474L49.8359 41.9325V50.668Z" fill="#777677"/>
<path d="M43.8342 50.6666H43.8859L43.1016 49.9436V55.6875L43.841 54.9645L43.8342 50.6666Z" fill="white"/>
<path d="M43.8377 41.9406L43.1094 42.6641H44.8732L45.6045 41.9406H43.8377Z" fill="#808182"/>
<path d="M43.8461 37.8664L43.1016 37.1277V42.6641L43.8265 41.9449L43.8461 37.8664Z" fill="white"/>
<path d="M45.6025 50.668L45.6187 41.9312L44.875 42.6635V49.945L45.6025 50.668Z" fill="white"/>
<path d="M51.5894 41.9495L51.5859 37.846L52.3143 37.1281V42.6445L51.5894 41.9495Z" fill="#777677"/>
<path d="M49.8438 41.9389L50.5661 42.6445H52.3278L51.5961 41.9389H49.8438Z" fill="#808182"/>
<path d="M60.7286 37.8464L61.4587 37.1221L53.0312 37.1238L53.7728 37.8477L60.7286 37.8464Z" fill="#C4C4C3"/>
<path d="M63.3872 37.8464L62.6562 37.1221L71.0841 37.1238L70.3541 37.8477L63.3872 37.8464Z" fill="#C4C4C3"/>
<path d="M51.5868 37.8618L52.3186 37.1379H43.1094L43.8484 37.8711L51.5868 37.8618Z" fill="#C4C4C3"/>
<path d="M64.9937 54.9453L68.7905 41.9408H70.3493V37.8509L63.3824 37.85V41.9408H64.5862L62.5485 48.9164H61.5651L59.5287 41.9408H60.733V37.85L53.7656 37.8509V41.9408H55.324L59.1216 54.9453H64.9937Z" fill="black"/>
<path d="M43.8447 50.667V54.9648L51.5895 54.9568L51.5882 50.667H49.835V41.9383L51.589 41.9408L51.5856 37.8534H43.8203V41.9374H45.6068V50.667H43.8447Z" fill="black"/>
<path d="M64.9937 54.9453L68.7905 41.9408H70.3493V37.8509L63.3824 37.85V41.9408H64.5862L62.5485 48.9164H61.5651L59.5287 41.9408H60.733V37.85L53.7656 37.8509V41.9408H55.324L56.4385 45.7566L59.1216 54.9453H64.9937Z" stroke="white" stroke-width="0.7025"/>
<path d="M45.5915 50.667H43.8354V54.9648L51.5802 54.9568L51.5789 50.667H49.8258V41.9383H51.5798V38.1724V37.8509H43.8281V41.9408H45.5945L45.5915 50.667Z" stroke="white" stroke-width="0.7025"/>
<path d="M37.5773 40.3398L38.2236 39.6994H35.9531L36.599 40.3398H37.5773Z" fill="white"/>
<path d="M23.2027 40.5033H22.2253L21.5781 41.1445H22.579L23.2027 40.5266V40.5033Z" fill="white"/>
<path d="M25.9531 40.5033L26.6007 41.1445H31.6009L30.9554 40.5033H25.9531Z" fill="white"/>
<path d="M7.46774 39.6947H5.21094L5.85812 40.3359H6.83551L7.46774 39.7091V39.6947Z" fill="white"/>
<path d="M2.48269 40.4876L1.83594 41.1289H5.86213L5.21495 40.4876H2.48269Z" fill="white"/>
<path d="M6.83423 45.1562L7.46646 44.5298V44.5158H5.21094L5.85684 45.1562H6.83423Z" fill="white"/>
<path d="M53.7787 25.7437H52.7791L52.1328 26.3828H53.1328L53.7787 25.7437Z" fill="white"/>
<path d="M56.5078 25.7437L57.1541 26.3828H62.1543L61.5088 25.7437H56.5078Z" fill="white"/>
<path d="M56.5078 25.7437L57.1541 26.3828H62.1543L61.5088 25.7437H56.5078Z" fill="white"/>
<path d="M45.8516 24.9334L46.4975 25.5742H51.5386L50.8915 24.9334H45.8516Z" fill="white"/>
<path d="M45.8516 28.9477L46.4975 29.5898H51.5386L50.8915 28.9477H45.8516Z" fill="white"/>
<path d="M37.4067 25.5742L38.053 24.9334H35.7812L36.4284 25.5742H37.4067Z" fill="white"/>
<path d="M35.7812 29.765L36.4284 30.4062H41.4389L40.7925 29.765H35.7812Z" fill="white"/>
<path d="M12.9831 25.7358H11.4345L10.7891 26.375H12.3372L12.9831 25.7358Z" fill="white"/>
<path d="M15.7188 25.7358L16.3646 26.375H21.3687L20.7228 25.7358H15.7188Z" fill="white"/>
<path d="M28.0475 24.949H25.7812L26.4271 25.5898H27.4016L28.0475 24.949Z" fill="white"/>
<path d="M21.949 21.633H19.3167H19.3159C19.2642 21.633 19.2117 21.6296 19.1591 21.6233C19.1463 21.622 19.1335 21.6212 19.1207 21.6195C19.069 21.6123 19.0181 21.6029 18.966 21.5902H18.9643C18.9105 21.578 18.8584 21.5597 18.8058 21.5411C18.7935 21.5364 18.7828 21.5331 18.7721 21.5275C18.6461 21.4814 18.5201 21.4136 18.3915 21.3319L17.9297 21.791C17.9528 21.8075 17.9728 21.8262 17.9976 21.8435C18.4141 22.121 18.852 22.2734 19.3167 22.2734H21.949H22.404L23.0507 21.633H21.949Z" fill="white"/>
<path d="M47.3649 8.61719L48.0117 7.97676H45.7344L46.3811 8.61719H47.3649Z" fill="white"/>
<path d="M37.3425 7.97982H36.3655H35.7188L36.3655 8.62109H37.3425L37.9892 7.97982H37.3425Z" fill="white"/>
<path d="M27.9715 7.98025H25.7031L26.349 8.62109H27.3264L27.9715 7.98025Z" fill="#BBBBBB"/>
<path d="M22.9588 8.77322L22.3125 9.41406H26.3383L25.6924 8.77322H22.9588Z" fill="white"/>
<path d="M27.9715 12.7971H25.7031L26.349 13.4375H27.3264L27.9715 12.7971Z" fill="#BBBBBB"/>
<path d="M15.6641 12.804L16.31 13.4453H17.2844L17.9311 12.804H15.6641Z" fill="#BBBBBB"/>
<path d="M16.31 8.625H17.2848L17.9315 7.98458H15.6641L16.31 8.625Z" fill="#BBBBBB"/>
<path d="M6.22402 8.61719H7.20612L7.85372 7.97931H5.57812L6.22402 8.61719Z" fill="#BBBBBB"/>
<path d="M4.17088 17.6399C4.01026 17.6399 3.85434 17.6145 3.69756 17.5607C3.56855 17.5158 3.43613 17.451 3.30071 17.3692L2.83594 17.8305C3.27209 18.1266 3.70867 18.2769 4.16917 18.2773H7.19149L7.83867 17.6403V17.6399H4.17088Z" fill="white"/>
<path d="M45.8434 34.594H43.0838L42.4375 35.2344H46.4893L45.8434 34.594Z" fill="white"/>
<path d="M25.787 34.594H23.0539H23.0534L22.4062 35.2344H26.4337L25.7878 34.594H25.787Z" fill="white"/>
<path d="M28.0521 34.594L27.4062 35.2344H31.4312L30.7848 34.594H28.0521Z" fill="white"/>
<path d="M40.2905 34.3254C39.9953 34.5071 39.7185 34.594 39.4276 34.594H34.3915C34.2318 34.594 34.0775 34.569 33.9216 34.5147C33.8832 34.5012 33.8443 34.4868 33.8063 34.4694C33.7883 34.4626 33.7695 34.4533 33.7507 34.444C33.7354 34.4368 33.7187 34.4292 33.7025 34.4224L33.7029 34.422C33.6572 34.3991 33.6111 34.3729 33.5628 34.3449C33.5624 34.3449 33.5611 34.3441 33.5611 34.3432C33.5419 34.3318 33.5235 34.3195 33.5047 34.3076L33.0391 34.7689C33.0421 34.7723 33.045 34.7744 33.0476 34.7769C33.4863 35.0827 33.9263 35.2344 34.3915 35.2331H34.3937L34.3915 35.2344H39.4271C39.8872 35.2344 40.3221 35.0849 40.757 34.7871L40.2905 34.3254Z" fill="white"/>
<path d="M10.1596 21.3507C9.9973 21.457 9.8448 21.5346 9.694 21.5854C9.54321 21.6371 9.39327 21.6616 9.23564 21.6616H9.25144H2.79928L2.16406 22.2982L9.25144 22.3008V22.2991C9.71152 22.2961 10.125 22.1432 10.5381 21.8683C10.5667 21.848 10.5919 21.8272 10.6197 21.8052L10.1596 21.3507Z" fill="white"/>
<path d="M20.2514 34.3059C20.2368 34.3144 20.221 34.3254 20.2069 34.3335C19.925 34.5067 19.6576 34.5884 19.3803 34.594H19.3598H14.3306C14.0282 34.594 13.7479 34.4995 13.431 34.2915L12.9688 34.7502C12.9918 34.7672 13.0119 34.785 13.035 34.8023C13.4515 35.0827 13.8667 35.2344 14.3306 35.2344H19.3598C19.8246 35.2344 20.2633 35.0827 20.702 34.7778C20.7072 34.7744 20.7123 34.7718 20.7166 34.7672L20.2514 34.3059Z" fill="white"/>
<path d="M10.2181 49.3283H10.1985V49.3347H3.83647H3.8275C3.53873 49.3347 3.26576 49.25 2.97613 49.07L2.51562 49.5278C2.94793 49.8197 3.37939 49.9688 3.83605 49.9688H10.8653L10.2181 49.3283Z" fill="white"/>
<path d="M19.7692 49.0474C19.6261 49.1393 19.4835 49.2134 19.3446 49.2617C19.1904 49.3146 19.0379 49.3396 18.8773 49.3396H13.857C13.6981 49.3396 13.5435 49.3146 13.3893 49.2617C13.3517 49.2481 13.3137 49.2337 13.2752 49.2176C13.2564 49.2096 13.2372 49.1986 13.2184 49.1901C13.2039 49.1842 13.1885 49.1766 13.1731 49.1685H13.1723C13.1697 49.166 13.1667 49.166 13.1637 49.1638C13.1274 49.1461 13.0911 49.1257 13.0539 49.1033C13.045 49.0982 13.0351 49.0931 13.0266 49.0876C13.0031 49.0741 12.9805 49.0575 12.9578 49.0423L12.4922 49.5023C12.5007 49.5095 12.5076 49.5158 12.5148 49.5213C12.9553 49.8293 13.394 49.9805 13.857 49.9805H18.8773C19.3412 49.9805 19.7786 49.8293 20.2169 49.5213C20.2233 49.5179 20.2289 49.5133 20.2344 49.5086L19.7692 49.0474Z" fill="white"/>
<path d="M30.5768 49.0407C30.4337 49.1326 30.2018 49.236 30.0625 49.2839C29.9092 49.3364 29.7554 49.3622 29.5952 49.3622H24.5758C24.4152 49.3622 24.2631 49.3364 24.1076 49.2839C24.07 49.2711 24.0316 49.2563 23.994 49.2411C23.9756 49.233 23.9559 49.222 23.9367 49.214C23.9218 49.2063 23.9064 49.1996 23.8906 49.1919C23.8884 49.1898 23.8846 49.1881 23.882 49.1873C23.8462 49.1678 23.8098 49.1487 23.7723 49.1259C23.7637 49.1204 23.7535 49.1161 23.7449 49.1102C23.7214 49.0971 23.6979 49.081 23.6761 49.0653L23.2109 49.5261C23.2191 49.5329 23.2259 49.5393 23.234 49.5439C23.6736 49.851 24.1131 50.0039 24.5758 50.0039H29.5952C30.0582 50.0039 30.4978 49.829 30.9365 49.521C30.9412 49.5177 31.004 49.4626 31.0096 49.4584L30.5768 49.0407Z" fill="white"/>
<path d="M40.4489 49.0622C40.1699 49.2312 39.9059 49.3189 39.6291 49.3236C39.621 49.324 39.6116 49.324 39.6013 49.324H39.6005H34.5644H34.5636C34.555 49.324 34.5426 49.3236 34.5324 49.3236C34.2201 49.3172 33.9237 49.2105 33.6033 48.9902L33.1406 49.4485C33.1667 49.4693 33.1919 49.4892 33.2205 49.5091C33.6614 49.8145 34.0992 49.9648 34.5644 49.9648H39.6005C40.0559 49.9648 40.4873 49.8196 40.9175 49.529L40.4489 49.0622Z" fill="white"/>
<path d="M61.0447 34.2907C61.0285 34.3009 61.0092 34.314 60.9913 34.325C60.9815 34.3318 60.9734 34.3352 60.9635 34.3416C60.9277 34.3619 60.8913 34.3818 60.8563 34.4C60.8529 34.4017 60.8503 34.403 60.8473 34.4051C60.832 34.4127 60.8162 34.4195 60.7999 34.4267C60.7807 34.4356 60.7602 34.4458 60.7401 34.4546C60.7025 34.4712 60.6637 34.4864 60.6261 34.4983C60.4701 34.5525 60.3159 34.5775 60.1566 34.5775H55.1295C55.0765 34.5775 55.0244 34.5741 54.9723 34.5682C54.9603 34.5665 54.9492 34.5643 54.9373 34.5639C54.8847 34.5559 54.833 34.5478 54.7814 34.5343C54.7796 34.5339 54.7784 34.5334 54.7749 34.533C54.725 34.5186 54.6754 34.5025 54.6254 34.4834C54.6143 34.4784 54.6036 34.4754 54.5925 34.4707C54.5404 34.4496 54.4879 34.4267 54.4358 34.3983C54.4341 34.397 54.4332 34.3966 54.4311 34.3966C54.417 34.3894 54.4033 34.3801 54.3905 34.3725C54.3717 34.3627 54.3529 34.3534 54.3362 34.3424L53.8672 34.8075C54.2713 35.0726 54.6767 35.2188 55.1295 35.2188H60.1566C60.6205 35.2188 61.0588 35.0667 61.4967 34.763C61.5022 34.7588 61.5069 34.7554 61.5125 34.7511L61.0447 34.2907Z" fill="white"/>
<path d="M8.85366 37.1213H3.82829H3.82786C3.36437 37.1213 2.92523 37.2475 2.51001 37.552C2.50189 37.5588 2.4942 37.5647 2.48438 37.5715L2.94018 38.0234C3.20589 37.84 3.4874 37.7515 3.81932 37.7515H3.82829H8.83828C8.84341 37.7515 8.84896 37.7524 8.85366 37.7524C9.13816 37.7541 9.44702 37.8832 9.6794 38.02L10.1331 37.5232C9.73195 37.2365 9.28597 37.1213 8.85366 37.1213Z" fill="white"/>
<path d="M37.5773 46.7798H36.599L35.9531 47.4219H38.2236L37.5773 46.7798Z" fill="white"/>
<path d="M25.9688 38.5644H30.9219V38.5703H30.9621L31.608 37.9299H26.6078L25.9688 38.5644Z" fill="white"/>
<path d="M28.2151 47.418V47.3866L27.6012 46.7771H26.6007L25.9531 47.418H28.2151Z" fill="white"/>
<path d="M30.9632 42.5742L31.6091 41.9338H27.6094L28.2544 42.5742H30.9632Z" fill="white"/>
<path d="M23.2027 38.5664V38.5499L22.579 37.9319H21.5781L22.2616 38.5664H23.2027Z" fill="white"/>
<path d="M23.2018 37.2445H25.9272V37.2852H25.9571L26.6052 36.6447H22.5781L23.2018 37.2627V37.2445Z" fill="white"/>
<path d="M17.5014 47.418L16.8547 46.7767H15.8803L15.2344 47.418H17.5014Z" fill="white"/>
<path d="M17.507 37.7773H20.235L20.88 37.1369H16.8594L17.507 37.7773Z" fill="white"/>
<path d="M15.2424 37.7617L15.8891 37.1209H11.8672L12.5135 37.7617H15.2424Z" fill="white"/>
<path d="M6.83551 46.7798H5.85812L5.21094 47.4219H7.46774V47.4079L6.83551 46.7798Z" fill="#C4C4C3"/>
<path d="M61.5088 23.8117V23.8125L62.1543 23.1708H57.1541L56.5078 23.8117H61.5088Z" fill="white"/>
<path d="M58.8005 32.6523L58.1533 32.0115H57.1541L56.5078 32.6523H58.8005Z" fill="white"/>
<path d="M61.5196 27.8164L62.1651 27.1751H58.1641L58.8112 27.8164H61.5196Z" fill="white"/>
<path d="M52.7787 23.8125V23.8117H53.7783L53.1324 23.1704H52.1328L52.7787 23.8125Z" fill="white"/>
<path d="M53.7865 22.5312H56.5213L57.1677 21.8904H53.1406L53.7865 22.5312Z" fill="white"/>
<path d="M50.8915 27L51.5391 26.3592H46.4979L45.8516 27H50.8915Z" fill="white"/>
<path d="M38.0448 31.859H40.7843V31.8594L41.4302 31.2185H37.3984L38.0448 31.859Z" fill="white"/>
<path d="M35.7812 32.6719H38.053L37.4067 32.0306H36.4284L35.7812 32.6702V32.6719Z" fill="white"/>
<path d="M37.4067 27.1751H36.4284L35.7812 27.8164H38.053L37.4067 27.1751Z" fill="white"/>
<path d="M20.7215 23.8125L21.3674 23.1717H16.3095L15.6641 23.8125H20.7215Z" fill="white"/>
<path d="M18.0123 32.6758L17.3664 32.0332H16.3651L15.7188 32.6758H18.0123Z" fill="white"/>
<path d="M20.7314 27.8242L21.3773 27.1821H17.375L18.0209 27.8242H20.7314Z" fill="white"/>
<path d="M11.4345 23.8125H12.9831L12.3372 23.1717H10.7891L11.4345 23.8125Z" fill="white"/>
<path d="M15.727 21.3711L16.3234 20.7307H12.2891L12.9538 21.3711H15.727Z" fill="white"/>
<path d="M21.3104 19.7188H22.5138L25.7796 19.7183L26.4259 19.0775L21.3104 19.0783L20.6641 19.7188H21.3104Z" fill="white"/>
<path d="M7.84687 19.7305L7.19926 19.0926H2.16406L2.80911 19.7305H7.84687Z" fill="white"/>
<path d="M51.5362 22.3439H44.4573C43.9981 22.3439 43.5607 22.4671 43.1484 22.7628L43.6166 23.2266C43.8746 23.0652 44.1425 22.983 44.4573 22.983H50.8886L51.5362 22.3439Z" fill="white"/>
<path d="M40.7417 22.7766C40.3269 22.472 39.8873 22.3458 39.4221 22.3458H39.4217H34.386C33.9435 22.3458 33.5227 22.4627 33.125 22.7363L33.5915 23.1997C33.5962 23.1971 33.603 23.1942 33.6081 23.1904C33.6445 23.1683 33.682 23.148 33.7196 23.1315C33.7269 23.1277 33.732 23.1247 33.7384 23.1218C33.7436 23.1196 33.747 23.1184 33.75 23.1171C33.8418 23.0756 33.9362 23.0447 34.0358 23.0231C34.0469 23.0205 34.0601 23.0184 34.0721 23.0154C34.1105 23.0082 34.1494 23.0027 34.1883 22.9985C34.2024 22.9972 34.216 22.9943 34.2297 22.9938C34.2818 22.9896 34.3331 22.9854 34.386 22.9854H39.4217H39.4221C39.7677 22.9854 40.0676 23.0904 40.3469 23.2891L40.8087 22.8312C40.7899 22.8159 40.7622 22.791 40.7417 22.7766Z" fill="white"/>
<path d="M30.5755 22.6843C30.5157 22.6475 30.4375 22.6055 30.3764 22.5755C30.1394 22.4632 29.8899 22.3984 29.6391 22.3755C29.5682 22.37 29.4977 22.3658 29.426 22.3658H26.4271L25.7812 23.0071H29.426C29.4311 23.0071 29.4354 23.0079 29.4409 23.0079C29.7442 23.0092 30.0044 23.0829 30.2526 23.2392C30.259 23.243 30.3243 23.2892 30.332 23.293L30.7844 22.8258C30.7314 22.7877 30.6285 22.7169 30.5755 22.6843Z" fill="white"/>
<path d="M6.82437 41.9392H3.82214C3.36762 41.9392 2.95966 42.0857 2.55469 42.378L3.01348 42.832C3.28261 42.6558 3.53422 42.5754 3.81317 42.5754H3.82214H7.4566V42.5669L6.82437 41.9392Z" fill="white"/>
<path d="M40.9285 37.5542C40.5145 37.2493 40.0745 37.1247 39.608 37.1247H34.572C34.1068 37.1247 33.6685 37.2493 33.2524 37.5542C33.2289 37.5712 33.2093 37.5885 33.1875 37.6046L33.6489 38.0625C33.9205 37.8664 34.2068 37.7711 34.5434 37.7664C34.5532 37.7664 34.5626 37.7656 34.572 37.7656H39.4013C39.9566 37.7656 40.2484 37.8588 40.5248 38.0561L40.987 37.5991C40.9678 37.5847 40.9494 37.5695 40.9285 37.5542Z" fill="white"/>
<path d="M46.3811 15.1061L45.7344 15.7461H48.0117L47.3649 15.1061H46.3811Z" fill="#C4C4C3"/>
<path d="M35.705 6.04297L36.3518 5.40212H32.3281L32.9736 6.04297H35.705Z" fill="white"/>
<path d="M26.349 15.0623L25.7031 15.7031H27.9715L27.3264 15.0623H26.349Z" fill="white"/>
<path d="M17.2848 10.2259H16.31L15.6641 10.8672H17.9315L17.2848 10.2259Z" fill="white"/>
<path d="M7.20612 15.0748H6.22402L5.57812 15.7109H7.85372L7.20612 15.0748Z" fill="white"/>
<path d="M50.8126 2.80469L51.4598 2.16426H47.4062L48.053 2.80469H50.8126Z" fill="#C4C4C3"/>
<path d="M4.16056 5.38777C3.6975 5.38905 3.2575 5.51738 2.84228 5.82023C2.82904 5.82997 2.81665 5.84056 2.80469 5.85073L3.26604 6.30859C3.32158 6.27005 3.37711 6.23278 3.43393 6.20313C3.4382 6.20059 3.44204 6.19847 3.44546 6.19593C3.48134 6.17814 3.51723 6.16077 3.55482 6.1451C3.55567 6.1451 3.5561 6.14425 3.55696 6.14425C3.59028 6.12985 3.62402 6.11799 3.65777 6.10613C3.66332 6.10401 3.66674 6.10232 3.67144 6.10063C3.70305 6.09046 3.73466 6.08199 3.7667 6.07437C3.77482 6.07225 3.78251 6.06971 3.78977 6.06759C3.81839 6.06081 3.84787 6.05615 3.87777 6.05107C3.88845 6.04853 3.89998 6.04599 3.91194 6.04429C3.938 6.0409 3.96491 6.03794 3.99055 6.0354C4.0055 6.0337 4.02258 6.03159 4.03796 6.03031C4.05975 6.0282 4.08282 6.0282 4.10631 6.02777C4.12639 6.02693 4.14647 6.02566 4.16825 6.02566H4.16996H10.5995L11.2467 5.38777H4.16056Z" fill="white"/>
<path d="M47.4082 5.39126H44.3846H44.3833C43.9194 5.39126 43.4794 5.51663 43.0625 5.81948L43.3577 6.45312C43.6191 6.2854 44.0642 6.03168 44.3833 6.03168H44.3846H48.0537L47.4082 5.39126Z" fill="white"/>
<path d="M27.3273 10.219H24.3251C23.8611 10.219 23.4459 10.3697 23.0311 10.6751C23.0286 10.6773 23.026 10.6789 23.0234 10.6811L23.4869 11.1406C23.4989 11.1326 23.51 11.1241 23.5215 11.1169C23.5373 11.1063 23.5531 11.0974 23.5672 11.0881C23.5822 11.0788 23.5971 11.0699 23.6104 11.0614H23.6112C23.6138 11.0601 23.6164 11.0589 23.6185 11.058C23.6715 11.0263 23.7257 10.9992 23.7787 10.975C23.786 10.9725 23.7928 10.9699 23.8013 10.9657C23.8513 10.9454 23.9017 10.9272 23.9504 10.9132C23.9564 10.9111 23.9615 10.9089 23.9667 10.9072C24.0196 10.8933 24.0722 10.8827 24.1256 10.8742C24.1367 10.8729 24.1482 10.8712 24.1602 10.8704C24.2148 10.8636 24.2691 10.8594 24.3251 10.8594H27.9723L27.3273 10.219Z" fill="white"/>
<path d="M20.6328 5.83524C20.218 5.53113 19.7788 5.40448 19.3162 5.40448H12.2891L12.935 6.04533H19.3162C19.6575 6.04533 20.0535 6.15672 20.3282 6.35156L20.6832 5.87506C20.6657 5.86193 20.6512 5.84795 20.6328 5.83524Z" fill="white"/>
<path d="M29.3439 5.40227H24.3172C23.8537 5.40227 23.4146 5.52849 23.0002 5.83219C22.9861 5.84278 22.9742 5.85336 22.9609 5.86353L23.4227 6.32182C23.4462 6.30573 23.468 6.29006 23.4915 6.27481C23.744 6.11682 24.0092 6.0427 24.3172 6.0427H29.3439C29.6092 6.0427 29.8428 6.09776 30.0637 6.21212C30.0739 6.21847 30.5298 6.48277 30.5409 6.48828L30.6844 5.84913C30.2363 5.50943 29.7715 5.40227 29.3439 5.40227Z" fill="white"/>
<path d="M39.3665 6.04752C38.7603 6.04752 38.2263 6.10851 37.7808 6.23007C37.3724 6.34105 37.0328 6.50369 36.773 6.71336L35.7188 7.56641L36.3655 6.21694C37.0225 5.68453 38.0251 5.4054 39.3665 5.4054C39.3665 5.4054 40.0474 5.34483 40.7292 5.86793C40.3686 6.27412 40.3323 6.24363 40.3323 6.24363L40.1452 6.40035L39.3665 6.04752Z" fill="white"/>
<path d="M25.953 38.5664H25.9615L26.6006 37.9319V36.646L25.9453 37.2174L25.953 38.5664Z" fill="white"/>
<path d="M35.7812 32.6719L36.4284 32.0319V30.4046L35.7812 29.7633V32.6719Z" fill="white"/>
<path d="M36.4284 25.5741L35.7812 24.9332V27.8164L36.4284 27.1747V25.5741Z" fill="white"/>
<path d="M15.7188 25.7336V32.6758L16.3646 32.0337V26.3728L15.7188 25.7336Z" fill="white"/>
<path d="M15.6641 23.8125L16.3095 23.1717V20.726L15.6641 21.3664V23.8125Z" fill="white"/>
<path d="M25.7812 34.594L26.4271 35.2344V25.5933L25.7812 24.9525V34.594Z" fill="white"/>
<path d="M25.7812 23.0156L26.4271 22.3744V19.0816L25.7812 19.7224V23.0156Z" fill="white"/>
<path d="M35.7188 7.56641L36.3655 6.21652V5.40667L35.7188 6.04752V7.56641Z" fill="white"/>
<path d="M5.57812 7.97843V15.7109L6.22402 15.0748V8.61631L5.57812 7.97843Z" fill="white"/>
<path d="M36.599 40.3459L35.9531 39.7055V47.4219L36.599 46.7798V40.3459Z" fill="white"/>
<path d="M25.9531 47.418L26.6007 46.7771V41.1518L25.9531 40.5106V47.418Z" fill="white"/>
<path d="M15.2344 47.418L15.8803 46.7767V37.1195L15.2344 37.7604V47.418Z" fill="white"/>
<path d="M5.21094 40.4876L5.85812 41.1289V40.3432L5.21094 39.7015V40.4876Z" fill="white"/>
<path d="M5.85812 46.7798V45.1579L5.21265 44.5175H5.21094V47.4219L5.85812 46.7798Z" fill="white"/>
<path d="M30.9531 40.5033L31.599 41.1445V37.9318L30.9531 38.5718V40.5033Z" fill="white"/>
<path d="M20.8712 48.3804V37.1336L20.2261 37.774V48.3804C20.2261 48.5443 20.1813 48.7641 19.8438 48.9992L19.8417 49.0009C19.816 49.0191 19.7913 49.0339 19.7656 49.0509L20.2304 49.5117C20.6572 49.2089 20.8725 48.8306 20.8725 48.3804H20.8712Z" fill="white"/>
<path d="M56.5078 32.6523L57.1541 32.0115V26.3849L56.5078 25.7458V32.6523Z" fill="white"/>
<path d="M61.5234 25.7437L62.1689 26.3828V23.1714L61.5234 23.8135V25.7437Z" fill="white"/>
<path d="M56.5078 23.8125L57.1541 23.1717V21.8853L56.5078 22.5261V23.8125Z" fill="white"/>
<path d="M45.8516 34.594L46.4975 35.2344V29.59L45.8516 28.9483V34.594Z" fill="white"/>
<path d="M50.8906 28.9477L51.5382 29.5898V26.3606L50.8906 27.0015V28.9477Z" fill="white"/>
<path d="M45.8516 27L46.4975 26.3592V25.5709L45.8516 24.9296V27Z" fill="white"/>
<path d="M50.8906 24.9334L51.5382 25.5742V22.3471L50.8906 22.9863V24.9334Z" fill="white"/>
<path d="M20.7344 23.8171V25.7354L21.3803 26.375V23.1763L20.7344 23.8171Z" fill="white"/>
<path d="M40.8145 22.8292L40.3438 23.2807C40.3502 23.2862 40.3578 23.2879 40.3638 23.2934L40.3672 23.2959L40.3715 23.2981C40.7449 23.5636 40.7867 23.8114 40.7867 23.9732V29.7646L41.4331 30.4062V23.9732C41.4331 23.5348 41.2387 23.1519 40.8145 22.8292Z" fill="white"/>
<path d="M40.792 31.8618V33.6357C40.792 33.8001 40.7501 34.0182 40.4088 34.2545C40.3708 34.2795 40.3336 34.3045 40.2969 34.3278L40.7629 34.7891C40.7689 34.7865 40.7723 34.7831 40.7779 34.7789C41.2192 34.4739 41.4379 34.0932 41.4379 33.6357V31.221L40.792 31.8618Z" fill="white"/>
<path d="M30.7825 22.8317C30.78 22.83 30.7795 22.8287 30.7778 22.8275L30.3203 23.2853C30.3489 23.3035 30.328 23.2959 30.3566 23.3171L30.36 23.3201L30.3647 23.3218C30.7355 23.5877 30.7783 23.8326 30.7783 23.9948V34.594L31.4246 35.2344V23.9948C31.4246 23.5378 31.1888 23.1328 30.7825 22.8317Z" fill="white"/>
<path d="M21.3676 33.6339V27.1835L20.7217 27.8252V33.6339V33.6479C20.7196 33.8092 20.67 34.0214 20.339 34.2506L20.3381 34.2514C20.3381 34.2514 20.339 34.2514 20.339 34.2506C20.3116 34.2705 20.2847 34.2866 20.2578 34.3044L20.723 34.7656C21.1515 34.4628 21.3685 34.085 21.3685 33.6339H21.3676Z" fill="white"/>
<path d="M10.8566 38.7402C10.8566 38.2832 10.637 37.8765 10.174 37.5474C10.1449 37.5271 10.1667 37.5373 10.1372 37.5191L9.66689 38.004C9.68099 38.0121 9.64553 37.968 9.65963 37.9765C9.70363 38.0032 9.7472 38.0316 9.79035 38.0629L9.79377 38.065L9.79718 38.0684C10.1663 38.331 10.2094 38.5767 10.2094 38.7402V49.3288L10.8566 49.9688V38.7402Z" fill="white"/>
<path d="M30.9147 42.5614L30.913 48.4324V48.44C30.9117 48.4502 30.9105 48.4612 30.9088 48.4709C30.9088 48.4824 30.907 48.4938 30.9041 48.5061C30.9028 48.5171 30.9006 48.5281 30.8976 48.5383C30.8959 48.551 30.8921 48.5645 30.8878 48.5768C30.8848 48.587 30.881 48.5984 30.8767 48.6099C30.872 48.6243 30.8652 48.637 30.8596 48.651C30.8536 48.662 30.8494 48.673 30.8434 48.684C30.8353 48.6992 30.8263 48.7136 30.8169 48.7285C30.8096 48.7395 30.8024 48.7518 30.7951 48.7619C30.784 48.778 30.7695 48.7937 30.7558 48.8106C30.7469 48.82 30.7392 48.8318 30.7289 48.842C30.7127 48.8606 30.6917 48.8788 30.6712 48.897C30.6614 48.9059 30.6529 48.9153 30.6422 48.9241C30.6106 48.9521 30.5738 48.9805 30.5345 49.0084V49.0093H30.5337C30.5298 49.011 30.5264 49.0131 30.5234 49.0152L30.9839 49.4727C31.3675 49.1779 31.6029 48.8047 31.6029 48.3761L31.6008 41.9307L30.9147 42.5614Z" fill="white"/>
<path d="M41.6195 38.6902H41.6156C41.5994 38.2794 41.3969 37.9092 40.9915 37.6017L40.5297 38.0591C40.5353 38.0634 40.5434 38.0672 40.5489 38.0727L40.5519 38.0735C40.5532 38.0735 40.5532 38.0748 40.5536 38.0748C40.5536 38.0748 40.5549 38.0748 40.5549 38.0769L40.5588 38.0778C40.9296 38.3425 40.9727 38.5856 40.9727 38.7478V48.3715C40.9727 48.5342 40.9296 48.7527 40.5912 48.9849H40.5904L40.5882 48.9861C40.5451 49.0154 40.5032 49.0391 40.4609 49.0645L40.9296 49.5312C40.9394 49.5228 40.9505 49.5173 40.9599 49.5109C41.4012 49.2085 41.6195 48.8269 41.6195 48.372V38.7478V38.6902Z" fill="white"/>
<path d="M61.5203 27.8161V33.6299V33.6455C61.5173 33.7235 61.5058 33.8133 61.455 33.9107C61.4443 33.9331 61.4298 33.9569 61.4135 33.9819C61.4105 33.9835 61.4092 33.9857 61.4063 33.9907C61.3896 34.0157 61.3661 34.0416 61.3422 34.07C61.3422 34.07 61.3405 34.0704 61.3396 34.0716C61.2888 34.1271 61.2221 34.1847 61.1384 34.2428L61.1371 34.244C61.1102 34.2635 61.0833 34.28 61.0547 34.2974L61.522 34.7578C61.9518 34.4562 62.1658 34.0801 62.1658 33.6299V27.1748L61.5203 27.8161Z" fill="white"/>
<path d="M50.8125 17.617L51.4597 18.2578V2.16338L50.8125 2.80423V17.617Z" fill="white"/>
<path d="M46.3811 15.1061V8.618L45.7344 7.97758V15.7461L46.3811 15.1061Z" fill="white"/>
<path d="M35.7188 17.617L36.3655 18.2578V8.62479L35.7188 7.98352V17.617Z" fill="white"/>
<path d="M25.7031 8.77322L26.349 9.41406V8.62794L25.7031 7.98709V8.77322Z" fill="white"/>
<path d="M26.349 15.0623V13.4405L25.7031 12.8V15.7031L26.349 15.0623Z" fill="white"/>
<path d="M21.3243 12.6084C21.3179 12.3789 21.1812 12.143 20.9706 12.0392C20.8553 11.9812 20.7293 11.943 20.6054 11.9075C20.5853 11.902 20.5661 11.896 20.5469 11.8905C20.6344 11.9833 20.6964 12.0972 20.6985 12.2395C20.699 12.2743 20.7037 12.4666 20.7075 12.6339C20.7109 12.7457 20.7126 12.8473 20.7126 12.8821C20.7126 13.2319 20.6797 19.7188 20.6797 19.7188L21.3261 19.0783V12.6339C21.3261 12.6245 21.3261 12.6169 21.3243 12.6084Z" fill="white"/>
<path d="M15.6641 19.0927L16.31 19.7344V13.4479L15.6641 12.8062V19.0927Z" fill="white"/>
<path d="M15.6641 7.98698V10.8672L16.31 10.2259V8.6274L15.6641 7.98698Z" fill="white"/>
<path d="M10.61 6.02233V20.6927V20.6949C10.61 20.7012 10.6083 20.7097 10.6079 20.7177C10.6075 20.7364 10.6075 20.7542 10.6045 20.7728C10.6028 20.7808 10.6006 20.7893 10.5989 20.7974C10.5955 20.8143 10.5934 20.8313 10.5887 20.8473C10.5853 20.8596 10.581 20.8711 10.575 20.8821C10.5699 20.8948 10.5665 20.9075 10.5613 20.9202C10.5502 20.9448 10.5374 20.9681 10.5229 20.9926C10.452 21.1083 10.3345 21.2235 10.1739 21.3383C10.1709 21.3412 10.1671 21.3425 10.1641 21.3446L10.6263 21.8008C11.0334 21.4882 11.2508 21.1307 11.2555 20.7063V5.38445L10.61 6.02233Z" fill="white"/>
<path d="M21.3112 7.0299C21.3112 6.59109 21.1062 6.19929 20.679 5.87654L20.3419 6.34076C20.3509 6.34712 20.2351 6.34542 20.2424 6.35178L20.248 6.35474L20.2514 6.35728C20.295 6.38863 20.3317 6.41912 20.3663 6.44877C20.3718 6.45343 20.3761 6.45809 20.3821 6.46233C20.412 6.48943 20.4385 6.51612 20.4624 6.5428C20.4658 6.54704 20.4705 6.55043 20.4739 6.55466C20.5038 6.59024 20.5325 6.62413 20.5543 6.65716C20.5632 6.67241 20.5692 6.68639 20.5777 6.70121C20.5854 6.71561 20.5944 6.72959 20.5995 6.74315C20.6085 6.76051 20.6158 6.77745 20.6222 6.7944C20.6273 6.80837 20.6316 6.82235 20.6358 6.83633C20.6405 6.85115 20.6448 6.86598 20.6482 6.88038C20.6517 6.8969 20.6542 6.91088 20.6563 6.92655C20.6585 6.93756 20.6602 6.949 20.661 6.95958C20.664 6.98415 20.6649 7.00702 20.6649 7.02905V7.0299L20.6824 10.8851C20.6824 10.8851 20.6854 11.1232 20.6106 11.1651C20.5333 11.2087 19.6875 11.5362 19.6875 11.5362C19.6875 11.5362 20.1335 11.5912 20.4282 11.8047C20.8345 11.7276 21.3112 11.4968 21.3112 11.0385V7.0299Z" fill="white"/>
<path d="M40.7202 17.617H37.9901L37.3438 18.2578H41.3678L40.7202 17.617Z" fill="white"/>
<path d="M35.705 17.617H32.9736L32.3281 18.2578H36.3518L35.705 17.617Z" fill="white"/>
<path d="M15.6694 19.0927H12.935L12.2891 19.7344H16.3153L15.6694 19.0927Z" fill="white"/>
<path d="M50.8187 17.617H44.3888H44.3879C44.2264 17.617 44.0727 17.5907 43.915 17.5373C43.7822 17.492 43.6497 17.4276 43.5126 17.3429C43.4977 17.3345 43.4802 17.3217 43.4639 17.3116L43 17.7716C43.0128 17.7822 43.0243 17.7919 43.038 17.8008C43.4802 18.1041 43.9231 18.2578 44.3879 18.2578H44.3888H51.4659L50.8187 17.617Z" fill="white"/>
<path d="M30.709 17.617H24.3261C24.0211 17.617 23.7302 17.5204 23.417 17.3175L22.9531 17.7783C22.9638 17.7847 22.9732 17.7936 22.9835 17.8025C23.423 18.1041 23.8622 18.2578 24.3261 18.2578H31.3554L30.709 17.617Z" fill="white"/>
<path d="M50.8126 2.80469L51.4598 2.16426H47.4062L48.053 2.80469H50.8126Z" fill="white"/>
<path d="M2.91069 17.5025C2.91069 17.5025 3.02561 17.644 2.83594 17.8312C2.83594 17.8312 3.02262 17.9612 3.12557 18.0078L3.35881 17.7804C3.35881 17.7804 3.15846 17.6829 2.91069 17.5025Z" fill="white"/>
<path d="M23.0234 10.6903C23.0234 10.6903 23.2554 10.8741 23.0965 11.0312C23.0965 11.0312 23.3579 10.8216 23.4515 10.7847L23.1777 10.581L23.0234 10.6903Z" fill="white"/>
<path d="M18.1304 21.5581C18.1304 21.5581 18.3871 21.7712 18.1821 21.9609C18.1821 21.9609 17.9625 21.8504 17.7891 21.6831L18.1304 21.5581Z" fill="white"/>
<path d="M13.1818 34.5431C13.1818 34.5431 13.3002 34.7346 13.1759 34.8828C13.1759 34.8828 13.0199 34.7901 12.8828 34.6727L13.1818 34.5431Z" fill="white"/>
<path d="M27.6094 41.9401L28.2544 42.5805L28.2232 47.418L27.6094 46.7771V41.9401Z" fill="white"/>
<path d="M37.5859 46.7798L38.2323 47.4219V39.7055L37.5859 40.3459V46.7798Z" fill="white"/>
<path d="M23.2018 37.2222L22.5781 36.6508V37.9367L23.2018 38.5547V37.2222Z" fill="white"/>
<path d="M17.507 47.418V37.776L16.8594 37.1356V46.7767L17.5061 47.418H17.507Z" fill="white"/>
<path d="M6.84375 46.7742L7.47598 47.4023V44.5259L6.84375 45.1524V46.7742Z" fill="white"/>
<path d="M52.7787 23.8135L52.1328 23.1714V26.3828L52.7787 25.7437V23.8135Z" fill="white"/>
<path d="M53.7865 23.8125V22.5261L53.1406 21.8853V23.1717L53.7865 23.8125Z" fill="white"/>
<path d="M37.3984 27.1751L38.0448 27.8164V24.9337L37.3984 25.5745V27.1751Z" fill="white"/>
<path d="M38.0448 31.8578L37.3984 31.2174V32.0302L38.0448 32.6719V31.8578Z" fill="white"/>
<path d="M18.0209 27.826L17.375 27.1839V32.0332L18.0209 32.6758V27.826Z" fill="white"/>
<path d="M11.4345 23.8171L10.7891 23.1763V26.375L11.4345 25.7354V23.8171Z" fill="white"/>
<path d="M12.935 21.3664L12.2891 20.726V23.1717L12.935 23.8125V21.3664Z" fill="white"/>
<path d="M28.0521 34.594V24.9525L27.4062 25.5933V35.2344L28.0521 34.594Z" fill="white"/>
<path d="M23.053 21.636L22.4062 22.2764V35.2344L23.053 34.594V21.636Z" fill="white"/>
<path d="M2.16406 22.3008L2.80868 21.6608L2.80953 19.734L2.16406 19.0965V22.3008Z" fill="white"/>
<path d="M43.1424 22.7648C43.1372 22.7686 43.1304 22.772 43.1248 22.7762C42.6584 23.1087 42.4375 23.514 42.4375 23.9715V35.2344L43.0834 34.594V23.9715C43.0834 23.8097 43.1261 23.564 43.5008 23.298L43.505 23.2951L43.508 23.2925C43.5409 23.2684 43.5751 23.2502 43.6105 23.2286L43.1424 22.7648Z" fill="white"/>
<path d="M54.3329 34.3359C54.2944 34.313 54.2564 34.2897 54.2171 34.2622C54.0578 34.1491 53.9429 34.0335 53.872 33.9208C53.8173 33.8306 53.7912 33.7416 53.7878 33.6404C53.7878 33.6349 53.7865 33.6311 53.7865 33.6247V25.7419L53.1406 26.381V33.6247H53.1415C53.1415 34.0809 53.3845 34.4609 53.8476 34.7887C53.8587 34.7959 53.8685 34.8027 53.8797 34.8086L54.3483 34.3439C54.3423 34.3431 54.3372 34.3389 54.3329 34.3359Z" fill="white"/>
<path d="M33.0382 23.9682C33.0382 23.8064 33.0801 23.5595 33.4539 23.2931L33.4556 23.2922C33.4556 23.2922 33.4564 23.291 33.4577 23.2905C33.4577 23.2905 33.4582 23.2905 33.4594 23.2893L33.4611 23.2876C33.5039 23.2562 33.5474 23.2283 33.5919 23.2012C33.5953 23.2003 33.597 23.1982 33.6008 23.1961L33.1343 22.7327C33.1147 22.7471 33.0955 22.759 33.0767 22.7729C32.6111 23.1054 32.3906 23.5108 32.3906 23.9682V33.6305C32.3906 34.0833 32.6081 34.4636 33.0425 34.7656L33.5086 34.3044C33.4795 34.2857 33.4509 34.2688 33.4231 34.2489H33.4214C33.336 34.1896 33.2702 34.132 33.2176 34.0752C33.0613 33.9066 33.0382 33.7533 33.0382 33.6305V23.9682Z" fill="white"/>
<path d="M13.4211 34.2804C13.2626 34.1677 13.146 34.0495 13.0755 33.9369C13.0341 33.8695 13.0093 33.8009 12.999 33.7297C12.9969 33.7255 12.9956 33.7213 12.9956 33.7183C12.9943 33.7094 12.9948 33.7009 12.9943 33.6899C12.9922 33.6747 12.9905 33.6573 12.9905 33.6391V25.738L12.3446 26.3772V33.6391H12.3438C12.3438 34.0724 12.5667 34.4362 12.9841 34.7539L13.4463 34.2952C13.4386 34.2893 13.4309 34.2867 13.4211 34.2804Z" fill="white"/>
<path d="M2.86032 48.9971H2.85861L2.85648 48.995C2.51943 48.7625 2.47543 48.5444 2.47543 48.3796V48.3749V43.5341H1.83594V48.3749C1.83594 48.8303 2.05551 49.2115 2.49465 49.5152C2.50191 49.5207 2.5096 49.5257 2.51644 49.5312L2.97694 49.073C2.93807 49.0497 2.89919 49.0238 2.86032 48.9971Z" fill="white"/>
<path d="M2.56984 42.3763C2.56044 42.3818 2.55232 42.3869 2.54292 42.3937C2.08071 42.724 1.83594 43.1048 1.83594 43.5352H2.47543V43.5318C2.47543 43.4543 2.47543 43.2234 2.91372 42.9083L2.91714 42.907L2.92055 42.9057C2.95644 42.8791 2.99232 42.8536 3.02863 42.8304L2.56984 42.3763Z" fill="white"/>
<path d="M2.4938 37.5735C2.04867 37.8997 1.83594 38.2995 1.83594 38.7468V41.1289L2.48312 40.4872V40.4826H2.47586V38.7468V38.7362C2.47586 38.5753 2.519 38.3288 2.8898 38.0644L2.89407 38.0615L2.89877 38.0585C2.91372 38.0454 2.93294 38.0373 2.94917 38.0255L2.4938 37.5735Z" fill="white"/>
<path d="M23.6247 49.0391C23.4653 48.9256 23.3487 48.8079 23.2782 48.6935C23.2193 48.5957 23.1923 48.5004 23.1923 48.3911V48.3902V40.5294L22.5687 41.1469L22.5469 48.3902C22.5469 48.8273 22.7703 49.1958 23.1906 49.5156L23.6528 49.0565C23.6435 49.0518 23.6341 49.0442 23.6247 49.0391Z" fill="white"/>
<path d="M33.1823 37.61C32.762 37.9323 32.5625 38.3177 32.5625 38.7502V48.3739C32.5625 48.8 32.7564 49.1617 33.143 49.4531L33.6057 48.9948C33.601 48.9923 33.5976 48.991 33.5937 48.9885L33.5912 48.9872L33.5899 48.9859C33.5527 48.9593 33.5185 48.9343 33.4882 48.9093C33.4792 48.9004 33.469 48.8923 33.4592 48.8843C33.4399 48.8661 33.422 48.8479 33.4036 48.8301C33.3959 48.822 33.3878 48.8152 33.381 48.8076C33.3596 48.7843 33.3395 48.7593 33.3229 48.7356C33.3002 48.7043 33.2827 48.6738 33.2678 48.6437C33.2635 48.6344 33.2614 48.628 33.258 48.6204C33.2481 48.598 33.24 48.5759 33.2336 48.5548C33.231 48.5454 33.2285 48.5374 33.2276 48.5285C33.2221 48.5077 33.2182 48.4891 33.2161 48.4696C33.214 48.4628 33.2131 48.4548 33.2122 48.4472C33.2101 48.4218 33.2088 48.3972 33.2088 48.3743V38.7502C33.2088 38.7277 33.2101 38.7023 33.2122 38.6761C33.2122 38.6701 33.214 38.6638 33.2157 38.6579C33.2174 38.6371 33.2221 38.6163 33.2259 38.5943C33.2285 38.5858 33.2306 38.5786 33.2336 38.5693C33.2396 38.5473 33.2477 38.5244 33.2571 38.5007C33.2609 38.4914 33.2635 38.485 33.2669 38.4753C33.2797 38.4482 33.2951 38.4219 33.3122 38.3931C33.3152 38.388 33.3165 38.3847 33.3186 38.3796H33.3195C33.3207 38.3787 33.3207 38.3775 33.3229 38.3766C33.3297 38.3647 33.3395 38.352 33.3489 38.3398C33.3605 38.3245 33.3729 38.3088 33.3878 38.291C33.3981 38.2805 33.4087 38.2682 33.4199 38.2563C33.4365 38.2381 33.4566 38.2199 33.4767 38.2C33.4882 38.1902 33.4985 38.1801 33.5091 38.1703C33.5442 38.1415 33.58 38.111 33.6228 38.0801L33.6266 38.0771L33.6317 38.075C33.6347 38.0721 33.6403 38.0704 33.6441 38.0678L33.1823 37.61Z" fill="white"/>
<path d="M7.47598 39.6991V42.5742L6.84375 41.938V40.3404L7.47598 39.6991Z" fill="white"/>
<path d="M11.8672 48.3639V37.1184L12.5135 37.7592V48.3639C12.5135 48.53 12.5571 48.7498 12.8958 48.984L12.898 48.9861H12.8993C12.9236 49.0043 12.9492 49.0187 12.9744 49.0348L12.5084 49.4961C12.0821 49.1941 11.8672 48.8154 11.8672 48.3639Z" fill="white"/>
<path d="M58.1641 27.1736V32.0115L58.8112 32.6523V27.8149L58.1641 27.1736Z" fill="white"/>
<path d="M48.0517 2.79888H48.053L47.4062 2.15845V5.38301L48.0517 6.02344V2.79888Z" fill="white"/>
<path d="M47.3594 15.1061L48.0061 15.7461V7.97758L47.3594 8.618V15.1061Z" fill="white"/>
<path d="M37.9905 8.62827V7.987L37.3438 8.62827V18.2617L37.9905 17.6204V8.62827Z" fill="white"/>
<path d="M32.9736 17.617V6.04615L32.3281 5.40489V18.2578L32.9736 17.617Z" fill="white"/>
<path d="M27.9575 7.98783L27.3125 8.62867V10.2268L27.9575 10.8672V7.98783Z" fill="white"/>
<path d="M27.3125 13.4405V15.0623L27.9575 15.7031V12.8L27.3125 13.4405Z" fill="white"/>
<path d="M12.935 6.04534L12.2891 5.40492V19.7344L12.935 19.0927V6.04534Z" fill="white"/>
<path d="M17.2891 10.2259L17.9358 10.8672V7.98698L17.2891 8.6274V10.2259Z" fill="white"/>
<path d="M7.84292 17.6423L7.19531 18.2794V19.0926L7.84292 19.7305V17.6423Z" fill="white"/>
<path d="M7.19531 15.0748L7.84292 15.7109V7.97843L7.19531 8.61631V15.0748Z" fill="white"/>
<path d="M3.19742 17.2983C2.85396 17.0616 2.80953 16.8422 2.80953 16.6778V16.6833V7.00372V7.01431C2.80953 6.85081 2.85311 6.60176 3.2286 6.33704L3.23287 6.33407L3.23629 6.33153C3.24868 6.32221 3.26235 6.31586 3.27516 6.30739L2.81381 5.84952C2.37808 6.17185 2.16663 6.56491 2.16449 7.00372L2.16406 16.6833C2.16534 17.137 2.38662 17.5173 2.82748 17.8206C2.83303 17.8253 2.83901 17.8282 2.84414 17.832L3.30891 17.3704C3.27175 17.3471 3.23458 17.3246 3.19742 17.2983Z" fill="white"/>
<path d="M22.9567 5.87014C22.5218 6.19374 22.3129 6.58849 22.3129 7.03154H22.3125V9.41406L22.9588 8.77279V7.03154C22.9588 6.99172 22.9618 6.94725 22.9708 6.89812C22.9721 6.89685 22.9721 6.89642 22.9721 6.89515C22.9755 6.8744 22.9823 6.8528 22.9896 6.82992C22.9904 6.82569 22.9913 6.82103 22.9926 6.81679C22.9986 6.80027 23.0067 6.78248 23.0144 6.7647C23.0186 6.75453 23.0208 6.74479 23.0272 6.73335C23.0306 6.727 23.0361 6.72022 23.0391 6.71344C23.0665 6.66135 23.1024 6.60882 23.1523 6.55292C23.1523 6.55292 23.1532 6.55207 23.1532 6.55122C23.2096 6.4898 23.2796 6.42585 23.3723 6.3602L23.3758 6.35723L23.38 6.35427C23.3928 6.34495 23.4061 6.33732 23.4189 6.32843L22.9567 5.87014Z" fill="white"/>
<path d="M43.0806 16.9428C43.0806 16.9428 43.0806 16.9424 43.0789 16.9411C43.0737 16.9289 43.0686 16.9178 43.0631 16.9056C43.0584 16.8916 43.0511 16.878 43.0468 16.8653C43.0468 16.8641 43.0468 16.8624 43.0456 16.8607C43.0216 16.7874 43.0152 16.7213 43.0152 16.6612V7.01459V7.01374C43.0152 6.99129 43.0161 6.96758 43.0186 6.94216C43.0199 6.93496 43.0208 6.92818 43.0216 6.92183C43.0242 6.90108 43.028 6.88032 43.0327 6.8583C43.0349 6.85067 43.0374 6.8422 43.0387 6.83458C43.0456 6.81128 43.0528 6.78926 43.0626 6.76554C43.0661 6.75707 43.0699 6.74859 43.0737 6.7397C43.0857 6.71471 43.099 6.6876 43.116 6.66007C43.1186 6.65499 43.1207 6.65033 43.1246 6.64482V6.64355C43.125 6.6427 43.1289 6.64016 43.1293 6.63847C43.1361 6.62788 43.1451 6.61644 43.1541 6.60543C43.1664 6.58807 43.1793 6.57112 43.1951 6.55418C43.2049 6.54274 43.2139 6.53088 43.2258 6.51945C43.2429 6.50081 43.2638 6.48217 43.2843 6.46184C43.2963 6.45253 43.3057 6.44194 43.3177 6.43219C43.3514 6.40255 43.3877 6.37332 43.4309 6.34282L43.4343 6.34028L43.439 6.33732C43.4685 6.31614 43.228 6.35977 43.2579 6.34071L43.0609 5.81846C43.0596 5.81973 43.0584 5.82015 43.0562 5.82057C42.5897 6.15053 42.3672 6.55757 42.3672 7.01459V16.6612C42.3672 17.1029 42.5765 17.4748 42.9943 17.7734L43.4582 17.3135C43.439 17.3012 43.4185 17.2893 43.3993 17.2758C43.2292 17.1589 43.1344 17.047 43.0806 16.9428Z" fill="white"/>
<path d="M18.3664 21.319C18.2075 21.2051 18.0917 21.0894 18.0217 20.9751C17.9691 20.8887 17.9422 20.8023 17.938 20.7065C17.9367 20.6968 17.9354 20.6883 17.9354 20.6782V12.8063L17.2891 13.4476V20.6782C17.2891 21.1102 17.5125 21.4745 17.9286 21.793L18.3908 21.3334C18.3818 21.3283 18.3745 21.3245 18.3664 21.319Z" fill="white"/>
<path d="M22.9588 11.8179C22.9588 11.7234 22.9857 11.6383 23.0417 11.5476C23.1147 11.4316 23.2339 11.3134 23.3967 11.1978L23.4018 11.1944L23.4061 11.1923C23.4292 11.1736 23.4518 11.1588 23.4753 11.1431L23.0118 10.6836C22.5547 11.0122 22.3129 11.3909 22.3129 11.8179H22.3125V16.66C22.3125 17.3669 22.9405 17.7773 22.9405 17.7773L23.4048 17.3165C23.0007 17.1098 22.9588 16.66 22.9588 16.66V11.8179Z" fill="white"/>
<path d="M22.2236 38.5264L21.5781 37.9385V41.1562L22.201 40.5082L22.2236 38.5264Z" fill="white"/>
<path d="M3.03761 6.0698C3.03761 6.0698 3.17473 5.94019 2.98806 5.72375C2.98806 5.72375 2.74542 5.89063 2.70312 5.93256L2.86887 6.10156L3.03761 6.0698Z" fill="white"/>
<path d="M23.1901 6.09323C23.1901 6.09323 23.3259 5.88484 23.1764 5.71838C23.1764 5.71838 22.8821 5.9128 22.8359 5.96828L23.0692 6.19531L23.1901 6.09323Z" fill="white"/>
<path d="M43.2217 6.09187C43.2217 6.09187 43.3623 5.87924 43.2124 5.71236C43.2124 5.71236 42.9142 5.91143 42.8672 5.96692L43.0539 6.22656L43.2217 6.09187Z" fill="white"/>
<path d="M23.1721 17.556C23.1721 17.556 23.29 17.7783 23.0789 17.8711C23.0789 17.8711 22.923 17.7597 22.8047 17.6674L23.1721 17.556Z" fill="white"/>
<path d="M43.2556 17.5631C43.2556 17.5631 43.3448 17.8032 43.2 17.9023C43.2 17.9023 43.1223 17.8685 42.8984 17.6956L43.1206 17.4745L43.2556 17.5631Z" fill="white"/>
<path d="M33.2188 34.5525C33.2188 34.5525 33.4601 34.7037 33.1752 34.8672C33.1752 34.8672 32.956 34.7223 32.8672 34.6385L33.2188 34.5525Z" fill="white"/>
<path d="M33.3281 22.9336C33.3281 22.9336 33.5806 22.7858 33.3516 22.6003C33.3516 22.6003 33.1743 22.693 32.9219 22.8921L33.3281 22.9336Z" fill="white"/>
<path d="M43.3587 22.9688C43.3587 22.9688 43.5172 22.8108 43.331 22.6443C43.331 22.6443 43.1716 22.7417 43.1016 22.7972L43.2135 22.9315L43.3587 22.9688Z" fill="white"/>
<path d="M54.0685 34.613C54.0685 34.613 54.2082 34.7748 54.0536 34.918C54.0536 34.918 53.928 34.8438 53.8203 34.7701L54.0685 34.613Z" fill="white"/>
<path d="M2.69124 37.7773C2.69124 37.7773 2.89671 37.6198 2.71473 37.4165C2.71473 37.4165 2.53233 37.5321 2.38281 37.6524L2.69124 37.7773Z" fill="white"/>
<path d="M33.3533 37.8438C33.3533 37.8438 33.6322 37.6252 33.4503 37.4215C33.2785 37.5303 33.2687 37.5295 33.1094 37.6574L33.3533 37.8438Z" fill="white"/>
<path d="M2.77791 42.5781C2.77791 42.5781 2.97911 42.476 2.75441 42.249C2.75441 42.249 2.52587 42.3875 2.46094 42.4574L2.77791 42.5781Z" fill="white"/>
<path d="M2.717 49.3241C2.717 49.3241 2.89385 49.477 2.74007 49.6719C2.74007 49.6719 2.60935 49.602 2.44531 49.4859L2.717 49.3241Z" fill="white"/>
<path d="M12.685 49.2956C12.685 49.2956 12.8392 49.4121 12.6944 49.6484C12.6944 49.6484 12.5261 49.5455 12.3672 49.421L12.5735 49.2173L12.685 49.2956Z" fill="white"/>
<path d="M23.3894 49.3007C23.3894 49.3007 23.5995 49.4345 23.3847 49.6484C23.3847 49.6484 23.2159 49.5506 23.0391 49.3837L23.3894 49.3007Z" fill="white"/>
<path d="M33.3274 49.2641C33.3274 49.2641 33.477 49.4085 33.3133 49.5703C33.3133 49.5703 33.0429 49.4085 32.8516 49.1717L33.0852 48.9405L33.3274 49.2641Z" fill="white"/>
<path d="M14.3397 34.8086H19.3694C19.7124 34.8035 20.0196 34.7074 20.331 34.5163L20.3318 34.5159L20.469 34.4265C20.7859 34.2059 20.9367 33.9585 20.941 33.651L20.9418 27.6098H17.7965V32.46H15.9374V25.9477H20.9418V23.5982H15.8836C15.8836 23.2899 15.8832 21.153 15.8832 21.153H12.7135V23.5982H11.2188V25.9477H12.7673V33.6341C12.7673 34.7556 14.3397 34.8086 14.3397 34.8086Z" fill="white"/>
<path d="M14.3397 34.8086H19.3694C19.7124 34.8035 20.0196 34.7074 20.331 34.5163L20.3318 34.5159L20.469 34.4265C20.7859 34.2059 20.9367 33.9585 20.941 33.651L20.9418 27.6098H17.7965V32.46H15.9374V25.9477H20.9418V23.5982H15.8836C15.8836 23.2899 15.8832 21.153 15.8832 21.153H12.7135V23.5982H11.2188V25.9477H12.7673V33.6341C12.7673 34.7556 14.3397 34.8086 14.3397 34.8086Z" stroke="white" stroke-width="0.82125"/>
<path d="M35.9968 25.1468H37.8329V27.5975H35.9968V25.1468ZM32.8301 33.7116C33.0006 34.707 34.3958 34.8086 34.3958 34.8086H39.4314C39.806 34.8086 40.1554 34.6875 40.5305 34.4278C40.9577 34.1318 41.0077 33.8315 41.0077 33.6324V31.6425H37.8329V32.4561H35.9968V29.9787H41.0077V23.9705C41.0077 23.6419 40.8419 23.364 40.5027 23.1205C40.1725 22.8795 39.8351 22.7693 39.4318 22.7693H34.3958C34.3958 22.7693 32.8203 22.8642 32.8203 23.9705V33.5688C32.8229 33.5904 32.8263 33.6904 32.8301 33.7116Z" fill="white"/>
<path d="M35.9968 25.1468H37.8329V27.5975H35.9968V25.1468ZM32.8301 33.7116C33.0006 34.707 34.3958 34.8086 34.3958 34.8086H39.4314C39.806 34.8086 40.1554 34.6875 40.5305 34.4278C40.9577 34.1318 41.0077 33.8315 41.0077 33.6324V31.6425H37.8329V32.4561H35.9968V29.9787H41.0077V23.9705C41.0077 23.6419 40.8419 23.364 40.5027 23.1205C40.1725 22.8795 39.8351 22.7693 39.4318 22.7693H34.3958C34.3958 22.7693 32.8203 22.8642 32.8203 23.9705V33.5688C32.8229 33.5904 32.8263 33.6904 32.8301 33.7116Z" stroke="white" stroke-width="0.82125"/>
<path d="M51.1016 25.1468V22.7689H44.4533C44.0488 22.7689 43.7079 22.8794 43.3811 23.1179C43.0342 23.364 42.8672 23.6419 42.8672 23.9701V34.8086H46.0634V29.163H51.1016V26.7855H46.0634V25.1468H51.1016Z" fill="white"/>
<path d="M51.1016 25.1468V22.7689H44.4533C44.0488 22.7689 43.7079 22.8794 43.3811 23.1179C43.0342 23.364 42.8672 23.6419 42.8672 23.9701V34.8086H46.0634V29.163H51.1016V26.7855H46.0634V25.1468H51.1016Z" stroke="white" stroke-width="0.82125"/>
<path d="M53.5749 33.7079C53.5698 33.6829 53.5655 33.5935 53.5621 33.5686V25.9597H52.5625V23.5979H53.5621V22.312H56.7309V23.5979H61.7311V25.9597H56.7309V32.436H58.5888V27.5972H61.7311L61.773 33.5635C61.7696 33.7054 61.7388 33.8384 61.6798 33.9523C61.6414 34.0264 61.5846 34.09 61.5397 34.1514C61.1941 34.5957 60.541 34.7494 60.2881 34.7859C60.2274 34.7948 60.1608 34.7969 60.1608 34.7969H55.5007C55.5007 34.7969 54.9509 34.7859 54.956 34.7863C54.956 34.7863 53.7633 34.6601 53.5749 33.7079Z" fill="white"/>
<path d="M53.5749 33.7079C53.5698 33.6829 53.5655 33.5935 53.5621 33.5686V25.9597H52.5625V23.5979H53.5621V22.312H56.7309V23.5979H61.7311V25.9597H56.7309V32.436H58.5888V27.5972H61.7311L61.773 33.5635C61.7696 33.7054 61.7388 33.8384 61.6798 33.9523C61.6414 34.0264 61.5846 34.09 61.5397 34.1514C61.1941 34.5957 60.541 34.7494 60.2881 34.7859C60.2274 34.7948 60.1608 34.7969 60.1608 34.7969H55.5007C55.5007 34.7969 54.9509 34.7859 54.956 34.7863C54.956 34.7863 53.7633 34.6601 53.5749 33.7079Z" stroke="white" stroke-width="0.82125"/>
<path d="M38.0134 47.2032H36.1787V39.9197H38.0134V47.2032ZM34.5396 49.5413C34.552 49.5426 34.7835 49.543 34.7835 49.543H39.6166L39.6457 49.5413C40.0105 49.5349 40.3497 49.4146 40.7128 49.163C41.1412 48.8704 41.1895 48.5722 41.1895 48.3723V38.7485C41.1895 38.4199 41.0233 38.1429 40.682 37.901H40.6812C40.3625 37.6672 40.013 37.5541 39.6132 37.5533H34.5703L34.5396 37.5545C34.1602 37.5596 33.8215 37.6727 33.5118 37.8997C33.5036 37.9044 33.3785 38.0043 33.3785 38.0043L33.3716 38.0099L33.3405 38.0387C33.337 38.0425 33.273 38.1043 33.273 38.1043L33.2426 38.1365C33.2302 38.1509 33.1927 38.1967 33.1927 38.1967C33.1824 38.2128 33.1743 38.2225 33.1743 38.2225L33.1423 38.2674L33.0786 38.3826C33.0739 38.3974 33.0628 38.4237 33.0628 38.4237C33.0632 38.4199 33.0359 38.505 33.0329 38.5126C33.0308 38.5211 33.0231 38.5482 33.0231 38.5482L33.0077 38.6439L33.0056 38.6566L33 38.7485C33 38.749 33.0004 47.1854 33.0004 48.1994V48.3723C33.0004 49.4113 34.5396 49.5413 34.5396 49.5413Z" fill="white"/>
<path d="M38.0134 47.2032H36.1782V39.9197H38.0134V47.2032ZM34.5396 49.5413C34.552 49.5426 34.7835 49.543 34.7835 49.543H39.6166L39.6457 49.5413C40.0105 49.5349 40.3497 49.4146 40.7128 49.163C41.1412 48.8704 41.1895 48.5722 41.1895 48.3723V38.7485C41.1895 38.4199 41.0233 38.1429 40.682 37.901H40.6812C40.3625 37.6672 40.013 37.5541 39.6132 37.5533H34.5703L34.5396 37.5545C34.1602 37.5596 33.8215 37.6727 33.5118 37.8997C33.5036 37.9044 33.3785 38.0043 33.3785 38.0043L33.3716 38.0099L33.3405 38.0387C33.337 38.0425 33.273 38.1043 33.273 38.1043L33.2426 38.1365C33.2302 38.1509 33.1927 38.1967 33.1927 38.1967C33.1824 38.2128 33.1743 38.2225 33.1743 38.2225L33.1423 38.2674L33.0786 38.3826C33.0739 38.3974 33.0628 38.4237 33.0628 38.4237C33.0632 38.4199 33.0359 38.505 33.0329 38.5126C33.0308 38.5211 33.0231 38.5482 33.0231 38.5482L33.0077 38.6439L33.0056 38.6566L33 38.7485C33 38.749 33.0004 47.1854 33.0004 48.1994V48.3723C33.0004 49.4113 34.5396 49.5413 34.5396 49.5413Z" stroke="white" stroke-width="0.82125"/>
<path d="M26.169 47.204V40.7163H31.1841V38.3558H26.169V37.0284H22.9852V38.3376H22.0078V40.7146C22.0078 40.7146 22.7225 40.7184 22.9852 40.7193V48.2553C22.9852 48.2553 22.9873 48.4302 22.9993 48.4954C23.0548 48.7851 23.3184 49.5742 24.5542 49.5742L29.6249 49.5717C29.6249 49.5717 31.0551 49.4976 31.1346 48.4501C31.1367 48.42 31.138 48.2781 31.138 48.2464V42.3669H28.0366L28.0362 47.204H26.169Z" fill="white"/>
<path d="M26.169 47.204V40.7163H31.1841V38.3558H26.169V37.0284H22.9852V38.3376H22.0078V40.7146C22.0078 40.7146 22.7225 40.7184 22.9852 40.7193V48.2553C22.9852 48.2553 22.9873 48.4302 22.9993 48.4954C23.0548 48.7851 23.3184 49.5742 24.5542 49.5742L29.6249 49.5717C29.6249 49.5717 31.0551 49.4976 31.1346 48.4501C31.1367 48.42 31.138 48.2781 31.138 48.2464V42.3669H28.0366L28.0362 47.204H26.169Z" stroke="white" stroke-width="0.82125"/>
<path d="M17.2854 37.5544V47.1963H15.4511V37.537H12.2891V48.3759C12.2895 48.3937 12.3053 48.5534 12.3053 48.5534C12.3091 48.5682 12.3305 48.6495 12.3305 48.6495C12.3318 48.6525 12.3681 48.7398 12.3681 48.7398C12.3779 48.7601 12.4241 48.838 12.4241 48.838L12.4313 48.849L12.4399 48.8626L12.4651 48.8944C12.5484 48.9998 12.6415 49.0871 12.7615 49.1714C12.7649 49.1722 12.9127 49.2692 12.9127 49.2692L12.9209 49.2751L12.9444 49.2883C12.9439 49.2874 13.0648 49.3539 13.0648 49.3539L13.1857 49.4124C13.1938 49.4158 13.3177 49.464 13.3177 49.464C13.4984 49.5255 13.6744 49.5547 13.8585 49.5547H18.8788C19.0625 49.5547 19.2385 49.5255 19.4175 49.4649C19.6011 49.4005 19.787 49.3027 19.9719 49.1726C20.3987 48.8757 20.4482 48.5758 20.4482 48.3759V37.5544H17.2854Z" fill="white"/>
<path d="M17.2854 37.5544V47.1963H15.4511V37.537H12.2891V48.3759C12.2895 48.3937 12.3053 48.5534 12.3053 48.5534C12.3091 48.5682 12.3305 48.6495 12.3305 48.6495C12.3318 48.6525 12.3681 48.7398 12.3681 48.7398C12.3779 48.7601 12.4241 48.838 12.4241 48.838L12.4313 48.849L12.4399 48.8626L12.4651 48.8944C12.5484 48.9998 12.6415 49.0871 12.7615 49.1714C12.7649 49.1722 12.9127 49.2692 12.9127 49.2692L12.9209 49.2751L12.9444 49.2883C12.9439 49.2874 13.0648 49.3539 13.0648 49.3539L13.1857 49.4124C13.1938 49.4158 13.3177 49.464 13.3177 49.464C13.4984 49.5255 13.6744 49.5547 13.8585 49.5547H18.8788C19.0625 49.5547 19.2385 49.5255 19.4175 49.4649C19.6011 49.4005 19.787 49.3027 19.9719 49.1726C20.3987 48.8757 20.4482 48.5758 20.4482 48.3759V37.5544H17.2854Z" stroke="white" stroke-width="0.82125"/>
<path d="M5.41554 44.7306H7.26011V47.2071H5.41554V44.7306ZM9.90651 37.8854L9.78091 37.7994C9.49342 37.6279 9.19268 37.5453 8.85649 37.5453H3.83027C3.42786 37.5453 3.08954 37.6558 2.76701 37.893C2.42313 38.1366 2.25781 38.4136 2.25781 38.7435V40.6953H5.41554V39.9079H7.25969V42.3624H3.83027C3.53765 42.3624 3.27451 42.4353 3.00453 42.5941C3.00367 42.5941 2.79094 42.7356 2.79094 42.7356C2.5987 42.8724 2.4603 43.0109 2.37358 43.1511C2.29626 43.2722 2.25781 43.398 2.25781 43.5349V48.3757C2.25781 48.5744 2.30694 48.8717 2.73155 49.1665C3.10876 49.4262 3.45819 49.5469 3.82984 49.5469H10.4097V38.733C10.4097 38.4047 10.2453 38.1285 9.90651 37.8854Z" fill="white"/>
<path d="M5.41554 44.7306H7.26011V47.2071H5.41554V44.7306ZM9.90651 37.8854L9.78091 37.7994C9.49342 37.6279 9.19268 37.5453 8.85649 37.5453H3.83027C3.42786 37.5453 3.08954 37.6558 2.76701 37.893C2.42313 38.1366 2.25781 38.4136 2.25781 38.7435V40.6953H5.41554V39.9079H7.25969V42.3624H3.83027C3.53765 42.3624 3.27451 42.4353 3.00453 42.5941C3.00367 42.5941 2.79094 42.7356 2.79094 42.7356C2.5987 42.8724 2.4603 43.0109 2.37358 43.1511C2.29626 43.2722 2.25781 43.398 2.25781 43.5349V48.3757C2.25781 48.5744 2.30694 48.8717 2.73155 49.1665C3.10876 49.4262 3.45819 49.5469 3.82984 49.5469H10.4097V38.733C10.4097 38.4047 10.2453 38.1285 9.90651 37.8854Z" stroke="white" stroke-width="0.82125"/>
<path d="M7.63159 8.20004V15.5014H5.79001V8.20046C6.10527 8.20046 7.31291 8.20004 7.63159 8.20004ZM2.59383 7.02974V16.6835C2.59383 16.8834 2.64338 17.1837 3.07484 17.4807C3.26365 17.6111 3.45289 17.7081 3.63616 17.7712C3.81685 17.8335 3.99584 17.8627 4.18124 17.8627H7.63159V19.5197H2.59383V21.8789H9.2425C9.42576 21.8789 9.59834 21.8505 9.77263 21.7917C9.94094 21.7336 10.1127 21.6468 10.2968 21.5252L10.3028 21.521C10.486 21.3897 10.6249 21.252 10.7103 21.1123C10.7103 21.1118 10.7616 21.0157 10.7616 21.0157C10.7628 21.0148 10.7786 20.9725 10.7786 20.9725C10.7752 20.9788 10.8 20.9153 10.8 20.9153C10.8004 20.9119 10.8128 20.8552 10.8128 20.8552C10.815 20.8437 10.8218 20.8077 10.8218 20.8077C10.8209 20.8149 10.8269 20.7501 10.8269 20.7501C10.8278 20.7315 10.8286 20.7006 10.8286 20.7006V5.81413L4.09837 5.81709C2.55624 5.97465 2.59383 7.02974 2.59383 7.02974Z" fill="white"/>
<path d="M7.63159 8.20004V15.5014H5.79001V8.20046C6.10527 8.20046 7.31291 8.20004 7.63159 8.20004ZM2.59383 7.02974V16.6835C2.59383 16.8834 2.64338 17.1837 3.07484 17.4807C3.26365 17.6111 3.45289 17.7081 3.63616 17.7712C3.81685 17.8335 3.99584 17.8627 4.18124 17.8627H7.63159V19.5197H2.59383V21.8789H9.24249C9.42576 21.8789 9.59834 21.8505 9.77263 21.7917C9.94094 21.7336 10.1127 21.6468 10.2968 21.5252L10.3028 21.521C10.486 21.3897 10.6249 21.252 10.7103 21.1123C10.7103 21.1118 10.7616 21.0157 10.7616 21.0157C10.7628 21.0148 10.7786 20.9725 10.7786 20.9725C10.7752 20.9788 10.8 20.9153 10.8 20.9153C10.8004 20.9119 10.8128 20.8552 10.8128 20.8552C10.815 20.8437 10.8218 20.8077 10.8218 20.8077C10.8209 20.8149 10.8269 20.7501 10.8269 20.7501C10.8278 20.7315 10.8286 20.7006 10.8286 20.7006V5.81412L4.09837 5.81709C2.55624 5.97465 2.59383 7.02974 2.59383 7.02974Z" stroke="white" stroke-width="0.65625"/>
<path d="M40.4354 6.18074C40.1086 5.93974 39.7711 5.82961 39.3691 5.82961C38.7437 5.82961 38.1905 5.89357 37.7258 6.02064C37.287 6.13966 36.9214 6.31544 36.6386 6.54416C36.6386 6.54416 36.2516 6.85802 35.9397 7.11046V5.82961H32.7734V17.832H35.9397V8.19858H37.774V17.832H40.9386V7.02659C40.9386 6.69791 40.775 6.4209 40.4354 6.18074Z" fill="white"/>
<path d="M40.4354 6.18074C40.1086 5.93974 39.7711 5.82961 39.3691 5.82961C38.7437 5.82961 38.1905 5.89357 37.7258 6.02064C37.287 6.13966 36.9214 6.31544 36.6386 6.54416C36.6386 6.54416 36.2516 6.85802 35.9397 7.11046V5.82961H32.7734V17.832H35.9397V8.19858H37.774V17.832H40.9386V7.02659C40.9386 6.69791 40.775 6.4209 40.4354 6.18074Z" stroke="white" stroke-width="0.65625"/>
<path d="M45.9452 8.1931H47.7855V15.5308H45.9452V8.1931ZM47.8346 2.58897V5.81266C47.4515 5.81266 44.3809 5.81266 44.3809 5.81266C43.9767 5.81266 43.6371 5.92365 43.3091 6.16169C43.3039 6.16508 43.1754 6.26631 43.1719 6.26885V6.2697C43.1707 6.2714 43.1245 6.31205 43.1245 6.31205L43.0647 6.37177C43.0639 6.37219 43.0327 6.40693 43.0327 6.40693C43.0318 6.40862 42.9746 6.47894 42.9746 6.48063C42.9724 6.48275 42.9464 6.51706 42.9464 6.51706C42.9366 6.53357 42.9336 6.54035 42.9336 6.54035C42.9293 6.5467 42.8738 6.64962 42.8738 6.64962C42.8648 6.66996 42.8639 6.67462 42.8639 6.67462C42.8588 6.68564 42.8281 6.77415 42.8281 6.77415C42.8246 6.78898 42.8221 6.80001 42.8221 6.80001C42.8169 6.81864 42.8041 6.89359 42.8041 6.89359L42.802 6.90716L42.8007 6.91986L42.7969 7.01179V16.6592L42.8426 16.954L42.8669 16.9985L42.8815 17.0311C42.9622 17.1886 43.0895 17.3242 43.2745 17.4508C43.2732 17.4496 43.3919 17.5262 43.3919 17.5262C43.5436 17.6203 43.6893 17.6914 43.8366 17.741C44.0178 17.8028 44.1946 17.832 44.3809 17.832H51.0287V2.58897H47.8346Z" fill="white"/>
<path d="M45.9452 8.1931H47.7855V15.5308H45.9452V8.1931ZM47.8346 2.58897V5.81267C47.4515 5.81267 44.3809 5.81267 44.3809 5.81267C43.9767 5.81267 43.6371 5.92365 43.3091 6.16169C43.3039 6.16508 43.1754 6.26631 43.1719 6.26885V6.2697C43.1707 6.2714 43.1245 6.31205 43.1245 6.31205L43.0647 6.37177C43.0639 6.37219 43.0327 6.40693 43.0327 6.40693C43.0318 6.40862 42.9746 6.47894 42.9746 6.48063C42.9724 6.48275 42.9464 6.51706 42.9464 6.51706C42.9366 6.53357 42.9336 6.54035 42.9336 6.54035C42.9293 6.5467 42.8738 6.64963 42.8738 6.64963C42.8648 6.66996 42.8639 6.67462 42.8639 6.67462C42.8588 6.68564 42.8281 6.77415 42.8281 6.77415C42.8246 6.78898 42.8221 6.80001 42.8221 6.80001C42.8169 6.81864 42.8041 6.89359 42.8041 6.89359L42.802 6.90716L42.8007 6.91986L42.7969 7.01179V16.6592L42.8426 16.954L42.8669 16.9985L42.8815 17.0311C42.9622 17.1886 43.0895 17.3242 43.2745 17.4508C43.2732 17.4496 43.3919 17.5262 43.3919 17.5262C43.5436 17.6203 43.6893 17.6914 43.8366 17.741C44.0178 17.8028 44.1946 17.832 44.3809 17.832H51.0287V2.58897H47.8346Z" stroke="white" stroke-width="0.65625"/>
<path d="M17.7193 10.6504H15.8859V8.20141H17.7193V10.6504ZM30.4981 23.1459L30.3746 23.0624C30.0927 22.8858 29.7907 22.799 29.4468 22.7964C29.4305 22.7956 26.773 22.7956 26.0024 22.7956V19.5041C26.0024 19.5041 21.2265 19.505 20.8878 19.505C20.8946 17.0792 20.9074 12.7992 20.9138 12.6484V12.6437C20.9138 12.6077 20.9095 12.4002 20.9095 12.4002L20.9057 12.2405C20.9057 11.8881 20.6528 11.6551 20.3551 11.5103C20.678 11.3815 20.7258 11.351 20.7417 11.3387C20.8403 11.2692 20.8728 11.1401 20.8835 11.0697L20.8873 11.0532V7.02814C20.8873 7.02729 20.8809 6.92481 20.8809 6.92481C20.8433 6.43814 20.3713 6.07979 19.8911 5.9218C19.883 5.91884 19.8745 5.91589 19.8664 5.91335C19.7784 5.88497 19.6904 5.86379 19.6062 5.85066H19.6032C19.5272 5.8388 19.4537 5.83201 19.3832 5.83116C19.3828 5.83201 19.3819 5.83285 19.3819 5.8337C19.3606 5.83285 19.3388 5.82863 19.3166 5.82863H12.7188V19.3084H15.8867V13.0224H17.7193V20.6782L17.7219 20.724C17.7279 20.8506 17.7655 20.9722 17.8377 21.0874C17.9218 21.2246 18.0756 21.3784 18.255 21.5084L18.2307 21.4915C18.8078 21.8824 19.2653 21.8485 19.2653 21.8485V21.8472C19.2939 21.8498 19.3162 21.8498 19.3162 21.8498H22.8336C22.8336 22.2653 22.834 34.8086 22.834 34.8086H26.0024V25.1667H27.835V34.8086H31.0026V23.9938C31.0026 23.6664 30.8377 23.3886 30.4981 23.1459Z" fill="white"/>
<path d="M17.7193 10.6504H15.8859V8.20141H17.7193V10.6504ZM30.4981 23.1459L30.3746 23.0624C30.0927 22.8858 29.7907 22.799 29.4468 22.7964C29.4305 22.7956 26.773 22.7956 26.0024 22.7956V19.5041C26.0024 19.5041 21.2265 19.505 20.8878 19.505C20.8946 17.0792 20.9074 12.7992 20.9138 12.6484V12.6437C20.9138 12.6077 20.9095 12.4002 20.9095 12.4002L20.9057 12.2405C20.9057 11.8881 20.6528 11.6551 20.3551 11.5103C20.678 11.3815 20.7258 11.351 20.7417 11.3387C20.8403 11.2692 20.8728 11.1401 20.8835 11.0697L20.8873 11.0532V7.02814C20.8873 7.02729 20.8809 6.92481 20.8809 6.92481C20.8433 6.43814 20.3713 6.07979 19.8911 5.9218C19.883 5.91884 19.8745 5.91589 19.8664 5.91335C19.7784 5.88497 19.6904 5.86379 19.6062 5.85066H19.6032C19.5272 5.8388 19.4537 5.83201 19.3832 5.83116C19.3828 5.83201 19.3819 5.83285 19.3819 5.8337C19.3606 5.83285 19.3388 5.82863 19.3166 5.82863H12.7188V19.3084H15.8867V13.0224H17.7193V20.6782L17.7219 20.724C17.7279 20.8506 17.7655 20.9722 17.8377 21.0874C17.9218 21.2246 18.0756 21.3784 18.255 21.5084L18.2307 21.4915C18.8078 21.8824 19.2653 21.8485 19.2653 21.8485V21.8472C19.2939 21.8498 19.3162 21.8498 19.3162 21.8498H22.8336C22.8336 22.2653 22.834 34.8086 22.834 34.8086H26.0024V25.1667H27.835V34.8086H31.0026V23.9938C31.0026 23.6664 30.8377 23.3886 30.4981 23.1459Z" stroke="white" stroke-width="0.65625"/>
<path d="M27.7445 15.4881H25.9097V13.017H27.7445V15.4881ZM30.9146 7.08632V7.0283L30.9095 7.02701C30.892 6.77626 30.83 6.55815 30.622 6.34891C30.2794 6.00456 29.7518 5.79235 29.2661 5.82962H24.3138C23.9652 5.82962 23.6568 5.91687 23.3714 6.09561C23.3693 6.09646 23.2535 6.17609 23.2535 6.17609C23.2454 6.18117 22.9921 6.40439 22.9921 6.40439C22.9904 6.40566 22.8353 6.62633 22.8353 6.62633L22.834 6.63098L22.8144 6.67716C22.8169 6.6725 22.7875 6.74155 22.7875 6.74155C22.7836 6.7585 22.7593 6.84447 22.7593 6.84447C22.758 6.85548 22.7422 7.0283 22.7422 7.0283V8.98515H25.9097V8.19901H27.7445V10.6472H24.3138L24.1152 10.6603L24.0887 10.6637C24.0818 10.6645 23.9003 10.7022 23.9003 10.7022C23.8793 10.7094 23.6922 10.7751 23.6922 10.7751L23.6794 10.7815C23.6794 10.7815 23.4974 10.8755 23.4966 10.8759C23.4957 10.8763 23.4419 10.9081 23.4419 10.9081C23.4261 10.9178 23.3915 10.9394 23.3915 10.9394C23.3907 10.9403 23.2753 11.0208 23.2753 11.0208C23.0844 11.1559 22.9447 11.2944 22.8571 11.4354C22.7802 11.5587 22.7422 11.6845 22.7422 11.8188V16.6609C22.7422 16.8587 22.7913 17.1564 23.2159 17.4517C23.5931 17.7113 23.9417 17.832 24.3138 17.832H30.9146V7.39341C30.9163 7.2854 30.9185 7.18331 30.9146 7.08632Z" fill="white"/>
<path d="M27.7445 15.4881H25.9097V13.0166H27.7445V15.4881ZM30.9146 7.08632V7.0283L30.9095 7.02701C30.892 6.77626 30.83 6.55815 30.622 6.34891C30.2794 6.00456 29.7518 5.79235 29.2661 5.82962H24.3138C23.9652 5.82962 23.6568 5.91687 23.3714 6.09561C23.3693 6.09646 23.2535 6.17609 23.2535 6.17609C23.2454 6.18117 22.9921 6.40439 22.9921 6.40439C22.9904 6.40566 22.8353 6.62633 22.8353 6.62633L22.834 6.63098L22.8144 6.67716C22.8169 6.6725 22.7875 6.74155 22.7875 6.74155C22.7836 6.75849 22.7593 6.84447 22.7593 6.84447C22.758 6.85548 22.7422 7.0283 22.7422 7.0283V8.98515H25.9097V8.19901H27.7445V10.6472H24.3138L24.1152 10.6603L24.0887 10.6637C24.0818 10.6645 23.9003 10.7022 23.9003 10.7022C23.8793 10.7094 23.6922 10.7751 23.6922 10.7751L23.6794 10.7815C23.6794 10.7815 23.4974 10.8755 23.4966 10.8759C23.4957 10.8763 23.4419 10.9081 23.4419 10.9081C23.4261 10.9178 23.3915 10.9394 23.3915 10.9394C23.3907 10.9403 23.2753 11.0208 23.2753 11.0208C23.0844 11.1559 22.9447 11.2944 22.8571 11.4354C22.7802 11.5587 22.7422 11.6845 22.7422 11.8188V16.6609C22.7422 16.8587 22.7913 17.1564 23.2159 17.4517C23.5931 17.7113 23.9417 17.832 24.3138 17.832H30.9146V7.39341C30.9163 7.2854 30.9185 7.18331 30.9146 7.08632Z" stroke="white" stroke-width="0.65625"/>
<path d="M50.9219 17.728L51.4606 18.2617V2.16729L50.9261 2.7014L50.9219 17.728Z" fill="white"/>
<path d="M30.5234 6.40279C30.6371 6.52181 30.7678 6.7031 30.7806 6.87591C30.7806 6.87591 30.8135 7.04703 30.8088 7.30159V17.7203L31.3483 18.2578V7.02839C31.3483 6.60102 31.1565 6.21685 30.7498 5.89833L30.6529 5.99236L30.5234 6.40279Z" fill="white"/>
<path d="M40.7199 5.86656C41.1829 6.19567 41.3611 6.57179 41.3611 7.02712V7.02797H41.3619V18.2578L40.8198 17.7186L40.813 6.93605C40.7882 6.62685 40.546 6.39263 40.3281 6.24226L40.7199 5.86656Z" fill="white"/>
<path d="M20.7948 11.6953C21.0793 11.5725 21.3193 11.362 21.3193 11.0371V7.02814C21.3279 6.56137 21.1062 6.17254 20.6871 5.87605L20.3941 6.30851C20.3941 6.30851 20.7743 6.56137 20.7751 6.97689L20.7704 10.8474C20.7704 10.8474 20.8221 11.1947 20.6538 11.2692L20.0938 11.5005C20.0938 11.5005 20.3808 11.6259 20.5585 11.7606C20.6358 11.83 20.7849 11.9986 20.7986 12.2727L20.7798 19.6172L21.3193 19.0793V12.6348C21.3193 12.6348 21.3509 11.9639 20.7948 11.6953Z" fill="white"/>
<path d="M10.7206 20.3915C10.7206 20.7777 10.8073 21.0115 10.2422 21.4279L10.6254 21.8125C10.6254 21.8125 10.9009 21.6384 11.1158 21.2644C11.2311 21.0641 11.2593 20.8425 11.2593 20.6168V19.4656V14.5823V5.50798V5.39023C11.044 5.60286 10.9325 5.71214 10.7181 5.92477C10.7181 5.92477 10.7206 19.9255 10.7206 20.3915Z" fill="white"/>
<path d="M20.7969 25.8151L21.3727 26.375V23.1763L20.7969 23.74V25.8151Z" fill="white"/>
<path d="M61.5938 25.825L62.164 26.3828V23.1714L61.5938 23.7364V25.825Z" fill="white"/>
<path d="M50.9688 29.0218L51.5412 29.5898V26.361L50.9688 26.9295V29.0218Z" fill="white"/>
<path d="M50.9688 25.0168L51.5412 25.5742V22.3471L50.9688 22.9121V25.0168Z" fill="white"/>
<path d="M40.4062 23.2273L40.8078 22.8237C41.2273 23.1464 41.4294 23.5348 41.4294 23.9736V30.4062L40.8582 29.8395V23.9406C40.8582 23.9406 40.8881 23.5628 40.4062 23.2273Z" fill="white"/>
<path d="M40.8633 31.7839L41.4332 31.2189V33.6336C41.4332 34.091 41.214 34.4718 40.7728 34.7768C40.7676 34.781 40.7134 34.8217 40.7074 34.8242L40.2969 34.4125C40.2969 34.4125 40.871 34.0788 40.8616 33.6624L40.8633 31.7839Z" fill="white"/>
<path d="M30.8822 34.6994L31.426 35.2344V23.9952C31.426 23.5378 31.2188 23.1608 30.7792 22.8275C30.7771 22.8258 30.7703 22.8304 30.7686 22.8283L30.3828 23.2065C30.3828 23.2065 30.892 23.503 30.8865 23.9986L30.8822 34.6994Z" fill="white"/>
<path d="M20.3281 34.3607L20.7365 34.7656C21.1654 34.4628 21.3824 34.0854 21.3824 33.6339H21.3816V27.1835L20.8104 27.7426V33.5771C20.8104 33.5771 20.8664 34.0401 20.3281 34.3607Z" fill="white"/>
<path d="M61.0547 34.3848L61.4652 34.7969C61.8907 34.5144 62.1756 34.1577 62.1696 33.6249V27.1694L61.6011 27.7353V33.5516V33.6723C61.6011 33.6723 61.6523 34.0417 61.0547 34.3848Z" fill="white"/>
<path d="M20.6923 5.87845L20.3125 6.25203C20.3125 6.25203 20.4445 6.33674 20.5564 6.45703L20.9302 6.08684C20.9302 6.08684 20.8136 5.96189 20.6923 5.87845Z" fill="white"/>
<path d="M30.3047 6.22261L30.6845 5.84607C30.6845 5.84607 30.7964 5.92019 30.9215 6.03709L30.5413 6.41406C30.5413 6.41406 30.4478 6.31495 30.3047 6.22261Z" fill="white"/>
<path d="M31.0469 40.5757L31.5992 41.1445V37.9314L31.0469 38.4918V40.5757Z" fill="white"/>
<path d="M20.8667 37.1301V48.3769H20.8679C20.8799 48.8368 20.6936 49.2066 20.1584 49.5586L19.75 49.1507C19.75 49.1507 20.3758 48.8457 20.3011 48.2718V37.6955L20.8667 37.1301Z" fill="white"/>
<path d="M10.2821 38.7825C10.3338 38.2599 9.74219 37.9257 9.74219 37.9257L10.1493 37.5165C10.1779 37.5343 10.1591 37.5267 10.1882 37.547C10.6512 37.8765 10.8708 38.2827 10.8708 38.7398V49.9688L10.2821 49.4046V38.7825Z" fill="white"/>
<path d="M30.9984 42.5061L31.6059 41.9368L31.608 48.3821C31.608 48.8108 31.3876 49.1801 30.9207 49.5312L30.5469 49.1547C30.5469 49.1547 31.0206 48.8832 30.9984 48.3677V42.5061Z" fill="white"/>
<path d="M40.5156 49.1246L40.9266 49.5312C40.936 49.5249 41.0065 49.4804 41.0154 49.4732C41.4567 49.1704 41.6122 48.8256 41.6122 48.3707V38.7195L41.6088 38.6644C41.5921 38.2527 41.4029 37.905 40.9842 37.6004L40.5823 37.9986C40.5823 37.9986 41.059 38.2874 41.0402 38.7555V48.43C41.0402 48.43 41.059 48.6956 40.748 48.9548L40.5156 49.1246Z" fill="white"/>
<path d="M47.3632 8.61719L47.8925 8.08774H45.8438L46.3794 8.61719H47.3632Z" fill="white"/>
<path d="M46.3794 15.1026L45.8438 15.6198L47.9032 15.6367L47.3632 15.1026H46.3794Z" fill="white"/>
<path d="M46.3728 15.1043V8.61621L45.8281 8.08295V15.6367L46.3728 15.1043Z" fill="white"/>
<path d="M35.8047 8.08148L36.3575 8.62109H37.3344L37.8705 8.0891L35.8047 8.08148Z" fill="white"/>
<path d="M35.8145 17.7258L36.3575 18.2578V8.62436L35.8047 8.08475L35.8145 17.7258Z" fill="white"/>
<path d="M26.3385 15.0623V13.4405L25.7969 12.9093V15.5977L26.3385 15.0623Z" fill="white"/>
<path d="M15.7656 19.2003L16.3099 19.7344V13.4479L15.7656 12.907V19.2003Z" fill="white"/>
<path d="M15.7656 8.09804V10.7656L16.3141 10.229V8.63004L15.7656 8.09804Z" fill="white"/>
<path d="M27.8491 8.08826H25.7969L26.3381 8.62109H27.3155L27.8491 8.08826Z" fill="white"/>
<path d="M27.8652 12.9081H25.8203L26.3543 13.4375H27.3317L27.8652 12.9081Z" fill="white"/>
<path d="M15.7656 12.9044L16.3099 13.4453H17.2838L17.8208 12.9129L15.7656 12.9044Z" fill="#BBBBBB"/>
<path d="M16.3081 8.625H17.283L17.8246 8.08835L15.7656 8.08666L16.3081 8.625Z" fill="white"/>
<path d="M6.21537 8.61719H7.19747L7.73401 8.08901L5.67969 8.08816L6.21537 8.61719Z" fill="white"/>
<path d="M5.65625 8.08841V15.6172L6.20689 15.0755V8.61744L5.65625 8.08841Z" fill="white"/>
<path d="M15.7422 23.7461L16.3167 23.1756V20.7303L15.7448 21.2966L15.7422 23.7461Z" fill="white"/>
<path d="M15.7891 25.8111V32.6055L16.3666 32.0315V26.3711L15.7891 25.8111Z" fill="white"/>
<path d="M25.875 22.9102L26.4192 22.3722V19.0799L25.875 19.6267V22.9102Z" fill="white"/>
<path d="M25.8906 34.7007L26.4293 35.2344V25.5933L25.8945 25.0634L25.8906 34.7007Z" fill="white"/>
<path d="M36.4151 25.5753L35.8594 25.0251L35.8607 27.7266L36.4151 27.1759V25.5753Z" fill="white"/>
<path d="M35.8516 32.582L36.4172 32.0293V30.402L35.8571 29.8475L35.8516 32.582Z" fill="white"/>
<path d="M45.9375 34.6723L46.5022 35.2344V29.59L45.9375 29.0335V34.6723Z" fill="white"/>
<path d="M45.9219 26.9219L46.49 26.3577V25.5694L45.9219 25.0019V26.9219Z" fill="white"/>
<path d="M56.5781 32.5781L57.1471 32.0114V26.3853L56.5781 25.8228V32.5781Z" fill="white"/>
<path d="M56.5798 23.7344L57.1493 23.1698V21.8834L56.5781 22.4493L56.5798 23.7344Z" fill="white"/>
<path d="M5.28125 40.5567L5.85752 41.1289V40.3428L5.28125 39.7617V40.5567Z" fill="white"/>
<path d="M5.85654 46.7724V45.1556L5.2807 44.5932L5.27344 47.3438L5.85654 46.7724Z" fill="white"/>
<path d="M26.0156 38.5039L26.5953 37.9363V36.6504L26.0156 37.1646V38.5039Z" fill="white"/>
<path d="M36.5961 40.344L36.0391 39.7917L36.0421 47.3281L36.5961 46.7779V40.344Z" fill="white"/>
<path d="M26.0239 47.3398L26.5971 46.7735V41.1482L26.0234 40.5794L26.0239 47.3398Z" fill="white"/>
<path d="M15.3125 47.3398L15.8824 46.774V37.1164L15.3125 37.6814V47.3398Z" fill="white"/>
<path d="M22.3971 22.2734L22.9183 21.7414H19.286C19.286 21.7414 18.7157 21.8054 18.083 21.2196C18.083 21.2196 17.8895 21.209 17.9613 21.4111C17.9613 21.4111 18.1343 21.553 18.165 21.5835C18.165 21.5835 18.3645 21.7982 18.1783 21.9579C18.1783 21.9579 18.6747 22.2705 19.2454 22.2705L22.3971 22.2734Z" fill="white"/>
<path d="M44.0905 49.0664H42.2891V43.3611H44.0905V49.0664Z" fill="black"/>
</svg>
