<svg width="24" height="9" viewBox="0 0 24 9" fill="none" xmlns="http://www.w3.org/2000/svg">
<path d="M15.6355 0.200093C15.0537 0.201297 14.7604 0.203598 14.714 0.207304C14.0869 0.257369 13.5358 0.438829 13.1609 0.719302C12.8044 0.986055 12.5579 1.36389 12.4764 1.76854C12.4371 1.96391 12.4342 2.04579 12.4379 2.99925C12.4411 3.82886 12.4437 3.92413 12.4595 4.00402C12.4943 4.17901 12.5594 4.35221 12.6424 4.48717C13.0273 5.11318 13.7579 5.46709 14.7826 5.52559C14.8907 5.53176 16.1132 5.53631 18.0583 5.5364H21.1609V6.36329V7.19018H16.7988H12.4355V7.25268C12.4355 7.53053 12.5391 7.82147 12.7278 8.07476C12.8407 8.22626 13.061 8.42635 13.2307 8.53267C13.6318 8.78405 14.1685 8.94317 14.7874 8.99299C14.8416 8.99735 16.4183 9.00003 18.2917 8.999C21.9682 8.99699 21.7427 8.99979 22.0776 8.94852C22.8042 8.83731 23.378 8.56416 23.6704 8.19014C23.8358 7.97857 23.9259 7.76186 23.9759 7.457C23.9909 7.36575 23.9939 7.24326 23.9976 6.41497C24.0026 5.28968 23.9982 5.18644 23.9314 4.97153C23.8822 4.81312 23.7786 4.63705 23.6499 4.49198C23.3039 4.10186 22.7317 3.84379 21.9729 3.7348C21.6538 3.68896 21.7824 3.69005 18.4866 3.68672L15.354 3.68432V2.87185V2.05939H19.6776H24L23.9952 2.01732C23.9928 1.9943 23.9884 1.92878 23.9856 1.8719C23.9631 1.42178 23.7569 1.00716 23.4322 0.757762C23.1204 0.518355 22.6775 0.344697 22.163 0.261388C21.7736 0.19833 22.0733 0.203648 18.2869 0.200093C17.0868 0.198966 16.2173 0.198889 15.6355 0.200093ZM5.7612 0.21091C4.03996 0.210967 2.32031 0.215762 2.22316 0.225332C1.97908 0.249376 1.7458 0.294195 1.52301 0.361144C1.31071 0.424939 1.00785 0.561131 0.831278 0.671227C0.399272 0.940594 0.109402 1.32566 0.0180451 1.75291C0.000990509 1.83267 0 1.9682 0 4.60495V7.37287L0.0228571 7.47262C0.0629271 7.65338 0.126291 7.80754 0.22015 7.95337C0.598014 8.54045 1.29868 8.90719 2.20391 8.99179C2.25 8.99609 3.86488 8.99975 5.79248 8.999C9.08361 8.99772 9.30539 8.99613 9.43038 8.97977C10.1043 8.89153 10.5226 8.73539 10.8956 8.43412C11.1632 8.21804 11.3697 7.91245 11.4466 7.61685C11.5002 7.41118 11.5008 7.39815 11.5008 6.36449V5.4078H10.086H8.67128V6.30921V7.20941H5.76722H2.86436V4.64462V2.07862H5.75759H8.65083V2.9019V3.72639L8.90466 3.71917C9.18902 3.7116 9.32682 3.70148 9.51218 3.6735C9.94668 3.60792 10.3149 3.47706 10.6526 3.26847C10.7096 3.23331 10.7927 3.18341 10.8379 3.1567C11.008 3.05608 11.276 2.82702 11.3564 2.71441C11.5083 2.50166 11.5677 2.21289 11.5296 1.86348C11.5055 1.64256 11.4618 1.48695 11.3732 1.30582C11.2133 0.978651 10.9546 0.736387 10.5588 0.542626C10.1928 0.363449 9.8346 0.272461 9.31128 0.225332C9.20509 0.215769 7.48245 0.210852 5.7612 0.21091Z" fill="white"/>
</svg>
