<svg width="32" height="36" viewBox="0 0 32 36" fill="none" xmlns="http://www.w3.org/2000/svg">
<path d="M1.07031 2L7.97162 5.97331V27.516L12.7823 26.8894L1.07031 34V2Z" fill="white"/>
<path d="M1.07031 2L7.97162 5.97331V27.516L12.7823 26.8894L1.07031 34V2Z" stroke="white" stroke-width="1.33333"/>
<path d="M30.7667 2L23.8654 5.97331V27.7253L19.0547 26.8894L30.7667 34V2Z" fill="white"/>
<path d="M30.7667 2L23.8654 5.97331V27.7253L19.0547 26.8894L30.7667 34V2Z" stroke="white" stroke-width="1.33333"/>
<path d="M12.3672 14.7617H19.2685V24.1723L15.9218 33.5843L12.3672 24.1723V14.7617Z" fill="white"/>
<path d="M12.3672 14.7555H19.2685V24.1661L15.9218 33.5781L12.3672 24.1661V14.7555Z" stroke="white" stroke-width="1.33333"/>
</svg>
