<svg width="41" height="23" viewBox="0 0 41 23" fill="none" xmlns="http://www.w3.org/2000/svg">
<path d="M2.2734 1.27553C2.34329 0.596077 2.37018 0.53676 2.42932 0.466658C2.5691 0.267138 2.78415 0.13772 3.02609 0.0999724C3.32178 0.0406555 3.62286 -0.0132691 3.92931 0.00290823C4.69274 0.0190856 5.44542 0.00290823 6.20886 0.00290823C6.30563 -0.00248421 6.40241 0.00830084 6.49381 0.046048C6.57983 0.0891875 6.6766 0.159289 6.77875 0.062225C6.80563 0.0352628 6.89165 0.0460479 6.91853 0.0784025C6.98843 0.132327 7.05832 0.105365 7.13359 0.105365C7.1766 0.105365 7.21961 0.0460479 7.27337 0.105365C7.2895 0.121542 7.37014 0.062225 7.42928 0.062225C7.4938 0.0568326 7.56369 0.0568326 7.62821 0.062225H7.96691C8.03681 0.062225 8.1067 0.0891873 8.18197 0.0891873C8.24648 0.0891873 8.31637 0.0784024 8.38089 0.062225H8.8325C8.88089 0.0730099 8.92927 0.083795 8.97228 0.105365C8.97228 0.105365 8.99917 0.0784025 9.0153 0.0784025H10.3164C10.3325 0.0784025 10.3594 0.105365 10.3701 0.121542C10.5637 0.0514405 10.7733 0.0514405 10.9669 0.121542C10.9938 0.105365 11.0368 0.0784027 11.0637 0.0676178L11.1228 0.121542C11.2518 0.0352631 11.3916 0.0945799 11.5314 0.0784025C11.6604 0.0622252 11.7841 0.105365 11.9293 0.0352628L12.1013 0.121542C12.2841 0.0676178 12.4723 0.0244781 12.6389 0.105365C12.6873 0.083795 12.7411 0.0730099 12.7948 0.062225H13.2733C13.311 0.0568326 13.354 0.0676175 13.3862 0.0891873C13.4938 0.143112 13.6174 0.148504 13.7249 0.105365C13.854 0.0622252 13.9776 0.0460477 14.0798 0.0891873C14.1658 0.132327 14.2088 0.0029084 14.2626 0.0730102C14.3163 0.143112 14.4024 0.116149 14.4722 0.116149C14.5421 0.116149 14.6282 0.143112 14.6712 0.0730102C14.8002 0.0891875 14.94 0.0298704 15.0529 0.116149C15.1228 0.175466 15.2088 0.0460477 15.2787 0.116149C15.3217 0.062225 15.3755 0.0730102 15.4346 0.0730102H17.3056C17.3647 0.0784026 17.4185 0.0837951 17.4776 0.0999724C17.4776 0.0999724 17.4937 0.0730102 17.5045 0.0730102C17.6765 0.0891875 17.8432 0.0298704 18.0152 0.116149C18.0851 0.159289 18.1873 0.0999724 18.2679 0.0999724C18.4077 0.0837951 18.8916 0.0568327 19.0206 0.0837949C19.0367 0.0837949 19.0475 0.110757 19.0636 0.110757C19.1765 0.0676176 19.4023 0.0568327 19.5314 0.0568327C19.784 0.07301 20.026 0.0568327 20.284 0.0568327C20.3432 0.0568327 20.3969 0.0837949 20.4561 0.0837949C20.5045 0.0837949 20.5529 0.07301 20.5959 0.0568327C20.6174 0.0460478 20.6389 0.0352629 20.6658 0.0298705C20.7141 0.0460478 20.7572 0.0568327 20.8055 0.0568327C21.0206 0.0568327 21.2141 0.07301 21.4292 0.0568327C21.526 0.0568327 21.612 0.110757 21.7141 0.0730102C21.8002 0.046048 21.9131 0.0730102 22.0098 0.0730102H23.5797C23.6335 0.0730102 23.7195 0.0999722 23.7625 0.0298705C23.8593 0.0837949 23.9614 0.143112 24.0905 0.229391H24.3593L24.6442 0.0891873C24.784 0.105365 24.9561 0.0460479 25.112 0.132327C25.1281 0.148504 25.1711 0.116149 25.198 0.116149C25.3431 0.0568326 25.5098 0.0622252 25.6496 0.132327C25.698 0.11615 25.741 0.0999722 25.7894 0.0891873C25.8485 0.062225 25.9023 0.159289 25.9722 0.105365C26.0152 0.0622252 26.112 0.0891873 26.198 0.0891873H27.1335C27.2195 0.0730099 27.3055 0.11615 27.3861 0.046048C27.413 0.0190857 27.5152 0.0730099 27.5851 0.0891873C27.655 0.0891873 27.7249 -0.00787674 27.784 0.062225C27.8539 0.116149 27.8969 -0.00787658 27.9668 0.0784025C27.9937 0.105365 28.0958 0.0945799 28.1496 0.105365C28.2195 0.121542 28.2894 0.062225 28.3485 0.062225C28.6119 0.0460477 28.8754 0.0460477 29.1388 0.062225H29.2947C29.3808 0.062225 29.4775 0.0190856 29.5474 0.105365C29.5635 0.121542 29.6334 0.105365 29.6765 0.0784025C29.7248 0.0406554 29.8001 0.046048 29.8377 0.09458C29.8377 0.0999725 29.8431 0.0999723 29.8431 0.105365C29.8861 0.0891874 29.913 0.062225 29.956 0.062225H30.8646C30.9345 0.062225 30.9936 0.132327 31.0797 0.0784025C31.1334 0.035263 31.2356 0.0622252 31.3216 0.0784025C31.3754 0.0784025 31.4184 0.105365 31.5044 0.121542C31.5205 0.121542 31.5474 0.0945799 31.5904 0.0784025C31.6173 0.0945799 31.6334 0.121542 31.6603 0.121542C31.784 0.0676178 31.9291 0.0622252 32.0582 0.105365C32.1711 0.148504 32.3108 0.148504 32.4668 0.159289C32.5259 0.132327 32.5797 0.105365 32.6388 0.0730102C32.7786 0.143112 32.9345 0.126935 33.0904 0.0999724C33.128 0.0837951 33.1657 0.0730102 33.2033 0.0730102C33.542 0.0730102 33.87 0.0460477 34.2087 0.0891873C34.3646 0.105365 34.5044 0.132327 34.6603 0.132327C34.7194 0.218606 34.7893 0.105365 34.8162 0.132327C34.8861 0.191644 34.956 0.175467 35.0313 0.175467C35.1011 0.191644 35.1872 0.11615 35.2033 0.132327C35.2893 0.202429 35.3431 0.0891874 35.4184 0.132327L35.5904 0.218606L35.6334 0.175467L35.6872 0.234784C35.7194 0.213214 35.7517 0.191644 35.7839 0.175467H35.8108C35.8807 0.207821 35.9506 0.240176 36.0259 0.261746C36.1226 0.288708 36.2248 0.391164 36.3377 0.277923H36.9882C37.0151 0.277923 37.0312 0.321062 37.0581 0.331847C37.0904 0.310277 37.1173 0.288708 37.1441 0.261746C37.3001 0.321063 37.4291 0.434304 37.5527 0.531368C37.6872 0.617647 37.7839 0.747066 37.8377 0.898054C37.8377 0.914231 37.8216 0.925016 37.7947 0.968156C37.8216 1.0059 37.8592 1.03826 37.8915 1.06522C37.8915 1.0814 37.9076 1.09218 37.9076 1.10836C37.8915 1.22699 37.9076 1.35102 37.9613 1.46426C38.0151 1.59368 38.0205 1.73928 37.9775 1.87409C37.9345 1.98733 37.9506 2.11675 37.9613 2.24077C37.9775 2.35401 37.9183 2.46726 38.0044 2.5805C38.0312 2.60746 37.9882 2.67756 37.9882 2.76384C38.0151 2.82316 38.0151 2.82316 38.0151 2.97415L38.1011 3.06042C38.0742 3.11974 38.0474 3.17367 38.0151 3.23298C38.0366 3.2923 38.0474 3.35701 38.0581 3.41633C38.0742 3.48643 38.042 3.57271 38.0581 3.64281C38.085 3.71291 37.9721 3.73987 38.0312 3.81537C38.0742 3.87468 38.0474 3.95557 38.0474 4.03106V4.21441C38.1441 4.34383 38.2893 4.35461 38.413 4.34383C38.542 4.21441 38.6979 4.18745 38.8646 4.20362C38.8861 4.22519 38.9022 4.24676 38.9183 4.27372C39.0151 4.34383 39.0904 4.21441 39.1603 4.2899C39.214 4.24676 39.2893 4.18745 39.3592 4.13352C39.3753 4.18745 39.3753 4.23059 39.3861 4.2899C39.4452 4.27372 39.4828 4.20362 39.542 4.2899C39.5796 4.27372 39.6172 4.25215 39.6549 4.23058C39.6818 4.2899 39.714 4.38697 39.7517 4.38697C39.8807 4.38697 39.7947 4.48403 39.8377 4.52717C39.9076 4.59727 39.8807 4.66737 39.8538 4.75365C39.8269 4.84532 39.8269 4.94778 39.8538 5.03945C39.8807 5.12573 39.8968 5.17966 39.8538 5.26593C39.8162 5.30368 39.8215 5.36839 39.8592 5.40074C39.8699 5.41153 39.8807 5.41692 39.8968 5.42232C39.8807 5.50859 39.8108 5.55173 39.8699 5.6488C39.9398 5.789 39.8968 5.96156 39.8861 6.1449L39.9129 6.17186C39.8431 6.215 39.7839 6.25814 39.6979 6.31207C39.714 6.37139 39.7248 6.42531 39.7409 6.48463C39.3861 6.5008 39.0205 6.61405 38.6495 6.5008C38.4775 6.59787 38.2678 6.5008 38.0689 6.55473C38.0259 6.80817 38.1119 7.06701 37.999 7.32046C38.0366 7.35281 38.0742 7.37977 38.1119 7.40673C38.085 7.5038 38.1388 7.60625 38.0527 7.67636L38.1495 7.77342C38.1226 8.01608 38.2194 8.2857 38.0635 8.52836C38.0796 8.5715 38.0904 8.61464 38.0904 8.65778V9.08379C38.0904 9.17006 38.0742 9.25634 38.1334 9.33723C38.1764 9.40733 38.1603 9.52057 38.1065 9.62303C38.0635 9.70392 38.0689 9.80098 38.1226 9.87648C38.1065 9.96275 38.0796 10.049 38.0958 10.1191C38.1549 10.4427 38.1549 10.475 38.0958 10.7878C38.0689 10.9172 38.0958 11.0736 38.1119 11.1976V11.2677C38.1011 11.3594 38.0958 11.4457 38.0958 11.5373C38.0958 11.6236 38.0689 11.7099 38.0958 11.7908C38.1226 11.8717 38.0796 11.931 38.0958 12.0011V12.4864C38.1065 12.5565 38.1226 12.6266 38.1388 12.7021C38.1388 12.7021 38.0958 12.7291 38.0958 12.7453C38.1226 12.9448 38.042 13.1551 38.1388 13.3546C38.1119 13.511 38.1656 13.6781 38.1119 13.8399C38.0635 13.9855 38.0742 14.1419 38.1388 14.2821C38.0581 14.4223 38.0635 14.6003 38.1549 14.7351C38.0259 14.8645 38.1388 14.9615 38.2087 15.0748L38.0958 15.3013C38.1226 15.4145 38.1549 15.5871 38.1925 15.7866C38.1603 15.7974 38.1334 15.8136 38.1065 15.8297V16.3852C38.2624 16.5415 38.4721 16.369 38.628 16.4984C38.9936 16.3852 39.3646 16.4984 39.7302 16.5146C39.714 16.5685 39.7033 16.6278 39.6871 16.6871C39.757 16.7411 39.8269 16.7842 39.9022 16.8273L39.8592 16.8705C39.9183 16.9837 39.8753 17.097 39.9022 17.2102C39.9291 17.3234 39.7624 17.4367 39.9022 17.5499C39.8861 17.62 39.8054 17.6793 39.8753 17.7764C39.9022 17.8357 39.9022 17.9004 39.8753 17.9597C39.8323 18.0622 39.8323 18.1808 39.8753 18.2887C39.9183 18.4019 39.8753 18.5044 39.7624 18.6284C39.7194 18.6769 39.6871 18.7363 39.6656 18.801C39.6334 18.7794 39.6011 18.7632 39.5689 18.7417C39.5259 18.7848 39.4721 18.8118 39.4129 18.7147C39.3968 18.7686 39.3968 18.8118 39.3861 18.8711H39.3646C39.3377 18.8549 39.3108 18.8441 39.2785 18.8441C39.2355 18.8279 39.2355 18.7039 39.1388 18.7848C39.1226 18.801 39.042 18.7578 38.999 18.7309C38.9613 18.7632 38.9291 18.801 38.9022 18.8441H38.6871C38.6011 18.801 38.5151 18.7578 38.4183 18.7039H38.2194C38.2033 18.8064 38.1925 18.9034 38.1656 19.0328C38.1818 19.0598 38.2624 19.1299 38.1495 19.2162C38.1764 19.2755 38.2087 19.3348 38.2463 19.3887C38.1871 19.475 38.1495 19.5721 38.2463 19.6853C38.1495 19.8147 38.2194 19.9711 38.1871 20.1113C38.1441 20.2515 38.3269 20.381 38.2033 20.5212C38.3592 20.6775 38.0635 20.8771 38.257 21.0334C38.1871 21.1629 38.171 21.2761 38.2409 21.3732C38.2248 21.4433 38.2087 21.5134 38.1979 21.5835C38.2087 21.7776 38.171 21.9717 38.1011 22.1497C38.0742 22.2036 38.042 22.2575 38.0044 22.3061C37.9775 22.3492 37.9506 22.4031 37.9076 22.4786C37.7947 22.5703 37.6764 22.6566 37.5527 22.7321C37.413 22.8022 37.2678 22.8291 37.1119 22.8884C37.0958 22.8723 37.0689 22.8615 37.0581 22.8345C37.042 22.8507 37.0312 22.8777 37.0044 22.8777C36.8216 22.9046 36.6388 22.8345 36.4506 22.9208C36.3377 22.7914 36.2355 22.9639 36.1119 22.937C35.9936 22.9154 35.8753 22.9154 35.7571 22.937C35.6872 22.937 35.6011 23.0071 35.5581 22.9801C35.4882 22.9262 35.4184 22.937 35.3431 22.937H34.5581C34.4883 22.8938 34.4184 22.8669 34.3861 22.8507C34.2571 22.8669 34.1603 22.8777 34.0635 22.8938C33.8646 22.91 33.6549 22.8669 33.456 22.937C33.413 22.9532 33.37 22.9208 33.3162 22.91C33.2033 22.8831 33.0904 22.8669 32.9936 22.937C32.8807 22.8777 32.7463 22.8723 32.628 22.9208C32.5313 22.9478 32.4291 22.9639 32.3323 22.8938C32.3055 22.91 32.2893 22.9208 32.2625 22.937C32.1711 22.9154 32.0743 22.8992 31.9775 22.8938H30.2141C30.1603 22.8938 30.0851 22.9208 30.0313 22.8507C29.9453 22.9478 29.8324 22.8938 29.7195 22.8938C29.6119 22.8992 29.5044 22.8992 29.3915 22.8938C29.2947 22.8938 29.1765 22.8669 29.0797 22.9208C29.0474 22.9046 29.0152 22.8884 28.9829 22.8777C28.9506 22.8615 28.9184 22.8561 28.8861 22.8507C28.8324 22.8669 28.7732 22.8777 28.7141 22.8777H27.9937C27.9507 22.8777 27.9076 22.9046 27.8808 22.9046C27.741 22.8884 27.6281 22.8615 27.4722 22.8453C27.1872 22.9046 26.8915 22.8992 26.6066 22.8291L26.5636 22.8723C26.4507 22.7428 26.3485 22.9154 26.2249 22.8723C26.112 22.8453 25.9829 22.9154 25.87 22.8291C25.7732 22.8992 25.655 22.8561 25.5474 22.8723H25.1819C25.069 22.8723 24.9399 22.8884 24.8001 22.8453C24.8001 22.8615 24.7733 22.8884 24.7464 22.9316C24.5475 22.9154 24.3485 22.9585 24.1496 22.8884C24.0905 22.9046 24.026 22.9208 23.9668 22.9316H22.4399C22.3862 22.9316 22.327 22.9478 22.284 22.8884C22.2625 22.8723 22.2356 22.8723 22.2141 22.8884C22.0743 22.9855 21.9453 22.9046 21.8055 22.8884C21.6926 22.8723 21.5959 22.9154 21.483 22.9316C21.3055 22.937 21.1335 22.9262 20.9615 22.8884C20.7894 22.8615 20.6227 22.9316 20.4507 22.8453C20.3647 22.9046 20.2679 22.8884 20.1819 22.8884C20.1227 22.8884 20.0797 22.8615 19.9991 22.8453C19.9776 22.8669 19.9561 22.883 19.9292 22.9046L19.8163 22.8453C19.7625 22.9316 19.6873 22.8291 19.6012 22.8615C19.4722 22.9046 19.3324 22.8884 19.1926 22.8884C19.1389 22.8777 19.0851 22.8615 19.0367 22.8453C19.0206 22.8615 19.0099 22.9046 18.983 22.8884C18.8109 22.8723 18.6443 22.9478 18.4722 22.8453C18.4346 22.8345 18.3916 22.8399 18.3593 22.8615C18.2195 22.9046 18.2034 22.9046 18.0636 22.8453C17.897 22.91 17.7142 22.9208 17.5421 22.8723C17.4991 22.8561 17.4561 22.8453 17.4292 22.8561C17.1013 22.9262 17.0583 22.9262 16.7518 22.8561C16.7088 22.8507 16.6658 22.8507 16.6228 22.8561C16.612 22.8938 16.5905 22.937 16.5636 22.9693C16.5152 22.937 16.4669 22.8992 16.4238 22.8561C16.4077 22.8723 16.3862 22.8884 16.3701 22.8992C16.3432 22.8723 16.3163 22.8453 16.3002 22.8129C16.2357 22.8237 16.1765 22.8399 16.1174 22.8669C16.1013 22.883 16.1013 22.91 16.0905 22.937C15.9776 22.8938 15.8647 22.8237 15.7357 22.8507C15.612 22.8723 15.4884 22.9046 15.3701 22.9478C15.354 22.9208 15.3378 22.8938 15.3271 22.8615C15.2411 22.8777 15.1873 22.8884 15.112 22.9046C15.112 22.8507 15.0959 22.8076 15.0959 22.7482C14.897 22.7482 14.7411 22.8453 14.5583 22.9478C14.3325 23.0179 14.0744 22.8183 13.8217 22.9316C13.8056 22.9316 13.7948 22.9046 13.7787 22.8884C13.7626 22.9046 13.7357 22.9154 13.7196 22.9424C13.6927 22.9262 13.6497 22.8884 13.6228 22.8884C13.526 22.9046 13.4239 22.8615 13.3378 22.9154C13.311 22.9424 13.2249 22.8992 13.1389 22.8884C13.0099 22.9424 12.3432 22.9585 12.2034 22.8723C12.1067 22.9316 12.1067 22.9316 11.9938 22.8884L11.8217 22.9747C11.768 22.9639 11.7142 22.9424 11.6658 22.9154C11.6067 22.8884 11.5529 22.9855 11.483 22.9316C11.44 22.8884 11.3432 22.9316 11.2572 22.9316H11.0314C10.9776 22.9316 10.9024 22.9046 10.8486 22.9747C10.8325 22.9909 10.7895 22.9909 10.7787 22.9909C10.6927 22.9046 10.6067 23.034 10.4938 22.9639C10.3916 22.9046 10.2572 22.9154 10.1712 22.9909C10.1228 22.9693 10.0691 22.9531 10.0153 22.9478C9.81637 22.9478 9.63357 22.9208 9.43465 22.9478C9.31637 22.9693 9.19809 22.9855 9.07981 22.9909C9.0368 22.9909 8.98304 22.9478 8.95078 22.9639C8.89164 23.0233 8.83788 22.9909 8.77874 22.9909C8.73573 22.9909 8.69272 22.9478 8.6497 22.9478C8.59057 22.9478 8.52067 22.9208 8.46691 22.9747C8.4239 23.0017 8.37014 23.0071 8.32713 22.9909C8.28412 22.9747 8.24111 22.9478 8.18734 22.9909C8.14433 23.0179 8.10132 22.8938 8.05831 22.9909C7.97767 22.9585 7.89165 22.9424 7.80563 22.937C7.73573 22.937 7.64971 22.9639 7.56369 22.91C7.52068 22.8831 7.46692 22.8777 7.42391 22.8938C7.18197 22.9801 6.94004 22.8669 6.68735 22.8777C6.42929 22.8992 6.16585 22.8992 5.90779 22.8777H5.66585C5.56908 22.8777 5.46693 22.8938 5.35403 22.8345C5.27338 22.8129 5.19274 22.8129 5.11209 22.8345C5.0422 22.8345 4.98306 22.8615 4.91317 22.8615C4.82715 22.8615 4.74113 22.8183 4.67124 22.8453C4.53145 22.8992 4.38629 22.8723 4.24651 22.8884C4.14973 22.9046 4.06371 22.8291 3.95081 22.8615C3.86479 22.8777 3.75189 22.8453 3.65511 22.8345C3.55834 22.8237 3.44006 22.8777 3.34329 22.7914C3.17125 22.9046 3.04759 22.6781 2.89168 22.7213C2.76265 22.6242 2.63899 22.5379 2.50996 22.4355C2.41856 22.36 2.35405 22.2521 2.32717 22.1389C2.28415 21.9987 2.19813 21.8693 2.19813 21.7129C2.19813 21.6967 2.18201 21.6698 2.19813 21.659C2.26803 21.5727 2.18201 21.5188 2.17125 21.4325C2.18738 21.4163 2.19813 21.3893 2.21426 21.3786L2.1605 21.3192C2.17663 21.2761 2.20351 21.233 2.21426 21.1898C2.20351 21.1575 2.18201 21.1305 2.1605 21.1035C2.18738 21.1035 2.20351 21.0874 2.24652 21.0874C2.21964 20.9741 2.20351 20.8609 2.17663 20.7153V20.6991C2.26265 20.6128 2.17663 20.4834 2.23039 20.3863C2.28953 20.3001 2.2734 20.2138 2.23039 20.1167C2.20351 20.0304 2.21426 19.9172 2.21426 19.8201C2.21426 19.7608 2.25727 19.7177 2.25727 19.6638C2.25727 19.6098 2.21426 19.5667 2.21426 19.5074C2.21426 19.4804 2.24114 19.4535 2.24114 19.4211C2.25727 19.378 2.26265 19.3294 2.25727 19.2809C2.22502 19.2108 2.20889 19.1299 2.21426 19.0544V18.7848C2.10136 18.7848 1.97233 18.7417 1.85943 18.8118C1.8433 18.8118 1.83254 18.7956 1.80029 18.7956C1.71964 18.7902 1.639 18.7902 1.55835 18.7956C1.41857 18.8495 1.26266 18.8118 1.1175 18.8225C1.0476 18.7363 0.945454 18.7956 0.875562 18.7794C0.832551 18.7201 0.789541 18.6662 0.76266 18.623C0.714273 18.6446 0.665886 18.6662 0.622875 18.6931C0.493844 18.4073 0.44008 18.0137 0.536854 17.8303C0.44008 17.6578 0.509973 17.4744 0.493844 17.3019C0.493844 17.2318 0.477715 17.1455 0.552983 17.0916C0.450833 16.9514 0.483091 16.795 0.569112 16.6386C0.655133 16.6116 0.741154 16.5955 0.811046 16.5685C0.897067 16.4984 0.966959 16.4391 1.02072 16.3852C1.13362 16.4714 1.2304 16.4391 1.35943 16.4013C1.4562 16.5415 1.61212 16.3312 1.75728 16.4175C1.89706 16.4876 2.04222 16.3474 2.22502 16.4175C2.19813 16.3852 2.17663 16.3528 2.15512 16.3151C2.182 16.1856 2.2519 16.0454 2.15512 15.916V15.9052C2.17663 15.8405 2.18738 15.7758 2.19813 15.7057C2.19813 15.6356 2.12824 15.5925 2.17125 15.5062C2.19813 15.463 2.15512 15.3768 2.15512 15.3228V14.4978C2.15512 14.4439 2.13899 14.3846 2.19813 14.3414C2.14975 14.3037 2.13362 14.239 2.15512 14.185C2.17125 14.0988 2.15512 14.0125 2.19813 13.9316C2.24114 13.8399 2.24114 13.7375 2.19813 13.6458C2.15512 13.5595 2.13899 13.4463 2.17125 13.3923C2.24114 13.2791 2.18738 13.1497 2.25727 13.0526C2.31104 12.9556 2.23039 12.8423 2.17125 12.7399C2.25727 12.5835 2.22502 12.4163 2.21426 12.2438C2.17125 12.0011 2.1605 12.0011 2.21426 11.8016C2.22502 11.753 2.23039 11.7045 2.23039 11.6614C2.17663 11.3648 2.17663 11.3648 2.23039 11.0952V11.0682C2.24652 10.8148 2.25727 10.5559 2.28953 10.3133C2.28953 10.2593 2.20351 10.2162 2.2734 10.1407C2.28953 10.1245 2.24652 10.0436 2.24652 10.0005C2.24652 9.95736 2.28953 9.89804 2.2734 9.88726C2.23039 9.83333 2.24652 9.77402 2.24652 9.7147V9.55832C2.23577 9.50439 2.21964 9.45586 2.20351 9.40194C2.22502 9.34262 2.24114 9.28331 2.24652 9.2186V8.66317C2.24652 8.60925 2.25727 8.55532 2.2734 8.50679C2.25727 8.42051 2.24652 8.33963 2.24652 8.25335V6.60326C2.09061 6.58708 1.95082 6.5763 1.80566 6.5763C1.78953 6.5763 1.77878 6.56551 1.77878 6.54934C1.42395 6.66258 1.06911 6.56551 0.70352 6.53316C0.725025 6.48463 0.74653 6.4307 0.757283 6.37678C0.687391 6.31746 0.617499 6.27971 0.542231 6.2204C0.585241 6.02088 0.49922 5.81057 0.595994 5.61105C0.483091 5.49781 0.612122 5.35761 0.552983 5.21201C0.526101 5.14191 0.509973 5.02867 0.595994 4.95856C0.509973 4.88846 0.552983 4.78601 0.552983 4.70512C0.552983 4.60806 0.595994 4.52178 0.612123 4.4355C0.639004 4.4355 0.665885 4.41932 0.698143 4.41932C0.698143 4.37618 0.714272 4.33304 0.714272 4.27912C0.773412 4.29529 0.827175 4.29529 0.913196 4.30608C0.956206 4.27912 1.00997 4.23598 1.08524 4.19284C1.13362 4.24137 1.17126 4.29529 1.21427 4.34922C1.25728 4.32226 1.28416 4.32226 1.32717 4.2899C1.37018 4.30608 1.42395 4.31686 1.48308 4.33304C1.49384 4.30069 1.50997 4.26294 1.5261 4.23058C1.66588 4.21441 1.81104 4.21441 1.93469 4.31686C1.99383 4.36 2.09061 4.36 2.17663 4.38697L2.26265 4.30069C2.24652 4.16048 2.28953 4.01489 2.20889 3.87468C2.19276 3.84233 2.19276 3.80458 2.20889 3.77762C2.23577 3.70752 2.30566 3.63742 2.22502 3.56731C2.27878 3.49721 2.26803 3.42711 2.26803 3.34083V2.81237C2.26803 2.73149 2.25727 2.6506 2.24114 2.56971C2.24114 2.54814 2.24652 2.52657 2.25727 2.5104C2.30028 2.41333 2.28416 2.2947 2.21426 2.21381C2.23039 2.18685 2.25727 2.17067 2.26803 2.14371C2.26803 2.07361 2.17125 2.01429 2.24114 1.9334C2.28416 1.87409 2.26803 1.80398 2.24114 1.71771C2.21426 1.6476 2.25727 1.56132 2.24114 1.47505C2.22502 1.38877 2.21426 1.33484 2.25727 1.24856C2.30028 1.19464 2.2734 1.09218 2.2734 1.0059C2.26803 0.833345 2.26803 0.747065 2.2734 1.27553C2.26803 1.84173 2.26803 1.84173 2.25727 1.85252C2.2734 1.86869 2.28415 1.87948 2.28415 1.89566L2.30028 1.87948C2.30028 1.85791 2.28953 1.84712 2.2734 1.27553ZM14.5153 0.326455V0.283316H14.4292C14.4024 0.267138 14.3701 0.245568 14.3432 0.223998C14.3432 0.283315 14.3593 0.310278 14.3593 0.33724C14.4131 0.342633 14.4615 0.321063 14.4991 0.283316L14.5153 0.299493C14.5314 0.283315 14.5421 0.27253 14.5583 0.27253L14.5421 0.256353C14.5314 0.256353 14.5314 0.267138 14.5153 0.326455ZM22.1926 20.4564C22.2948 20.5104 22.4131 20.5158 22.5152 20.4726C22.5582 20.4564 22.612 20.4457 22.6281 20.4564C22.7249 20.5427 22.8432 20.4996 22.9399 20.4996C23.0098 20.4996 23.0958 20.4564 23.155 20.4834C23.2679 20.5373 23.3378 20.4672 23.4238 20.4672C23.5098 20.4672 23.6066 20.5373 23.7087 20.5104C23.7356 20.5104 23.7518 20.4834 23.7625 20.4834C23.9023 20.4564 24.0475 20.4403 24.1872 20.4996C24.284 20.4133 24.4023 20.4564 24.4991 20.4996C24.569 20.4834 24.6388 20.4457 24.6711 20.4726C24.7571 20.5427 24.8539 20.5158 24.9561 20.5158H25.4937C25.5797 20.5158 25.6765 20.4618 25.7356 20.4888C25.8324 20.5319 25.9184 20.5158 26.0044 20.5158H27.7033C27.8001 20.5158 27.9023 20.5589 27.9883 20.4726C28.0205 20.4564 28.0582 20.4564 28.0851 20.4726C28.155 20.5319 28.2141 20.5427 28.284 20.4726C28.3001 20.4564 28.37 20.4457 28.3808 20.4564C28.4668 20.5535 28.5528 20.4726 28.6334 20.4403C28.6603 20.4672 28.6765 20.4834 28.6926 20.4834C28.7356 20.4672 28.7625 20.4564 28.8055 20.4403C28.8754 20.4241 28.9507 20.4133 29.0205 20.4133C29.0904 20.4133 29.1496 20.4295 29.2195 20.4295H31.9936C32.0582 20.4241 32.1173 20.4133 32.1764 20.3863C32.2302 20.4025 32.2732 20.4133 32.3162 20.4295C32.3861 20.4457 32.4721 20.4025 32.5582 20.4726C32.6119 20.4996 32.6764 20.4996 32.7302 20.4726C32.8592 20.4025 32.9829 20.4295 33.1119 20.4295H33.9829C34.0528 20.4295 34.1227 20.4025 34.1818 20.4025C34.2356 20.4187 34.2947 20.4295 34.3538 20.4295C34.6388 20.4295 34.9184 20.4295 35.1872 20.5266C35.2302 20.5427 35.2732 20.5427 35.3162 20.5266C35.3861 20.4403 35.4721 20.4834 35.542 20.4834H35.8377V18.5637C35.8054 18.5044 35.7678 18.4559 35.7248 18.4073C35.7678 18.3911 35.7947 18.3804 35.8377 18.3642C35.8162 18.224 35.8001 18.0784 35.7947 17.9382C35.7947 17.7818 35.7517 17.6254 35.8377 17.4852C35.7517 17.345 35.8108 17.1994 35.7947 17.043C35.7947 16.8867 35.7517 16.7303 35.8377 16.6009C35.8216 16.5631 35.8054 16.5254 35.7947 16.4876V14.8106C35.7947 14.7512 35.8377 14.7243 35.8216 14.638C35.7786 14.4978 35.7947 14.3414 35.7786 14.1527C35.7839 14.1365 35.7947 14.1257 35.8054 14.1095C35.7839 14.0448 35.7678 13.9801 35.7624 13.91C35.7786 13.7375 35.7194 13.5541 35.8054 13.387C35.8216 13.3708 35.7893 13.3276 35.7893 13.3007C35.7732 13.2575 35.7624 13.209 35.7624 13.1605V11.2893C35.7624 11.2192 35.7893 11.1599 35.7786 11.0736C35.7517 10.8741 35.7248 10.6638 35.8054 10.475C35.7893 10.4589 35.7786 10.4319 35.7624 10.4319C35.7893 10.3618 35.8162 10.2917 35.8485 10.2162C35.8001 10.0976 35.7732 9.97354 35.7624 9.84951V8.59846C35.7624 8.48522 35.7356 8.3558 35.8054 8.24256C35.8323 8.19942 35.7893 8.11314 35.7786 8.02687C35.7947 7.95676 35.8054 7.88666 35.8216 7.82735C35.7839 7.77881 35.7409 7.73028 35.6925 7.68714C35.8054 7.48762 35.7517 7.2881 35.7517 7.10476C35.7517 6.90524 35.7947 6.70572 35.7087 6.52237C35.8216 6.46306 35.7248 6.39296 35.7248 6.36599C35.7463 6.29589 35.7571 6.22579 35.7678 6.15569V5.27672C35.7678 5.17965 35.6979 5.06641 35.7248 4.98013C35.7517 4.89925 35.7678 4.81297 35.7678 4.72669V4.32765C35.7678 4.25755 35.7947 4.18745 35.7248 4.11734C35.7087 4.10117 35.7409 4.03106 35.7517 3.98792C35.7624 3.94479 35.7786 3.89086 35.7678 3.87468C35.6979 3.82076 35.7248 3.73448 35.7248 3.66438V3.23298C35.671 3.16288 35.6119 3.10356 35.5528 3.03346C35.585 3.01189 35.6173 3.00111 35.6495 2.99032C35.6764 2.92022 35.6925 2.8609 35.7087 2.81776C35.6925 2.74766 35.6495 2.66138 35.6818 2.61824C35.7248 2.56432 35.6549 2.505 35.7087 2.46186C35.6764 2.45108 35.6388 2.4349 35.6119 2.41872C35.37 2.46186 35.128 2.47804 34.9022 2.40255C34.7732 2.47265 34.5743 2.46186 34.4076 2.41872C34.2678 2.37558 34.1119 2.27852 33.9829 2.39176C33.8001 2.33784 33.6012 2.33244 33.4184 2.37558C33.2893 2.40255 33.1495 2.4349 33.0205 2.34862C32.8915 2.40794 32.7947 2.41872 32.6818 2.37558C32.6388 2.35941 32.5958 2.33244 32.5689 2.34862C32.456 2.4349 32.327 2.39176 32.2141 2.39176C32.1012 2.39176 31.9721 2.3648 31.8592 2.3648C31.7463 2.34862 31.6334 2.40794 31.5044 2.40794C31.3646 2.39176 31.2087 2.4349 31.0797 2.3648C31.0313 2.34862 30.9829 2.34862 30.9399 2.3648C30.87 2.39176 30.8001 2.45108 30.7248 2.38098C30.6711 2.31087 30.585 2.46726 30.5098 2.38098C30.3539 2.39715 30.1872 2.33784 30.042 2.42412C29.9883 2.40794 29.9291 2.39715 29.8861 2.38098C29.7571 2.33784 29.6334 2.5104 29.5044 2.39715C29.4184 2.48343 29.3055 2.41333 29.2195 2.44029C29.1227 2.48343 29.0367 2.42412 28.9345 2.44029H28.3431C28.2947 2.4349 28.2464 2.41872 28.2033 2.39715C28.1388 2.41872 28.0743 2.42951 28.0044 2.44029H27.7087C27.6227 2.44029 27.5367 2.46726 27.456 2.39715C27.37 2.48343 27.2732 2.44029 27.1711 2.44029H24.9937C24.8808 2.44029 24.7518 2.41333 24.6388 2.48343C24.612 2.49961 24.5421 2.45647 24.4829 2.45647C24.3969 2.45647 24.3109 2.42951 24.2571 2.45647C24.1872 2.48343 24.1173 2.49961 24.0582 2.45647C23.9614 2.38637 23.8754 2.44029 23.8163 2.47265C23.7303 2.45647 23.6604 2.41333 23.6335 2.44569C23.5475 2.48882 23.4937 2.51579 23.4184 2.44569C23.2786 2.46186 23.1227 2.40255 22.9937 2.505C22.9292 2.44569 22.8324 2.4349 22.7518 2.47804C22.7034 2.505 22.6496 2.51579 22.5959 2.505C22.5098 2.4349 22.4131 2.46186 22.3109 2.46186H21.1873C21.0582 2.46186 20.9023 2.4349 20.7894 2.48883C20.6496 2.55893 20.5636 2.41872 20.4507 2.46186C20.3647 2.49961 20.2679 2.48343 20.198 2.41872C20.1658 2.40255 20.1281 2.40255 20.1012 2.41872C20.0475 2.47265 19.9615 2.47804 19.9077 2.42412C19.9077 2.42412 19.9077 2.42412 19.9023 2.41872C19.8754 2.40255 19.8163 2.4349 19.7733 2.4349C19.7303 2.4349 19.6873 2.45108 19.6335 2.45108C19.5905 2.45108 19.5475 2.42412 19.4937 2.42412H17.526C17.483 2.42412 17.4292 2.45108 17.3862 2.45108C17.1712 2.40794 16.9615 2.38098 16.7464 2.46726C16.7249 2.48343 16.698 2.48343 16.6765 2.46726C16.6066 2.40255 16.5099 2.38637 16.4238 2.42412C16.3378 2.45108 16.2679 2.42412 16.1819 2.42412C16.1443 2.42951 16.112 2.44569 16.0851 2.46726C15.9454 2.38098 15.7894 2.39715 15.6335 2.44029C15.5959 2.45647 15.5583 2.46186 15.5206 2.46726C15.4669 2.44029 15.4077 2.38098 15.3647 2.46726C15.3217 2.39715 15.2518 2.42412 15.1819 2.42412H14.2787C14.1981 2.42412 14.112 2.4349 14.0368 2.46726C13.9239 2.5104 13.8647 2.41333 13.768 2.42412C13.5529 2.46726 13.3271 2.39715 13.1174 2.48343C13.0744 2.49961 13.0045 2.45647 12.9346 2.44029C12.8862 2.46186 12.8325 2.47804 12.7787 2.48343C12.569 2.49961 12.354 2.45647 12.1551 2.54275C12.112 2.55893 12.069 2.55893 12.026 2.54275C11.9293 2.47265 11.8002 2.49961 11.7035 2.49961H11.4078C11.3056 2.49961 11.2088 2.48343 11.1121 2.54275C11.0153 2.42951 10.94 2.56971 10.8432 2.55893C10.6497 2.54275 10.4561 2.54275 10.2626 2.55893C10.0798 2.5751 9.89701 2.46186 9.69809 2.55893H9.65508C9.48303 2.47265 9.30024 2.51579 9.11744 2.53196C9.03142 2.53196 8.96153 2.59128 8.87551 2.54814C8.78949 2.52118 8.67659 2.54814 8.59057 2.505C8.52605 2.46726 8.45078 2.45647 8.38089 2.47804C8.24111 2.54814 8.09595 2.505 7.94003 2.52118C7.84326 2.53736 7.74111 2.505 7.62821 2.56432C7.57444 2.60746 7.44541 2.59128 7.38627 2.54814C7.31638 2.505 7.24649 2.52118 7.17122 2.52118C7.0852 2.52118 6.99918 2.56432 6.91853 2.56432L6.24112 2.52118C6.17123 2.4349 6.04219 2.52118 5.98843 2.46186C5.89166 2.34862 5.80564 2.47804 5.71962 2.47804C5.61747 2.48343 5.52069 2.48883 5.42392 2.505C5.38091 2.48883 5.32715 2.45108 5.26801 2.41872C5.24112 2.46186 5.21424 2.48883 5.18198 2.53196C5.16586 2.48883 5.1551 2.46186 5.13898 2.41872H4.89704C4.81102 2.41872 4.725 2.42412 4.64435 2.4349C4.68736 2.5751 4.61747 2.68835 4.64435 2.81776C4.67124 2.94718 4.64435 3.08739 4.66048 3.21681C4.66048 3.34622 4.6336 3.47025 4.70349 3.58888C4.66048 3.65899 4.6336 3.72909 4.59059 3.79919L4.66048 3.86929C4.64435 3.89625 4.61747 3.92861 4.61747 3.93939C4.6336 3.98793 4.64435 4.04185 4.64435 4.09577C4.65511 4.1497 4.67124 4.20362 4.69812 4.25215C4.6121 4.38157 4.52608 4.49481 4.49919 4.63502C4.63898 4.90464 4.78414 5.15809 4.65511 5.48702C4.62823 5.55713 4.6121 5.67037 4.68199 5.74047C4.69812 5.75665 4.66586 5.79979 4.66586 5.82675C4.68199 5.96695 4.6121 6.09637 4.63898 6.22579C4.66048 6.30128 4.67661 6.37678 4.68199 6.45227V7.27732C4.67661 7.33124 4.66048 7.38516 4.63898 7.4337H4.65511C4.65511 7.50919 4.65511 7.58469 4.67124 7.66018C4.65511 7.67636 4.62823 7.68714 4.61747 7.70332C4.67124 7.7195 4.71425 7.73028 4.75726 7.74646C4.70349 7.9999 4.70349 7.9999 4.75726 8.1455C4.74113 8.17246 4.71425 8.18864 4.70349 8.2156V8.71171C4.70349 8.79799 4.8164 8.86809 4.70349 8.95437C4.78951 9.04065 4.7465 9.11075 4.70349 9.18085C4.68736 9.2186 4.68736 9.25634 4.70349 9.29409C4.77339 9.36419 4.74651 9.45047 4.74651 9.52057V10.7716C4.74651 10.901 4.7465 11.0412 4.67661 11.1437C4.60672 11.2569 4.66048 11.3432 4.69274 11.4133C4.67661 11.4672 4.64973 11.4996 4.64973 11.5427C4.64973 11.7153 4.6336 11.8825 4.69274 12.055C4.71962 12.1521 4.73575 12.2815 4.66586 12.3786C4.71962 12.481 4.69274 12.5943 4.69274 12.7075C4.69274 12.7345 4.64973 12.7776 4.66586 12.8046C4.73575 13.0041 4.68199 13.2144 4.69274 13.4139C4.68737 13.4678 4.67124 13.5218 4.64973 13.5703C4.67124 13.6188 4.68737 13.6728 4.69274 13.7267C4.70887 13.8237 4.70887 13.9262 4.69274 14.0233C4.67661 14.1203 4.71962 14.2336 4.66586 14.336C4.6121 14.4385 4.69274 14.5194 4.69274 14.6056C4.69274 14.6218 4.69274 14.6488 4.67661 14.6488C4.57984 14.7351 4.67661 14.8052 4.69274 14.8753C4.67661 14.9022 4.6336 14.9346 4.6336 14.9615C4.6336 15.0748 4.60672 15.215 4.66048 15.3013C4.73038 15.4307 4.57446 15.517 4.6336 15.6302C4.64973 15.6572 4.64973 15.7003 4.66048 15.7165C4.73038 15.8028 4.64435 15.8567 4.64435 15.9322C4.69274 16.1155 4.69812 16.3097 4.66048 16.4984C4.62823 16.6009 4.62823 16.7195 4.66048 16.8219C4.68199 16.8974 4.68199 16.9729 4.66048 17.0484C4.6336 17.1347 4.60134 17.2318 4.66048 17.3019C4.73038 17.3989 4.6336 17.4421 4.6336 17.5284C4.77339 17.6686 4.61747 17.8142 4.6336 17.9705C4.64973 18.1269 4.59059 18.2833 4.69274 18.4235C4.61747 18.5367 4.6121 18.6877 4.67661 18.8064C4.64973 18.9466 4.59059 19.0598 4.62285 19.1623C4.66586 19.3456 4.63898 19.5451 4.64973 19.7285C4.64973 19.7824 4.62285 19.8687 4.64973 19.901C4.73575 20.0143 4.67661 20.1275 4.69274 20.2408C4.69274 20.2839 4.64973 20.327 4.6336 20.3702C4.66048 20.4187 4.68199 20.4726 4.70349 20.5266C4.7465 20.5427 4.78951 20.5697 4.83252 20.5967C4.99919 20.5266 5.18736 20.5266 5.35403 20.5967C5.44005 20.5535 5.59596 20.5104 5.64972 20.5535C5.84865 20.6829 6.07445 20.5266 6.25725 20.6506C6.44004 20.5373 6.66585 20.6775 6.83789 20.5373C6.8809 20.5751 6.91853 20.6182 6.95079 20.6668C6.89703 20.6937 6.86477 20.7099 6.768 20.7692H6.95079L7.02068 20.6991C7.00455 20.6829 6.98843 20.6668 6.97767 20.6452L7.04756 20.5751H7.47229C7.47229 20.6182 7.48842 20.6614 7.48842 20.7153H7.80025C7.88627 20.5859 7.98304 20.7153 8.09595 20.6721C8.18197 20.6452 8.29487 20.6883 8.40777 20.6991C8.44003 20.6883 8.46691 20.6721 8.49379 20.656C8.55293 20.6398 8.59057 20.7261 8.6497 20.656C8.69272 20.629 8.77874 20.6721 8.8325 20.6128C8.87014 20.5967 8.90777 20.5967 8.9454 20.6128C8.99917 20.6668 9.07443 20.656 9.1282 20.656C9.28411 20.656 9.44002 20.6829 9.57981 20.602C9.59594 20.6182 9.62282 20.629 9.63895 20.656C9.65508 20.6398 9.67121 20.6236 9.69271 20.6128C9.70884 20.629 9.73572 20.6398 9.75185 20.656C9.80023 20.6344 9.854 20.6236 9.90776 20.6128C9.99378 20.5967 10.0906 20.6128 10.1604 20.5859C10.2572 20.5319 10.3164 20.6452 10.4131 20.6128C10.4615 20.5967 10.5153 20.5859 10.569 20.5859C10.6121 20.5697 10.6712 20.5589 10.682 20.5697C10.7518 20.656 10.854 20.6128 10.9346 20.6128H14.3593C14.4561 20.6182 14.5475 20.6074 14.6389 20.5697C14.7303 20.5319 14.8378 20.5427 14.9239 20.5967C14.9615 20.6128 14.9991 20.6128 15.0368 20.5967C15.1497 20.5373 15.2518 20.5535 15.3755 20.5967C15.4884 20.6344 15.6067 20.629 15.7142 20.5805C15.7679 20.5535 15.8862 20.5373 15.9292 20.5643C15.9991 20.6182 16.069 20.5913 16.1443 20.6074C16.198 20.6236 16.2733 20.6344 16.3271 20.6506C16.3593 20.629 16.3916 20.6074 16.4292 20.5967C16.4561 20.6236 16.4722 20.6506 16.483 20.6506C16.569 20.6398 16.6497 20.6074 16.7195 20.5643C16.8217 20.5104 16.8755 20.6344 16.9722 20.6074C17.0314 20.5913 17.0744 20.5805 17.1281 20.5643C17.2572 20.6344 17.4131 20.6452 17.5529 20.5913C17.6496 20.5643 17.7518 20.5319 17.8056 20.5643C17.9615 20.6344 18.1281 20.5913 18.2894 20.6074H18.6443C18.6873 20.6074 18.7142 20.6344 18.7303 20.6344C18.8002 20.6182 18.8593 20.6182 18.9131 20.6074C18.9668 20.5967 19.0206 20.5805 19.069 20.5643C19.1281 20.5859 19.1926 20.5967 19.2518 20.6074C19.3916 20.6074 19.5367 20.6236 19.6765 20.6074C19.7625 20.5913 19.8163 20.6614 19.9185 20.6236C19.9883 20.5805 20.1012 20.6236 20.2034 20.5697C20.2518 20.5589 20.3002 20.5643 20.3432 20.5859C20.44 20.6452 20.526 20.602 20.612 20.5589C20.7195 20.6236 20.8486 20.6344 20.9668 20.5859C21.0206 20.5697 21.1066 20.5589 21.1496 20.5859C21.2625 20.6452 21.3754 20.629 21.4883 20.6128C21.8002 20.5589 21.8163 20.5589 22.0959 20.6128C22.0528 20.4996 22.1066 20.4726 22.1926 20.4564ZM0.843304 4.52717L0.800294 4.48403C0.757283 4.51099 0.714272 4.52717 0.671262 4.55413L0.757283 4.64041C0.789541 4.60806 0.821799 4.57031 0.843304 4.52717ZM39.6979 4.65659C39.7033 4.6458 39.7086 4.62963 39.714 4.61345C39.6871 4.57031 39.671 4.54335 39.6441 4.50021L39.628 4.51638C39.6011 4.5757 39.6441 4.60266 39.6818 4.62963C39.671 4.64041 39.6871 4.64041 39.6979 4.65659ZM39.6871 18.2294C39.6603 18.2833 39.5742 18.2995 39.6441 18.3965C39.6549 18.3426 39.757 18.3264 39.6871 18.2294ZM4.32715 18.9088V19.0814C4.35403 19.0814 4.38629 19.076 4.41317 19.0652C4.38629 19.0113 4.35941 18.9627 4.32715 18.9088ZM18.5367 20.7423H18.7195C18.7088 20.7153 18.7034 20.6883 18.7034 20.656C18.6496 20.6829 18.5905 20.7099 18.5367 20.7423ZM4.37016 17.194H4.34328V17.3504H4.37016V17.194ZM16.612 22.5595H16.569C16.569 22.6026 16.5851 22.6458 16.5851 22.6889H16.612V22.5595ZM35.0581 22.7428V22.6997C35.0151 22.6997 34.9721 22.7159 34.9291 22.7159V22.7428H35.0581ZM14.4185 0.623039V0.596077H14.3217V0.623039H14.4185ZM4.37016 16.8759H4.34328V16.9783H4.37016V16.8759ZM37.8592 13.4139V13.3977H37.8001V13.4139H37.8592ZM37.8162 14.239V14.2551H37.8699V14.239H37.8162ZM26.0689 2.15449V2.17067H26.1227V2.15449H26.0689ZM25.8969 0.143112H25.8808V0.202429H25.8969V0.143112ZM17.9991 0.240176H17.983V0.2941H17.9991V0.240176ZM18.7948 20.7423H18.8109V20.6883H18.7948V20.7423ZM27.7679 22.1766V22.1605H27.7141V22.1766H27.7679ZM16.5851 22.5002H16.6013V22.4409H16.5851V22.5002ZM18.1443 0.299493H18.1604V0.245568H18.1443V0.299493ZM26.8216 2.18685V2.17067H26.7679V2.18685H26.8216ZM37.9882 7.80577H38.0044V7.75185H37.9882V7.80577ZM26.4668 22.5865V22.5703H26.413V22.5865H26.4668ZM4.44005 5.15269H4.45618V5.09338H4.44005V5.15269ZM26.5797 22.6026H26.5958V22.5487H26.5797V22.6026Z" fill="white"/>
<path d="M40.2405 0.677188C40.2748 0.446147 40.3092 0.239007 40.3436 0.0079668H40.5712V1.30657H40.4252V0.677188H40.3908C40.3908 0.740923 40.3779 0.780758 40.3779 0.844493C40.365 0.908228 40.3436 0.948063 40.3436 0.987898C40.3393 1.0596 40.3393 1.1313 40.3436 1.19504C40.3006 1.33844 40.2319 1.32251 40.1503 1.29861C40.1288 1.1313 40.1073 0.963997 40.0816 0.796692H40.073V1.29861H39.9141V0H40.1288C40.1632 0.223074 40.1975 0.430213 40.2405 0.677188Z" fill="white"/>
<path d="M38.9996 1.31429V0.298335H38.5938V0.0241895C38.5938 0.0161264 38.6034 0 38.6131 0H39.908V0.274146C39.7824 0.274146 39.6568 0.298335 39.5022 0.298335V1.31429H38.9996Z" fill="white"/>
<path d="M22.757 18.3805C22.5544 18.296 22.3681 18.3277 22.1819 18.3541C22.1216 18.37 22.0504 18.3964 22.023 18.3805C21.9354 18.3277 21.8477 18.3541 21.7656 18.3382C21.6889 18.3171 21.6122 18.3012 21.5355 18.296C21.4643 18.296 21.3766 18.3382 21.289 18.3647C21.2945 18.3171 21.289 18.2695 21.2725 18.2273C21.2616 18.1956 21.2452 18.1638 21.2287 18.1321V18.0899C21.2999 18.0476 21.2287 17.9894 21.2452 17.963C21.2835 17.9207 21.289 17.8573 21.2616 17.8098C21.2013 17.7252 21.2342 17.6407 21.289 17.572C21.2616 17.4874 21.2342 17.4187 21.2013 17.3341C21.2178 17.3183 21.2452 17.3077 21.2452 17.2919V15.8703C21.2452 15.8544 21.2178 15.828 21.2013 15.8174C21.2671 15.6377 21.278 15.4475 21.2287 15.2625C21.2232 15.2097 21.2232 15.1621 21.2287 15.1093C21.2452 14.9137 21.2452 14.7182 21.2452 14.5385C21.2452 14.5227 21.2178 14.4962 21.2013 14.4804C21.2178 14.4381 21.2616 14.4117 21.2616 14.3694C21.2452 14.121 21.3054 13.8673 21.2342 13.619C21.2178 13.5503 21.2616 13.4816 21.2616 13.397C21.289 13.1592 21.2178 12.9108 21.3054 12.673C21.2342 12.562 21.289 12.4352 21.2616 12.3242C21.2178 12.2291 21.1301 12.1445 21.0863 12.0441C21.026 11.949 20.9822 11.8486 20.9274 11.764C20.911 11.764 20.8946 11.7693 20.8836 11.7799V11.1668C20.8836 11.151 20.8672 11.1404 20.8672 11.151C20.922 10.9819 20.8946 10.8286 20.8946 10.6912V10.2579L20.9987 10.1575C20.9987 10.1152 21.0151 10.0729 21.0151 10.0306C21.1137 10.0993 21.2013 9.97777 21.289 10.0306C21.3328 9.94606 21.3602 9.87736 21.404 9.80866C21.3492 9.73996 21.2725 9.63955 21.2178 9.56028C21.3054 9.49157 21.2616 9.39116 21.2725 9.31189C21.289 9.22734 21.2452 9.11636 21.289 9.07408C21.3766 8.97367 21.2616 8.8944 21.289 8.83626C21.3492 8.75171 21.2342 8.69886 21.289 8.62487L21.3766 8.5826C21.3492 8.40292 21.289 8.2338 21.289 8.06998C21.2725 7.51508 21.289 6.95489 21.289 6.4C21.289 6.29959 21.3164 6.18861 21.2452 6.10933C21.3164 6.02478 21.2725 5.92965 21.289 5.82924C21.2945 5.72355 21.2945 5.61785 21.289 5.50687C21.289 5.46988 21.278 5.4276 21.2616 5.39589C21.3164 5.23207 21.3109 5.05767 21.2452 4.89384C21.2725 4.82514 21.3054 4.71416 21.3328 4.61375H22.9761C23.0747 4.61375 23.1953 4.70888 23.2774 4.65603C23.3651 4.58733 23.4527 4.65603 23.5239 4.61375C23.5951 4.58733 23.7102 4.5979 23.7978 4.61375C23.8362 4.61904 23.869 4.63489 23.8964 4.65603C23.9293 4.63489 23.9622 4.62432 23.995 4.61375H24.9591C25.0029 4.61375 25.0468 4.64017 25.0906 4.64017C25.1892 4.64017 25.2823 4.64017 25.3809 4.62432C25.4795 4.62432 25.6 4.58204 25.6986 4.60847C25.7698 4.62432 25.841 4.69302 25.9177 4.60847C25.9561 4.65074 26.0218 4.6666 26.0766 4.65074C26.1807 4.70888 26.2519 4.7353 26.3231 4.77758C26.3231 4.76172 26.3395 4.76172 26.3395 4.75115C26.4546 4.87799 26.5586 4.99954 26.6737 5.14223C26.6572 5.16865 26.6463 5.1845 26.6299 5.21093C26.6463 5.25321 26.6572 5.30077 26.6572 5.34833V7.40938C26.6572 7.47808 26.597 7.53622 26.6408 7.61549C26.6846 7.67891 26.6682 7.75818 26.6134 7.81102C26.712 7.90615 26.6408 8.00656 26.6134 8.11754C26.586 8.21795 26.5532 8.31308 26.5258 8.42405C26.5477 8.42934 26.5751 8.43462 26.597 8.43991C26.597 8.45576 26.6244 8.46633 26.6134 8.48219C26.597 8.57731 26.597 8.69358 26.586 8.7887C26.586 8.80456 26.5696 8.81513 26.586 8.81513C26.6737 8.92611 26.6134 9.03709 26.5586 9.16392C26.7449 9.40173 26.6463 9.66597 26.6737 9.94606C26.6299 9.97249 26.6025 9.99891 26.5586 10.0306C26.5751 10.0465 26.5915 10.0676 26.6025 10.0888C26.5313 10.1839 26.5751 10.3001 26.5586 10.3794C26.5039 10.4904 26.4436 10.5749 26.3834 10.6701L26.3998 10.6859C26.3395 10.7705 26.2683 10.8498 26.1971 10.9237H25.967C25.9835 10.966 26.0109 11.0083 26.0382 11.0506C26.1259 11.1087 26.2245 11.1616 26.3395 11.2303C26.3286 11.2514 26.3121 11.2672 26.2957 11.2831C26.356 11.3518 26.3998 11.4364 26.4546 11.5051C26.5258 11.5738 26.6134 11.616 26.6737 11.6742C26.7887 12.1498 26.7285 12.636 26.7449 13.1063C26.7613 13.5767 26.7449 14.0523 26.7449 14.5279V16.3512C26.7394 16.441 26.7285 16.5256 26.7175 16.6154C26.7285 16.6418 26.7449 16.663 26.7613 16.6841C26.7887 16.737 26.6901 16.7951 26.7613 16.8638C26.8051 16.9061 26.7613 17.0012 26.7778 17.0858C26.7942 17.2549 26.7339 17.3923 26.6792 17.5297C26.6244 17.6671 26.5477 17.7992 26.46 17.9207C26.3176 18.0899 26.1423 18.1586 25.967 18.2537C25.8739 18.296 25.7698 18.3118 25.6658 18.3065C25.2878 18.3065 24.9153 18.3752 24.5428 18.3488C24.2963 18.4334 24.0662 18.3065 23.8197 18.3488C23.7485 18.3647 23.6773 18.3224 23.6006 18.3911C23.5842 18.4069 23.5294 18.3911 23.4856 18.3752C23.2829 18.3065 23.0802 18.3488 22.8666 18.3594C22.7844 18.3541 22.768 18.37 22.757 18.3805ZM26.46 15.9601C26.46 15.9812 26.471 16.0024 26.4874 16.0182L26.5039 16.0077L26.46 15.9601C26.4491 15.9495 26.4327 15.9337 26.4327 15.9178L26.4162 15.9337C26.4162 15.9601 26.4327 15.9601 26.46 15.9601ZM23.2446 8.60374C23.2446 8.5826 23.2336 8.56146 23.2172 8.55089L23.2007 8.56674C23.2172 8.5826 23.2281 8.59317 23.3432 8.51389C23.3158 8.56674 23.2117 8.5826 23.2446 8.66715C23.2993 8.69358 23.3432 8.73585 23.387 8.75171C23.3158 8.84683 23.3596 8.93139 23.387 9.0318C23.4144 9.11636 23.3705 9.21148 23.3596 9.31189C23.3651 9.31718 23.3706 9.32775 23.376 9.33832C23.3925 9.57613 23.3925 9.82451 23.4034 10.0359C23.5185 10.0518 23.6335 10.0888 23.7321 10.0623C23.7485 10.1046 23.7595 10.131 23.7759 10.1733C23.8252 10.1575 23.8745 10.1416 23.9183 10.1205C24.0115 10.1257 24.1046 10.1416 24.1922 10.1627C24.3073 10.1046 24.3785 10.0623 24.4661 10.0253C24.3785 9.84565 24.4113 9.66597 24.4113 9.481C24.4113 9.43873 24.4278 9.37002 24.3949 9.3436C24.3401 9.29075 24.3675 9.23262 24.3511 9.19034C24.3511 9.14807 24.3346 9.07936 24.3675 9.05294C24.4552 8.98424 24.2963 8.95781 24.3511 8.91554C24.4387 8.84683 24.3949 8.76228 24.3949 8.69358C24.4223 8.48219 24.3511 8.26023 24.4387 8.05412C24.4552 8.01184 24.4223 7.959 24.4223 7.91672C24.3785 7.74761 24.3675 7.56793 24.4387 7.43052C24.3237 7.13986 24.4552 6.87562 24.4552 6.62196C24.3675 6.57968 24.2963 6.5374 24.2087 6.49512C24.1374 6.51098 24.0498 6.4687 23.9622 6.5374C23.9074 6.57968 23.8197 6.49512 23.7321 6.5374C23.6609 6.56382 23.5458 6.5374 23.4418 6.5374C23.4253 6.57968 23.3979 6.62196 23.3815 6.66423C23.3651 6.74879 23.3651 6.83335 23.3815 6.91262C23.4472 7.46223 23.3158 7.99071 23.2446 8.60374ZM24.4113 14.9454V14.6283C24.4168 14.5227 24.4004 14.4222 24.3675 14.3218C24.3401 14.269 24.3511 14.1844 24.3675 14.0999C24.3839 14.0312 24.3949 13.9466 24.4113 13.8779C24.4552 13.6401 24.3401 13.4181 24.4113 13.1803C24.4278 13.1275 24.3839 13.0693 24.3839 13.0429C24.4387 12.8051 24.2853 12.5832 24.4278 12.377C24.3839 12.2925 24.3566 12.2079 24.3127 12.1128C24.2415 12.1339 24.1648 12.1551 24.0936 12.1815C24.0772 12.1657 24.0498 12.1551 24.0224 12.1234C23.995 12.1604 23.9676 12.2026 23.9512 12.2502C23.8636 12.1974 23.765 12.1974 23.7485 12.097C23.6937 12.1815 23.6061 12.1392 23.5458 12.1498L23.4144 12.2766C23.4199 12.3295 23.4199 12.377 23.4144 12.4299C23.3432 12.525 23.3596 12.6096 23.3979 12.7206C23.4253 12.7945 23.4308 12.8791 23.4144 12.9584C23.3432 13.1433 23.3432 13.3442 23.4144 13.5291C23.4253 13.582 23.4144 13.6348 23.387 13.6824C23.3541 13.7617 23.3651 13.8515 23.4144 13.9202C23.3377 14.0047 23.3377 14.1316 23.4144 14.2109C23.3158 14.3218 23.3432 14.4592 23.3596 14.5596C23.4144 14.8926 23.4144 15.0617 23.3596 15.3524C23.3432 15.4633 23.3322 15.5743 23.387 15.6589C23.3432 15.8808 23.2993 16.0922 23.272 16.2983L23.5732 16.5097C23.6171 16.4674 23.6609 16.441 23.7047 16.3987C23.8197 16.5097 23.9512 16.441 24.0772 16.4146C24.0991 16.4463 24.121 16.4833 24.1484 16.5097H24.3511C24.3949 16.4146 24.4497 16.33 24.4935 16.2296C24.4661 16.2032 24.4387 16.1768 24.4223 16.1451V15.0987C24.4661 15.0723 24.4935 15.0564 24.5538 15.0141C24.4825 14.9877 24.4552 14.9613 24.4113 14.9454ZM21.1082 10.2156C21.0534 10.242 21.0096 10.2737 20.9329 10.316H21.1082V10.2156ZM21.3711 13.7088H21.415C21.415 13.6824 21.3985 13.656 21.3985 13.6242H21.3711V13.7088ZM21.3711 9.43873H21.3985V9.3436H21.3711V9.43873ZM24.5866 7.32483H24.614V7.2297H24.5866V7.32483ZM24.7729 15.1991V15.215H24.8277V15.1991H24.7729Z" fill="white"/>
<path d="M15.5827 18.3394C15.5067 18.3552 15.4133 18.3235 15.3373 18.3816C15.2614 18.4133 15.1738 18.3975 15.1212 18.3394C15.0686 18.4027 14.9752 18.4133 14.9051 18.3658C14.8292 18.3077 14.7824 18.408 14.7182 18.3816C14.6656 18.3552 14.6072 18.3394 14.5488 18.3394C14.5196 18.3394 14.4904 18.3658 14.4553 18.3816C14.2859 18.2708 14.1049 18.1599 13.9296 18.049C13.8478 17.991 13.7953 17.9065 13.7778 17.8115C13.7602 17.727 13.7486 17.6425 13.731 17.5633C13.6668 17.3891 13.6317 17.2044 13.6259 17.0196V14.5859C13.62 14.5014 13.6434 14.4117 13.6843 14.3378C13.7135 14.2955 13.7427 14.2533 13.731 14.2111C13.7135 14.1424 13.6726 14.0738 13.6843 14.0157C13.696 13.9577 13.7427 13.9049 13.731 13.8362C13.7135 13.7254 13.7602 13.5987 13.6843 13.4878C13.6668 13.472 13.6843 13.4614 13.6843 13.4456C13.6843 13.3611 13.6668 13.2661 13.7018 13.208C13.7661 13.1235 13.6259 13.0972 13.6726 13.0127C13.7193 12.9441 13.6551 12.8596 13.7018 12.7751C13.731 12.717 13.6726 12.6379 13.6726 12.564C13.6901 12.3845 13.6259 12.1997 13.7193 12.0202C13.6259 11.8513 13.6901 11.6718 13.6726 11.4923C13.6726 11.4236 13.6434 11.355 13.7193 11.2811C13.7369 11.2653 13.7193 11.2125 13.7018 11.1702C13.7018 11.1439 13.6726 11.128 13.6726 11.1122C13.6434 11.0435 13.7193 10.9749 13.6901 10.9063C13.6551 10.8377 13.6668 10.7585 13.7193 10.6951C13.7486 10.6529 13.7018 10.5684 13.6901 10.484L13.7369 10.4417C13.6434 10.3836 13.6609 10.2728 13.6901 10.22C13.7369 10.125 13.7077 10.0405 13.6901 9.95603C13.6726 9.80294 13.6726 9.64984 13.6901 9.49674C13.7077 9.35948 13.6317 9.20639 13.7369 9.06385C13.7486 9.0269 13.7427 8.98466 13.7193 8.95299C13.6668 8.86852 13.6609 8.76294 13.7018 8.67319C13.731 8.60456 13.7661 8.54649 13.7018 8.47786C13.6551 8.42507 13.7486 8.3406 13.7193 8.30893C13.6726 8.25613 13.6901 8.19806 13.6901 8.13999C13.6901 8.07136 13.6726 7.97106 13.7077 7.9605C13.8011 7.91827 13.6317 7.86547 13.7252 7.82324C13.7427 7.77573 13.7427 7.73349 13.7427 7.68598V7.51705C13.7369 7.46954 13.7135 7.4273 13.6843 7.39035C13.7018 7.37451 13.7135 7.34811 13.731 7.33228C13.7135 7.3006 13.696 7.2742 13.6668 7.24781C13.6901 7.22669 13.7135 7.20558 13.731 7.17918C13.731 7.11055 13.6084 7.04192 13.7135 6.94162C13.7602 6.89938 13.7427 6.80436 13.7602 6.71989L13.6668 6.63542C13.6843 6.49816 13.6376 6.35563 13.7135 6.21837C13.7427 6.16558 13.7135 6.09167 13.696 6.01248C13.6434 5.86994 13.6551 5.71684 13.7252 5.57959C13.7077 5.54263 13.6901 5.50568 13.6785 5.46872C13.6609 5.42649 13.6609 5.3737 13.696 5.35786C13.7719 5.31563 13.6785 5.28923 13.696 5.247C13.7135 5.23116 13.7252 5.21004 13.7252 5.18893C13.7018 5.10446 13.6843 5.02527 13.6785 4.9408C13.6785 4.87217 13.7252 4.80354 13.7544 4.69268L13.8654 4.59766C13.9939 4.61877 14.1224 4.63461 14.2509 4.63989C14.3736 4.64517 14.4904 4.67157 14.6014 4.70852C14.6773 4.69268 14.724 4.53959 14.8467 4.62405C14.8642 4.66101 14.8817 4.69796 14.8934 4.73492C14.946 4.69796 14.9986 4.65573 15.0453 4.60821C15.1855 4.60821 15.3373 4.59238 15.4775 4.66629C15.5535 4.62405 15.6177 4.73492 15.7112 4.66629C15.7579 4.62405 15.863 4.66629 15.9565 4.66629C16.0207 4.70852 16.0967 4.75075 16.2018 4.81938C16.1493 4.8405 16.0908 4.85634 16.0324 4.87217C16.0792 5.13613 16.1376 5.40009 16.05 5.67989C16.1142 6.11278 16.1142 6.37674 16.0324 6.49816C16.0558 6.56679 16.0733 6.63542 16.0792 6.70933V8.15583C16.0792 8.22446 16.0616 8.28253 16.0616 8.35116C16.0616 8.41979 16.0733 8.4937 16.0908 8.56233C16.1084 8.63096 16.0616 8.71542 16.1376 8.77349C16.0149 8.8738 16.1551 8.95299 16.1376 9.05329C16.1317 9.14832 16.1317 9.24862 16.1376 9.34365C16.1376 9.39644 16.1668 9.45451 16.1084 9.49674C16.0908 9.51258 16.0792 9.56537 16.0908 9.58121C16.1843 9.70791 16.1376 9.82933 16.1376 9.95603V11.4289C16.1376 11.5134 16.1668 11.6084 16.12 11.6665C16.0616 11.751 16.1785 11.7774 16.1493 11.8618C16.12 11.9304 16.1493 12.0308 16.1317 12.0994C16.12 12.1627 16.1084 12.2314 16.085 12.2947C16.1025 12.3106 16.1142 12.3211 16.1142 12.3369C16.085 12.4056 16.0675 12.4742 16.0383 12.5481C16.0675 12.6484 16.1317 12.7593 16.1317 12.8807V14.1688C16.1317 14.2797 16.085 14.4064 16.085 14.5173C16.0675 14.6281 16.1142 14.7548 16.0675 14.8657C16.0091 15.0346 16.0383 15.1719 16.0675 15.325C16.085 15.3936 16.05 15.4622 16.0208 15.5467C16.1609 15.6576 15.974 15.7684 15.9623 15.8951C15.9799 15.9215 15.9915 15.9637 16.0208 16.0218C16.0032 16.0429 15.9857 16.0641 15.974 16.0904L16.0208 16.1327C16.0032 16.1485 15.9857 16.1696 15.974 16.1855C16.0792 16.2541 16.1726 16.3227 16.2953 16.4072C16.4472 16.2805 16.6458 16.2435 16.8619 16.2541C17.078 16.2647 17.078 16.2541 17.1539 16.2277C17.2007 16.2488 17.2474 16.2699 17.2941 16.2805C17.2649 16.3386 17.2474 16.365 17.2182 16.4178V16.3914C17.189 16.3914 17.1422 16.4072 17.1072 16.4072V16.4336C17.1481 16.4336 17.1831 16.4283 17.2182 16.4072C17.2649 16.3808 17.3175 16.3597 17.3701 16.3544C17.3701 16.3702 17.3876 16.4072 17.3876 16.4389L17.3701 16.423C17.3525 16.4389 17.3408 16.4494 17.3233 16.4494L17.3408 16.4653C17.3584 16.4494 17.3701 16.4389 17.3701 16.423C17.4343 16.4389 17.4986 16.4072 17.5219 16.3491C17.5219 16.3439 17.5278 16.3333 17.5278 16.328C17.5278 16.1908 17.6212 16.0799 17.5862 15.9268C17.5803 15.8054 17.5803 15.684 17.5862 15.5625C17.5862 15.5203 17.6154 15.4939 17.6329 15.4358C17.5862 15.325 17.5394 15.1983 17.6154 15.0768C17.6271 15.0399 17.6329 15.0029 17.6329 14.966V14.4539C17.6446 14.3694 17.6212 14.2797 17.5745 14.2058C17.6679 14.1372 17.5278 14.0685 17.5745 13.9946C17.6504 13.9418 17.7147 13.9524 17.7731 14.0368C17.8023 13.8574 17.6037 13.8996 17.5745 13.7887V13.4561L17.7614 13.3294C17.738 13.2925 17.7147 13.2608 17.6855 13.2344C17.703 13.208 17.7322 13.1816 17.7322 13.1658C17.7147 13.0813 17.6738 13.0021 17.7147 12.9599C17.7906 12.8754 17.6387 12.849 17.6855 12.7646C17.7147 12.7118 17.6563 12.6115 17.7614 12.5692C17.7439 12.5428 17.703 12.5164 17.703 12.4848C17.7205 12.263 17.5336 12.0413 17.6855 11.8196C17.7147 11.7615 17.6271 11.7193 17.6679 11.6507C17.6972 11.5926 17.7147 11.5503 17.6504 11.4976C17.6329 11.4817 17.6212 11.4448 17.6329 11.4289C17.6972 11.3022 17.6329 11.165 17.6329 11.0383C17.6329 10.9696 17.6621 10.901 17.5862 10.8271C17.557 10.8007 17.5862 10.7162 17.6037 10.674C17.6037 10.6318 17.6504 10.5895 17.6329 10.5631C17.5394 10.4364 17.5862 10.3256 17.6329 10.1989C17.6504 10.1725 17.6329 10.1302 17.6329 10.1038V8.79461C17.6329 8.73126 17.6212 8.66263 17.6037 8.59928C17.6504 8.33532 17.6621 8.08192 17.5862 7.8338C17.6037 7.81796 17.6154 7.79157 17.6504 7.77573C17.5394 7.59624 17.5745 7.38507 17.6037 7.20558C17.6212 7.05248 17.6796 6.89938 17.6329 6.76212C17.5745 6.5404 17.6037 6.32923 17.5862 6.12334C17.5862 6.05471 17.557 5.98608 17.6329 5.91217C17.6504 5.8805 17.6504 5.84355 17.6329 5.81715C17.5394 5.66405 17.6037 5.49512 17.6037 5.33146C17.6037 5.17837 17.6972 5.02527 17.6037 4.82994C17.6504 4.8405 17.6972 4.85106 17.7439 4.85634L17.8373 4.89857C17.8432 4.87217 17.8549 4.8405 17.8665 4.8141C17.8257 4.80354 17.7789 4.78243 17.7439 4.75603C17.7731 4.7138 17.8023 4.67157 17.8373 4.62933C18.0827 4.76659 18.3747 4.60294 18.6376 4.74019C18.7135 4.7138 18.7894 4.63989 18.8712 4.72436C18.9472 4.66629 19.0406 4.69796 19.1165 4.68212C19.21 4.65573 19.2684 4.74019 19.3794 4.69796C19.467 4.67684 19.5546 4.67684 19.6422 4.69796C19.724 4.71908 19.8058 4.74019 19.8876 4.76659C19.8876 4.79299 19.9051 4.80882 19.9051 4.83522C19.9518 4.85106 19.9986 4.85106 20.057 4.86162C20.0278 4.94608 20.0102 5.02527 19.9986 5.10974C20.0394 5.13613 20.0862 5.15197 20.1387 5.16781C20.0161 5.3473 19.9401 5.51624 20.1212 5.69573C20.1037 5.71157 20.0862 5.73268 20.0745 5.7538C20.092 5.78019 20.1212 5.80659 20.1504 5.84882C20.092 5.87522 20.0453 5.90162 20.0102 5.91745C20.0336 5.95969 20.057 6.00192 20.0862 6.04415C20.0511 6.05999 20.0161 6.06527 19.9752 6.07055C19.9752 6.08639 19.9577 6.09695 19.9577 6.11278C19.9577 6.20781 19.9401 6.30811 20.0161 6.39258C20.1387 6.52984 20.1271 6.69877 20.1271 6.86771C20.1271 6.9205 20.0803 6.96273 20.0803 7.0208C20.0803 7.06304 20.1271 7.13167 20.1095 7.13167C20.0336 7.18446 20.1738 7.21613 20.1271 7.26893C20.1095 7.28476 20.1271 7.31116 20.1271 7.33756C20.1095 7.40619 20.0803 7.49065 20.1095 7.51705C20.1738 7.58568 20.0511 7.64375 20.1271 7.72294C20.1738 7.76517 20.1271 7.8602 20.1271 7.92882V8.88964C20.1271 8.95827 20.0979 9.04273 20.1738 9.11136C20.1913 9.14832 20.1855 9.19055 20.1563 9.22223C20.0628 9.30669 20.1563 9.35948 20.1738 9.44395C20.1563 9.47035 20.1329 9.50202 20.1095 9.52842C20.1212 9.54954 20.1387 9.56537 20.1563 9.58121C20.1387 9.71847 20.1387 9.82933 20.1271 9.92964C20.0979 10.0405 20.2789 10.1355 20.1271 10.2358C20.2205 10.3203 20.1855 10.4153 20.1563 10.4998C20.1271 10.5473 20.1271 10.6054 20.1563 10.6529C20.1855 10.7004 20.1972 10.7532 20.1855 10.806C20.1095 10.8746 20.2322 10.9327 20.1855 10.9855C20.1387 11.0435 20.1271 11.1122 20.1387 11.1808C20.1329 11.2547 20.1329 11.3286 20.1387 11.4025C20.2147 11.5979 20.1855 11.7774 20.1855 11.9727C20.1855 12.0255 20.2147 12.0835 20.1387 12.1258C20.1212 12.1416 20.1212 12.1944 20.1212 12.2208C20.1972 12.4056 20.1972 12.6062 20.1212 12.791C20.1154 12.8437 20.1154 12.8913 20.1212 12.9441C20.1037 13.0127 20.1504 13.0971 20.0745 13.1816C20.0453 13.208 20.057 13.2925 20.092 13.3347C20.1387 13.435 20.1387 13.5512 20.092 13.6567C20.0803 13.7148 20.092 13.7729 20.1212 13.8257C20.1037 13.8785 20.092 13.9524 20.0745 14.0052C20.0453 14.0738 20.1329 14.116 20.1037 14.2005C20.0745 14.2691 20.0862 14.3378 20.0745 14.4064V14.8234C20.057 14.9765 20.092 15.1138 20.0278 15.2669C19.9869 15.3672 19.9986 15.4781 20.057 15.5731C20.0687 15.5836 20.0745 15.5995 20.0745 15.6153C20.0745 15.7103 19.9694 15.7948 20.057 15.9215C20.1212 15.9901 20.0745 16.1327 20.0745 16.2277C20.0745 16.3386 20.1037 16.4653 20.0745 16.5761C20.0102 16.7979 20.0453 17.0196 20.0278 17.2413C20.0102 17.405 19.9168 17.5475 19.8408 17.6848C19.7824 17.8115 19.6072 17.9065 19.4729 18.0068C19.2626 18.1441 19.0056 18.2127 18.7486 18.2021C18.6551 18.2021 18.55 18.1757 18.4565 18.2444C18.439 18.218 18.4098 18.1916 18.4098 18.1757C18.2229 18.0913 18.1002 18.218 17.9483 18.1916C17.8081 18.1757 17.6563 18.2338 17.5628 18.1652C17.4577 18.181 17.3467 18.2074 17.2708 18.181C17.1773 18.1388 17.0663 18.1282 16.9612 18.1546C16.7451 18.2232 16.5172 18.181 16.3011 18.1968C16.2544 18.1968 16.2252 18.2232 16.1785 18.2391C16.0383 18.1863 15.9156 18.1863 15.717 18.2391C15.6936 18.3922 15.6119 18.4344 15.5827 18.3394C15.6002 18.3341 15.6119 18.3183 15.6294 18.3077L15.6119 18.2919C15.6119 18.313 15.6002 18.3235 15.5827 18.3394ZM13.953 6.82019C13.953 6.79908 13.9413 6.77796 13.9238 6.76212L13.9063 6.77796C13.9238 6.79908 13.9588 6.80436 13.9822 6.7938C13.9472 6.83603 13.9063 6.87299 13.8595 6.90466C13.9063 6.8941 13.953 6.88882 13.9997 6.88882C14.0172 6.85715 14.0056 6.83075 13.953 6.82019ZM19.5955 4.98304C19.6598 5.00943 19.7007 5.02527 19.7941 5.0675C19.7357 4.97248 19.7182 4.93024 19.689 4.87217C19.6715 4.91441 19.6364 4.95136 19.5955 4.98304ZM15.7579 4.80355C15.7696 4.83522 15.7754 4.86689 15.7754 4.89857C15.7988 4.86162 15.8222 4.82994 15.8514 4.80355H15.7579ZM15.9682 4.85634H15.9273C15.9273 4.88273 15.9448 4.91441 15.9448 4.9408H15.974V4.85634H15.9682ZM15.1679 4.89857H15.1855V4.84578H15.1679V4.89857ZM14.3268 6.91522H14.3093V6.97329H14.3268V6.91522Z" fill="white"/>
<path d="M31.3897 16.3968C31.4884 16.4231 31.6201 16.3547 31.7079 16.4389C31.7463 16.3863 31.7902 16.3442 31.8396 16.302V16.1335C31.8561 16.0651 31.8671 15.9966 31.8835 15.9229C31.8561 15.9071 31.8287 15.9071 31.7957 15.8966L31.7793 15.8808C31.7573 15.7597 31.7573 15.6386 31.7628 15.5175C31.7793 15.4069 31.8177 15.3069 31.7354 15.2016C31.7189 15.1647 31.7244 15.1226 31.7518 15.091C31.7957 15.0383 31.8122 14.9804 31.7518 14.9225C31.6805 14.854 31.8232 14.7698 31.7354 14.7014C31.7902 14.5908 31.7079 14.4644 31.7354 14.3538C31.7628 14.2275 31.7079 14.0906 31.7793 13.9537C31.7902 13.9063 31.7848 13.8589 31.7628 13.8168C31.7189 13.7325 31.7079 13.6325 31.7354 13.5377C31.7902 13.2744 31.7902 13.2586 31.7354 13.0533C31.7079 12.9427 31.6915 12.8321 31.7793 12.7321C31.6476 12.5215 31.8067 12.2582 31.664 12.0371L31.5762 12.0792C31.5049 11.9265 31.3019 11.9528 31.2141 11.758C31.2141 11.7159 31.3458 11.6474 31.2305 11.5632C31.2854 11.4368 31.1592 11.2999 31.247 11.1735C31.258 11.1525 31.2635 11.1262 31.2635 11.1051C31.2799 10.9945 31.1647 10.8945 31.247 10.7734C31.3019 10.6891 31.2196 10.5522 31.3019 10.4522C31.3019 10.2416 31.3019 10.231 31.3732 10.0362C31.4171 10.052 31.472 10.052 31.5159 10.0625C31.6915 10.0468 31.8616 10.0204 32.0481 10.0099C32.0756 10.0362 32.0975 10.0625 32.1195 10.0941C32.1798 10.0678 32.2402 10.0362 32.2951 9.9941C32.4377 10.0625 32.5969 10.0678 32.745 10.0099C32.8164 10.0941 32.9206 10.052 33.0194 10.0362C33.0688 10.0204 33.1127 10.0099 33.1621 10.0099C33.3486 10.052 33.3486 10.052 33.5681 10.0099C33.6504 10.0046 33.7327 10.0046 33.815 10.0099C33.7986 10.052 33.7876 10.0941 33.7711 10.1363C33.9138 10.3153 34.029 10.5259 33.9138 10.7892C33.9358 10.8208 33.9522 10.8629 33.9577 10.8997C33.9412 11.0103 33.8864 11.1104 33.9577 11.2315C34.0126 11.342 33.9742 11.4789 33.9742 11.6211V11.9844C33.9742 12.0687 33.9906 12.1476 33.9303 12.2319C33.8864 12.3056 33.8864 12.3951 33.9303 12.4688C33.9851 12.5531 33.9742 12.6373 33.9742 12.7163V13.7009C33.9742 13.7852 33.9906 13.8694 33.9303 13.9484C33.9028 13.9905 33.9467 14.0748 33.9577 14.1853C33.9412 14.2222 33.9303 14.2591 33.9303 14.2959C33.9467 14.4644 33.9138 14.6276 33.9577 14.7961C34.0126 14.9488 34.0016 15.1226 33.9303 15.27C33.9028 15.3279 33.9303 15.4069 33.9138 15.4912C33.9138 15.5333 33.8864 15.5754 33.8699 15.6597C33.9083 15.7281 33.9412 15.8018 33.9577 15.8808C33.9687 15.9493 33.9577 16.023 33.9303 16.0914C33.8919 16.1704 33.8919 16.2599 33.9303 16.3389C33.9467 16.3652 33.9467 16.3915 33.9577 16.4231C33.9851 16.5179 33.826 16.6022 33.9577 16.7022C33.9412 16.8022 33.9851 16.897 33.9138 16.9813C33.9851 17.076 33.9412 17.1761 33.8973 17.2867C33.8699 17.3814 33.8699 17.5078 33.8425 17.6078C33.815 17.6868 33.7711 17.7658 33.7108 17.829C33.6394 17.8974 33.5681 17.9817 33.4913 18.0659V18.0923C33.0578 18.3134 32.6078 18.4398 32.103 18.3292C31.9439 18.424 31.7134 18.3029 31.5269 18.3977C31.483 18.3766 31.4391 18.3555 31.3952 18.3292C31.2964 18.345 31.1757 18.3713 31.0604 18.3977L30.9178 18.3292L30.9013 18.345C30.8684 18.3924 30.808 18.4029 30.7586 18.3713C30.7532 18.3661 30.7477 18.3608 30.7422 18.3555C30.6818 18.3029 30.6544 18.4135 30.5995 18.3819C30.5446 18.3555 30.4843 18.345 30.4239 18.3397C30.3361 18.4029 30.2154 18.3977 30.1331 18.3239C30.0179 18.3766 29.9026 18.4082 29.7874 18.3239C29.6722 18.3766 29.5405 18.4187 29.4143 18.3239C29.3868 18.3345 29.3649 18.3555 29.3429 18.3766C28.6954 18.1976 28.7668 18.1554 28.5034 17.9185C28.5308 17.75 28.3168 17.7237 28.3168 17.6394C28.2729 17.3604 28.2455 17.1392 28.2016 16.8918C28.3607 16.7391 28.1303 16.5284 28.229 16.3494C28.2126 16.281 28.1851 16.1967 28.2126 16.1388C28.2674 15.9861 28.24 15.8492 28.229 15.6965C28.229 15.6807 28.2016 15.6702 28.2016 15.6702C28.218 15.6439 28.2455 15.6175 28.2455 15.5859C28.218 15.3227 28.3004 15.0594 28.2016 14.7961C28.2729 14.6276 28.1303 14.4644 28.1851 14.2959C28.2565 14.1011 28.229 13.9221 28.229 13.7273C28.2455 13.5482 28.1412 13.3797 28.1687 13.2165C28.1961 13.0901 28.1961 12.9532 28.229 12.8269C28.2455 12.7426 28.1687 12.6742 28.2126 12.5899C28.24 12.5215 28.1961 12.4214 28.2674 12.3688C28.24 12.2161 28.2949 12.0634 28.2235 11.8949C28.1741 11.7791 28.1851 11.6527 28.251 11.5474C28.2345 11.4368 28.2235 11.3526 28.2071 11.2683C28.3388 11.142 28.3223 11.0051 28.3058 10.8682C28.2729 10.8524 28.24 10.8418 28.2071 10.8418C28.229 10.7839 28.2455 10.7207 28.251 10.6628C28.251 10.6101 28.2784 10.5364 28.2071 10.4838C28.3058 10.4417 28.1522 10.389 28.2345 10.3153C28.251 10.3153 28.2619 10.31 28.2784 10.2995C28.2784 10.289 28.2839 10.2784 28.2949 10.2732C28.2784 10.2468 28.251 10.231 28.251 10.2205C28.2784 9.98357 28.1961 9.76242 28.1961 9.52548V8.81991C28.1961 8.77779 28.2235 8.75146 28.24 8.70934C28.1687 8.66722 28.2126 8.58297 28.1961 8.51452V8.29338C28.1961 8.24072 28.1412 8.14068 28.1522 8.12488C28.251 8.04064 28.1248 7.99851 28.1357 7.93006C28.1522 7.91427 28.1632 7.88794 28.1906 7.86161C28.1028 7.76684 28.1632 7.62467 28.1193 7.52989C28.0644 7.40352 28.0644 7.25609 28.1193 7.12972C28.1357 7.1034 28.1193 7.04548 28.1193 7.00336V6.43469C28.1248 6.20302 28.1412 5.97134 28.1796 5.73966C28.2016 5.63435 28.2126 5.52905 28.2235 5.41847C28.251 5.26578 28.3552 5.1552 28.454 5.04463C28.5418 4.94985 28.6406 4.86561 28.7448 4.76556C28.8162 4.75503 28.882 4.72871 28.9314 4.68132C29.0631 4.57075 29.0741 4.58128 29.2332 4.65499H29.2606C29.2935 4.61813 29.3429 4.59707 29.3923 4.60234H30.2977L30.3142 4.61813L30.3581 4.66026C30.4568 4.64446 30.5337 4.56548 30.6489 4.64446C30.6928 4.67079 30.808 4.66026 30.8794 4.62866C30.9781 4.60234 31.055 4.60234 31.1263 4.65499C31.2251 4.60234 31.3293 4.57075 31.4281 4.62866C31.5159 4.67079 31.5708 4.68658 31.6586 4.62866C31.686 4.60234 31.7573 4.61287 31.8012 4.61287C31.889 4.62867 31.9878 4.57075 32.0591 4.65499C32.1305 4.60234 32.2347 4.61287 32.317 4.61287H32.5914C32.6682 4.61287 32.7395 4.62866 32.8109 4.65499C32.8657 4.68132 32.9865 4.6392 33.0304 4.67079C33.1017 4.71291 33.1895 4.68658 33.2334 4.71291C33.3925 4.83928 33.5956 4.90773 33.6669 5.11308C33.6888 5.17627 33.7218 5.22892 33.7657 5.28157C33.7492 5.41847 33.7931 5.57117 33.7382 5.72387L33.7657 5.75019C33.7931 5.81864 33.6669 5.84497 33.7382 5.92922C33.7657 5.95554 33.7108 6.03979 33.7218 6.09771C33.7382 6.2504 33.6779 6.4189 33.7657 6.56633C33.7821 6.60845 33.7821 6.65057 33.7657 6.6927C33.7437 6.75062 33.7272 6.8138 33.7218 6.87172C33.7218 6.94017 33.6943 7.00862 33.7492 7.07707C33.7766 7.1034 33.7218 7.18764 33.7218 7.24556C33.7218 7.31401 33.7382 7.38246 33.7382 7.45091C33.7382 7.51936 33.7108 7.58781 33.7218 7.66153C33.7382 7.7879 33.6779 7.909 33.6504 8.05117C33.5626 8.03537 33.4639 8.02484 33.3486 8.00904C33.2169 8.07749 33.0468 8.03537 32.8877 8.03537C32.7121 8.05117 32.5255 8.01958 32.3554 8.03537C32.1798 8.05117 32.0372 7.98272 31.8616 7.98272C31.7738 7.91427 31.7463 7.84582 31.8341 7.76157L31.7793 7.70365C31.8067 7.68786 31.8341 7.67733 31.8671 7.67733C31.8671 7.66153 31.8726 7.651 31.8835 7.6352C31.8396 7.57728 31.8396 7.52463 31.8287 7.45618C31.8287 7.34561 31.8561 7.21924 31.7848 7.10866C31.7683 7.09287 31.7848 7.04021 31.8012 7.02442C31.8726 6.94017 31.8451 6.88752 31.7848 6.84539C31.8122 6.76115 31.8287 6.67164 31.8396 6.58212H31.664C31.6201 6.54 31.5762 6.51367 31.5323 6.47155C31.5159 6.48735 31.4884 6.48735 31.4775 6.49788C31.3897 6.56106 31.2799 6.58739 31.1757 6.58212C31.0165 6.56633 30.8464 6.59792 30.6818 6.54C30.5831 6.51367 30.4623 6.56633 30.3526 6.58212C30.3087 6.76115 30.3526 6.91384 30.4075 7.06654C30.4239 7.11919 30.4349 7.17711 30.4349 7.23503C30.3745 7.54042 30.3636 7.55622 30.4349 7.83002V7.89847C30.4623 7.98272 30.3197 8.05117 30.4184 8.16174C30.4623 8.21966 30.4349 8.33023 30.4349 8.42501V8.71461C30.4349 8.77253 30.4623 8.84098 30.391 8.89363C30.3745 8.90943 30.3636 8.96208 30.3745 8.97788C30.4623 9.07792 30.4184 9.19902 30.4184 9.29907C30.4349 9.49388 30.3745 9.6887 30.4733 9.86773V9.90985L30.4294 10.1994C30.5282 10.2837 30.4733 10.3943 30.4733 10.5048C30.4898 10.6417 30.3855 10.7839 30.4184 10.9208C30.4459 11.0314 30.391 11.142 30.4623 11.2367C30.4898 11.2789 30.4788 11.3473 30.4623 11.4052C30.4404 11.4526 30.4239 11.5053 30.4184 11.5579C30.4184 11.6106 30.4623 11.6527 30.4623 11.7106C30.4623 11.7949 30.391 11.9054 30.4184 11.9581C30.4733 12.0423 30.4459 12.1266 30.4623 12.2056C30.4623 12.2319 30.4349 12.2582 30.4349 12.2898C30.4349 12.3425 30.4514 12.4004 30.4514 12.5004C30.3965 12.5531 30.3965 12.6426 30.4514 12.6952C30.4568 12.7005 30.4623 12.7005 30.4623 12.7058C30.3745 12.8743 30.391 13.027 30.4459 13.2165C30.402 13.3008 30.3581 13.4113 30.4623 13.5377C30.4075 13.6009 30.391 13.6904 30.4184 13.7746C30.4623 13.901 30.4733 14.4276 30.4349 14.5645C30.4349 14.5802 30.4239 14.5908 30.4075 14.5908C30.4953 14.675 30.4623 14.7698 30.4349 14.854C30.391 14.933 30.391 15.0278 30.4349 15.1015C30.4788 15.1805 30.4623 15.27 30.4075 15.3385C30.4623 15.449 30.4953 15.5596 30.4075 15.6702C30.4294 15.6912 30.4459 15.7123 30.4623 15.7386C30.4349 15.7808 30.391 15.8229 30.3745 15.8492C30.391 15.9335 30.402 16.0177 30.4184 16.0862C30.3636 16.1704 30.2593 16.2125 30.2593 16.3073C30.3142 16.3652 30.3032 16.2652 30.3142 16.281C30.4568 16.3073 30.5446 16.3915 30.6873 16.3494C30.7586 16.3231 30.8629 16.3757 30.9342 16.4073C30.9891 16.3652 31.033 16.3178 31.0824 16.2704C31.1098 16.2915 31.1373 16.3126 31.1702 16.3231C31.1921 16.302 31.2141 16.2862 31.2415 16.2704C31.3732 16.3284 31.3897 16.3494 31.3897 16.3968C31.3622 16.3968 31.3622 16.4073 31.3458 16.4231L31.3622 16.4389C31.3622 16.4284 31.3732 16.4126 31.3897 16.3968ZM32.125 15.3964C32.0372 15.4122 31.9933 15.4122 31.9055 15.4227C31.9384 15.4701 31.9768 15.5175 32.0207 15.5596C32.0646 15.5122 32.0975 15.4596 32.125 15.3964ZM31.4445 16.7443C31.4884 16.6601 31.6037 16.6495 31.5598 16.5337C31.5323 16.6074 31.4061 16.618 31.4445 16.7443ZM31.9933 15.8439C32.0097 15.8439 32.0097 15.8597 32.0207 15.8597C32.0427 15.8229 32.0646 15.7808 32.0756 15.7334C32.0481 15.707 32.0317 15.6807 32.0207 15.6649C32.0042 15.6807 31.9933 15.6912 31.9933 15.707V15.8439ZM33.5297 5.72387C33.5626 5.71333 33.5955 5.70807 33.6285 5.70807C33.5901 5.68701 33.5571 5.66595 33.5297 5.63962V5.72387ZM33.6449 17.6184H33.6724V17.5236H33.6449V17.6184ZM33.5462 16.539H33.5626V16.4863H33.5462V16.539ZM33.2114 10.2732H33.195V10.3258H33.2114V10.2732ZM33.3541 4.98671H33.3376V5.04463H33.3541V4.98671ZM28.9369 5.0183V5.00251H28.882V5.0183H28.9369Z" fill="white"/>
<path d="M8.83335 18.7176C8.86003 18.806 8.87604 18.8502 8.88672 18.8945C8.69994 18.9663 8.50783 19.0216 8.31038 19.0548C8.26769 18.9829 8.17163 19.0272 8.09692 19.0272H7.58995C7.50991 19.0327 7.42986 19.0216 7.34981 18.9995C7.26443 18.9829 7.21107 19.0437 7.13636 19.0272C7.06698 18.9995 6.99227 18.9829 6.91756 18.9663C6.88554 18.8834 6.85886 18.8005 6.83218 18.7176C6.8055 18.701 6.74679 18.6457 6.7041 18.618V16.6388C6.69877 16.5504 6.69343 16.4619 6.67742 16.379C6.68809 16.3348 6.69877 16.2905 6.7041 16.2463C6.70944 16.1357 6.70944 16.0252 6.7041 15.9091C6.67742 15.5165 6.74679 15.124 6.74679 14.7315C6.73612 14.643 6.72545 14.5546 6.7041 14.4716C6.72011 14.4551 6.73612 14.4385 6.74679 14.4164C6.66141 14.3445 6.73078 14.2118 6.65074 14.1123C6.63473 14.0902 6.63473 14.0625 6.65074 14.0404C6.74679 13.8524 6.7041 13.6589 6.65074 13.471C6.69343 13.3549 6.84819 13.3272 6.8055 13.1945C6.73612 13.1503 6.67742 13.1061 6.60805 13.0619C6.56535 13.0784 6.52266 13.1061 6.47997 13.1171C6.46396 13.0895 6.45329 13.0895 6.45329 13.0729C6.36791 12.5643 6.4106 12.0557 6.39992 11.5581C6.39992 11.4807 6.4106 11.3978 6.44262 11.3259C6.46396 11.2485 6.49064 11.1766 6.528 11.1048C6.57069 11.0329 6.55468 10.9168 6.69877 10.9002V10.4634C6.69877 10.4469 6.67208 10.4192 6.67208 10.4358C6.68809 10.3473 6.69877 10.2644 6.69877 10.176V8.62797C6.7041 8.56715 6.70944 8.51187 6.72545 8.45105C6.72545 8.45105 6.69877 8.43447 6.69877 8.42341C6.68276 8.2465 6.64007 8.05853 6.67208 7.88714C6.72545 7.58307 6.6454 7.26242 6.72545 6.94176C6.70944 6.91412 6.69343 6.88647 6.68276 6.8533C6.69343 6.83119 6.70944 6.8146 6.72545 6.79802C6.70944 6.68192 6.69877 6.56582 6.69877 6.44972C6.69877 6.3889 6.68276 6.33362 6.72545 6.28939C6.74146 6.27281 6.75213 6.21752 6.74146 6.20093C6.6454 6.04061 6.71478 5.85264 6.69877 5.67572C6.68276 5.54304 6.74146 5.41588 6.65607 5.2832C6.64006 5.26108 6.64006 5.23344 6.65607 5.21133C6.75213 5.06758 6.68276 4.89067 6.70944 4.73034C6.75213 4.7027 6.80549 4.65847 6.89088 4.59766C7.00294 4.61424 7.13102 4.64188 7.25909 4.65847C7.39784 4.664 7.54193 4.664 7.68068 4.65847C7.75005 4.65847 7.85144 4.7027 7.90481 4.61424C7.93682 4.59766 7.97418 4.59766 8.00086 4.61424C8.241 4.67506 8.241 4.68611 8.50783 4.61424C8.5772 4.59766 8.6359 4.71928 8.68927 4.63083C8.80133 4.7027 8.94008 4.54237 9.05748 4.67506C9.07349 4.69164 9.10017 4.67506 9.12686 4.67506C9.16955 4.67506 9.22291 4.64741 9.2656 4.64741C9.31897 4.64741 9.37767 4.67506 9.43637 4.67506C9.55377 4.67506 9.67118 4.65847 9.78858 4.63083C9.98603 4.5866 10.1941 4.65847 10.3916 4.73034C10.4183 4.71376 10.4343 4.68611 10.4503 4.67506C10.5197 4.69164 10.5784 4.71928 10.6477 4.73034C10.6584 4.69717 10.6744 4.664 10.6904 4.63083C10.7064 4.63083 10.7171 4.61424 10.7331 4.61424C10.8452 4.67506 10.9306 4.67506 11.0693 4.67506C11.1814 4.67506 11.3095 4.63083 11.4215 4.73034C11.4482 4.71376 11.4696 4.69717 11.4909 4.67506C11.7417 4.73034 11.9819 4.80774 12.1526 5.08417C12.1526 5.06758 12.1366 5.11181 12.1526 5.13945C12.2647 5.29978 12.254 5.48775 12.254 5.66467V6.15671C12.2594 6.22305 12.27 6.28386 12.2967 6.34468C12.238 6.41655 12.2273 6.52159 12.3127 6.63769C12.2914 6.68745 12.2754 6.74273 12.27 6.79802V7.49461C12.27 7.65494 12.2273 7.81527 12.254 7.9756C12.27 8.13593 12.2967 8.27967 12.238 8.42894C12.3234 8.48975 12.238 8.54504 12.238 8.57268C12.2594 8.63902 12.27 8.70536 12.2807 8.77724V10.5795C12.2807 10.668 12.222 10.7233 12.2647 10.8283C12.3074 10.9002 12.2487 11.0052 12.222 11.0882C12.206 11.1158 12.206 11.1877 12.238 11.2043C12.2967 11.2596 12.2807 11.337 12.2807 11.3922V12.2934C12.2807 12.4095 12.1099 12.8739 12.0406 12.9347C11.9552 13.0066 11.8698 13.0674 11.7737 13.1227C11.731 13.1061 11.6884 13.0895 11.6457 13.0784C11.6243 13.1282 11.5923 13.178 11.5603 13.2222C11.4802 13.2277 11.4002 13.2277 11.3201 13.2222C11.2508 13.2056 11.1921 13.3106 11.1387 13.2222C11.1174 13.2277 11.1013 13.2388 11.08 13.2498C10.9519 13.2941 10.9252 13.2941 10.8132 13.2332C10.7278 13.2498 10.6477 13.2609 10.5624 13.2609H9.00412C8.96676 13.2885 8.92407 13.3162 8.89205 13.3493C8.91873 13.3936 8.94008 13.4323 8.96143 13.482C8.94542 13.5097 8.93474 13.5263 8.91873 13.5539C8.94542 13.6258 8.9721 13.6976 9.00412 13.7585C8.98811 13.858 8.94542 13.9796 8.97743 14.0515C9.04681 14.2837 9.02013 14.5325 8.99344 14.7647C8.99344 14.8089 9.02013 14.8642 9.02013 14.9084V15.3451C9.02013 15.3894 9.04681 15.417 9.06282 15.4612C9.04147 15.5276 9.02546 15.5939 9.02013 15.6658V16.1634C9.02013 16.3403 9.04681 16.5117 8.97743 16.6886C8.94008 16.777 8.95075 16.8766 9.00412 16.9484C9.0308 16.9816 9.03614 17.0258 9.02013 17.0645C8.95075 17.1972 9.10551 17.341 8.97743 17.4571L9.00412 17.4847V18.6291C8.94542 18.6015 8.88672 18.6567 8.83335 18.7176ZM8.64657 10.8394C8.64657 10.8173 8.6359 10.7952 8.61989 10.7841L8.60388 10.8007C8.61989 10.8283 8.6359 10.8283 8.64657 10.8394C8.66258 10.856 8.67326 10.8726 8.67326 10.8836L8.68927 10.867C8.68927 10.856 8.67859 10.8394 8.64657 10.8394ZM8.99878 10.563C8.89739 10.6182 8.87071 10.6625 8.84402 10.8228C8.95609 10.8228 8.9721 10.9555 9.08416 10.9997C9.19623 11.0329 9.31897 11.0495 9.43637 11.0439C9.60714 11.0439 9.77257 11.0163 9.95401 10.9997C9.98069 11.0274 10.0234 11.055 10.0501 11.0882C10.0074 10.9555 9.98069 10.8394 10.0501 10.6956C10.0821 10.7454 10.1194 10.7896 10.1621 10.8283C10.1781 10.856 10.2048 10.8726 10.2742 10.9168C10.2475 10.7399 10.2155 10.5961 10.1888 10.4634L10.1034 10.6846C10.0767 10.4634 9.85261 10.2755 10.018 10.0599C9.99136 10.0156 9.97535 9.98799 9.94867 9.94376C9.98069 9.92164 10.018 9.89953 10.0447 9.87189C10.0287 9.8166 10.0127 9.76685 10.002 9.71156V9.14212C10.002 9.08683 9.95934 9.02602 9.95934 8.95415C9.94333 8.88781 9.94333 8.81594 9.95934 8.74959C9.98603 8.64455 10.0447 8.56162 9.95934 8.45658C9.93266 8.18015 10.002 7.88714 9.91665 7.61071C10.018 7.42274 9.93266 7.22924 9.97535 7.04127L10.0447 6.9694C10.002 6.86989 9.97535 6.76485 9.93266 6.66533L9.72454 6.70956C9.70853 6.68192 9.70853 6.64875 9.69786 6.6211C9.61247 6.69298 9.55911 6.59346 9.47373 6.6211C9.38834 6.62663 9.30296 6.62663 9.22291 6.6211H8.99878C8.95609 6.72062 8.9134 6.82566 8.88672 6.91412L8.9721 7.00257C8.9721 7.07444 8.99878 7.1629 8.9721 7.21819C8.92941 7.30664 8.99878 7.36193 8.9721 7.4338C8.90272 7.63836 8.90272 7.8595 8.9721 8.05852C8.99878 8.1304 8.95609 8.23544 8.94542 8.33495C9.11618 8.46764 8.83335 8.65561 8.9721 8.81594V9.98246C8.99344 10.176 9.00412 10.3695 8.99878 10.563ZM6.89088 8.42341C6.99227 8.35154 6.97626 8.26308 6.94958 8.14698C6.91222 8.18015 6.87487 8.2078 6.83751 8.23544C6.84819 8.30178 6.8642 8.3626 6.89088 8.42341ZM6.85352 14.3058C6.88021 14.3777 6.91222 14.4495 7.00828 14.4219C6.9816 14.3721 6.95492 14.3168 6.93891 14.2616C6.90689 14.2892 6.88021 14.2892 6.85352 14.3058ZM9.15354 11.3093C9.21224 11.2927 9.25493 11.2927 9.3243 11.2817C9.27094 11.254 9.21224 11.2319 9.15354 11.2098V11.3093ZM6.8642 8.0917L6.89088 8.11934C6.91756 8.11934 6.93357 8.10275 6.96025 8.10275C6.95492 8.05853 6.94424 8.0143 6.93357 7.97007C6.90689 8.03088 6.8802 8.05853 6.8642 8.0917ZM9.45238 11.3093C9.4844 11.2983 9.51642 11.2927 9.55377 11.2927C9.51642 11.2706 9.4844 11.2485 9.45238 11.2209V11.3093ZM9.90064 11.2651V11.2817H9.95401V11.2651H9.90064ZM8.45446 17.6395V17.6561H8.51316V17.6395H8.45446ZM10.1941 10.3916V10.4082H10.2475V10.3916H10.1941ZM6.61338 12.9679V12.9845H6.66675V12.9679H6.61338ZM6.82684 13.3715V13.388H6.88021V13.3715H6.82684ZM6.90689 13.7253H6.89088V13.7806H6.90155L6.90689 13.7253Z" fill="white"/>
</svg>
