<svg width="88" height="51" viewBox="0 0 88 51" fill="none" xmlns="http://www.w3.org/2000/svg">
	<g clip-path="url(#clip0_94_4623)">
		<path
			d="M37.9176 5.00002H29.9191L28.9531 9.3283H29.9191V34.812H34.631V26.1555H37.9176C38.4275 26.157 38.9328 26.0619 39.4043 25.8757C39.8759 25.6895 40.3045 25.4159 40.6657 25.0705C41.0268 24.7251 41.3133 24.3147 41.5088 23.8629C41.7043 23.4111 41.805 22.9267 41.805 22.4374V8.71804C41.805 8.22883 41.7043 7.74443 41.5088 7.2926C41.3133 6.84077 41.0268 6.4304 40.6657 6.085C40.3045 5.7396 39.8759 5.46597 39.4043 5.27978C38.9328 5.0936 38.4275 4.99853 37.9176 5.00002ZM37.0695 21.8272H34.7135V9.3283H37.0695V21.8272Z"
			fill="#FF3358" />
		<path
			d="M45.9609 9.32828H46.9387V34.8233H57.6701V30.4837H51.6624V22.0758H55.8914V17.7475H51.6624V9.32828H57.6701V5H46.9387L45.9609 9.32828Z"
			fill="#FF3358" />
		<path
			d="M72.4898 18.8663L76.0002 5H71.0055L68.8262 14.3911L66.4585 5H62.7596L61.7819 9.32828H62.7596L65.1745 18.8663V20.9457L61.6641 34.8233H66.6469L68.8262 25.4322L71.194 34.8233H76.0002L72.4898 20.9457V18.8663Z"
			fill="#FF3358" />
		<path
			d="M22.2603 5H15.746L13.39 26.1555H12.9542V26.2572L12 30.4837H12.9542L12.483 34.812H16.7119L17.1125 30.4837H20.9056L21.3061 34.812H25.5233L22.2603 5ZM17.4894 26.1555L18.9972 9.32828L20.5168 26.1555H17.4894Z"
			fill="#FF3358" />
		<path d="M23.5103 41.875V42.8356H12.6964L12.4844 41.875H23.5103Z" fill="#FF3358" />
		<path d="M64.9766 41.875V42.8356H75.7905L76.0025 41.875H64.9766Z" fill="#FF3358" />
		<path
			d="M32.25 46.0016H34.8298V45.041H33.2513V42.8373H34.4293V41.8768H33.2513V39.5036H34.8298V38.543H32.25V46.0016Z"
			fill="#FF3358" />
		<path d="M28.595 39.5036V38.543H27.5938V46.0016H30.1735V45.041H28.595V39.5036Z" fill="#FF3358" />
		<path
			d="M39.3668 38.543H37.8472C37.6721 38.5487 37.506 38.6188 37.3833 38.7387C37.2605 38.8586 37.1904 39.0191 37.1875 39.1871V45.3688C37.1905 45.5357 37.261 45.695 37.3841 45.8131C37.5071 45.9311 37.6732 45.9987 37.8472 46.0016H39.3668C39.5408 45.9987 39.7068 45.9311 39.8299 45.8131C39.9529 45.695 40.0234 45.5357 40.0264 45.3688V41.8768H38.7189L38.5068 42.8373H39.0252V45.0975H38.1888V39.5601H39.0252V40.5206L40.0264 40.3059V39.2436C40.0346 39.1554 40.0236 39.0664 39.9942 38.9824C39.9649 38.8984 39.9178 38.8211 39.8559 38.7553C39.794 38.6895 39.7186 38.6367 39.6344 38.6002C39.5503 38.5637 39.4591 38.5442 39.3668 38.543Z"
			fill="#FF3358" />
		<path
			d="M42.3828 46.0016H44.9626V45.041H43.3841V42.8373H44.5503V41.8768H43.3841V39.5036H44.9626V38.543H42.3828V46.0016Z"
			fill="#FF3358" />
		<path d="M49.48 42.8373L48.2078 38.543H47.3125V46.0016H48.302V41.8768L49.6331 46.0016H50.4813V38.543H49.48V42.8373Z"
			fill="#FF3358" />
		<path
			d="M55.023 38.543H52.8438V46.0016H55.023C55.197 45.9987 55.3631 45.9311 55.4861 45.8131C55.6092 45.695 55.6797 45.5357 55.6827 45.3688V39.1871C55.6827 39.0182 55.6136 38.8561 55.4902 38.7356C55.3668 38.6151 55.1991 38.5459 55.023 38.543ZM54.6932 45.041H53.845V39.5036H54.6932V45.041Z"
			fill="#FF3358" />
		<path
			d="M60.2188 41.8751H59.0408V39.5019H59.8889V40.4625L60.8902 40.2478V39.1177C60.8902 39.0336 60.8728 38.9504 60.8389 38.8728C60.805 38.7953 60.7554 38.725 60.6929 38.6661C60.6304 38.6072 60.5562 38.5608 60.4748 38.5297C60.3934 38.4986 60.3064 38.4833 60.2188 38.4848H58.711C58.6219 38.4816 58.5331 38.4961 58.4501 38.5274C58.3672 38.5586 58.2918 38.606 58.2288 38.6664C58.1658 38.7269 58.1165 38.7992 58.0839 38.8788C58.0513 38.9583 58.0362 39.0435 58.0395 39.129V42.1463C58.0426 42.3152 58.1147 42.4762 58.2403 42.5945C58.3659 42.7129 58.5349 42.7792 58.711 42.7792H59.8889V45.0394H59.0408V44.0336L58.0395 44.237V45.3671C58.0455 45.5351 58.1186 45.6944 58.2435 45.8122C58.3685 45.9299 58.5358 45.9972 58.711 46H60.2188C60.3948 46 60.5639 45.9337 60.6895 45.8153C60.815 45.6969 60.8871 45.536 60.8902 45.3671V42.5193C60.8872 42.3493 60.8155 42.1872 60.6902 42.067C60.5649 41.9468 60.3959 41.878 60.2188 41.8751Z"
			fill="#FF3358" />
		<path d="M62.2903 38.6673H62.0547V38.543H62.6555V38.6673H62.4199V39.5036H62.2903V38.6673Z" fill="#FF3358" />
		<path
			d="M63.2523 39.5036V38.9837L63.1463 39.3001H63.0403L62.946 38.9837V39.5036H62.8047V38.543H62.9343L63.0874 39.0289L63.2523 38.543H63.3819V39.5036H63.2523Z"
			fill="#FF3358" />
	</g>
	<defs>
		<clipPath id="clip0_94_4623">
			<rect width="64" height="41" fill="#FF3358" transform="translate(12 5)" />
		</clipPath>
	</defs>
</svg>