<svg width="38" height="25" viewBox="0 0 38 25" fill="none" xmlns="http://www.w3.org/2000/svg">
<g clip-path="url(#clip0_94_4250)">
<path d="M15.3852 1.04734e-05H10.636L10.0625 2.63921H10.636V18.1781H13.4337V12.8997H15.3852C15.6879 12.9006 15.9879 12.8426 16.2679 12.7291C16.5479 12.6156 16.8024 12.4487 17.0168 12.2381C17.2312 12.0275 17.4014 11.7773 17.5174 11.5018C17.6335 11.2263 17.6933 10.9309 17.6933 10.6326V2.2671C17.6933 1.9688 17.6335 1.67343 17.5174 1.39793C17.4014 1.12242 17.2312 0.872193 17.0168 0.661584C16.8024 0.450975 16.5479 0.284126 16.2679 0.170601C15.9879 0.0570747 15.6879 -0.000896211 15.3852 1.04734e-05ZM14.8816 10.2605H13.4827V2.63921H14.8816V10.2605Z" fill="white"/>
<path d="M20.1641 2.6392H20.7446V18.185H27.1164V15.5389H23.5493V10.4121H26.0603V7.77288H23.5493V2.6392H27.1164V0H20.7446L20.1641 2.6392Z" fill="white"/>
<path d="M35.9121 8.45507L37.9964 0H35.0309L33.7369 5.7263L32.3311 0H30.1348L29.5543 2.6392H30.1348L31.5687 8.45507V9.72299L29.4844 18.185H32.443L33.7369 12.4587L35.1428 18.185H37.9964L35.9121 9.72299V8.45507Z" fill="white"/>
<path d="M6.09203 0H2.22419L0.825327 12.8997H0.566538V12.9617L0 15.5389H0.566538L0.286766 18.1781H2.79772L3.03552 15.5389H5.28769L5.52549 18.1781H8.02945L6.09203 0ZM3.25934 12.8997L4.15461 2.63919L5.05687 12.8997H3.25934Z" fill="white"/>
<path d="M6.83572 22.4844V23.0701H0.41496L0.289062 22.4844H6.83572Z" fill="white"/>
<path d="M31.4531 22.4844V23.0701H37.8739L37.9998 22.4844H31.4531Z" fill="white"/>
<path d="M12.0234 25.0011H13.5552V24.4154H12.618V23.0716H13.3174V22.4859H12.618V21.0388H13.5552V20.4531H12.0234V25.0011Z" fill="white"/>
<path d="M9.85233 21.0388V20.4531H9.25781V25.0011H10.7896V24.4154H9.85233V21.0388Z" fill="white"/>
<path d="M16.2471 20.4531H15.3448C15.2409 20.4566 15.1423 20.4994 15.0694 20.5725C14.9965 20.6456 14.9549 20.7434 14.9531 20.8459V24.6152C14.9549 24.717 14.9968 24.8141 15.0698 24.8861C15.1429 24.9581 15.2415 24.9993 15.3448 25.0011H16.2471C16.3504 24.9993 16.449 24.9581 16.522 24.8861C16.5951 24.8141 16.637 24.717 16.6388 24.6152V22.4859H15.8624L15.7365 23.0716H16.0442V24.4498H15.5476V21.0733H16.0442V21.659L16.6388 21.5281V20.8804C16.6436 20.8265 16.6371 20.7723 16.6196 20.7211C16.6022 20.6698 16.5742 20.6227 16.5375 20.5826C16.5007 20.5425 16.4559 20.5103 16.406 20.488C16.356 20.4657 16.3019 20.4539 16.2471 20.4531Z" fill="white"/>
<path d="M18.0391 25.0011H19.5708V24.4154H18.6336V23.0716H19.326V22.4859H18.6336V21.0388H19.5708V20.4531H18.0391V25.0011Z" fill="white"/>
<path d="M22.2557 23.0716L21.5003 20.4531H20.9688V25.0011H21.5563V22.4859L22.3466 25.0011H22.8502V20.4531H22.2557V23.0716Z" fill="white"/>
<path d="M25.5439 20.4531H24.25V25.0011H25.5439C25.6473 24.9993 25.7458 24.9581 25.8189 24.8861C25.892 24.8141 25.9338 24.717 25.9356 24.6152V20.8459C25.9356 20.7429 25.8946 20.644 25.8213 20.5706C25.7481 20.4971 25.6485 20.4549 25.5439 20.4531ZM25.3481 24.4154H24.8445V21.0388H25.3481V24.4154Z" fill="white"/>
<path d="M28.6301 22.4855H27.9307V21.0384H28.4343V21.6241L29.0288 21.4932V20.8041C29.0288 20.7529 29.0185 20.7021 28.9983 20.6548C28.9782 20.6076 28.9488 20.5647 28.9116 20.5288C28.8745 20.4929 28.8305 20.4646 28.7822 20.4456C28.7339 20.4266 28.6822 20.4173 28.6301 20.4182H27.7349C27.682 20.4163 27.6293 20.4251 27.58 20.4442C27.5308 20.4632 27.486 20.4921 27.4486 20.529C27.4112 20.5658 27.3819 20.6099 27.3626 20.6584C27.3432 20.707 27.3342 20.7589 27.3362 20.811V22.6509C27.338 22.7538 27.3808 22.852 27.4554 22.9242C27.53 22.9963 27.6303 23.0368 27.7349 23.0368H28.4343V24.4149H27.9307V23.8016L27.3362 23.9257V24.6148C27.3398 24.7172 27.3831 24.8143 27.4573 24.8861C27.5315 24.9579 27.6309 24.9989 27.7349 25.0006H28.6301C28.7347 25.0007 28.835 24.9602 28.9096 24.888C28.9842 24.8159 29.027 24.7177 29.0288 24.6148V22.8783C29.027 22.7746 28.9844 22.6758 28.9101 22.6025C28.8357 22.5292 28.7353 22.4873 28.6301 22.4855Z" fill="white"/>
<path d="M29.8586 20.5289H29.7188V20.4531H30.0755V20.5289H29.9356V21.0388H29.8586V20.5289Z" fill="white"/>
<path d="M30.4298 21.0388V20.7219L30.3669 20.9148H30.3039L30.248 20.7219V21.0388H30.1641V20.4531H30.241L30.3319 20.7494L30.4298 20.4531H30.5068V21.0388H30.4298Z" fill="white"/>
</g>
<defs>
<clipPath id="clip0_94_4250">
<rect width="38" height="25" fill="white"/>
</clipPath>
</defs>
</svg>
