<svg width="41" height="18" viewBox="0 0 41 18" fill="none" xmlns="http://www.w3.org/2000/svg">
<path d="M21.4207 17.4429C21.3804 17.4429 21.3382 17.4448 21.3713 17.4219C21.3957 17.405 21.42 17.3882 21.4446 17.3713C21.5197 17.3713 21.5498 17.3668 21.6227 17.3961L21.5992 17.4429H21.4207Z" fill="white"/>
<path d="M10.353 0.804688V0.71862L10.4244 0.716718L10.4453 0.778414L10.353 0.804688Z" fill="white"/>
<path d="M0.527663 7.98259C0.46352 7.90839 0.460621 7.80248 0.477562 7.7107C0.500936 7.61141 0.52268 7.51366 0.533189 7.41228C0.535816 7.38745 0.551308 7.36508 0.557016 7.38936C0.578216 7.4776 0.609019 7.57155 0.614455 7.66296C0.615723 7.68153 0.589722 7.75573 0.591624 7.782C0.594252 7.81607 0.607841 7.92868 0.616176 7.95867C0.596335 7.96465 0.577038 7.9709 0.557016 7.97561C0.547232 7.97779 0.537447 7.98023 0.527663 7.98259Z" fill="white"/>
<path d="M5.36241 6.63987C5.30778 6.59647 5.27109 6.53604 5.24219 6.47335L5.33278 6.2859C5.37102 6.27657 5.38868 6.2821 5.42066 6.29515L5.46814 6.34289C5.48834 6.37985 5.48762 6.42017 5.48028 6.46166C5.50383 6.49364 5.50601 6.53541 5.52603 6.56667C5.49079 6.59548 5.44522 6.62718 5.39675 6.63153C5.38814 6.63226 5.37047 6.63751 5.36241 6.63987Z" fill="white"/>
<path d="M5.67183 7.23519C5.63677 7.23211 5.60651 7.21825 5.57806 7.20013C5.56447 7.16597 5.55904 7.12022 5.56475 7.08353C5.56638 7.07257 5.60742 7.00951 5.62101 7.00072C5.62436 7 5.66658 7 5.67183 7C5.72501 7.05128 5.74105 7.13019 5.73126 7.20248C5.71333 7.22423 5.69874 7.23564 5.67183 7.23519Z" fill="white"/>
<path d="M17.8352 13.6411C17.7551 13.5753 17.7759 13.4499 17.7759 13.3555C17.8464 13.3792 17.8612 13.5102 17.8886 13.5818C17.8954 13.5992 17.898 13.618 17.9025 13.6361L17.8464 13.6505C17.8416 13.6514 17.8388 13.6442 17.8352 13.6411Z" fill="white"/>
<path d="M7.33969 11.0931C7.33443 11.0891 7.32655 11.0872 7.32392 11.0812C7.30009 11.0275 7.28986 10.9631 7.28125 10.9056C7.30843 10.8801 7.3473 10.8529 7.38553 10.8477C7.44659 10.9024 7.45447 10.9574 7.44106 11.0335C7.43345 11.0751 7.37765 11.0979 7.33969 11.0931Z" fill="white"/>
<path d="M24.2067 17.991C24.202 17.9318 24.1947 17.8725 24.1856 17.8139C24.1816 17.7898 24.1811 17.7628 24.1943 17.7827C24.2431 17.8558 24.2923 17.9001 24.3505 17.9691C24.3055 17.992 24.2556 17.9967 24.2067 17.991Z" fill="white"/>
<path d="M16.3392 17.396C16.3087 17.3805 16.2946 17.3686 16.282 17.3374C16.2922 17.2756 16.3087 17.2061 16.3273 17.1468V17.0994L16.2753 17.0397C16.2815 16.9329 16.2884 16.9283 16.2836 16.8138C16.2817 16.7735 16.323 16.731 16.3509 16.7084C16.3664 16.5848 16.3738 16.4601 16.3972 16.3377C16.4051 16.2972 16.4332 16.238 16.4463 16.1948C16.4652 16.1333 16.4399 16.0424 16.3984 15.9947L16.3273 15.993L16.2808 16.1364C16.265 16.127 16.2329 16.0985 16.2321 16.0758C16.2206 15.727 16.2285 15.3771 16.2083 15.0286C16.2071 15.007 16.1455 14.9497 16.1251 14.943C16.0585 14.9211 15.9697 14.9118 15.9006 14.9223C15.8965 14.8621 15.8927 14.8197 15.9466 14.7818V14.7045C16.0015 14.7223 16.0377 14.6637 16.0728 14.6289C16.0761 14.7109 16.0799 14.7915 16.1251 14.8621C16.1584 14.9146 16.3235 14.912 16.3869 14.9206C16.4063 14.9233 16.4208 14.9406 16.4263 14.9573C16.5066 15.2064 16.5826 15.4571 16.6605 15.707L16.4726 15.895C16.4663 15.9663 16.4644 15.9803 16.5296 16.0204C16.5791 16.0507 16.6336 16.029 16.6844 16.0164L16.6901 15.9175C16.6908 15.9052 16.7101 15.9041 16.7199 15.8974C16.8518 16.1588 16.9482 16.4398 17.0372 16.7184C17.0579 16.7839 17.0419 16.8675 17.0639 16.9326C17.0732 16.961 17.1512 17.048 17.1743 17.0755C17.2134 17.1221 17.2301 17.1842 17.2495 17.2422C17.2566 17.2637 17.2406 17.3073 17.2284 17.3257C16.9899 17.3624 16.7462 17.3688 16.5057 17.3849C16.4501 17.3887 16.3948 17.3922 16.3392 17.396Z" fill="white"/>
<path d="M34.0258 17.3202C34.0649 17.3345 34.1387 17.3359 34.1802 17.3268C34.2078 17.2534 34.199 17.2007 34.1504 17.1389H34.0378L33.9462 17.2531C33.9596 17.2734 34.0021 17.3092 34.0258 17.3202ZM35.3111 17.4602C35.3153 17.4638 35.3196 17.4676 35.3239 17.4714L35.3952 17.424C35.357 17.3905 35.3234 17.3502 35.3005 17.3044L35.2213 17.3574C35.2461 17.3948 35.2773 17.4306 35.3111 17.4602ZM19.6267 16.7639C19.6408 16.7711 19.6551 16.7783 19.6697 16.7856L19.6699 16.7221C19.6463 16.7014 19.6124 16.6777 19.5791 16.6866C19.5623 16.699 19.5459 16.7116 19.5291 16.7243L19.5734 16.7773C19.5874 16.7702 19.611 16.7677 19.6267 16.7639ZM18.182 16.9648L18.2938 16.9929C18.3055 16.9861 18.3382 16.9829 18.3289 16.9731C18.3019 16.9449 18.2633 16.9185 18.2225 16.9247C18.209 16.938 18.1955 16.9514 18.182 16.9648ZM18.5555 16.9395C18.6263 16.9798 18.7273 16.9861 18.7814 16.911C18.7762 16.8455 18.7476 16.7845 18.7178 16.7272C18.7707 16.6824 18.7926 16.6393 18.8038 16.5714L18.7182 16.5459C18.706 16.5521 18.5197 16.7067 18.508 16.7221C18.4749 16.7661 18.4637 16.8078 18.4706 16.8651C18.493 16.8975 18.5222 16.9185 18.5555 16.9395ZM19.5068 16.3901L19.6029 16.2818H19.662C19.6739 16.2132 19.6501 16.1568 19.5791 16.1433C19.5392 16.1622 19.4904 16.1602 19.4536 16.1848C19.4438 16.1976 19.4216 16.2554 19.4232 16.2701C19.4279 16.3221 19.4558 16.3717 19.5068 16.3901ZM20.24 16.0186L20.3418 15.9865L20.293 15.9131C20.2851 15.9104 20.2772 15.9078 20.2693 15.9052C20.2491 15.9118 20.2305 15.92 20.2112 15.9289C20.214 15.9605 20.2243 15.9911 20.24 16.0186ZM19.6029 16.5199C19.6134 16.5252 19.6242 16.5306 19.6346 16.5359L19.6778 16.4925C19.6695 16.469 19.6485 16.4272 19.6267 16.4127C19.6187 16.4109 19.6108 16.4089 19.6029 16.4069C19.5947 16.4109 19.5857 16.413 19.5791 16.419C19.5738 16.4237 19.5671 16.4367 19.5671 16.4367V16.4843C19.5695 16.4927 19.5728 16.5018 19.5791 16.508C19.5852 16.5142 19.5947 16.5161 19.6029 16.5199ZM18.0451 16.1858L18.2218 16.1862L18.2118 16.0931C18.1443 16.0617 18.0895 16.0736 18.0214 16.097C18.0267 16.1273 18.0348 16.1568 18.0451 16.1858ZM19.6022 16.009C19.6103 16.0107 19.6184 16.0125 19.6267 16.0142C19.6384 16.0083 19.6504 16.0023 19.6623 15.9964V15.9251H19.5569C19.5693 15.9549 19.5836 15.9822 19.6022 16.009ZM1.33893 15.9493L1.42617 15.9713C1.43985 15.9503 1.45698 15.9152 1.45389 15.8892C1.44656 15.8268 1.43677 15.7247 1.42219 15.6681C1.40117 15.676 1.34228 15.6968 1.33412 15.7228C1.31057 15.7967 1.30169 15.8782 1.33893 15.9493ZM36.587 15.7321C36.6805 15.738 36.7121 15.7285 36.794 15.6889C36.7997 15.6784 36.8216 15.5878 36.82 15.5799C36.8006 15.4801 36.7723 15.4179 36.6678 15.3807C36.6287 15.3668 36.4913 15.3697 36.489 15.437C36.4874 15.4882 36.489 15.5396 36.489 15.591L36.6313 15.6876L36.587 15.7321ZM18.7461 15.998C18.7726 16.0247 18.8024 16.0335 18.8413 16.0234C18.8704 15.9923 18.8897 15.9541 18.9045 15.9131C18.9257 15.857 18.9448 15.7871 18.8916 15.7438C18.8825 15.7363 18.8739 15.7285 18.8652 15.7209C18.8377 15.7122 18.8165 15.7103 18.7873 15.713C18.7261 15.7606 18.6716 15.8227 18.6323 15.8902C18.6523 15.9181 18.7175 15.9638 18.7461 15.998ZM1.61534 16.3654C1.61869 16.3763 1.62204 16.3873 1.62567 16.3984L1.69316 16.3534V16.1859L1.65737 16.1819C1.63445 16.1826 1.61969 16.1893 1.59894 16.1996C1.58435 16.2711 1.59459 16.2971 1.61534 16.3654ZM19.841 16.4007C19.8569 16.4018 19.8731 16.4028 19.8894 16.404C19.8543 16.3277 19.8262 16.2454 19.809 16.1635L19.7341 16.165C19.6952 16.2184 19.71 16.2969 19.71 16.3592C19.7515 16.3813 19.793 16.3971 19.841 16.4007ZM18.2931 15.5608L18.4007 15.6132C18.463 15.5625 18.4864 15.5118 18.4639 15.4317C18.4372 15.4255 18.4105 15.4482 18.383 15.4474C18.3437 15.4763 18.3124 15.5157 18.2931 15.5608ZM18.5793 16.289C18.6541 16.289 18.6996 16.2699 18.7585 16.2294C18.7378 16.1866 18.6996 16.1629 18.6607 16.1402L18.4703 16.212C18.498 16.2437 18.5324 16.2894 18.5793 16.289ZM18.6271 14.9591C18.6323 14.9741 18.6373 14.9888 18.6428 15.0036C18.66 14.9881 18.6956 14.9387 18.6865 14.9135C18.6741 14.8784 18.6626 14.8595 18.6361 14.8299L18.593 14.8587C18.604 14.8924 18.6151 14.9258 18.6271 14.9591ZM37.6212 14.7686L37.7726 14.8295C37.7767 14.7997 37.7774 14.7746 37.7667 14.7469C37.7545 14.716 37.7196 14.6866 37.6904 14.6767L37.6212 14.7686ZM1.63346 14.8421C1.63944 14.8478 1.64542 14.8537 1.6514 14.8597L1.68718 14.8244L1.65737 14.7944C1.65239 14.7893 1.64732 14.7844 1.64234 14.7795L1.60682 14.8154C1.61561 14.8242 1.62467 14.833 1.63346 14.8421ZM25.672 15.0166C25.6964 15.0093 25.7152 14.9978 25.7374 14.985C25.7534 14.9532 25.7691 14.9217 25.7849 14.8901C25.7085 14.8776 25.709 14.8745 25.6365 14.9029L25.6099 14.9953C25.5962 15.0424 25.6248 15.0307 25.672 15.0166ZM18.1748 15.9765C18.1853 15.9803 18.2235 15.9927 18.2316 15.9939C18.3184 15.9038 18.3203 15.7675 18.2563 15.665L18.2225 15.6796C18.1916 15.6865 18.1679 15.6867 18.1393 15.6693C18.1175 15.7668 18.1069 15.8689 18.1596 15.9605C18.1631 15.9669 18.1698 15.9713 18.1748 15.9765ZM24.6485 14.6178C24.6762 14.6108 24.7037 14.6016 24.7302 14.5919C24.7559 14.5591 24.7048 14.5268 24.6831 14.5204C24.6485 14.5611 24.6197 14.582 24.5645 14.593L24.6246 14.6202C24.6325 14.6195 24.6406 14.6186 24.6485 14.6178ZM18.1035 15.125C18.1099 15.1264 18.1166 15.1281 18.1233 15.1297L18.1424 15.1037C18.1472 15.0878 18.1526 15.0721 18.1586 15.0563C18.1512 15.0197 18.1228 14.996 18.1127 14.9611C18.0835 14.9456 18.0458 14.9265 18.0083 14.9278C17.9843 14.9291 17.9608 14.9578 17.9485 14.9725L17.9961 15.0916C18.0312 15.1044 18.067 15.1161 18.1035 15.125ZM24.4582 14.8531C24.4667 14.8524 24.5245 14.8473 24.5295 14.8447C24.5334 14.8431 24.5632 14.8371 24.5619 14.8364L24.5894 14.7362L24.5378 14.6634H24.4687C24.4605 14.5871 24.4374 14.5475 24.3556 14.5406C24.3112 14.5988 24.3272 14.6822 24.3272 14.751C24.3709 14.7865 24.4135 14.8194 24.4582 14.8531ZM0.99547 14.3172C1.03026 14.3309 1.07728 14.3488 1.1166 14.3442L1.06107 14.2646L0.99547 14.3172ZM18.7223 16.4725H18.7697C18.7864 16.4652 18.8029 16.458 18.8193 16.4512L18.7461 16.4009H18.7103L18.6903 16.4605C18.701 16.4644 18.7115 16.4684 18.7223 16.4725ZM1.29571 14.3755L1.38658 14.3309C1.38114 14.2691 1.37444 14.239 1.3344 14.1886L1.265 14.2138C1.27098 14.2565 1.27759 14.2992 1.2833 14.3421C1.28448 14.3541 1.28982 14.3652 1.29571 14.3755ZM36.62 16.389C36.6323 16.3939 36.6443 16.399 36.6566 16.404L36.6113 16.2225C36.5723 16.1831 36.5473 16.1812 36.4896 16.1876L36.418 16.0443L36.347 16.1175L36.3701 16.2105H36.4417V16.3052C36.4996 16.3369 36.559 16.3644 36.62 16.389ZM18.6621 13.4536C18.7027 13.4787 18.769 13.5006 18.8174 13.4889C18.8516 13.4806 18.9049 13.4422 18.9271 13.4141C18.9873 13.3374 18.9834 13.2442 18.9128 13.1757C18.8902 13.1535 18.825 13.1177 18.7936 13.1213C18.7568 13.1253 18.6674 13.1645 18.655 13.1998C18.6359 13.2534 18.6247 13.298 18.6196 13.356C18.6443 13.3575 18.6667 13.3723 18.6829 13.3901C18.6753 13.4112 18.6683 13.4324 18.6621 13.4536ZM38.9527 14.5327C38.9605 14.5327 38.9763 14.5406 38.9763 14.5327V14.497H38.9049V14.5327H38.9527ZM18.6032 12.9398C18.6145 12.9443 18.6259 12.9488 18.6373 12.9534C18.6433 12.8766 18.6437 12.8206 18.5889 12.76C18.5299 12.775 18.4883 12.7809 18.4489 12.8346C18.4477 12.86 18.4541 12.898 18.4842 12.9064C18.5195 12.9162 18.5694 12.9265 18.6032 12.9398ZM18.6745 12.593C18.6836 12.5975 18.6924 12.602 18.7013 12.6068L18.7611 12.567L18.7101 12.5126L18.6361 12.573C18.6469 12.5825 18.6617 12.5863 18.6745 12.593ZM18.702 12.4574L18.793 12.4327C18.8231 12.4091 18.8074 12.3585 18.8766 12.3172L18.8768 12.2001C18.8802 12.1483 18.8932 12.1407 18.8413 12.1407H18.7341V12.2614C18.67 12.3129 18.6475 12.389 18.702 12.4574ZM25.8862 14.4909C25.8893 14.4926 25.8927 14.4946 25.8963 14.4962L25.9702 14.4516L25.9494 14.3898C25.969 14.3772 25.9931 14.3739 26.0155 14.3801C26.0251 14.3498 26.0188 14.3204 26.0074 14.2922C25.9834 14.2798 25.9597 14.2716 25.9337 14.263C25.9218 14.2668 25.9098 14.2708 25.898 14.2749L25.8943 14.3185C25.9079 14.3471 25.8638 14.4473 25.8474 14.4717C25.859 14.4802 25.8731 14.4845 25.8862 14.4909ZM5.38319 13.283H5.48937C5.51628 13.2666 5.53277 13.2404 5.54708 13.2115C5.53847 13.1478 5.51057 13.133 5.45213 13.118L5.38219 13.1674C5.37984 13.2061 5.38011 13.2446 5.38319 13.283ZM3.90745 12.4532C3.95275 12.4723 4.03619 12.5056 4.08511 12.4919C4.20724 12.4567 4.22318 12.3592 4.23804 12.2385C4.20343 12.2335 4.06554 12.2631 4.03737 12.2801C3.9725 12.3206 3.9291 12.38 3.90745 12.4532ZM19.1132 11.501L19.1623 11.5673C19.2105 11.5551 19.2187 11.5229 19.2313 11.4797C19.1869 11.4495 19.1423 11.4523 19.1132 11.501ZM19.2036 11.3713C19.2768 11.3998 19.3319 11.4111 19.4104 11.4005C19.4049 11.3583 19.3797 11.3145 19.351 11.2842L19.2573 11.2858L19.2036 11.3713ZM1.86674 14.4375C1.86511 14.4488 1.86366 14.4602 1.86203 14.4717L1.95481 14.4251V14.3784L1.88777 14.3569C1.87871 14.386 1.87109 14.4067 1.86674 14.4375ZM23.4347 10.9687C23.4685 10.9731 23.4923 10.9526 23.5188 10.9304L23.4943 10.832L23.4215 10.8291L23.3752 10.9283C23.3912 10.943 23.4127 10.9639 23.4347 10.9687ZM17.4132 9.14286C17.4783 9.14793 17.5425 9.14358 17.5943 9.09928C17.5804 9.02408 17.5551 8.94037 17.511 8.88148C17.4401 8.89335 17.3447 8.89507 17.3023 8.96329C17.283 8.9941 17.2682 9.05036 17.2942 9.08234C17.3235 9.11858 17.3672 9.13833 17.4132 9.14286ZM37.9291 5.10765C37.9322 5.11943 37.9352 5.1313 37.9385 5.14326C38.0615 5.09741 38.0679 5.0368 38.0595 4.9097L37.9894 4.90544L37.9181 4.95427C37.9131 5.00636 37.9158 5.05782 37.9291 5.10765ZM20.2693 12.9797C20.2851 12.9995 20.301 13.0192 20.3168 13.0393C20.3283 13.0318 20.3548 13.0307 20.3514 13.0176L20.3302 12.9324L20.3702 12.9424C20.3672 12.8361 20.3106 12.8248 20.2152 12.8035C20.2374 12.8704 20.2341 12.9293 20.23 12.9995C20.2426 12.993 20.2569 12.9858 20.2693 12.9797ZM12.6488 4.87608L12.7244 4.90136C12.748 4.8875 12.7526 4.87101 12.7602 4.84583C12.7537 4.82861 12.7473 4.8114 12.7409 4.79428L12.6488 4.87608ZM9.66382 1.44245C9.70368 1.46944 9.73231 1.48539 9.78169 1.4997C9.80769 1.45649 9.83913 1.41735 9.83251 1.36354C9.82219 1.35493 9.73702 1.31742 9.72561 1.31624C9.69653 1.31316 9.6688 1.32032 9.64289 1.33871C9.64996 1.37305 9.65694 1.40784 9.66382 1.44245ZM31.5031 1.53757C31.5191 1.52906 31.537 1.50967 31.5396 1.49019C31.5477 1.42197 31.5471 1.33962 31.5174 1.27566C31.4854 1.2068 31.4299 1.1509 31.3455 1.1712C31.3307 1.26497 31.3249 1.37513 31.3551 1.46627C31.3763 1.52996 31.4346 1.56937 31.5031 1.53757ZM27.0523 1.07344C27.0744 1.08731 27.1733 1.10035 27.2031 1.09437L27.2189 1.03793C27.2342 1.05288 27.2494 1.06819 27.2647 1.08341C27.3148 1.05152 27.3611 1.00232 27.3737 0.942712C27.3806 0.909825 27.3663 0.873495 27.338 0.855467C27.312 0.838706 27.2253 0.822036 27.1951 0.832274C27.082 0.87114 27.0686 0.896235 27.0138 1.01003C27.0202 1.04337 27.0235 1.05433 27.0523 1.07344ZM17.3893 0.847313C17.3996 0.855195 17.4144 0.853745 17.4268 0.856825L17.4489 0.823667V0.776013C17.4371 0.735697 17.3817 0.701995 17.3419 0.696831C17.3168 0.693207 17.2922 0.707521 17.2846 0.733341C17.3178 0.774563 17.3487 0.811255 17.3893 0.847313ZM30.6938 0.522159C30.7067 0.517176 30.7198 0.512193 30.7329 0.50712L30.7461 0.480937C30.7286 0.47233 30.7132 0.457291 30.6938 0.454664C30.6732 0.452127 30.6386 0.46019 30.6404 0.49045C30.6425 0.537017 30.6501 0.539101 30.6938 0.522159ZM4.34676 6.61592C4.35083 6.61682 4.35491 6.61782 4.35899 6.61872C4.41407 6.57605 4.41044 6.51689 4.40546 6.45302C4.37783 6.433 4.34703 6.43345 4.31577 6.43898L4.28886 6.5188L4.24347 6.53574C4.24991 6.55485 4.25734 6.57632 4.2635 6.59517C4.29122 6.60205 4.31885 6.60921 4.34676 6.61592ZM26.8432 1.91591C26.8782 1.93566 26.9222 1.94834 26.9573 1.92261C27.0289 1.86155 27.0648 1.82649 27.0107 1.73154C26.9582 1.74441 26.8384 1.76706 26.8143 1.82314C26.8008 1.85485 26.811 1.89607 26.8432 1.91591ZM9.34492 2.9325C9.34972 2.93395 9.35452 2.9354 9.3595 2.93685L9.37735 2.918C9.37835 2.89771 9.37907 2.87769 9.3788 2.85712L9.31031 2.86002C9.31031 2.88222 9.31774 2.92444 9.34492 2.9325ZM18.5162 11.4505H18.6151V11.3469C18.5548 11.3478 18.5321 11.3995 18.5162 11.4505ZM39.0953 4.19126H39.1668L39.1666 4.15855C39.1437 4.13301 39.1315 4.11969 39.0953 4.11996C39.0834 4.13183 39.0714 4.14379 39.0597 4.15575C39.0331 4.18265 39.0576 4.19126 39.0953 4.19126ZM37.3292 7.37829C37.3684 7.36706 37.4179 7.35347 37.439 7.31524C37.441 7.30237 37.4435 7.26088 37.4413 7.24964C37.4349 7.21848 37.4291 7.19646 37.4163 7.16593L37.3259 7.14355C37.3043 7.21277 37.2777 7.31578 37.3292 7.37829ZM34.9002 17.6861C34.8795 17.6642 34.8616 17.6412 34.8469 17.6148H34.7515C34.7128 17.5327 34.667 17.4373 34.6142 17.3647C34.5971 17.3414 34.5539 17.3151 34.5258 17.3113C34.4895 17.3066 34.4573 17.3202 34.432 17.3438C34.3884 17.3843 34.4015 17.4571 34.4156 17.5076C34.4225 17.5333 34.4013 17.5549 34.3828 17.5673C34.2878 17.5673 34.1923 17.5694 34.0974 17.5673C34.0888 17.567 34.0812 17.5625 34.0735 17.5592C34.0311 17.541 33.9452 17.4743 33.9149 17.4363C33.8651 17.3741 33.854 17.0857 33.8471 16.996L33.731 16.9726L33.7045 17.5434H33.1097L33.0858 17.3059C33.1446 17.3102 33.1883 17.3075 33.2403 17.287C33.2668 17.2766 33.2935 17.2248 33.2959 17.1982C33.2967 17.1903 33.2983 17.1818 33.2954 17.1745C33.1669 16.8242 33.033 16.4755 32.8997 16.1273C32.8961 16.1182 32.8904 16.1099 32.8833 16.1034C32.8418 16.0659 32.8026 16.0211 32.7749 15.9724C32.5849 16.028 32.1371 15.9964 31.9189 15.9964C31.927 15.8719 31.8564 15.7917 31.8211 15.675C31.6252 15.0293 31.4528 14.3753 31.2801 13.7234C31.2727 13.6957 31.2639 13.5161 31.277 13.4854C31.6011 12.7258 31.9671 11.9826 32.295 11.2243C32.3362 11.1294 32.3055 10.9977 32.3955 10.9295L32.4196 10.5459C32.5775 10.3785 32.7785 10.2377 32.8866 10.0342C32.9544 9.90641 33.0202 9.67838 33.0881 9.51068C33.1082 9.46085 33.1135 9.33039 33.1389 9.27268C33.3577 8.77675 33.6019 8.2916 33.8239 7.79712C34.3784 6.56101 34.9261 5.32182 35.4766 4.08417C35.5161 3.99521 35.5517 3.90407 35.5842 3.8122L35.513 3.73927C34.589 3.72967 33.6647 3.72061 32.7406 3.71544C32.7132 3.71517 32.686 3.71182 32.6588 3.7101C32.7105 3.70013 32.7354 3.68772 32.7604 3.64378C32.0157 3.64405 31.2513 3.68391 30.5154 3.66743L30.4911 1.67048C30.5065 1.67311 30.4607 1.6867 30.4553 1.70146C29.8377 3.39246 29.2349 5.08835 28.6351 6.78551H28.5645C28.5105 6.90266 28.4519 7.01617 28.4206 7.14165L28.469 7.19266C28.4285 7.32004 28.3884 7.44506 28.3476 7.57244L28.2067 7.66639L28.1124 8.04328C28.1294 8.05016 28.1602 8.07616 28.168 8.0931C28.1612 8.10361 28.1541 8.11385 28.1472 8.12436L28.1115 8.1423C27.9858 8.5113 27.8596 8.87976 27.7346 9.24904C27.7263 9.27404 27.7291 9.30747 27.7317 9.33347L27.8257 9.42751H27.7069L27.5157 9.95198C27.6103 10.0307 27.6214 10.1144 27.6101 10.2327C27.5557 10.2866 27.4927 10.2938 27.4214 10.3081C27.2957 10.6292 27.1705 10.9506 27.045 11.272C27.0266 11.9457 27.0803 12.6238 27.0166 13.2949C27.006 13.4074 26.7728 13.9731 26.7141 14.0804C26.6982 14.1098 26.7023 14.1773 26.7092 14.2095L26.7788 14.211L27.0424 13.71L27.0166 14.2364C27.1214 14.2922 27.143 14.3299 27.161 14.4423L27.0166 14.5917V15.5696C26.9715 15.5923 26.9315 15.6259 26.8983 15.6636C26.8881 15.8217 26.8757 15.9791 26.8621 16.1375C26.8596 16.1619 26.8397 16.1397 26.8382 16.1153C26.8301 15.9837 26.8334 15.9302 26.7781 15.8059C26.7239 15.7876 26.6946 15.773 26.6665 15.7209C26.6908 15.7031 26.7233 15.6722 26.7277 15.6397L26.8954 15.6159L26.8971 15.5436L26.7359 15.4983C26.6839 15.4153 26.6331 15.3318 26.6849 15.2354L26.3027 15.0204C26.3027 14.9443 26.3178 14.8643 26.3501 14.7944V14.7469L26.3027 14.6904V14.5975C26.2841 14.5823 26.1782 14.5392 26.1479 14.5208C26.1136 14.5208 26.0074 14.5136 25.9814 14.5208C25.9728 14.5229 25.9652 14.5282 25.9576 14.5327C25.948 14.5385 25.9098 14.5804 25.8981 14.5921H25.7178C25.8106 14.7564 25.8857 14.8977 25.7312 15.0444H25.6147C25.528 15.1934 25.5337 15.2535 25.5149 15.423C25.5125 15.4434 25.4939 15.3859 25.4895 15.3657C25.4788 15.3162 25.4752 15.2387 25.4693 15.188C25.4001 15.3186 25.311 15.4405 25.2618 15.5799C25.2476 15.6199 25.264 15.7903 25.2553 15.8418C25.2522 15.8604 25.2119 15.9136 25.2064 15.9369C25.1926 15.9977 25.184 16.0766 25.1855 16.139L25.2553 16.1864C25.2553 16.262 25.2527 16.3374 25.2553 16.4127C25.2561 16.4319 25.2789 16.4484 25.2911 16.4605C25.3069 16.4763 25.3112 16.5004 25.2911 16.4903L25.2079 16.4486C25.1246 16.524 25.0406 16.5984 24.9586 16.6752C24.9412 16.6914 24.9271 16.7363 24.923 16.7598L24.9712 16.8314C24.9538 16.8435 24.9248 16.8644 24.9224 16.8888C24.9204 16.9051 24.9188 17.02 24.9224 17.0317C24.9278 17.0506 25.0019 17.13 25.019 17.1389H24.8021C24.7892 17.0793 24.7802 17.0356 24.7292 16.996C24.6626 16.996 24.5961 16.9937 24.5295 16.996C24.5207 16.9965 24.5137 17.0039 24.5056 17.008C24.4903 17.0411 24.4801 17.0752 24.4553 17.1012C24.4188 17.1389 24.3752 17.1392 24.3272 17.1384L24.3034 17.0199C24.5869 16.4127 24.8794 15.8098 25.1547 15.1992C25.1759 15.1519 25.1819 15.0725 25.1826 15.021C25.1502 15.0005 25.118 14.9804 25.0848 14.9611C25.0622 14.9477 25.0764 14.9203 25.1007 14.9301L25.2041 14.9713C25.2463 14.9323 25.3059 14.8486 25.3283 14.7944C25.3316 14.7863 25.3493 14.6272 25.3481 14.6177C25.1976 14.589 25.0513 14.5656 24.8997 14.5444L24.8272 14.6634H24.6605V14.8776H24.8269L24.8508 14.8063L24.9207 14.8094C24.9197 14.8428 24.9145 14.905 24.9004 14.9372C24.677 15.4424 24.4231 15.9355 24.1901 16.4367C24.1793 16.4598 24.1638 16.5709 24.1624 16.5934C24.1486 16.5728 24.1333 16.553 24.1209 16.5319C23.7826 15.9579 23.4489 15.3817 23.1136 14.8063C23.4189 14.8063 23.7242 14.8096 24.0297 14.8063C24.066 14.8056 24.0684 14.7925 24.0892 14.7705C24.1047 14.6418 24.0846 14.5461 23.9582 14.5208C23.8735 14.5036 23.5572 14.5201 23.4707 14.5446L23.3514 14.4494L22.8278 14.4254C22.8278 13.3584 22.8316 12.291 22.8233 11.2243C22.612 10.6611 22.3622 10.1106 22.1895 9.53451C22.1614 9.44029 22.1657 9.09475 22.1614 8.97498C22.0886 8.92868 22.0192 8.88719 21.9658 8.82069C21.961 8.81444 21.8742 8.61431 21.8714 8.60643C21.623 7.91427 21.3563 7.22844 21.11 6.53574C20.6453 5.22932 20.2014 3.9153 19.7379 2.60862C19.7205 2.55951 19.6733 2.49863 19.6403 2.46004C19.6318 2.47363 19.6124 2.51367 19.617 2.53731C20.0379 4.71772 20.4674 6.89958 20.8738 9.08234C21.067 10.1204 21.1304 11.23 21.3268 12.2716C21.3556 12.4253 21.5928 12.8286 21.64 13.0095C21.7301 13.3536 21.8064 13.7706 21.8511 14.128C21.8575 14.1804 21.8329 14.3395 21.8272 14.4018L21.4235 14.3778C21.4235 14.0356 21.4171 13.699 21.4482 13.3599C21.4317 13.3244 21.41 13.2931 21.3771 13.2723C21.368 13.2799 21.359 13.2873 21.3499 13.2949C21.3255 13.4138 21.2929 13.5317 21.2799 13.6521C21.2552 13.8806 21.2526 14.1132 21.234 14.3421C21.2279 14.4139 21.144 14.4461 21.0904 14.4733C21.0839 14.5724 21.0773 14.6716 21.0703 14.7705C21.0682 14.8037 21.0647 14.8438 21.0545 14.812C21.0434 14.776 21.009 14.7555 20.9752 14.7469L20.9942 14.6899C20.9704 14.6589 20.9305 14.6159 20.8945 14.5975L20.8325 14.6029C20.8259 14.6191 20.8192 14.6352 20.8125 14.6517C20.8416 14.7037 20.8862 14.7655 20.9482 14.7805C20.962 14.8295 20.9651 14.8565 21.0069 14.8895C21.0138 14.895 21.0226 14.8981 21.031 14.9015H21.0784C21.0868 14.8984 21.0942 14.8936 21.1024 14.8895L21.133 14.8587C21.1974 14.9553 21.2216 14.9594 21.2094 15.0801C21.2065 15.1073 21.1877 15.1465 21.1846 15.1753C21.1483 15.5197 21.1214 15.8655 21.0907 16.2108C20.9993 16.1347 20.9091 16.0572 20.8167 15.9825C20.8098 15.9771 20.801 15.9751 20.793 15.9724H20.7452C20.7452 15.9724 20.7312 15.9782 20.7276 15.9844C20.7118 16.0109 20.6998 16.0398 20.6861 16.0672C20.63 16.0687 20.5403 16.0272 20.4979 15.9926L20.4475 16.0677C20.3404 16.0693 20.2334 16.0669 20.1264 16.0693C20.0918 16.07 19.9938 16.2468 19.9717 16.2826C19.9884 16.3315 19.9982 16.3551 20.042 16.3809L19.995 16.5216C20.0342 16.5755 20.0194 16.7783 20.0194 16.8531L19.7579 16.9741L19.7856 17.094L19.8252 17.038C19.8343 17.0518 19.8435 17.0656 19.8527 17.0793V17.2102H19.6864L19.6148 17.3054H19.1864V17.0184C19.2394 16.9726 19.3026 16.8565 19.3529 16.83L19.2577 16.8057C19.2577 16.6825 19.2529 16.5595 19.2577 16.4367C19.2602 16.3732 19.3298 16.3529 19.3768 16.3295L19.3992 16.2393L19.329 16.2353V16.1869L19.4004 16.1631L19.4238 16.0697C19.3627 16.0152 19.3103 16.0202 19.2339 16.0202L19.1373 15.9236C19.1043 16.0731 19.0913 16.2077 19.0424 16.3531C19.0719 16.3632 19.1115 16.3937 19.1151 16.4275C19.0974 16.44 19.0685 16.46 19.0666 16.4843C19.0466 16.7496 19.0352 17.0159 19.0197 17.2815L18.5181 17.3056C18.4604 17.2317 18.3902 17.2048 18.3051 17.2565L18.2838 17.214C18.1627 17.194 18.1242 17.2606 18.0202 17.3047L17.9964 16.8288C18.0505 16.8641 18.1099 16.851 18.1703 16.845C18.1367 16.788 18.1242 16.7534 18.0558 16.7382C18.0408 16.7348 18.0078 16.699 17.9966 16.6862C17.9856 16.6738 18.0202 16.6625 18.0319 16.6508C18.0927 16.6392 18.1798 16.6015 18.2204 16.5543C18.2531 16.5163 18.2554 16.4471 18.254 16.3994C18.2535 16.3819 18.2331 16.3713 18.2225 16.3575C18.1457 16.3949 18.0725 16.4321 17.9964 16.4727C17.9339 16.1514 17.8619 15.8315 17.8082 15.5085C17.7995 15.4573 17.8103 15.3731 17.803 15.3179C17.7896 15.2208 17.7354 15.1274 17.7154 15.0324C17.6866 14.896 17.7471 14.8669 17.629 14.7462C17.6444 14.7386 17.6596 14.7307 17.6751 14.723L17.7588 14.7819L17.7345 14.8302C17.7476 14.8371 17.7948 14.8603 17.8178 14.848C17.8669 14.822 17.9239 14.8266 17.9726 14.8032C17.9739 14.6321 17.9808 14.4542 17.8988 14.2946C17.8509 14.1792 17.8857 14.1132 17.8344 13.9853C17.8306 13.9758 17.8483 13.97 17.8535 13.9615C17.9015 13.8844 17.9286 13.8133 17.9739 13.7343C18.0543 13.7112 18.1393 13.684 18.2106 13.6392C18.2414 13.5323 18.2848 13.4283 18.3025 13.3188C18.3258 13.1722 18.3208 13.0149 18.3311 12.8666C18.3396 12.7399 18.3847 12.6113 18.3999 12.4859C18.4059 12.4371 18.3754 12.2846 18.3783 12.224C18.3881 12.019 18.4465 11.8145 18.4477 11.6052C18.4491 11.3288 18.5357 11.0657 18.467 10.7959C18.416 10.5959 18.1865 10.1442 18.073 9.93912C18.0477 9.89327 17.9644 9.83176 17.9336 9.7726C17.858 9.62637 17.8595 9.525 17.7109 9.42887C17.693 9.33891 17.705 9.31082 17.6274 9.24904C17.5944 9.22276 17.5336 9.21796 17.4936 9.21751L17.3772 9.33275L17.0449 9.26027L16.949 9.3323C16.892 9.3323 16.7461 9.34353 16.6992 9.3323C16.6905 9.33021 16.6823 9.32586 16.6754 9.32034C16.6279 9.28238 16.6167 9.20899 16.596 9.15382C16.5876 9.13189 16.5593 9.12691 16.5404 9.12374L16.59 9.04963C16.5862 9.0239 16.579 9.00315 16.5564 8.996C16.4872 8.97425 16.4188 8.95777 16.3527 8.9266C16.3369 8.84642 16.2778 8.79705 16.2081 8.76144C16.2866 8.70092 16.2995 8.63741 16.2627 8.55868C16.2179 8.46238 16.1253 8.37486 16.0531 8.29686C15.9553 8.19167 15.8554 8.08051 15.7368 7.99916C15.6397 8.00269 15.5545 7.97651 15.4615 7.95195C15.441 7.94616 15.3864 7.95114 15.3664 7.95929C15.3523 7.96482 15.2106 8.05188 15.1999 8.0633C15.1068 8.1616 15.0114 8.2107 14.9156 8.29849C14.8605 8.34859 14.8079 8.42967 14.7832 8.50079C14.8748 8.60425 14.8454 8.76416 14.8548 8.89199C14.8557 8.90748 14.9013 8.9883 14.9022 9.01095C14.9065 9.10182 14.8984 9.1935 14.9027 9.28464C14.7445 9.37805 14.5869 9.52454 14.5428 9.70103C14.3087 10.64 14.1368 11.6322 13.929 12.581C13.9142 12.6482 13.8464 12.6777 13.9145 12.7475C13.9376 12.7712 13.9531 12.7833 13.986 12.7833L14.0108 12.7706C14.0128 12.7724 14.0816 12.8758 14.0943 12.8904C14.137 13.2914 14.2071 13.7544 14.2121 14.1517C14.2121 14.1572 14.2369 14.2145 14.2357 14.2233C14.2141 14.3997 14.1935 14.5742 14.1888 14.7576C14.2639 14.7595 14.3054 14.7777 14.3543 14.7078L14.3982 14.7407C14.3524 14.7722 14.309 14.7975 14.277 14.8421C14.2227 14.9173 14.1834 15.0105 14.1418 15.0927L14.5689 15.4014V16.3295L14.6405 16.3534V16.4486H14.5928V16.6625L14.8054 16.737C14.824 16.7437 14.7924 16.7749 14.7863 16.7937C14.723 16.8283 14.656 16.8949 14.6247 16.9602C14.5837 17.0466 14.5914 17.1282 14.5938 17.2214L14.5439 17.2224C14.5487 17.2286 14.5448 17.2061 14.5454 17.1982C14.5625 16.911 14.5105 16.5591 14.4976 16.2606C14.4173 16.1571 14.3042 16.174 14.1878 16.2055L14.1863 16.1153L13.8789 16.1392L13.8307 16.2105C13.6442 16.2041 13.4514 16.2291 13.2719 16.1815C13.109 16.1382 12.8103 15.9762 12.6414 15.9014C12.6297 15.8093 12.6321 15.7149 12.5692 15.6414C12.4723 15.6537 12.4692 15.7258 12.4763 15.8076C12.4394 15.7864 12.4086 15.7637 12.3675 15.7583C12.3077 15.7504 12.2239 15.7502 12.1646 15.7604L12.1412 15.8298C11.8993 15.9391 11.6599 16.054 11.4156 16.1575C11.3822 16.1716 11.3198 16.167 11.2846 16.1612V16.0944C11.2551 16.0789 11.2092 16.0696 11.1775 16.0726C11.1661 16.0736 11.0805 16.1115 11.0704 16.1204V16.2818H10.7134L10.4991 16.4963V16.6151L10.5469 16.6389V16.7081C10.3634 16.7221 10.2757 16.6464 10.1184 16.5676L10.0927 16.491C10.1957 16.5025 10.275 16.4965 10.3446 16.4127C10.3501 16.4061 10.3542 16.3975 10.3565 16.389C10.372 16.3286 10.3694 16.1626 10.2969 16.144C10.2356 16.1283 10.1578 16.1378 10.0946 16.1395L9.99948 14.6875C9.98064 14.6811 9.95908 14.6739 9.93987 14.6675C9.89167 14.6517 9.8818 14.6486 9.88017 14.6992C9.86468 15.1671 9.87328 15.6366 9.83297 16.1034C9.82391 16.2093 9.77906 16.2393 9.78667 16.3763C9.78767 16.3928 9.76112 16.3553 9.74826 16.3451C9.73014 16.2986 9.71872 16.2468 9.6631 16.2358C9.54242 16.2704 9.42247 16.3134 9.29717 16.327C9.15358 16.3424 9.00146 16.3302 8.85714 16.3295L8.73783 16.1153H8.46957C8.43614 15.9515 8.40035 15.7876 8.35288 15.6275C8.32978 15.5498 8.29109 15.4377 8.2264 15.3893C8.13273 15.3191 8.00707 15.2318 7.893 15.1872C7.86175 15.1748 7.6714 15.208 7.63136 15.2094C7.57936 15.2116 7.50253 15.1989 7.45261 15.1855C7.40541 14.73 7.37823 14.2718 7.31101 13.8186C7.29497 13.7322 7.23445 13.6559 7.19097 13.5808C7.19097 13.4775 7.18816 13.3744 7.19097 13.2712C7.19151 13.2542 7.22413 13.2229 7.23844 13.2147V12.8785L7.38204 12.9265C7.43341 12.898 7.48151 12.8745 7.53614 12.8546C7.5741 12.8409 7.60101 12.8916 7.63136 12.9047C7.68925 12.9211 7.74941 12.9269 7.80947 12.9259L7.85695 12.8549C7.92354 12.8363 7.99221 12.8246 8.05971 12.8096C8.08625 12.8035 8.14061 12.7504 8.14296 12.7237C8.15347 12.603 8.1282 12.4847 8.16371 12.3669C8.16634 12.3578 8.17304 12.3502 8.1802 12.3442C8.21454 12.3151 8.25059 12.2879 8.28583 12.2598C8.28583 12.1725 8.30993 12.0246 8.17304 12.0246C8.10908 12.0763 8.11914 12.1391 8.11914 12.2123L8.04757 12.2599C8.02827 12.3632 7.99701 12.3923 7.92879 12.4701C7.94573 12.3237 7.96911 12.2326 7.99982 12.0931H8.04784L8.09531 11.9981L8.02374 11.9504L8.09531 11.9026V11.522L8.02392 11.4506L8.09259 11.4275C8.12031 11.3758 8.14088 11.2827 8.13889 11.2243C8.13871 11.2167 8.08072 11.0637 8.07619 11.0578C8.04086 11.0111 7.9817 10.9725 7.97527 10.9149C7.81237 9.44346 7.70737 7.96147 7.54547 6.48808C7.53524 6.39459 7.47961 6.2798 7.39327 6.2412C7.09466 6.10785 6.78192 5.99949 6.47679 5.88126C6.46256 5.76557 6.45586 5.64634 6.42153 5.53609C6.40223 5.47457 6.32966 5.45065 6.27865 5.4252C6.33854 5.38243 6.43131 5.27897 6.40549 5.20287C6.39571 5.17379 6.30221 5.08428 6.27458 5.06C6.21496 5.00799 6.13478 4.98598 6.0604 5.00944C6.04826 5.01325 5.97787 5.07386 5.97234 5.08382C5.96211 5.10222 5.92985 5.18303 5.92895 5.20287C5.92134 5.34937 5.91318 5.49622 5.90195 5.64227C5.57326 5.54179 5.24295 5.44277 4.91806 5.33378C4.84577 5.3095 4.66711 5.41758 4.5968 5.45283C4.59698 5.71166 4.56718 5.96733 4.57361 6.22635C4.57416 6.24075 4.64038 6.34467 4.64518 6.36904C4.6614 6.45375 4.66303 6.54525 4.66566 6.63095C4.66928 6.74139 4.53855 6.89142 4.46462 6.96535C4.5362 7.01047 4.57769 6.99226 4.644 6.95104C4.7153 7.54264 4.79666 8.1327 4.857 8.7252C4.97985 9.93006 5.08476 11.1367 5.19284 12.3429C5.1981 12.4015 5.1981 12.4563 5.2212 12.5095C5.27058 12.6225 5.33409 12.7328 5.38029 12.8544L6.02435 12.8788L6.16767 12.7595L6.3822 12.7833L6.43104 12.8785L6.64358 12.8546C6.73852 13.8107 6.8332 14.7665 6.92814 15.7228C6.94128 15.7408 6.95297 15.7523 6.9768 15.7555V16.1151L7.02427 16.1392L7.0481 16.3534L7.11731 16.4226C7.03405 16.5405 7.07147 16.5604 7.0297 16.6697C7.04665 16.6821 7.07102 16.6998 7.07201 16.7221C7.077 16.8527 7.07201 16.9843 7.07201 17.115H7.11323L7.14331 17.1687C7.12347 17.1849 7.09656 17.1926 7.07174 17.1859L7.09539 17.35C6.99084 17.3849 6.85467 17.4237 6.75067 17.4506C6.66197 17.4736 6.57463 17.4733 6.48404 17.4702C6.51049 17.424 6.52979 17.3879 6.56893 17.352C6.56603 17.3405 6.56322 17.3288 6.56005 17.3174C6.52698 17.2789 6.51167 17.2639 6.46492 17.2636C6.44318 17.2636 6.41455 17.2982 6.41147 17.3174C6.40413 17.3624 6.4256 17.4103 6.4478 17.4483H6.31036V16.7579H6.35684L6.35784 16.6599C6.28509 16.5528 6.19802 16.5013 6.14439 16.3772H6.04844V16.4247H5.97597L5.93157 16.4956C5.90313 16.5028 5.87477 16.5099 5.84623 16.517C5.83137 16.5443 5.79341 16.5795 5.7868 16.6034C5.78318 16.6156 5.78245 16.6503 5.7868 16.6628L5.72909 16.6919C5.73163 16.7116 5.76487 16.7633 5.7858 16.7241C5.79251 16.773 5.79033 16.8445 5.76678 16.8888C5.76415 16.8939 5.73643 16.9148 5.72855 16.9178C5.76886 16.9669 5.77511 17.0327 5.78698 17.0926C5.84451 17.0872 5.86698 17.06 5.89026 17.0093C5.89724 16.9946 5.90412 17.0391 5.90584 17.0554C5.90983 17.0981 5.90584 17.1434 5.90584 17.1863H5.71523V17.1389C5.59238 17.1389 5.46926 17.1358 5.34641 17.1389C5.32593 17.1393 5.28281 17.19 5.27393 17.2088L5.23932 17.1389H5.16784V17.0673C5.15017 17.0793 5.13223 17.0912 5.11439 17.1031L5.09645 17.1389C5.02089 17.1376 4.94479 17.131 4.87041 17.1417C4.82194 17.1486 4.7115 17.1729 4.66811 17.188V17.2336C4.56935 17.2625 4.47251 17.2537 4.37058 17.2577C4.3415 17.2588 4.30191 17.2891 4.28261 17.3078C4.27618 17.2952 4.27002 17.2825 4.2635 17.2695C4.25734 17.2572 4.26812 17.195 4.27401 17.1801C4.32583 17.1978 4.39568 17.1458 4.43001 17.1084C4.43001 17.0029 4.41452 16.9438 4.4629 16.8472C4.43672 16.8369 4.40021 16.7893 4.40284 16.7579H4.17317L4.15451 16.8042C4.12516 16.7883 4.08819 16.7623 4.0968 16.7221C4.11229 16.652 4.1681 16.5876 4.21965 16.5407C4.26685 16.5471 4.28977 16.5492 4.32293 16.508C4.33987 16.487 4.33887 16.4504 4.33289 16.4252C4.37058 16.3921 4.41235 16.363 4.43246 16.3176C4.44342 16.2931 4.47223 16.1752 4.47368 16.1512C4.47513 16.1285 4.47866 16.1153 4.47731 16.091C4.4417 16.0557 4.41172 16.0138 4.35844 16.0083C4.32655 16.0049 4.29195 15.9923 4.32293 15.9844L4.38254 15.9696C4.38254 15.903 4.38499 15.8367 4.38254 15.7702C4.38064 15.7251 4.29647 15.7074 4.2635 15.7108V15.6631H4.3348V15.5174C4.28334 15.534 4.25353 15.4978 4.22771 15.4608C4.18984 15.4059 4.16665 15.3206 4.16647 15.2543C4.13213 15.2432 4.10704 15.2239 4.09915 15.1872H4.04624C4.04479 15.2103 4.0245 15.2277 4.00683 15.2394C3.99922 15.1777 4.00086 15.1145 3.97966 15.0563C3.96869 15.0258 3.88924 14.983 3.85898 14.9731C3.84512 14.9043 3.84729 14.8354 3.76331 14.8285L3.73975 14.7589L3.66646 14.7343C3.64907 14.667 3.6314 14.6494 3.59208 14.5966L3.31087 14.8547C3.31422 14.9027 3.3163 14.9396 3.30443 14.985C3.30054 14.9995 3.2469 15.0799 3.23286 15.092H3.20043C3.13647 15.1469 3.1448 15.2065 3.1448 15.2825H3.19255V15.3298C3.19255 15.3339 3.18439 15.3298 3.18059 15.3298H3.1448V15.4747C3.22851 15.5136 3.25116 15.5753 3.2383 15.6631H3.12098L2.8827 15.9727L2.93036 16.2582L3.02558 16.3076L3.0012 16.4937C2.94802 16.5011 2.8018 16.4906 2.75224 16.4638C2.65802 16.4135 2.52367 16.3007 2.43162 16.2349C2.32281 16.2773 2.215 16.3154 2.1167 16.3789C2.0984 16.3744 2.08028 16.3699 2.06189 16.3654C2.04214 16.3603 2.0955 16.3374 2.1003 16.3176C2.15593 16.0893 2.19027 15.8561 2.24363 15.6275C2.29545 15.4059 2.36512 15.1526 2.43262 14.9372C2.45853 14.8535 2.45925 14.7467 2.45409 14.6596C2.43542 14.6744 2.4106 14.6839 2.39801 14.704C2.31257 14.8394 2.21817 14.9766 2.16572 15.1276C2.0214 15.5453 1.94457 16.0161 1.83603 16.4479C1.69434 16.4875 1.55672 16.5242 1.41077 16.5433C1.37489 16.458 1.34636 16.3799 1.39093 16.2932C1.34699 16.2768 1.28022 16.265 1.25947 16.2225C1.10944 15.8874 0.964669 15.556 0.81772 15.2228C0.807483 14.7911 0.812464 14.3579 0.812464 13.9257H0.669593L0.53125 13.7873C0.586333 13.7453 0.743067 13.6597 0.812464 13.6379L0.836383 13.4021L0.97871 13.3529L0.955156 13.164L0.836383 13.0452V12.6166L1.02646 12.6151C1.01903 12.556 0.999276 12.4974 1.00426 12.4382C1.01404 12.3182 1.04095 12.2016 1.02673 12.0811C1.02428 12.0608 0.980161 11.9882 0.978983 11.9622C0.969924 11.7567 0.982064 11.5489 0.978983 11.3433C0.978712 11.3266 0.94537 11.2949 0.931509 11.2868C0.931509 11.0993 0.947997 10.9111 0.931509 10.7246C0.926254 10.6659 0.885032 10.5798 0.883855 10.5104C0.880231 10.2988 0.880956 10.1283 0.881952 9.91529C0.882315 9.80222 0.834932 9.66986 0.833482 9.53451C0.829224 9.14286 0.820076 8.75102 0.812285 8.35955C0.842091 8.32567 0.882858 8.27222 0.931509 8.26198C0.931509 8.05949 0.948269 7.85628 0.931509 7.65425C0.928428 7.61847 0.868544 7.50821 0.864014 7.46391C0.860209 7.42885 0.882135 7.33725 0.88141 7.29739C0.880957 7.2616 0.836564 7.16928 0.836383 7.13069C0.821978 5.51697 0.836383 3.89926 0.836383 2.28518C0.900526 2.27087 0.948633 2.16831 0.956334 2.10888C1.03479 1.50904 1.08299 0.891162 1.14568 0.288146L1.43079 0.266946C1.2891 0.991906 1.13073 1.71388 1.00517 2.4421C0.984419 2.5616 0.98904 2.74243 0.981339 2.87053C0.980886 2.87814 0.98161 2.8863 0.98161 2.89436C0.981882 2.92063 0.983965 2.95352 0.990941 2.92797L1.74082 0.216665L2.07385 0.193019L1.71817 1.73435L1.81239 1.71505L2.3355 0.216846C3.88643 0.212407 5.43827 0.195374 6.98875 0.235962C7.36156 0.245747 7.8054 0.356909 8.17875 0.407463C8.34907 0.430565 8.57257 0.436998 8.74978 0.430565C8.76047 0.430384 8.82734 0.387713 8.845 0.383364C8.87309 0.376478 8.92654 0.378834 8.95426 0.386716L9.00002 0.454664L9.3094 0.478491C9.39357 0.53294 9.4193 0.535296 9.40426 0.633141C9.39411 0.699911 9.33948 0.778368 9.30777 0.837528C9.3643 0.842511 9.41694 0.837981 9.46396 0.86806C9.62903 0.973243 9.82989 1.11258 9.98752 1.23135C10.4335 1.56765 10.8224 2.00352 11.1179 2.47698V2.85857C11.0812 2.85477 11.0397 2.86365 11.0158 2.89436C11.0247 2.94473 11.0354 3.0115 11.0945 3.02319L11.0703 3.69107L11.1417 3.69152C11.1956 3.58399 11.2438 3.48596 11.3228 3.39409C11.3617 3.34879 11.4058 3.30368 11.4511 3.26481C11.5098 3.48161 11.5769 3.69605 11.615 3.91766C11.6445 4.0887 11.6632 4.26754 11.6644 4.44122C11.6727 5.51434 11.6491 6.59472 11.6415 7.66875C11.5969 7.70508 11.5816 7.7212 11.5732 7.7733C11.5692 7.79758 11.5771 7.8243 11.5909 7.84487C11.6052 7.8658 11.6415 7.89298 11.6656 7.90203L11.6898 8.13016L11.7352 8.12481C11.9277 7.2597 12.1078 6.39214 12.2843 5.52367L12.4508 5.47665V5.28631C12.4239 5.2594 12.3961 5.23675 12.3795 5.20287C12.3793 5.19617 12.3802 5.1621 12.3819 5.1554C12.4582 4.80741 12.5146 4.45463 12.5965 4.108C12.7815 3.32805 13.0187 2.55969 13.1855 1.77566C13.2885 1.29169 13.3341 0.714406 13.4028 0.216665C13.867 0.216846 14.3317 0.243119 14.7951 0.216665C15.255 0.190663 15.7588 0.0875636 16.2232 0.049694C16.6633 0.0136362 17.1372 0.0053013 17.5799 4.66584e-05C17.5878 -0.000225134 17.5956 0.000771415 17.6035 0.000952609C17.6334 0.00267396 17.6704 0.00820039 17.6412 0.014361C17.5806 0.0270446 17.5346 0.0403624 17.4919 0.0859329C17.4609 0.11882 17.4962 0.168467 17.5201 0.192566C18.3809 0.207786 19.2418 0.22953 20.1026 0.238771C20.1301 0.239042 20.1765 0.247649 20.1977 0.264319H20.9475L20.9715 0.216665H23.1372C23.1992 0.395051 23.2448 0.580141 23.3233 0.752186C23.3454 0.800293 23.4294 0.884458 23.4587 0.942712C23.504 1.03267 23.5221 1.14329 23.5766 1.22818C23.6152 1.28861 23.7596 1.38899 23.783 1.46627C24.2699 3.06441 24.7027 4.69888 25.1597 6.30797C25.1888 6.30299 25.215 6.29457 25.2353 6.27382C25.3596 5.85336 25.47 5.42828 25.6091 5.01252C25.6362 4.93099 25.7076 4.85624 25.7333 4.77443C25.7596 4.69145 25.7515 4.60774 25.7309 4.5252C25.7596 4.44212 25.7897 4.35941 25.8125 4.2747C26.1711 2.93395 26.5293 1.5932 26.8881 0.25236L26.8976 0.216665C27.9409 0.216665 28.985 0.176077 30.0274 0.216665C30.1538 0.221648 30.3377 0.2433 30.4795 0.263594C30.4944 0.265769 30.5526 0.310614 30.5748 0.311792C30.7262 0.320127 30.924 0.295122 31.0748 0.28869C31.2071 0.282982 31.3467 0.301102 31.4793 0.311339C31.4962 0.312517 31.527 0.345222 31.5358 0.359537C31.5866 0.359537 31.6522 0.369502 31.6935 0.335619C31.6981 0.332086 31.7216 0.315144 31.7286 0.309889L31.7051 0.216665H33.9425C33.9133 0.275553 33.8781 0.304454 33.8949 0.371405C33.9028 0.402661 33.95 0.42984 33.9784 0.426579C33.9881 0.425401 34.0461 0.392424 34.0594 0.384542C34.0649 0.353557 34.0633 0.327375 34.0497 0.300105L34.0139 0.264319H34.0854L34.1093 0.216665H38.6788L38.7044 0.0983447C38.9886 0.118367 39.2553 0.155783 39.5475 0.168739C39.5897 0.191116 39.6499 0.202985 39.6797 0.221376C39.7152 0.322301 39.7346 0.418153 39.7494 0.52388C39.7779 0.550335 39.8283 0.578511 39.8681 0.584218L39.8927 0.216665H40.2257L40.2497 0.788606C40.3445 0.853745 40.4108 0.938454 40.4837 1.02597H40.2994C40.2785 1.06031 40.251 1.11611 40.2497 1.15688C40.2402 1.47443 40.2097 1.92334 40.2717 2.22793C40.2899 2.31644 40.3327 2.41682 40.3865 2.48957C40.4313 2.55045 40.6054 2.66605 40.6798 2.73572C40.4595 3.23283 40.2367 3.7168 40.0031 4.2072C39.9592 4.2285 39.9673 4.26636 39.9521 4.28666C39.9447 4.29671 39.9461 4.26238 39.9419 4.25087C39.9361 4.23611 39.9246 4.22397 39.9132 4.213C39.9018 4.22397 39.8854 4.2313 39.8787 4.24589C39.0023 6.14861 38.1316 8.05351 37.2894 9.97137C37.2724 9.96983 37.2557 9.96847 37.2388 9.96675C37.2367 9.96675 37.1861 9.93413 37.1797 9.92734L37.0132 10.0465L37.1553 10.2134L35.7037 13.4259H35.6323C35.5312 13.668 35.4236 13.9075 35.3279 14.1517C35.306 14.2112 35.2898 14.2804 35.2783 14.3421C35.2769 14.3712 35.3117 14.4012 35.3348 14.4018C36.693 14.4254 38.0575 14.417 39.4166 14.4256C39.4239 14.3819 39.4311 14.3383 39.4385 14.2946C39.4471 14.2427 39.4479 14.2522 39.4999 14.2607L39.6308 14.283L39.6547 14.4251C39.74 14.4285 39.8192 14.423 39.8939 14.3769C39.9547 14.4225 40.0589 14.4018 40.1308 14.4018V14.8063C40.0077 14.8219 39.8844 14.8346 39.7618 14.8526C39.7371 14.8562 39.7045 14.8908 39.7014 14.9135C39.6876 15.0146 39.686 15.1317 39.6785 15.2346C39.3491 15.078 39.0219 14.917 38.6907 14.7646C38.6579 14.7497 38.6075 14.7411 38.5718 14.7373C38.5424 14.7548 38.554 14.7402 38.5249 14.7715C38.2351 15.0841 37.9416 15.394 37.6434 15.6987C37.6172 15.7253 37.5704 15.7449 37.5353 15.7573L37.4892 15.7113C37.5365 15.6578 37.5842 15.6333 37.6436 15.5977C37.671 15.5811 37.6921 15.5253 37.6984 15.4968C37.4795 15.5317 37.2577 15.5205 37.0365 15.5205L36.9667 15.427C36.8937 15.4347 36.8516 15.5183 36.8691 15.5799C36.8937 15.667 36.9284 15.7509 36.9389 15.8418C36.9495 15.9307 36.942 16.0257 36.9414 16.1153C36.8989 16.1153 36.8429 16.1097 36.8073 16.1382L36.8218 16.1965C36.8745 16.2133 36.8951 16.2019 36.9414 16.1869V16.4488C36.7484 16.6661 36.5511 16.8805 36.3643 17.1031C36.3603 17.1078 36.3474 17.1384 36.3454 17.144C36.3746 17.2424 36.3844 17.3095 36.4097 17.4006C36.3908 17.4034 36.3551 17.4037 36.3345 17.3927C36.2747 17.3605 36.196 17.3174 36.1835 17.246C36.1802 17.2262 36.1933 17.2033 36.2053 17.1883L36.1084 17.0435H35.9472L35.9178 17.3056C35.8463 17.3724 35.7728 17.4342 35.6962 17.4926C35.6497 17.46 35.5846 17.4719 35.5312 17.4719C35.5419 17.5175 35.5257 17.5389 35.4885 17.5651L35.513 17.6145L35.0136 17.6389L34.9907 17.6842L34.9002 17.6861Z" fill="white"/>
<path d="M27.1976 12.9291C27.1959 12.9171 27.1945 12.9053 27.1959 12.8933C27.2098 12.8657 27.2406 12.8556 27.2673 12.8695C27.2732 12.8774 27.2794 12.8852 27.2855 12.8933L27.2674 12.9291H27.1976Z" fill="white"/>
<path d="M24.4837 17.9614C24.4606 17.9428 24.4646 17.916 24.4934 17.923C24.5586 17.9385 24.5901 17.9561 24.6395 17.9991C24.5701 18.0022 24.5346 18.0016 24.4837 17.9614Z" fill="white"/>
<path d="M10.9449 16.789C10.9408 16.7831 10.9359 16.7775 10.933 16.7711C10.9244 16.7508 10.9349 16.7024 10.9401 16.6836C10.9581 16.6965 10.9759 16.7091 10.994 16.722C10.9974 16.7303 11.0007 16.7389 11.0043 16.7473C11.0034 16.7747 10.989 16.7866 10.9687 16.8009C10.9607 16.7968 10.9528 16.793 10.9449 16.789Z" fill="white"/>
<path d="M21.8346 15.2339C21.8305 15.2279 21.8231 15.2232 21.8226 15.216C21.8172 15.143 21.8149 15.0879 21.7969 15.0156C21.8271 15.0297 21.8515 15.0462 21.8696 15.0733L21.873 15.2532C21.86 15.2467 21.8474 15.2403 21.8346 15.2339Z" fill="white"/>
<path d="M3.58087 14.8579C3.53793 14.8364 3.53938 14.756 3.56465 14.7963C3.57634 14.8149 3.57371 14.7863 3.58087 14.7937L3.63215 14.8185L3.6066 14.8708C3.59799 14.8665 3.58948 14.8622 3.58087 14.8579Z" fill="white"/>
<path d="M26.6863 17.1423C26.6767 17.0635 26.6529 16.9877 26.6202 16.9161C26.5523 16.7783 26.5024 16.6423 26.4251 16.5114C26.4089 16.4842 26.412 16.445 26.4251 16.4161C26.4413 16.3847 26.475 16.2924 26.4844 16.2773C26.5343 16.4377 26.6014 16.5915 26.657 16.7494C26.688 16.8377 26.6257 16.8558 26.7104 16.9493L26.78 16.9515C26.7848 16.934 26.7894 16.9166 26.7938 16.8994C26.802 16.8691 26.8041 16.9085 26.8047 16.9398L26.8058 17.1423H26.6863Z" fill="white"/>
<path d="M40.3277 14.8565C40.3227 14.8525 40.3149 14.8503 40.3127 14.8446C40.3016 14.8152 40.2968 14.7806 40.2891 14.7504C40.3099 14.7343 40.326 14.7213 40.3517 14.7148C40.409 14.7435 40.3698 14.8313 40.3573 14.8801C40.3476 14.872 40.3375 14.8644 40.3277 14.8565Z" fill="white"/>
<path d="M37.0817 16.242C37.0817 16.1304 37.0724 16.0668 37.057 15.9562C37.0481 15.8932 37.0669 15.815 37.0824 15.7539H37.3667L37.4145 15.9211L37.3035 16.0321C37.289 16.0199 37.2747 16.008 37.2602 15.9961C37.2113 16.012 37.1702 16.0342 37.1323 16.0693L37.1533 16.1349L37.2181 16.1351C37.1929 16.2043 37.1363 16.2489 37.0817 16.2947V16.242Z" fill="white"/>
<path d="M12.7266 16.2295C12.7556 16.202 12.79 16.1775 12.8282 16.1641L12.8697 16.1806L12.7871 16.2469C12.8167 16.2191 12.8086 16.229 12.8043 16.2295H12.7266Z" fill="white"/>
<path d="M30.9688 16.1189C30.8707 16.1116 30.7727 16.104 30.6747 16.0963C30.6606 16.0013 30.6856 16 30.7191 15.9176C30.726 15.9005 30.7252 15.8418 30.7191 15.8225C30.7162 15.8142 30.7112 15.8066 30.7058 15.7999C30.6411 15.7245 30.5471 15.6978 30.4573 15.6679C30.4555 15.5685 30.4283 15.4628 30.4624 15.3702C30.6085 14.9735 30.8285 14.5447 31.0009 14.1523C31.1493 14.6671 31.3454 15.1668 31.5002 15.6795C31.5038 15.691 31.4795 15.8247 31.4844 15.8463C31.4916 15.8779 31.5363 16.0178 31.5501 16.0428C31.4718 16.0641 31.3829 16.0782 31.3021 16.0716C31.2858 16.0701 31.1141 16.031 31.0995 16.025L30.9807 16.1199C30.9769 16.1198 30.9728 16.1192 30.9688 16.1189Z" fill="white"/>
<path d="M22.8593 17.9266C22.856 17.887 22.8555 17.8474 22.858 17.8078L23.2387 17.784V17.665L22.856 17.6411C22.882 17.6113 22.8915 17.5922 22.9056 17.5579V17.5101C22.9056 17.5101 22.8982 17.494 22.8936 17.4863C22.8887 17.478 22.8469 17.4396 22.8359 17.4286L22.8628 17.3446C22.8863 17.3521 22.9292 17.3697 22.9275 17.4036C22.9638 17.3962 23.0006 17.3909 23.0365 17.3816C23.0489 17.3785 23.0704 17.3444 23.0735 17.332C23.1668 17.3506 23.198 17.3492 23.2746 17.415C23.2873 17.426 23.2991 17.4378 23.3101 17.4508V17.5221H23.0959L23.1231 17.5937C23.2588 17.5622 23.4232 17.53 23.5601 17.5238C23.6043 17.5216 23.6708 17.5341 23.713 17.5472C23.7331 17.5865 23.7316 17.6132 23.7237 17.6495C23.6844 17.6864 23.6476 17.6901 23.5966 17.6874L23.5479 17.7601L23.6207 17.8088C23.5033 17.8489 23.396 17.921 23.2746 17.9455C23.1839 17.9636 22.9576 17.9389 22.8593 17.9266Z" fill="white"/>
<path d="M21.7987 15.9303C21.7977 15.9211 21.8343 15.8351 21.8412 15.8203C21.8512 15.8373 21.8639 15.8613 21.8662 15.8826C21.868 15.8969 21.8642 15.9417 21.8617 15.9493L21.7973 15.9346C21.7959 15.9341 21.7983 15.9317 21.7987 15.9303Z" fill="white"/>
<path d="M23.9525 17.8522C23.9428 17.8481 23.9327 17.8441 23.9229 17.8402C23.9044 17.8329 23.9181 17.8277 23.9349 17.8164L23.9759 17.7891L24.0093 17.8389C24.0183 17.8466 23.9878 17.8489 23.9764 17.8522C23.9688 17.8539 23.9606 17.8522 23.9525 17.8522Z" fill="white"/>
<path d="M7.63769 16.6981C7.60688 16.7294 7.58922 16.7532 7.58043 16.7103C7.57853 16.7005 7.5778 16.6638 7.57826 16.6505C7.60145 16.6319 7.59547 16.6192 7.63769 16.6146C7.65744 16.6125 7.67746 16.6132 7.6973 16.6146C7.6809 16.6475 7.66342 16.6721 7.63769 16.6981Z" fill="white"/>
<path d="M0.889704 16.3278C0.881822 16.3237 0.873216 16.3209 0.865877 16.3158L0.818404 16.2684C0.818404 16.2684 0.806717 16.2531 0.806445 16.2445C0.801191 16.1103 0.735417 15.9672 0.899761 15.9023C0.979396 16.0049 1.01301 16.0391 0.995431 16.1725L0.905921 16.1707L0.902116 16.2806L0.972963 16.3278H0.889704Z" fill="white"/>
<path d="M31.6624 16.0654C31.6248 16.0654 31.5913 16.0616 31.6204 16.0375C31.654 16.0099 31.6982 15.9967 31.7419 16.0007C31.7222 16.0375 31.7049 16.0654 31.6624 16.0654Z" fill="white"/>
<path d="M25.2921 17.1374C25.4018 17.0734 25.4283 17.0489 25.4443 16.9229L25.5158 16.9233L25.5157 17.1138L25.2921 17.1374Z" fill="white"/>
<path d="M8.16099 16.5416C8.14096 16.5208 8.12348 16.4994 8.10944 16.4738C7.90287 16.4331 7.75429 16.3794 7.5625 16.3059V16.2129H7.70537L7.75284 16.3319L7.87216 16.3796L7.91954 16.3319H8.15736L8.18055 16.2394C8.18961 16.2341 8.22658 16.2187 8.24089 16.217C8.29743 16.2098 8.38449 16.1931 8.43124 16.2308C8.49158 16.2794 8.46367 16.3623 8.42933 16.4138C8.42363 16.4221 8.343 16.4762 8.33611 16.4782C8.28909 16.4903 8.23781 16.498 8.19315 16.5128C8.18744 16.5146 8.16479 16.5373 8.16099 16.5416Z" fill="white"/>
<path d="M23.1293 17.0152C23.0647 16.965 22.9917 16.926 22.9157 16.8964C22.8762 16.8296 22.8479 16.7557 22.8232 16.6832C22.9048 16.5538 22.9697 16.4362 22.962 16.2793C22.922 16.2335 22.8755 16.1863 22.82 16.1596C22.8121 15.7665 22.8044 15.3731 22.7972 14.9803C22.7965 14.9502 22.7971 14.9204 22.7972 14.8906C23.1296 15.4473 23.4369 16.0178 23.7478 16.5866C23.706 16.5935 23.6706 16.6056 23.6343 16.6257C23.6233 16.6671 23.6138 16.7046 23.5932 16.7414C23.5844 16.7567 23.4466 16.8902 23.4265 16.9033C23.318 16.9742 23.2798 16.967 23.1649 17.0033C23.1529 17.0068 23.141 17.0111 23.1293 17.0152Z" fill="white"/>
<path d="M26.9086 17.1701C26.9053 17.1622 26.8974 17.1548 26.8986 17.1461C26.9107 17.043 26.9396 16.9409 26.9444 16.8368C26.9546 16.6119 26.9429 16.3855 26.952 16.1603C26.9526 16.1406 26.9622 16.1985 26.9628 16.2181C26.9694 16.4324 26.9875 16.6462 26.9913 16.8607C26.9935 16.9818 26.9768 17.1064 26.9682 17.2273C26.9486 17.2095 26.9272 17.1894 26.9086 17.1701Z" fill="white"/>
<path d="M3.25567 17.5119C3.25186 17.5041 3.24425 17.4969 3.2438 17.488C3.24017 17.3972 3.2438 17.3054 3.2438 17.2142L3.33893 17.1906C3.34083 17.1827 3.34753 17.1563 3.35088 17.1432C3.35569 17.125 3.37163 17.1326 3.37471 17.1514L3.38685 17.2145L3.45797 17.2383L3.4808 17.3297L3.33938 17.3806L3.33775 17.4845L3.2621 17.5249L3.25567 17.5119Z" fill="white"/>
<path d="M10.8791 17.2834C10.8855 17.2395 10.8961 17.1961 10.9111 17.1541C10.9161 17.1363 10.9306 17.1404 10.9349 17.1581C10.9488 17.2145 10.9502 17.2897 10.9456 17.3479L10.8791 17.2834Z" fill="white"/>
<path d="M14.7979 17.5291C14.8046 17.5025 14.8111 17.4758 14.8178 17.4493L14.75 17.4208C14.7951 17.4019 14.8375 17.3618 14.8669 17.3229C14.8671 17.2742 14.9 17.1939 14.8931 17.1562L14.9604 17.1643C14.9491 17.2097 14.9461 17.2671 14.8901 17.2765C14.8901 17.4071 14.9291 17.5102 14.7872 17.5715C14.7908 17.5572 14.7943 17.5431 14.7979 17.5291Z" fill="white"/>
<path d="M3.07267 17.3996C3.08245 17.3642 3.08961 17.3283 3.09369 17.2922C3.09341 17.2755 3.07484 17.1668 3.07031 17.1524L3.11896 17.1484C3.12712 17.1647 3.14188 17.1789 3.14324 17.1971C3.1504 17.2794 3.14324 17.3836 3.14324 17.4683L3.07267 17.3996Z" fill="white"/>
<path d="M15.8635 17.4709C15.8407 17.474 15.8013 17.4569 15.7812 17.448L15.828 17.4012V16.7969C15.879 16.8216 15.9363 16.8705 15.9747 16.9135C16.0029 16.9446 16.0166 16.99 16.0188 17.0324C16.0255 17.1623 16.0248 17.3165 16.0153 17.4456C15.9646 17.4538 15.9141 17.4628 15.8635 17.4709Z" fill="white"/>
<path d="M24.1743 17.4191C24.1646 17.3793 24.1614 17.3371 24.1664 17.2961C24.1664 17.2958 24.19 17.2485 24.1903 17.2485C24.2008 17.2431 24.2139 17.2485 24.2258 17.2485C24.2054 17.2905 24.2296 17.3628 24.2387 17.4079L24.1745 17.4206C24.1741 17.4206 24.1743 17.4194 24.1743 17.4191Z" fill="white"/>
</svg>
