<svg width="32" height="26" viewBox="0 0 32 26" fill="none" xmlns="http://www.w3.org/2000/svg">
<rect width="32" height="26" fill="black"/>
<path d="M0.101286 0.0313757C0.298265 -0.0847852 0.423785 0.149995 0.530042 0.273531C7.36715 8.73361 14.2123 17.1875 21.0488 25.6476C21.1893 25.7681 21.083 26.0256 20.8935 25.9979C17.62 26.0016 14.3459 25.9992 11.0725 25.9992C10.8102 26.0022 10.5592 25.8732 10.3983 25.671C7.00177 21.4738 3.60714 17.2748 0.21065 13.077C0.0664882 12.9074 -0.00807775 12.688 0.00124304 12.4673C0.00124304 8.41217 0.00248554 4.35637 0 0.301188C0.00186416 0.20531 -0.00186385 0.0811589 0.101286 0.0313757Z" fill="white"/>
<path d="M31.7215 0.0119201C31.8613 -0.0403215 32.0154 0.0875169 31.9949 0.232564C31.9999 4.28959 31.9943 8.34662 31.9974 12.4036C32.0067 12.6335 31.9558 12.8714 31.8048 13.0521C30.7726 14.3292 29.7393 15.6057 28.7072 16.8823C28.535 17.1035 28.2535 17.2259 27.9721 17.2117C24.7203 17.2086 21.468 17.2136 18.2163 17.2093C18.0243 17.2388 17.9149 16.9825 18.0566 16.8589C22.566 11.2789 27.0791 5.70073 31.591 0.121935C31.6252 0.0739955 31.6687 0.0371191 31.7215 0.0119201Z" fill="white"/>
</svg>
