<svg width="106" height="51" viewBox="0 0 106 51" fill="none" xmlns="http://www.w3.org/2000/svg">
    <path fill-rule="evenodd" clip-rule="evenodd"
          d="M64.5781 24.7627V18.357C65.5125 18.1355 66.3001 17.9522 66.7732 17.8457C67.1295 17.7655 67.303 17.1804 67.395 16.2521C67.4929 15.2724 67.3087 15.2276 66.4204 15.1639C65.9183 15.1278 65.2836 15.097 64.5781 15.0698V5H77.1587L79.8129 7.64521V17.3704L77.1587 20.0158L78.32 22.8748L75.8448 23.4277L75.7847 23.2048L74.2757 23.6077C74.2126 23.4591 74.1402 23.3146 74.0585 23.1752H73.0683L72.6566 22.0403H69.7849V21.6104C69.2177 21.4866 68.6398 21.4188 68.0591 21.408C67.4896 21.4163 66.9225 21.4841 66.3674 21.6104V22.0403H65.5661L64.5781 24.7627ZM75.9639 16.1809H68.4265V8.67007H75.9639V16.1809Z"
          fill="#FF3358"/>
    <path d="M78.8287 24.1055L80.4842 28.1813H73.6953V27.7772H74.7472L74.1925 26.2485C74.2944 26.0491 74.3798 25.842 74.4483 25.6291L76.3118 25.1315L76.2518 24.9086L78.8287 24.1055Z"
          fill="#FF3358"/>
    <path d="M58.8781 14.9095L56.2688 5H52.7515L50.1562 14.9099C51.4292 14.8756 52.4 14.8409 52.6496 14.7956C53.1221 14.7102 53.184 14.6043 53.2101 14.2683C53.2161 14.1923 53.2186 13.9921 53.2224 13.7215C53.2349 12.795 53.2584 11.0429 53.4592 10.6227C53.6946 10.1905 53.9764 9.78483 54.2998 9.41267H54.7513C55.0746 9.78485 55.3565 10.1905 55.5919 10.6227C55.7933 11.044 55.8169 12.8043 55.8292 13.7288C55.8327 13.9958 55.8353 14.1931 55.841 14.2683C55.8665 14.6041 55.9291 14.7102 56.4015 14.7956C56.6502 14.8407 57.6135 14.8753 58.8781 14.9095Z"
          fill="#FF3358"/>
    <path d="M48.9589 19.4492C50.727 19.889 52.1946 20.2723 52.4542 20.3886C52.9203 20.5976 53.1587 20.7476 53.2016 21.1332C53.2357 21.4387 53.6224 25.8463 53.6224 25.8463C52.8518 26.0043 52.0921 26.2098 51.3477 26.4615C51.2685 26.4913 51.1953 26.5174 51.1277 26.5417C50.6588 26.7092 50.4594 26.7803 50.4594 27.2633V28.0434C50.4594 28.044 50.4592 28.0452 50.4592 28.0465C50.4584 28.0618 50.4556 28.1177 50.49 28.182H46.6719L48.9589 19.4492Z"
          fill="#FF3358"/>
    <path d="M45.9876 18.721L44.6202 28.1816H38.8188L38.8234 22.3967C38.8234 22.3967 38.9186 22.3596 38.3486 22.3967H38.349C38.071 22.4147 37.3344 22.8168 36.4936 23.2758C35.6118 23.7572 34.6153 24.3012 33.9124 24.5306C32.5617 24.9716 29.9563 25.1057 29.9563 25.1057C30.6161 25.84 31.2079 26.6317 31.7239 27.4714C31.8477 27.6844 31.9601 27.9273 32.0608 28.1816H29.9658L26.6484 5H30.6626L32.5457 19.6649L34.8428 6.91745H38.3881V11.0175C38.0077 11.0652 37.6506 11.2246 37.3625 11.4753V12.0927H34.6871L36.2012 12.6366H37.7143V15.734C37.1665 15.8446 36.6454 16.0589 36.1794 16.3652V17.7367H36.529V20.3223H35.6399L35.6391 20.325L33.1645 18.988L32.9002 19.4441L35.4486 21.0024L35.2015 21.8802H35.1663L31.5094 19.9044L31.2453 20.3605L33.7656 21.9016L33.3859 22.7288L29.8541 20.8207L29.5899 21.2767L33.0743 23.4074L32.7408 24.1344C33.1175 24.0707 33.4894 23.9815 33.854 23.8675C34.5653 23.6323 35.5741 23.0746 36.4665 22.581C37.3178 22.1102 38.0637 21.6979 38.3454 21.6792C38.4976 21.6692 38.5619 21.662 38.586 21.6573C38.6101 21.662 38.6742 21.6692 38.8266 21.6792C39.1081 21.6979 39.8534 22.1102 40.7045 22.5806C41.5971 23.0743 42.6063 23.6323 43.318 23.8675C43.6828 23.9817 44.0549 24.0707 44.432 24.1344L43.3975 21.8802H41.9722L41.5344 20.3227L40.6467 20.3229V17.7369H40.9935V16.3649C40.5284 16.0593 40.0085 15.8453 39.4616 15.7346V12.6362H40.8066L42.0427 19.4994L42.2611 17.844C42.2631 17.8444 42.2648 17.8448 42.2666 17.8452C42.9814 18.0059 44.4146 18.3426 45.9876 18.721Z"
          fill="#FF3358"/>
    <path d="M46.5197 15.0027L47.9655 5H43.9511L42.6094 15.1637C42.611 15.1636 42.6123 15.1635 42.6139 15.1634C43.5748 15.0943 45.0205 15.0442 46.5197 15.0027Z"
          fill="#FF3358"/>
    <path d="M40.7081 12.0967L39.7761 6.92188H38.7891V11.022C39.1679 11.0701 39.5238 11.2292 39.8111 11.4789V12.0967H40.7081Z"
          fill="#FF3358"/>
    <path d="M58.5463 28.1836C58.5809 28.1193 58.5781 28.0634 58.5773 28.0481C58.5771 28.0467 58.5772 28.0455 58.5772 28.045V27.2648C58.5772 26.7819 58.3775 26.7107 57.909 26.5433C57.8412 26.519 57.768 26.4929 57.6888 26.4631C56.9444 26.2113 56.1847 26.0059 55.4141 25.8478C55.4141 25.8478 55.8008 21.4403 55.8349 21.1348C55.8778 20.7491 56.1162 20.5985 56.5821 20.3901C56.8411 20.2741 58.3041 19.8919 60.0679 19.4531L62.3668 28.1836H58.5463Z"
          fill="#FF3358"/>
    <path d="M89.8332 15.885L88.4693 12.9922L87.1046 15.8852L83.9219 16.284L86.2625 18.4711L85.6591 21.6103L88.4693 20.0686L91.2794 21.6105L90.6764 18.4711L93.0161 16.2837L89.8332 15.885Z"
          fill="#FF3358"/>
    <path d="M19.1015 12.9922L20.4655 15.885L23.6483 16.2837L21.3086 18.4711L21.9116 21.6105L19.1015 20.0686L16.2914 21.6103L16.8944 18.4711L14.5547 16.284L17.7373 15.8852L19.1015 12.9922Z"
          fill="#FF3358"/>
    <path d="M11.0547 31.2148H21.0633L21.0631 33.7082H17.3101V46.1747H14.8079V33.7082H11.0547V31.2148Z" fill="#FF3358"/>
    <path d="M33.5711 31.2148H31.069V37.4482H26.0646V31.2148H23.5625V46.1747H26.0646V39.9416H31.069V46.1747H33.5709V31.2156L33.5711 31.2148Z"
          fill="#FF3358"/>
    <path d="M43.5846 31.2148H46.0865L46.0867 43.6813L43.5846 46.1747H38.58L36.0781 43.6813V31.2148H38.5804V42.6592L39.606 43.6813H42.559L43.5846 42.6592V31.2148Z"
          fill="#FF3358"/>
    <path d="M58.5945 31.2148H56.0924V40.7643L51.0882 31.2397L48.5859 31.2148V46.1747H51.0882V36.6502L56.0924 46.1745H58.5943V31.2154L58.5945 31.2148Z"
          fill="#FF3358"/>
    <path fill-rule="evenodd" clip-rule="evenodd"
          d="M68.6083 31.2148L71.1104 33.7082V43.6813L68.6083 46.1747H61.1016V31.2148H68.6083ZM67.5825 43.6813H63.6041V33.7082H67.5823L68.6079 34.7305V42.6592L67.5825 43.6813Z"
          fill="#FF3358"/>
    <path d="M83.618 46.1747V43.6813H76.1115V39.9416H79.8647V37.4482H76.1115V33.7082H83.618V31.2148H73.6094V46.1747H83.618Z"
          fill="#FF3358"/>
    <path fill-rule="evenodd" clip-rule="evenodd"
          d="M93.6307 31.2148L96.1328 33.7082L96.133 37.4482L93.5308 39.9416L96.133 46.1747H93.4058L90.7535 39.9416H88.6271V46.1747H86.125V31.2148H93.6307ZM88.6265 37.448H92.6049L93.6303 36.4259V34.7305L92.6047 33.7082H88.6265V37.448Z"
          fill="#FF3358"/>
    <path d="M67.1754 23.4805L67.6946 24.5814L68.9058 24.7325L68.0155 25.5647L68.245 26.7595L67.1754 26.1731L66.1061 26.7595L66.3356 25.5652L65.4453 24.7331L66.6563 24.5814L67.1754 23.4805Z"
          fill="#FF3358"/>
</svg>
