<svg width="142" height="51" viewBox="0 0 142 51" fill="none" xmlns="http://www.w3.org/2000/svg">
<path d="M15.2266 25.5C15.2266 34.0268 15.2475 41 15.2753 41C15.3171 41 20.9944 39.9385 21.691 39.798L22.0532 39.7277V34.0338V28.3469H24.2126H26.3721V27.3066C26.3721 26.7372 26.393 25.254 26.4208 24.0027L26.4626 21.7392H24.2614H22.0532V19.2438V16.7483H24.5958C25.9959 16.7483 27.1383 16.7342 27.1383 16.7132C27.1383 16.6358 27.6956 10.6327 27.7304 10.3304L27.7722 10H21.4959H15.2266V25.5Z" fill="white"/>
<path d="M119.418 10.9066L113.859 11.3705V25.3732V39.3759L114.089 39.4111C114.291 39.4462 125.054 40.2335 125.27 40.2265C125.332 40.2265 125.353 39.4814 125.353 36.7469V33.2673H122.985H120.616V30.7367V28.2061H122.636H124.657V25.1834V22.1608H122.567H120.477V20.1574V18.154L120.637 18.1258C120.721 18.1047 121.431 18.0766 122.219 18.0485C123.006 18.0274 124.03 17.9923 124.503 17.9642L125.353 17.922V14.1753V10.4215L125.165 10.4286C125.054 10.4356 122.469 10.6465 119.418 10.9066Z" fill="white"/>
<path d="M83.7383 11.8749C83.808 12.5779 84.6021 23.1713 84.5882 23.1853C84.5812 23.1994 83.5572 20.6618 82.3103 17.5477C81.0704 14.4336 80.0255 11.8538 79.9976 11.8046C79.9558 11.7273 78.0332 12.0858 74.8777 12.7606L74.5781 12.8239V24.9076V36.9912H77.678H80.7778L80.743 36.4851C80.6733 35.5432 80.4156 27.7545 80.4435 27.4452C80.4643 27.1711 80.6733 27.6491 82.6517 32.4713C83.8498 35.4026 84.8668 37.8277 84.8947 37.8699C84.9365 37.9121 85.9048 37.8488 87.5487 37.7082C88.9767 37.5817 90.147 37.4692 90.147 37.4622C90.154 37.4552 90.1191 32.3869 90.0704 26.201C90.0216 20.015 89.9798 14.1736 89.9798 13.2105L89.9729 11.4742H86.8382H83.6965L83.7383 11.8749Z" fill="white"/>
<path d="M34.6976 11.9092C30.532 12.1904 28.2402 15.0654 27.5158 20.8999C27.3695 22.109 27.3068 26.2142 27.4113 27.6482C27.7596 32.3017 29.0065 35.3244 31.2216 36.8638C32.4128 37.6863 34.2031 38.1291 35.9724 38.0237C37.9856 37.9112 39.3579 37.3348 40.5908 36.0906C41.6009 35.0713 42.1512 34.1153 42.6806 32.4845C43.419 30.2069 43.7534 26.8047 43.5862 23.2618C43.3981 19.2972 42.806 16.8298 41.587 14.9389C40.4236 13.1393 38.5846 12.0638 36.4391 11.9303C36.0978 11.9092 35.7356 11.8881 35.638 11.874C35.5405 11.867 35.1226 11.8811 34.6976 11.9092ZM35.6798 17.4344C36.1884 17.9897 36.4043 20.204 36.4043 24.9418C36.4043 30.7763 36.0421 33.2015 35.2479 32.6813C34.9066 32.4493 34.6489 31.3176 34.5235 29.4407C34.4329 28.07 34.4329 21.7926 34.5235 20.4781C34.6558 18.6223 34.8927 17.596 35.2479 17.35C35.443 17.2094 35.4778 17.2164 35.6798 17.4344Z" fill="white"/>
<path d="M44.4844 24.6848V37.4855H47.6817H50.8721L50.9139 36.5928C50.9418 36.0937 50.9975 34.4769 51.0393 32.9867C51.0811 31.4964 51.1369 30.1889 51.1647 30.0835C51.1995 29.9359 51.4991 30.8848 52.4186 34.0903C53.0873 36.403 53.6516 38.322 53.6794 38.3501C53.7352 38.4134 60.2692 37.8932 60.3389 37.8229C60.3598 37.7948 59.6353 35.4962 58.7297 32.6984L57.0858 27.6232L57.4341 27.3139C58.5904 26.2946 59.5447 24.3263 59.8164 22.3792C59.9348 21.5286 59.8582 19.4198 59.6771 18.6395C58.9805 15.5817 57.1345 13.2057 54.78 12.32C53.756 11.9404 53.8396 11.9474 48.9983 11.9193L44.4844 11.8912V24.6848ZM51.6663 17.9506C52.1608 18.1966 52.5649 18.8293 52.7808 19.7009C52.9271 20.2844 52.9062 22.1331 52.746 22.7236C52.4465 23.8343 51.917 24.481 51.1229 24.727L50.9627 24.7692V21.2545V17.7327L51.1926 17.7819C51.311 17.803 51.5269 17.8803 51.6663 17.9506Z" fill="white"/>
<path d="M60.0156 15.236V18.5047H61.7919H63.5683V27.9242V37.3438H66.9119H70.2556V28.4866V19.6295H72.0667H73.8779V16.3608V13.092L73.7246 13.0639C73.5783 13.0288 60.2943 11.9603 60.1062 11.9673C60.0365 11.9673 60.0156 12.6703 60.0156 15.236Z" fill="white"/>
<path d="M91.4375 25.4329V38.1914H94.8856H98.3338V25.4329V12.6744H94.8856H91.4375V25.4329Z" fill="white"/>
<path d="M106.199 13.5564C102.423 13.7603 99.2818 13.929 99.2191 13.929C99.1007 13.936 99.0938 14.1399 99.0938 17.2399V20.5437H100.87H102.646V29.7875V39.0312H106.025H109.403V29.4009V19.7705H111.284H113.165V16.4666C113.165 14.646 113.144 13.1698 113.116 13.1698C113.081 13.1768 109.975 13.3455 106.199 13.5564Z" fill="white"/>
</svg>
