<svg width="62" height="62" viewBox="0 0 62 62" fill="none" xmlns="http://www.w3.org/2000/svg">
<path d="M17.1201 27.0397L0.0078125 24.2344V41.2905L17.1201 38.4853V27.0397Z" fill="white"/>
<path d="M25.6916 27.0469H19.9688V38.4363H25.6916V27.0469Z" fill="white"/>
<path d="M38.4932 17.1123L41.2983 0H24.2422L27.0475 17.1123H38.4932Z" fill="white"/>
<path d="M38.4365 19.9766H27.0469V25.6993H38.4365V19.9766Z" fill="white"/>
<path d="M32.7731 28.7227L28.7266 32.7692L32.7731 36.8158L36.8197 32.7692L32.7731 28.7227Z" fill="white"/>
<path d="M39.8359 47.8629L49.8788 62.0016L61.9977 49.8827L47.859 39.8398L39.8359 47.8629Z" fill="white"/>
<path d="M41.827 33.7852L33.7734 41.8387L37.82 45.8854L45.8736 37.8319L41.827 33.7852Z" fill="white"/>
</svg>
