<svg display="none" xmlns="http://www.w3.org/2000/svg">
	<symbol id="search" viewBox="0 0 24 24">
		<path
			d="M21 21L15.8033 15.8033M15.8033 15.8033C17.1605 14.4461 18 12.5711 18 10.5C18 6.35786 14.6421 3 10.5 3C6.35786 3 3 6.35786 3 10.5C3 14.6421 6.35786 18 10.5 18C12.5711 18 14.4461 17.1605 15.8033 15.8033Z"
			stroke-width="1.5" stroke-linecap="round" stroke-linejoin="round" />
	</symbol>

	<symbol id="globe" viewBox="0 0 24 24">
		<path
			d="M12 21C16.1926 21 19.7156 18.1332 20.7157 14.2529M12 21C7.80742 21 4.28442 18.1332 3.2843 14.2529M12 21C14.4853 21 16.5 16.9706 16.5 12C16.5 7.02944 14.4853 3 12 3M12 21C9.51472 21 7.5 16.9706 7.5 12C7.5 7.02944 9.51472 3 12 3M12 3C15.3652 3 18.299 4.84694 19.8431 7.58245M12 3C8.63481 3 5.70099 4.84694 4.15692 7.58245M19.8431 7.58245C17.7397 9.40039 14.9983 10.5 12 10.5C9.00172 10.5 6.26027 9.40039 4.15692 7.58245M19.8431 7.58245C20.5797 8.88743 21 10.3946 21 12C21 12.778 20.9013 13.5329 20.7157 14.2529M20.7157 14.2529C18.1334 15.6847 15.1619 16.5 12 16.5C8.8381 16.5 5.86662 15.6847 3.2843 14.2529M3.2843 14.2529C3.09871 13.5329 3 12.778 3 12C3 10.3946 3.42032 8.88743 4.15692 7.58245"
			stroke-width="1.5" stroke-linecap="round" stroke-linejoin="round" />
	</symbol>

	<symbol id="arrow-top" viewBox="0 0 24 24">
		<path d="M4.5 10.5L12 3M12 3L19.5 10.5M12 3V21" stroke-width="1.5" stroke-linecap="round" stroke-linejoin="round" />
	</symbol>

	<symbol id="social1" viewBox="0 0 22 17">
		<path
			d="M18.6361 1.42375C17.212 0.758625 15.6893 0.275242 14.0973 0C13.9018 0.352851 13.6734 0.827443 13.5159 1.20498C11.8236 0.95093 10.1469 0.95093 8.48573 1.20498C8.32828 0.827443 8.09468 0.352851 7.89742 0C6.30374 0.275242 4.77928 0.760401 3.35518 1.42727C0.482756 5.76019 -0.29591 9.98549 0.0934236 14.1508C1.99856 15.571 3.84488 16.4337 5.66003 16.9983C6.1082 16.3825 6.50791 15.728 6.85225 15.0382C6.19644 14.7895 5.56832 14.4825 4.97482 14.1261C5.13227 14.0097 5.28628 13.8879 5.43508 13.7627C9.05501 15.4528 12.9882 15.4528 16.5648 13.7627C16.7154 13.8879 16.8694 14.0097 17.0251 14.1261C16.4299 14.4842 15.8 14.7912 15.1442 15.04C15.4886 15.728 15.8865 16.3843 16.3364 17C18.1533 16.4355 20.0014 15.5728 21.9065 14.1508C22.3633 9.32214 21.1261 5.13565 18.6361 1.42375ZM7.34541 11.5892C6.25874 11.5892 5.36759 10.5765 5.36759 9.34331C5.36759 8.11012 6.23972 7.0957 7.34541 7.0957C8.45114 7.0957 9.34226 8.10835 9.32323 9.34331C9.32495 10.5765 8.45114 11.5892 7.34541 11.5892ZM14.6545 11.5892C13.5678 11.5892 12.6767 10.5765 12.6767 9.34331C12.6767 8.11012 13.5488 7.0957 14.6545 7.0957C15.7602 7.0957 16.6514 8.10835 16.6323 9.34331C16.6323 10.5765 15.7602 11.5892 14.6545 11.5892Z" />
	</symbol>

	<symbol id="social2" viewBox="0 0 21 14">
		<path
			d="M11.4378 14C4.2629 14 0.170518 8.74474 0 0H3.594C3.71206 6.41842 6.36158 9.13714 8.46027 9.6977V0H11.8445V5.53553C13.917 5.2973 16.0941 2.77477 16.8287 0H20.2129C19.6488 3.41942 17.2878 5.94194 15.6089 6.97898C17.2878 7.81982 19.9769 10.02 21 14H17.2747C16.4746 11.3373 14.481 9.27728 11.8445 8.997V14H11.4378Z" />
	</symbol>

	<symbol id="social3" viewBox="0 0 20 16">
		<path fill-rule="evenodd" clip-rule="evenodd"
			d="M1.36937 6.90067C6.73698 4.64981 10.3103 3.15417 12.1046 2.42856C17.2115 0.370208 18.285 0.0148083 18.9751 0C19.1285 0 19.4659 0.0296168 19.6959 0.207316C19.8799 0.355399 19.926 0.547908 19.9566 0.695991C19.9873 0.844074 20.018 1.15505 19.9873 1.39198C19.7112 4.20556 18.515 11.0322 17.9016 14.1715C17.6409 15.5043 17.1348 15.9485 16.644 15.993C15.5705 16.0818 14.7577 15.3118 13.7302 14.6602C12.1046 13.6384 11.1998 13.0017 9.62015 11.9947C7.79516 10.8397 8.97604 10.2029 10.0189 9.16634C10.2949 8.89979 15.0031 4.75347 15.0951 4.38326C15.1104 4.33883 15.1104 4.16113 15.0031 4.07228C14.8957 3.98343 14.7424 4.01305 14.6197 4.04267C14.451 4.07228 11.8745 5.73081 6.85967 9.00345C6.12354 9.49212 5.46409 9.72905 4.86598 9.71425C4.20654 9.69944 2.94898 9.35885 1.99815 9.06268C0.847949 8.70728 -0.0722116 8.51477 0.00446848 7.89282C0.0504765 7.56704 0.510557 7.24126 1.36937 6.90067Z" />
	</symbol>

	<symbol id="close" viewBox="0 0 24 24">
		<path d="M6 18L18 6M6 6L18 18" stroke-width="1.5" stroke-linecap="round" stroke-linejoin="round" />
	</symbol>



</svg>