<svg display="none" xmlns="http://www.w3.org/2000/svg">
	<symbol id="search" viewBox="0 0 24 24">
		<path
			d="M21 21L15.8033 15.8033M15.8033 15.8033C17.1605 14.4461 18 12.5711 18 10.5C18 6.35786 14.6421 3 10.5 3C6.35786 3 3 6.35786 3 10.5C3 14.6421 6.35786 18 10.5 18C12.5711 18 14.4461 17.1605 15.8033 15.8033Z"
			stroke-width="1.5" stroke-linecap="round" stroke-linejoin="round" />
	</symbol>

	<symbol id="globe" viewBox="0 0 24 24">
		<path
			d="M12 21C16.1926 21 19.7156 18.1332 20.7157 14.2529M12 21C7.80742 21 4.28442 18.1332 3.2843 14.2529M12 21C14.4853 21 16.5 16.9706 16.5 12C16.5 7.02944 14.4853 3 12 3M12 21C9.51472 21 7.5 16.9706 7.5 12C7.5 7.02944 9.51472 3 12 3M12 3C15.3652 3 18.299 4.84694 19.8431 7.58245M12 3C8.63481 3 5.70099 4.84694 4.15692 7.58245M19.8431 7.58245C17.7397 9.40039 14.9983 10.5 12 10.5C9.00172 10.5 6.26027 9.40039 4.15692 7.58245M19.8431 7.58245C20.5797 8.88743 21 10.3946 21 12C21 12.778 20.9013 13.5329 20.7157 14.2529M20.7157 14.2529C18.1334 15.6847 15.1619 16.5 12 16.5C8.8381 16.5 5.86662 15.6847 3.2843 14.2529M3.2843 14.2529C3.09871 13.5329 3 12.778 3 12C3 10.3946 3.42032 8.88743 4.15692 7.58245"
			stroke-width="1.5" stroke-linecap="round" stroke-linejoin="round" />
	</symbol>

	<symbol id="arrow-top" viewBox="0 0 24 24">
		<path d="M4.5 10.5L12 3M12 3L19.5 10.5M12 3V21" stroke-width="1.5" stroke-linecap="round" stroke-linejoin="round" />
	</symbol>

	<symbol id="social1" viewBox="0 0 22 17">
		<path
			d="M18.6361 1.42375C17.212 0.758625 15.6893 0.275242 14.0973 0C13.9018 0.352851 13.6734 0.827443 13.5159 1.20498C11.8236 0.95093 10.1469 0.95093 8.48573 1.20498C8.32828 0.827443 8.09468 0.352851 7.89742 0C6.30374 0.275242 4.77928 0.760401 3.35518 1.42727C0.482756 5.76019 -0.29591 9.98549 0.0934236 14.1508C1.99856 15.571 3.84488 16.4337 5.66003 16.9983C6.1082 16.3825 6.50791 15.728 6.85225 15.0382C6.19644 14.7895 5.56832 14.4825 4.97482 14.1261C5.13227 14.0097 5.28628 13.8879 5.43508 13.7627C9.05501 15.4528 12.9882 15.4528 16.5648 13.7627C16.7154 13.8879 16.8694 14.0097 17.0251 14.1261C16.4299 14.4842 15.8 14.7912 15.1442 15.04C15.4886 15.728 15.8865 16.3843 16.3364 17C18.1533 16.4355 20.0014 15.5728 21.9065 14.1508C22.3633 9.32214 21.1261 5.13565 18.6361 1.42375ZM7.34541 11.5892C6.25874 11.5892 5.36759 10.5765 5.36759 9.34331C5.36759 8.11012 6.23972 7.0957 7.34541 7.0957C8.45114 7.0957 9.34226 8.10835 9.32323 9.34331C9.32495 10.5765 8.45114 11.5892 7.34541 11.5892ZM14.6545 11.5892C13.5678 11.5892 12.6767 10.5765 12.6767 9.34331C12.6767 8.11012 13.5488 7.0957 14.6545 7.0957C15.7602 7.0957 16.6514 8.10835 16.6323 9.34331C16.6323 10.5765 15.7602 11.5892 14.6545 11.5892Z" />
	</symbol>

	<symbol id="social2" viewBox="0 0 21 14">
		<path
			d="M11.4378 14C4.2629 14 0.170518 8.74474 0 0H3.594C3.71206 6.41842 6.36158 9.13714 8.46027 9.6977V0H11.8445V5.53553C13.917 5.2973 16.0941 2.77477 16.8287 0H20.2129C19.6488 3.41942 17.2878 5.94194 15.6089 6.97898C17.2878 7.81982 19.9769 10.02 21 14H17.2747C16.4746 11.3373 14.481 9.27728 11.8445 8.997V14H11.4378Z" />
	</symbol>

	<symbol id="social3" viewBox="0 0 20 16">
		<path fill-rule="evenodd" clip-rule="evenodd"
			d="M1.36937 6.90067C6.73698 4.64981 10.3103 3.15417 12.1046 2.42856C17.2115 0.370208 18.285 0.0148083 18.9751 0C19.1285 0 19.4659 0.0296168 19.6959 0.207316C19.8799 0.355399 19.926 0.547908 19.9566 0.695991C19.9873 0.844074 20.018 1.15505 19.9873 1.39198C19.7112 4.20556 18.515 11.0322 17.9016 14.1715C17.6409 15.5043 17.1348 15.9485 16.644 15.993C15.5705 16.0818 14.7577 15.3118 13.7302 14.6602C12.1046 13.6384 11.1998 13.0017 9.62015 11.9947C7.79516 10.8397 8.97604 10.2029 10.0189 9.16634C10.2949 8.89979 15.0031 4.75347 15.0951 4.38326C15.1104 4.33883 15.1104 4.16113 15.0031 4.07228C14.8957 3.98343 14.7424 4.01305 14.6197 4.04267C14.451 4.07228 11.8745 5.73081 6.85967 9.00345C6.12354 9.49212 5.46409 9.72905 4.86598 9.71425C4.20654 9.69944 2.94898 9.35885 1.99815 9.06268C0.847949 8.70728 -0.0722116 8.51477 0.00446848 7.89282C0.0504765 7.56704 0.510557 7.24126 1.36937 6.90067Z" />
	</symbol>

	<symbol id="close" viewBox="0 0 24 24">
		<path d="M6 18L18 6M6 6L18 18" stroke-width="1.5" stroke-linecap="round" stroke-linejoin="round" />
	</symbol>


	<symbol id="burger" viewBox="0 0 24 24">
		<path d="M3.75 6.75H20.25M3.75 12H20.25M3.75 17.25H20.25" stroke-width="1.5" stroke-linecap="round"
			stroke-linejoin="round" />
	</symbol>

	<symbol id="prev" viewBox="0 0 24 24">
		<path d="M14 18L8 12L14 6" stroke-width="1.5" stroke-linecap="round" stroke-linejoin="round" />
	</symbol>

	<symbol id="next" viewBox="0 0 24 24">
		<path d="M10 18L16 12L10 6" stroke-width="1.5" stroke-linecap="round" stroke-linejoin="round" />
	</symbol>

	<symbol id="web" viewBox="0 0 24 24">
		<path
			d="M13.5 6H5.25C4.00736 6 3 7.00736 3 8.25V18.75C3 19.9926 4.00736 21 5.25 21H15.75C16.9926 21 18 19.9926 18 18.75V10.5M7.5 16.5L21 3M21 3L15.75 3M21 3V8.25"
			stroke-width="1.5" stroke-linecap="round" stroke-linejoin="round" />
	</symbol>

	<symbol id="arrow-right" viewBox="0 0 20 20">
		<path d="M6.875 3.75L13.125 10L6.875 16.25" stroke-width="1.5" stroke-linecap="round" stroke-linejoin="round" />
	</symbol>
	<symbol id="arrow-left" viewBox="0 0 20 20">
		<path d="M13.125 3.75L6.875 10L13.125 16.25" stroke-width="1.5" stroke-linecap="round" stroke-linejoin="round" />
	</symbol>

	<symbol id="arrow-bottom" viewBox="0 0 24 24">
		<path d="M19.5 8.25L12 15.75L4.5 8.25" stroke-width="1.5" stroke-linecap="round" stroke-linejoin="round" />
	</symbol>

	<symbol id="admin1" viewBox="0 0 24 24">
		<path
			d="M19.5 14.25V11.625M10.125 2.25H8.25M8.25 15H15.75M8.25 18H12M10.5 2.25H5.625C5.00368 2.25 4.5 2.75368 4.5 3.375V20.625C4.5 21.2463 5.00368 21.75 5.625 21.75H18.375C18.9963 21.75 19.5 21.2463 19.5 20.625V11.25C19.5 6.27944 15.4706 2.25 10.5 2.25Z"
			stroke-width="1.5" stroke-linecap="round" stroke-linejoin="round" />
	</symbol>


	<symbol id="admin2" viewBox="0 0 24 24">
		<path
			d="M10.3426 3.94002C10.433 3.39756 10.9023 2.99997 11.4523 2.99997H12.5462C13.0962 2.99997 13.5655 3.39756 13.6559 3.94002L13.8049 4.83383C13.8756 5.2581 14.1886 5.59835 14.5858 5.76329C14.9832 5.92829 15.4396 5.90625 15.7897 5.65614L16.5273 5.1293C16.9748 4.80966 17.5878 4.86039 17.9767 5.24926L18.7502 6.02281C19.1391 6.41168 19.1898 7.02469 18.8702 7.4722L18.3432 8.21003C18.0931 8.56009 18.0711 9.0163 18.236 9.4136C18.4009 9.81075 18.7411 10.1236 19.1652 10.1943L20.0592 10.3433C20.6017 10.4337 20.9993 10.903 20.9993 11.453V12.547C20.9993 13.0969 20.6017 13.5662 20.0592 13.6566L19.1654 13.8056C18.7411 13.8763 18.4009 14.1892 18.236 14.5865C18.071 14.9839 18.093 15.4402 18.3431 15.7904L18.8698 16.5278C19.1895 16.9753 19.1388 17.5883 18.7499 17.9772L17.9763 18.7507C17.5875 19.1396 16.9745 19.1903 16.5269 18.8707L15.7893 18.3438C15.4393 18.0938 14.983 18.0717 14.5857 18.2367C14.1885 18.4016 13.8756 18.7418 13.8049 19.166L13.6559 20.0599C13.5655 20.6024 13.0962 21 12.5462 21H11.4523C10.9023 21 10.433 20.6024 10.3426 20.0599L10.1936 19.1661C10.1229 18.7418 9.80999 18.4016 9.41275 18.2367C9.01535 18.0717 8.55902 18.0937 8.20887 18.3438L7.47125 18.8707C7.02374 19.1903 6.41073 19.1396 6.02186 18.7507L5.24831 17.9772C4.85944 17.5883 4.80871 16.9753 5.12835 16.5278L5.65539 15.7899C5.90543 15.4399 5.92747 14.9837 5.76252 14.5863C5.59764 14.1892 5.25746 13.8763 4.83329 13.8056L3.93932 13.6566C3.39686 13.5662 2.99927 13.0969 2.99927 12.547V11.453C2.99927 10.903 3.39686 10.4337 3.93932 10.3433L4.83312 10.1943C5.2574 10.1236 5.59765 9.81068 5.76259 9.41344C5.92759 9.01602 5.90556 8.55967 5.65544 8.20951L5.12875 7.47213C4.8091 7.02462 4.85983 6.41161 5.2487 6.02274L6.02225 5.24919C6.41112 4.86033 7.02413 4.80959 7.47164 5.12924L8.20924 5.65609C8.55931 5.90615 9.01555 5.92819 9.41287 5.76323C9.81004 5.59834 10.1229 5.25816 10.1936 4.83397L10.3426 3.94002Z"
			stroke-width="1.5" stroke-linecap="round" stroke-linejoin="round" />
		<path
			d="M15 12C15 13.6568 13.6568 15 12 15C10.3431 15 8.99997 13.6568 8.99997 12C8.99997 10.3431 10.3431 8.99999 12 8.99999C13.6568 8.99999 15 10.3431 15 12Z"
			stroke-width="1.5" stroke-linecap="round" stroke-linejoin="round" />
	</symbol>


	<symbol id="admin3" viewBox="0 0 24 24">
		<path
			d="M15.75 9V5.25C15.75 4.00736 14.7426 3 13.5 3L7.5 3C6.25736 3 5.25 4.00736 5.25 5.25L5.25 18.75C5.25 19.9926 6.25736 21 7.5 21H13.5C14.7426 21 15.75 19.9926 15.75 18.75V15M18.75 15L21.75 12M21.75 12L18.75 9M21.75 12L9 12"
			stroke-width="1.5" stroke-linecap="round" stroke-linejoin="round" />
	</symbol>

</svg>